<mxfile host="app.diagrams.net" modified="2023-10-26T12:57:45.386Z" agent="Mozilla/5.0 (Windows NT 10.0; Win64; x64; rv:109.0) Gecko/20100101 Firefox/118.0" etag="frHL13oyfjDfqwCSHvBX" version="22.0.8" type="github">
  <diagram name="Страница — 1" id="dU06bKDRXrg12-IJnB3v">
    <mxGraphModel dx="1434" dy="754" grid="1" gridSize="10" guides="1" tooltips="1" connect="1" arrows="1" fold="1" page="1" pageScale="1" pageWidth="850" pageHeight="1100" math="0" shadow="0">
      <root>
        <mxCell id="0" />
        <mxCell id="1" parent="0" />
        <mxCell id="8GsPA1i8GMfUZvYTDuRH-1" value="" style="shape=image;verticalLabelPosition=bottom;labelBackgroundColor=default;verticalAlign=top;aspect=fixed;imageAspect=0;image=data:image/png,iVBORw0KGgoAAAANSUhEUgAAA9cAAAIvCAYAAAEJxhh/AAAAAXNSR0IArs4c6QAAAARnQU1BAACxjwv8YQUAAAAJcEhZcwAADsMAAA7DAcdvqGQAAP+lSURBVHhe7J0FnBxF+vffgzv8z3EcHiBAkAMSEkiCSyAESYi7u3sCcXdX4p4Qd3fb6Mbd3d1dqHd+T/fTU9PbPTuzkt2deb77ebarqmvaqp96qqpL/p8SwoZEndgPPfSQ+n//L34vMTbH//zzz1XGjBlNnzuIc+bMGdOXcCQZzf7777/Vww8/TIlTtWpVtXnzZnOPwYYNG2gfy5UrV8w9XgoWLEhb7K9YsSK5dfi3adOmVf/4xz/onDp9+/al7YULF6y4SMjWrVtTOFizZg2FA2y/+eYbirN27VoKS0iSTGIDfsBuLFu2TPXs2dP0RYV/27x5c9rawf78+fNbbp2PP/7YdBnwtSAh7XF1/5YtW6zEbtiwoRmaMLg/OcEHe4ImRaK9g1atWtH2zz//pO2xY8doi2yuWbNm1hsukvjEjmi2h/S/lFXr1q1TazxZbZux/dTvgzqYe0ILSWwPSOyJU2dTgj/yyCNmaGjw1ltvWVouie0BiZ3i84IhmdhI6C+//NJw0/8wB4n93IfZKbFB3Vb9aBsKtGvXTt2+fZvcktge7In9cprctA01JLE96ImN7Sc/lTP3hBaS2B7smg13qDB58mQSYCX2+fPn1eOPP276wgs9sTMV+F31GjLF3BNahK1mI3FXrd+u5i5ZQ4n9fMoclmbPXZLw7djxASW2W4tLKNPMvN8Bn35Kid2931+U2Ol/rRBS2bhO2Gp29erVSVAtQWIvXrIsJG327NmzSUBYJzbYu3evejl1LpW/bCMrsdP8WIa2oUDmzJlNl5bYr7/+uukKHzjBoclcQGONDxUeffTRqM2lixYtMl2hC3q+jBgxgrbgmWeeoa09sUMJfIcP27ZxTkw8AHyuXbx4cZTErlWrFsUJBXCf1apVM9z030Niz8ZfLfadajbyT5W/XU0zJHjsWotjglDW7F69epmuJKTZeENj2+jD1S1sP66agxL7zKULIZ3YOlZiJ3T/qOj4tXAd0xVzkMiQW5cuWVqNbVwkNn7fY9BENXbaYjMk8ZFkNDtnqca0HT99iZo/f74qUqQI+XXmLF5DD90fXFjhxAZ6c2lME1t/edDJ8PLly+RPaBJ1PfuD70qoDzOUNH1evs1ZjZo0QbZs2dStW7fIrYOELFSokOnzj7/Erlu3rrnHP/hNg7YDPfX03NZL9t7XRcl9+Nhp8icGbt68SVtK7KZNm5IkFKgKtWzZkrZ4UPzgwPjx42mLxObwfv36qfTp05Pbjl4gAeOa5FI7IybR9rPPPqMXIk+ePJTY2VtUoi0SGw0rnNhO2t2tWzfaLtmyhrZtxxkdHN4t+4vafGAXXdsLqXJSWPL0BWj75mcF1SfVcqlDp4+pTZ44hTv+odJ6/A8S3C9kxYoVXs3euHGj6Yo5WYrUoy9G585fMkMM3vi0gMqYz6jOjI2YpVqP7avS/VJevfpJXlWhbhd6UKMmL6D9b3keEG/1BEFi795/hPYB1my0gN24cYPcOo899pjpUurDir+p+/fvq2TJkpEfW3ti127SlRIbOCU24kEAm4IxS2fSFuH6S4rtK2YHCLTGla6VcB0Y//Wvf6nDhw+TO9bZODrlDxkyRG3dulW9VepHNXLxNJW6SlS72b7XaNqiIYO0q41R99t0YKf1kPCywJ0hdw3y2x8gu8H7779vurzoCcJu3Q8tZLcejsRetWq1ldhXr16lrZ17nhemZEnDxLz55pvW9axYs9X1WsvU7kjbzdv30ZbBeV8zr2HBggVq6NCh5HYCOUbf4dMshQiGCRMmqJQpU5LbSmx+W4Plr7/+on5Offr0sbIMgJdAH13B4R9mKEEP4vMslcj/WZaKrg8K2859x1luDtcbPVqP6atu3vba78r1u1F9HGRtXoG2zz33HG05gYE9sZHQnNjM4iZNSBicH9d9/qIxtEi/Jje3bn4Au9Fd+bu63kImXt5NmzZRRwOuYnIOo1cZX/CUW9r1HKW27NhPYcFgpfCAAQNMV3Cg7RUg27TfmK599hvGQ+MwbItVa2u59XB268fGcfVjd+ozlra8n1+k19LmpS2XRvUEhrxb9mefxF61OpL2M/pLqh+b3di27DrccjNw63F0d9Gqxriwcxe8pXXYUwY2vVwPo+YxePBgGkfGv2/ScQhd78kLZ9Sc9ctUvXr1qPyBkv/o0aPVu+++S/HcsBLbjRMDuqlbRw+ZPi+7yxgFDf3Bv+Qp5PCF6eGwy8k89hnMmL9KXb5y3UoQ/WG8kCqH5R40eha5+wybSn4kto6e2PwbADcfm+FEazGql8fMTPdJdMCJXalOe/Iz75fPrIp39pbM9WPDzed1c9+7d5+u+5OfypIf8D6gu3E/OHapmsY16MfR3eDSJaNM9FHlbKrDhIFkNlN8UVid114gJ6JNbCF0sBKbsyshdAkosT/66CNVrpxv91oU6QOlQwf3qgf3fIwpKDljqO6DIDqF2LFjh+mKyr///W/TFT3+nsnPP/9suoJX0AeizjwiwYnYJjZwa2BhSpQooe7evWv6YsZ//vOfaB+uv3vhxMbI1+gIJrFr1gz8K+ADSWwhcRB0Ym/48m3arnrV6O3BJUXI9sVGnfjq+ZOqQtcZqkT7qP2vOS40hdm+eZin5HpbLZxdmYSZuXqPunL9lspcf6SPVumD7/hLFlg4uwr9nvuQ6deGRo2zZ7aqlUuaUBz9eFzHhuBcEIYn2ijRYYoVnr3xGJWlwSi6vlZ/RVAY9h04eZHcoN3o5apm77k+50GcrA1HkXvbwtHUjAva9hypClVqSc/kzp07JIs2HqR9+M3Soc3U4kGN1KbZQ3zuadf2MXQ/oHafuer85agtifr5LVfx4sVNlzsnh/ypzs8xEnBtqudp63Mw/QGu6qQ2RHYnNxK9cOuJ5K7Ra47nQY20skXIpGU7Vf8Z69XiTQfV2EY51J2b12nL+3VJnTp1lJfCTudkydSKjh1JcByArf4bHIvxl9gM4qOZde0qo0XsyuWjtF0V0ULt2PoXuXFfmIcF51o9oZvaMKO/ytZotJq8fKe6c/e+z0vaYewKlaeZoRw6lbrPVPUGLKDzoQkbwte9b/dU69rmr9vvcw+7V0xTeyNnmT4vZ8+eJQHe2DEkYpjnZpdOUBdPHKDE3b9nmrp584JaMtjzxpkT0OCi+MK2LhylFvSt46N9R48eVZGRkWruXF9NwD6ub+vt1XpiL1h/QG09YHxhYs0m98KF9Bto/d/37pFY+zxb1g6gJ/bIBVsoDJw9vdVT3vBtOkWbPsCHkzdK/qA6TRqsMtY3WgUBtjj+1SvH1IY1PVTjxo1V7dq1aR9a/tBQYufI1hVqzaQe5MbHIIzOQQtk/fr1aeYL/ZngRUKusGay0UoYDLFObB08XPTpsnP41CUSsHv7OLVudWd1au8mdWzHajWrq28DyKGNi9WqcV3UEk/WhYTiJsvX0uaj/d/nqUlv97gl28kP7LMa6egPCiyaazTOuCX2xas3VS1PlminsydR0brV4bnn1LYxY1SPFCnonqDN2N67e1MtmlNFXTi3m86Jli9sUTgcN26cevnll9WkWUaWDzCr0oOeQYmeBC7K/lASiho1alDWhXZiHST8hALGp8OLJ/arI1uM6tYijy2b+6fx4QT3wF+2nODExdc2gJwA6InNuVGwsLkY1zgntV/v2nuYtjoRWw6rWZF7Td+D4emnnzZdcazZ8QmyNHzO5B4gFy96C0PM4YgIEjd0beYsHeiJjexx48xB5p7AQRVoxowZatasqHYzsWAldmLvXVrfU2gZNHuD2n/ighkSlSNbl6t1U/uYvqhwQuP7OuDcTE9sFCadahFJFcxqxSQZzY4L9JI5cEps4FSFSaqgDMXlqLBKbNj9/QsWkOCLF+TGrZshndg6VmJ/9dVXpit00QuhnKVjqyf2hx9+mGgKq3EN3RVuLlRvUOeVNHmsLd9vhKdAF8qJzePZgHVXr732mukKD/Sqkp7YKKWvXJpwPW3jk9BXZxfw9alBgwbUUqUn9uplLc0YocE///lP0xXGia2jJ/aUEiXM0NAgbEvjbuiJvaBfYKNBkiJWYodDAc0NPbFvXb+sIoaHTlbu2KiCLqno+B6O6ImdJk0atX279yNLUgfjvHLkMBuR6L8HaPakScbH9HBDT+xQA+mKzhDkpv9hTigndoYMGdQPP/xAbkrshB7FmdCEcmKnSpVKffvtt+QWzfYQyom9c+dOGuIMJLE9hHJiw2ZzTUsS20OoJzYjie1BEjuMCOXEBjzPjCS2h1BObB4/DxwTW+/Mt3+/McKfx0oNGzaMtnr2kNQJ5cTWiX2KNWpkbJH4MX0BzGkwrK3DLBAYCQLsL1mKFClU0aJFTV/SeAn1iQQAJs99EMTNk9FXtt2923SY4OGvWmVsnzeGDFm4Jcwrr5gOgyeeeCJKIrIfyyyjr/m+ffusMH2mpIQCCejvxStTpgzt79Kli5XYWMrZ7T6xxegS+4uBgRl58xr94P2dD/jfGwjnz5sOD1mymI74ATeTJZ7P8SCJLnHimlifLRxsXagQL4mNNxYzE/Is9r1791bnzp2z3mQMzrf3Zi1cuLDpivrGJ0+enLJrgJkG7fsxNRfC3nvvPfLDDSlgDhcKJXBf+sQC+rPQ3U743xsAD1qzYZ9g24TgiXViC0mHRJ3Y0WVLsSWQ4+tx0Kc8KZNoE9tui65fv276jFmJsL4HwiF9+/Y193gpWLAgfd7DpPmIc+WKMQUlgxmW/vvf/5JbP5cOZoTicwAkNs9dqtO/f38rnr/JglAlDGaWqbgm0Se2/rAZnoUB4eg75wT2bdiwwaqD2sF+t8TmrreYyZj3YetvtEimTJkc99WpE/sVEOIK5ysXQhLHxOaZ553Qs1O8ySKJV+yEvWanyViKqo4Yzdlu/AA1bfUi9WkN56w/qSOJrSW2kzYkdfR7ksQO8cTWkcTWEhsCeBsKiGZrcGJXrNPeJ8FDEUlsM7Ht2h2KUGKH6xgvgMQeP2WWldigfpuYrZeSGNGns6bEDvWCiT+Q2Ck+L0iJnanA7yShSlhn49BkJDa2umaHalZuaXY4anfzhx6KkthpMpVRyT52bm9P6oStZuNjCsSe2JNnP5j1Rh4E+gq7gBK7bNmyYafZp06dckxswNtQw8rGw3WKDT2xWdshoUKUESEdO3Yk7Q51MJiAl8fAC44szp7YoYaeY1sut4/8oQr3dEFiz5yzwEpsLO2gL+waSlBiHzoUda3NxEbxzvWstTNjij4LEs9KjMRGQoeqZqPLFEOJ/eyzzyb6AhqWGY6La7xnzhwULomtQ08PDxEd8xIrqb4vRdvYlpIx3zgEXLx2Rb1WPIOV2KtXR8YqsXsNmUKrBCdm6M7Hjh2bqDX708wVaZs8vbH4er58+Wi9EB28CNPnr6TV693AOh5YKV6HE7tktZbWN4KYJjqbGXRk1GcWTEii1LMTEx98V0JVbWisccXoa1bPnz+f3NmyZaOtDq/E7wZeaPtLzYmt5xp16wY2f2nDdgPVh57rZfgYl69ej3UuFB/QnSf0PGht27a1ugTjIfGDQsK88847lNg3bxn9sTG2uU+fPlEWW+VEtPfLdltMDug2m8+pF2h0eLU91t69Jw6rMUtn0oLljJ7AH3xXnBZnB38tmkbbb+sUVtX6GivjPyj0e6b/Q4YMUU8++SQFxJTUGUv7bBmstMOr7eRqVVWNXjJDzVyzhNbWeuuzghQO9Ae1c+9h02U8XCQ27y9WrJjPlm+EE4F56aWXaHvs3Cn1WU1jATg7TontlIX3nTWG4l69afSs1c954/Ytcp+zrUqP46Gs0bX/eHLz8XmbEHhf8xiCdbUrVKigekwzBolnb+G7Al+yTwyNxRYPCcsYoPM93vJNB3aqbYcM26s/BP3BZCvewCexodnLly8nN0rovEWi4uFPWjlP5W1T3Sfx2Y3t57V8s/pAElv/Pc8WiAkAgH6tzA95jGWOi1dvS9uMeWup19MZLxy20yIXqTLdG1Ev1nr16ql58+apFStW0H4nps1boT7/zfe5xgRKbF3VgwUXy2tN6sfJnTu3GjNmDLkxDAfggfBqed/mrObzgHihPD0MwM82GyCxeZoKPREQj3/7evHv1eB5E1XqKr7HcsItsfWlIbHvtbTO182UqtXBCuctrrvbAKNAiLCPMxnrj4LkJX5Q6/duo3vp2rUrhWExWnQ2cFp0HSsWge27D6nsJWJWc6KUeffdd9UAh3lMAgXDbHBjnfqMJT8nBobL4CYvX7lGiQn3LY/tvXX7jno+ZXb1mZmICOcHVKJGO8vNW05s+HHsEydOWH49Lrv1BHn77bd9XuTPaxkahhcE4k+z+Xf6sd3cwO7GdXMC63F1t/7yzlm/TL1RMqM17Ehf8oHjgy0Hd9MkR2j+xdIXAHOURke06nx55RLT5eVShPGWgY8++oi2nCD7Dx2ni8fqsAAX+VLqXJabL9quIf7c9sQG2MLffaCxVDPcR4+fsdwQoOc2nMC62y2xy/dsoqasWkB1ceybMX8VheO63/7SO3EA/w7Y3fp187685ZqR+9gJY5lj3McHH3xAbj1eii8Kq/NmOeC9r4uqjPl8c892442CZKaGRts+/84fVmJ/8803pksIVSixn3rqKevtF0IXSmE9q4uOe/fuma7o4WMuWRLVFARCINflVJgJFtQmAr1/J37++Wd19epVGvMdHbxKcFwQ7MxRMb/DAMADvHDhQrQdI9za5b/44gua1M4feldZN7DSvD9wnStXrjR9wYPEBvaGHjuouQRKfHyroMQOx25J4UhAKRz5zlOmKypcEpzd3VhlHsse7jt+XlXoOkM1H77EKiVyPBb95Vq64A919cpx0+cLjoH6J6P/jr9iQbCs4pXLh9X61V2sc36ZtTK5X/woJ/kRR18kHaAkzrJ+zwnVcPAilbn+SJ9S+64j5yhs8/5TatKyHeQG2O45eo7ceZqNoy3ACvjYp183qp4Im7l6j8f9t4qc2INW9Mf1te050nomWLwFU1+dOHdFbT9k1C6W/dVaTWljtBgiHt/f8sWN1Ma1f6qcTcaoe/f/tq7LDevJBTrd1Pk5U9SRDo1Nnxf9xm7duqS2bOivtm4cpJZuPqSyNhylJizdQQ8TF7Rq+1G6MQjmJM3SYJSaFWm0pPEamYDj4NjsBssW1o2ScLobib+iY0e1e5rRJu0PPbEBrg+JwYnN8Ln182xa19tzLUbWXH/gAlXtT+8Xprm9aqr7nuN0n7RaTV2xy/o9OHb2sirdaZrqO32dT3id/vNVuS7TyY02/o0bN5L7/Nkd9EwBXqT56/f7PO8t80aow1uWqdk9qpohXs6ePUsCvGeKIVsXjlIL+tZR9+/dVvt2T1GRy1urcU1yqZ0Rk2gL+IYihrVQO5ZOUBdPHLDeTmhfr169rNmOr127RlswaPQsVb5OZ9PnrQMvW1RPLZpTzUoYbJEIly8dUvv3zKB4PC/K5OLF1d9mofL+fe9kcawhemKzZvDxALZ6grxsthmgvp2tRSXV5C/fL3Tg4L5Zaul8o16MLk4tWrSg7eDBg0n43rFdMqSJ2r1iqtoy/y+a1eKhhx6ifbivOXPmkFt/Jn/fv6dWjGpv+gIjZ04jZ6O7wKSpccHChQt9WqDA4VOXPJo7krbbNg1RB/bOUEcOLlQrR3dQu1dOpxXydDbNHqJWjzeaD7m5khsnXkubTzUZulgt2XSQEgTnQgENWz1BdPhrFbh396Y6djiC3DWbGl+k9MQGuZoarYB6grxR8gfVceIg9cegDpRrbBo6VO2ZMYPuCVk7WLuyo1qxxMjxcC34eoY2e3wjR0sXvyTYnjx5Uo0cOdJqCXxQ0BPCxT3H0z8nMNOnT7eyL6ZzsmRqQoECJGBnxES1eHATtWv5VLVmUk91Yvd6CndLcJ2vshllC5iZPTsn+CQ2mxDesqYHwp2b19W5o8aMzLv2HlYdexvfBRhkv795zBW2Dxp0OwPRP51EAOqw6CzIVRd77gGgcYcjItT1M0ahxolfCnnMja0ni57Y45vmUduXjPMpNwTKUI+2z/Boe2KGEjux9y69dO2mGjRrg/q97zwzJCooEB3bsVrtWua/3s3ZM3KBZJ4cQ0/sEu2nWBJKcK5NiZ0UepfGNU6JDYLJupMCYbt+Nr4J83dh/uoV6okNuD+BldhcPA9l9CoMGD5+XpTEDsUcjr9o0p3hBsMtG0crFbr7hkNicydMK7FDdXyTP84f22NL7L/Vjq1/+bSShRKU2EeOHFH//ve/KSBc4EKLnth6q1kogU6eILzybgf0xEZdPdSIUhpH11xukw039MSe3MroW8bbUCFKaTxc0RPb3lwaKvg0qqCA9rx9Nb0wQU/s5s2bU7NsqNZM6K7++usv+qQWjuiJHYqgS1hPc/lM6xUOt2k2mFBPbH1kKyV2Qo/iTEhCPbEBr/AXmsYpCEI9sbkkDiSxQzyx9cKmJHaIJzbgBJfEDoPE/u2332griR0Gic1IYodBYmPgJnBMbHsLErq9MvappZI64ZDYTNxrNr8oLVvi25rhDgaHpspGjRqZLl+4y/HUqVOt9l/MIMFvckIRyOdiq9DkcL/BUrlyYJ9kY3emJ55QymyKo0SaMsWbWEhsHt7LYd99h3Gmhp+Hru7bZ/h5q4HWH/2hQKZ4zoEt+pcz+gN75ZVXfPwJgZ7YmAUZ19OlSxfyO10bT5oLsG3c2Du8Sn9x+bh6XHy+fDCJHROCHFMMMOQWIyxKlTKmtUxqOCWwE1hfOz6JVWKHk70LBeI8sTHklOGBaa+//jptAc/pefjwYZU8eXJy481Hz0+Myzp3zhgCC/RsHNqdPbvRwV/nvffeM13GTIkcv3PnztboxVAh0BzCjQeu2eiYH1Nie7Phjjw9QQhBRLFjgN2aJFXrgmnR4wK3+8cEl27E1zNbu3at6QpvRLFjgNtLqYezWw/jeYwR9vvv3uVd4dcF8Pz/3HusWrVqtG+BOSwRcLcEnkTLKQ6DNkaGz+Gk2ChqY3YdjtOsWTPaMgjXhcNAoUKFaMtzReuKfeXKFVWiRIkov8mYMSNt2Q/q169PWz1MdwP4Ua+7fduYhZ6Pw4pdpEgRisPSu3dvCg8XfJ+WEDB4WT799FPaYkpmkDlzZpoaGHXLlmgr9oD9DE8XgTAoI+/Dtnz58rTlaSF4qkRWbKyRgWmlfvnlF6sZEfELFCigKlUyJpxxisMgLuYJ53MCu2Jj36BBg2jL8bDFGhrsx3W+/PLLpLQ8vSL2/fTTT5ablY0VG40nyMgw9TUfB2HIQFgheRrmihUrWnF4C3Q34LgPP/ww+fk4OPfTTz9NbsRp3bp1lN+GA0Hd8c2bN02XL2jZunHjBrk3b95MW8Y+EY4QukCBeDEBIWGJUVaGBORcUM8N9Unv2dJgNQTk8gBN2JizVkhcYG799L+UtVq9Mb9Qn8GioEmZ8CujCFFwUmxskWnrc0MKSQdRbMFHscvUbC2KnYRwW9JDFFvwUWwota7YdhGSBpJSQhTFfvPTApabgRsrRAuJiyZNmlCGa58wRRRbiKLYCxYttdzjZ3iX8hESH1Dq4cOHW8sGMKLYQhTFxpbdaX8uR3FEuRMnPPjCXk2KotirVq2SulSYwYpdrlabKIrNdO47TpQ7CeGowU8++aTpEkKNGr3mqFZ/Rah+09fRFqs+smJDce2KrQvW2BMSJzly+E6xayn2gQMHaNwjixCa6LOoTypShPy6Yn+fu5qjxQZ2v5DwRFvH3rVrF/UlZhFCE/RXt4uu2GvWrnW02Mk+zmMeQUhMBFTH7tu3L22ljh26QJHt6IrdtfdwR4sN96LlxmAXIfGgjxLUEQ0OQ2rWrEkKzt8+odhsmd/7uoijYgO7X0gcjBgxwnR5iaLYX3zxhapQoYLpE0IRjAvXS2W6YkNYsfXiOouQNPBRbIxjRYJjBTchaYNhtKyI2PJywr169VIpU6YkNys3K/anv5ZzVGwh8XL16lXT5Yul2EhkXYTgKdO9kUpTNXGs7AeFxOJzbrxT5mfT5VVsLn6LxU76+Ggw17n0qT+F4EkMmSM+Y0Fa/POfakqJEmaoUvc9afxqse8sAdEptpB4wcKaeNf06YGBz9vnL4cXoufr7FXVO18WIfnkp7Jq7aZd5p4Hj33Vb/brCo1tnjbG567EpNiYmKNOnTokgn+g1NJXPJ5J9X0p9WvhOlTygYJcu+6dSmrIkCG0kNaDtuT287FSg2mrF5Efiv1CqhyWYvfoN9JSbJ67DTwoJS/aqY56vcT36vNa+dXhMycoDNd58dpldeL8GbV8+3qf+whnAvqOjVkuwYN++UKFz7NUUt/mNJ4hirxQEoBJBoNdh1xfLSGm4Pc8SSDjpBBQbHzHZsVO/UNJcgNW5kOHDsW5YiOjg7XRr69qw+6mS6nmnYdZflyXLoJ/RIOjQX+JUmcsrZKnN9YYf+ihh1Tu3LlV8+bNVYcOHcivKzZ+17anscbd+++/7yPRfU585pln1KOPPmp9pYgp+O2MGTOCVmyIrtjIHLA9deoUhbmB3/UaMkV16Rf9gBHsX75mq8pZqpH6JkdVM9T3eTu5sU3zYxlyg9WrV6sUKVKoJ554Qu3du5fCUO1Y16+f2jZmjFrfv7/qnz49hYcTYanYsJ542fUXXn+J9hw46vMigRs3b/nEuXj1svq+XnH1WvEMKnsLY/pfVmzE0+NCmRm4sb4ReCFlDrVz72E1ctJ8laVoPTVt3goKf7fsL6SApbs3pO3oJTMo/MSJE5SBQOnh1rFbU3uGwH5WbFwz3BBdsTPlq0HXzoo9b948OnYg1hrL5L3wwgvUF8KemXSYMFCNXjpTvVkyo/q2ThEKcyrF8HPDdtRk7/zo+vOE+8rV61T1gVsXpniXenSeT2vkpaJ9KGNvOAM+qX/p0iUa2ZU1a1YzJOEYtmCySlUpq3qj5A+qXA/vmoRO6AmbMkNJM9QALxiUgRcF43ow+OiHUipTfqNL3q+FvImPujH79ZcF7ppN/yT3G58WIEnxeSFVokY7CoNi/++bYhSvbqt+FAbsio35tBlcH2c0DCvf9Vs31dUb1y0/4kBpPv/8cys+ntGPDbz3/F65X0yXcRyWA6eOWWHATbGHjJxE18+KDaDU9oUDnOBjQ13/Nv8ArhVFbnxD5+vWn2uHXqMtP7YsOvr+U2eMmW71tEQ4Gi/ZDcr+3km9kConucFLqXOp9n+OUu08ksqT9j0GTTL3JF1QRXLCepsSanTXBx98oHbv3q169OhBC5Hu2LHD3GO8EPwiMGj9O3jwYJRwLDyKFSQ+/vhjM8T3JeHELlSppSpe3Xt/KAbu2HPY2v9TgT8sN2A3tjdvGRPhg2SfeAdFvOVR7m9yVCPFRjxuPGNYsbHFuqEMKwJz+66R89rPf/fePVV3SCf1VqkfzVAvi7dEWse5d/+e5bYfu9cMo1pgD4dfV2wIzmlXbB08+4kTJ6qff/7Zp6ivF6nh/j5PTZ/qCTJCvjfePu8ptdjvl2X9lj1mqG84Y6/68D49DtzvflWE3Pq9w83+NGnSkHzyySfUtgHQ8QODof744w9a7BZu7gwyevRoWhgCCyAwmHr75MmT6syZM2rfvn3qX//6l7knfvnoo48c9cTHd+vWLdP1YMFFbdq0iepJQE+wpas2WQmFRqj169eTG0t5wg+i3JTp598dPXHGcvOx0QpsfwFYLl02emkBPVwH/lu37/iE49ifZalIboR36jOW3FBoFn3JUP23cOP37La/8KBY57rWCwm5dN3b68ieuPzSAo7P7u/qel90SLCKjSI3FHvy5Mm0Vv5bb71F4fjdpFkRPtfNzxthh4956+jws0RuMJYqAvzbmQtWW24A9659R2h7964xM6d+bH0+Nvhv37nr83vAflyHvo8zXryD7EYp6JcmZcm9ZOsakpU7NqiL166oXK2qqLKeUiTSI0dLY4w6P19QrmcTEvCyp5SAalzt5r1VyZrt1cEjJyk8rkCaN2jQgLZ4t/j98tGIWrVqma7AubxyielSKvKdqGvOb/jybdNlsOrVh0yXAT9IbHmpHCQYHjwE34QZPS6sNoN4+Ss090ksAP/3uWv6hPOxgR4O9527dy03w25UB+3hazbupC1bcn7RgP6C83UDuHkJHOxn0WE/ti27DSe3/hKv27ybwhhWaGz37DGsHF60kxe86wjzizdh+VxLoSGfVM3pqNgDh4+n+MCu2NiftXgD9VrafD5VDoSjGoPtvkPHKczf82b8uWcuWGW5wd4Dxyy3/dh3TIWHO02mMlFKTnCzcOYAkCYsDD9vtIHYj8HAXaRKa8u97+Bxn/0MljrSM90Ozz1HDXxo3Ns0dKjqkSKF2uMp+bgdOyb4KDZOvnXr1jiZQeXkEKMuen7OFBJwpENjtTbV8+Rm7C890BXk3v371g3rcVFsYr/9gWQvaSxSZw9H665+bMBx9LiXrlxzDP/wuxKO4XA36TDY8djDxs3xue67nszD7bpRVGU3A3ehyq18jn342GkrDtoP5s6dS26gv0C6Ah86bdSxQd421SkMxXvgpNhpfvSu/WVXbPz2ksdyAVQf4Af2667R5E/HZ2JXOM4MgB5erXFPx3C4n09plHCiO/a2XQddj4FSG9DTB24YGP3Y3QZMcD1G1mINLDcDd+X63ciN9Fi8eDEJvjlHRETQsZEp5izVmAwP43bsmOCj2IMHD/Z5MQRBSJrEqRY7NRiULl2avvWCl156yXXlgpigZ0JoyIEEi37NOB6v3hgI+/fvV999912sGxtx3thmqPh9bBts0qVLRyuIxgZ8S06fPr168803zZCYEVfPJLbHYGLznjBYyZTBMfC+Tps2zQyJW6y7ju3USFiPGPAsLAwUmRu8QGweNJanhTAxOZb9GGgA0uGlYd3Qf481n3EN6CARDCtXrrSOsXTpUtrGBBzj+nVvo5HTutjBwBlwbNKIickxOGOOzTPB1xEG1/DYY49F+eYfE4J9T5jojE1cPGsnfI4qUyMJQmiQ4Br81mcFTZdSY6YssvzHd61Rk1oWVNPal1I3rxodEk6ev6rKdZmuqvSYpQq3maS6TVxN4cnTGd8eGfY7Hfs///mPa8a1bdMQtXhudbVkfi21d5c3h961fYxaNKeqWrPCW+Qes3ibytdivPqtwSj1e995FOZ2bIQ5LW6HllG7MEcOLqRzXrp4gPyfZq6oXv0kL7kB3Bly17A6ykAwuf+R46fNGFhM/q5aPK+mOrBvlhninGlzo5ldwKkL11T2xqNVixFeK/pRpWwkqatkV5mblrM6oizbelgVaj1R/dZwlGo6zPu1pP+M9SpnkzEqV9OxavBs73rpXcavUlk9cUt2mKouXvUOmPmj33yVpcFIVX+gtwQyK3KvKtByAh27wcCFFOYvLXG9iFu07WS187DxdeDYjkg1o1NZtbB/PTWnRzV1/ZIRzo2WYPSUheR3OzbutGbvuZTuuJ6JEUa/i0unDquZXSuqyW2Kqvl9flf37xlfWFJ8UYi2YMzURZZ/945xasXiRmrl0qZqQ6TR0Hbrzl16t7M3HkPv1uA5ga0tj5La/PnzSRifK0fREt/EgoE/X9066twDRudSxAK1u0wu02egtwQOHz/P8o9tlEOtn96fthCAfRNmeF8wjpu5/kg1fZXxCQgPumbvOeR2OnawyrdoThW1dmV7cu/fPU0tnG18t3Q6RkwUe0yOHD4C+Bw6fOxcuXJZgs+TekeZ6zduWX4cA4rNrIpoQVun63NSakhujyJm8bzATJcJxqcntIKjZT1f2xqq0XDjpQTLtx1RRTwZrp7ZgYGzNpBS5/C8sJ3GraQwKC7CGaQhmLbS+ynv/OUbVviRrSvUlLbF1fimedSaycYXlxWj26tVY42WfYD35Na1S2rO2n30u5Ye5a7QdYZ1DDyT82cNRbx+7bTatK43ufEc0XCsy5ye1dXWhd57x7GvXTjtmpbHzl5WHcauUKU7TVN5mo1TfacbGaPTOwh2r5iq1kzqqVaO6agWD26sLhzf73psfzz1VNRPzMAnlR9//HHq/eWU+PEFzmUXfzkxevyg4UJvvLArwt27Ru7vdgx8vkHHinHjxlmfcqBkfVOnVoubNLEEcKYC1k3tY/l5e3r/FrV1wUg1s4vRMQX1VBwTgsEhANd39+4NcuvAwhVrN5ly6BLtp6jVO4xPUvr93PPcy8UL+9SR05dVz8mRauKyHWrY3E2qQKsJauGGAz7WngXYnwmjP2cWJ6WGMCu3HyXl0BXk7Okt5L5//45lcfDSDho9i6R8nc7k37dmjprV1eh4A/Dc7t9HA+rfauPaPz0ZTnMVsbCO2r3d6MyD3yCDYmFFwDkP7J2lrl45TpYOv0tbPTdlMjuP7lfr924jd4tRvdTt21fVutWd1ZYNA9TGNT3V5vVGFRP7O00crDpOHKQq9Wqu/hhkpM/61V3ViaMr1emT69XBfbPVhXPGOPp6AxaoUh2nUimx+p+z1c3bd9WZU5s8Jbf2av+eGWrPzgnWvScv8b0aMn+SGjxvoqrcu4XK2MCY3ALPDIszLNtyWOVuNtZT0pxI4WgbwadKyPnz5yksJtjTkvF581u3jvkH8ZgCBTh9+rQl+A7p9hK7gVk3hw4dSt0bIbNmGUVPHBu58cKFC6m7HxpRbt68SUo9ffp0NXv2bJqBAvODYUBGz8GT1K69h0ngB3ipe01Zo3pMiiRrM2i2YWWcFGf54oaO4eU9LwaKnGcuGj3a5q/bT1u8tN/mrG4Jv8QAL/GiOdXUjeveTiZuwDqgCAdL2cwsAp86sZauBUU9bBfPrUHh+jnY7aTUkOke64kXs0SHKT6KrR8DsB9Vmd3bx3mufQYpFqoTnZMlo8zGnmHiJUQ3zDFjxlgClniqDvt2TfG8B/dJiVYva0Xh+kurAwXhjF5XEHQRxWAZCIP3Ab0rkf76nHDxCQYJTY9cpKauXqia/NVDTVzhLcnEBViSC4LWdUxQwTg+LafRIg8Sq2fO2LFq8/Dh1DNnt0cREwJ/L8P+Exeslx1gOKFdcbAsDqzU3/fvm6Fea4+XlScZ1OHcVxc3kFlhIABGYfG0wgDn1uXs+UtWONA7/jgpNQT1RFwrl1QmtSpM8d2KnShWHt22Qm2Y0V+tGtdZrZvWV83uXsVTfM6tDm1a4pGlakKzfGp6x9LUEapMmTKqd+/eqmrVqqpnz550DNyr0zPB+zDHc38sa3r1MvdEBZb5t2YVyDpDmUp0qW/uCT0wKKhFixbq119/pUFcjPsbIwRN+/bto9TXUJIAPBMJFA8KCDjzQtfCFZ5i+6jffrPCmdnVqqnm5iwZwQClbdFluKrTsi+5N23fR+F6ieL27StUInBSaghnQAz713sUduPMQWpnxCQVObE7beOKN0tlNPpa92isvqidn4q1gjt2AwChcPrvAUUW+04hOJYOa+F50XuQ+/bNa6QIaMyBYjk1+rmBEWCtWhlFUM4EgoXPcf7CZZ/znTq+hpSbBTgpNQTgHnSJbw6fukSCxjV2C+7ouoqBOYyPBqN+C2SW0oQFE/pv3LjRkph2sFg4oL4a1zinWqm1HAPOvLmTjJNSQxhUN9BCLSQ+uF3BbozFNIcof9+/p8Y1yUVWlr+tAtQ/z125qI6cOUFuiJNSQxhR7KSBvo6Xj2Jjri20Jv7yi3cWDiFpgnq6XQAU2Y6TUkMYUezEC4YvQ7p3706jFxkfxYZSgyVLvL2GhKQJ6tUYu/y8Z4veVIxe3+YOE05KDQE8lthe1BMSBxkyZKBZX3744QczxMAxteyr4wtJj4gth0nwbZvdDCsqxoYDJ6WGAFHsxA06bIFvv/3WSk9gpRabdBYhNEGXzD2rjFlP796+SX4npYag1fzWTaOfvpD42LlzJ1lqfPfHPGw6PtnwG2+8QVvJncMLJ6WGgGtXT6ql82tTF04h8YGelE4lKh8fOlgAUezwwkmpIWhw0xf0ExI3rq3iAAkqhBd2hWbBp7KbVy/SlruXCokL3Qi7dlAB+phOITxwUmoI6NOnD03zLKW4xElQHVTwHVtaxsMHJ6WGACh14cKFRbETKXq6oB8K45NamHYYESdNSvpLnwiB46TUECHp4qPYUGq0jFesaEwaIIQHTkoNERI/upX2mUnV3AphjJNSQ4Skiyi24KjUECFpoc+XJootOCo1REha6A1potiCo1JDhKTBiy++qAoU8E6hDESxBUelhgiJH91KZ8qUyXSJYgsenJQaIiR+sNA+lFtXcBAjxeaFzhksvFevXj1yL1++nLZMoUKFfMZ3161b13QJiQUnpYYIiR9Mnom0atKkCU2pDQExUmwsUMaLlHFOgaGeAwYMUMePGwue69PJcmsdBoRjulRBEOKXhC2Kz3OYPN1uKbJlQ+5gejy8+irm8jU9HnhFkFWrjHgQZCTp0hnhACsjfvWVUpcvmwEeMEE9H/f2bWPr5J850+u3gYwKqyli6VjM6w04o3v22WctNwM/hHNV9MvHIgmAu23eNs8F90zPudkP7McLNzD5Ij8DbDNmzKiGDRumXn75ZbVv3z4Kw1LNzNWrV02XsuYqX7t2LW3tcUeMGEFbdPLAvgsXLqjkyZOTG8fX4+pgP4ZOYsIDGDs9LhbRx36A1TnZzWDS0M8//5zc2JcyZUpyA3vcYEnYN8VcFcIid27TYcN+k6zYCDfn4vbBnjlAsRH3yy/NAAewH6NjPArm48cSwHA7LKIAxQZIBBSF2L1p0ybaRpc4ehxs/2HOHw43Rupg+WG4eQEHjhuuYIlcVkCseoHWYPDKK6/QKjZ4PlimioFi6xnjO++8Y7qMZ8lx4eZn+9prr6m5c+daboSjFIplpxjOMHjKbsClUj2ufr2A4/IWmQe6cYMPPvjAmnteP25Mid2vBUFIlCSoYtsbayB27DnXhAkTTJd/YpLjxSaXZMvgtgi+27F5nirsR9Gb4+nxp0yZ4uN3iiMkPlavNpZ5xnz9P/74I7l1kH6bN29W9+5hkUIvDRs2jHXaJuibERPFHj9+PG1RXEHxh/ejXsNuLMKn/w7u3GYxH+60adOS+48//ogSD3VdgIEw9n129KI4zxIJd9asWS03L3Pq9HuA9cB0xdW3WDgAILOAH9PLoi4PN+rnKK7L+PnEC6pnX6FtxwPaB3iBBj2NIVgcEnARH2FudfpAcX7bBEFI0ohiC0IIIootCCGIKHYM2LNnj1U/SqpTSC1YsICuP7agS6Mb/o7Pdc+4uAbAx4mr4yV15CkECRqwPv74Y9On1KhRo6zvnkmJuFIA7vDhRCCKHdeIYhvIUwgSfy8OT03DcfDyvvvuu+TmMN5+8803tMUnruHDh5Nbj7NmzRr6hMZh6AUF7McBbnEYdN7AmtvA6ffMl2YHnoceeoi2I0eOVN26dSM3x3/sscdoy/fKio1SjN6q67RFL7GlS411wu0Wm7f4GrFs2TJy2/cx+ER07Ngxctvj8JY7++BTkz5lULjg+8SEaLG/ZMzXX39tugwwebtulfQXDy+d3nVUFw5j9LDUqVOTGwQSh9Hj1q9fn7Z6mE7btm19jqdTpEgRCmPp3bu3j8Xm+PypRv/92LFjScHwjRbYFXvq1Km0BRzGn4F43IEO4vhMkG/+Rt/qEm6E3x3HEliclStXmj4DLIhWrFgx02eAl95JsZktW7aoOnXq+ISjiyHQw+y/s38LBW5xGH0/j9m1/6ZNmzbWHNWlSpWirR6naNGillLq2BW7X79+ps/7+zfffJO2oEGDBrS1K3bz5t4lhDiMLbeTYjMc120L9OVlwwXv3QsBg5cGgj7B+gsEN/dZBm4WG8XNh3nwigeEVa1a1ScOo4fpx8Zgg3Tp0pHfLQ6DFxtheqcbexwMZMH9QPH0oivilS1bVr2KwTemXz8HSh5PP/00uYF+XHZjO2jQINrmy5fPCrNva9eubfmBP8VGPL2Hlr796aefqC85nhFWC8UAjHDD+xQFIQ7o0KGD6RISkoAVe/HixbSNjIz0sUTVqlUzXUr16tXLdBmMGzeOGi+AnhMLoQev+igkDoJWbKAr9qFDh0yXUjNmGOsuMygOAcywoid6s2bNSBAmIiLiLsAt3B9BZ7HFixenA2OsqU6ePHloGiTAAykAj1OF5ebxs0Li4rkPs1uDcF5Lm5f8QuIlXhRbCD10xYabFTt362pqbMQs1WZsX1W5dwuVpWk5ChcSFlFsISDcFDuQF0h48IhiCwFhV+yXPspF4aLYiRM9XeCGoOefjqScEEWxC1VsSuGi2IkTTpf/+7//oy345z//aboMJOWEKIo9YswUChfFTpxwuqBTEUbpYbJLfUE+ICknRFFsbAFeILsICY9TOhw4cMB0GUhKCa6KDTcDd7k/Opk+ISHRFRtu/sysI4otWMo8dcY8R8V+OU1uHyUXEha7YnNHMB1RbMFS5gp/tIui2Pfu3RelTmQ4FcV37dplugxEsQVLmV/9JE8UxYa8+kle8guJA1bsW7du0bJAaB3/7LPPKIwRxRYsZWZFtis2REg8sGLzJy501X7mmWfIzYhiC5YysxLris3bPGWNb9tCwqMXxXl9MfvISiuGPvBfCC90xf7013JRFHvfoeOWW0h4WLF5OWt9WWsmisV+/fXX1cCBA02fEA7oit20fd8oig3gHjYu6c3GGoroFpuxh1k+rDWM9XyF8ENX7GXLV1qKnanA7yS5y9iWOxYSFCfFtmPFCCSykLRZsOGAytdivOoxKVL1m75ODZu7icJ1xcZWt9i6CIkDu65iEsrfbOvEWzGcPnILoQWU884dY9neEtXbqSJVWpMb4W6KzcBtTHIlJDRORjh7dt+Ml2JgLmldhNCkmeeFuHrypOkz/ABKO23W/GgV++5d33WchYSBFTva79iIqIsQmuiKfe3UKR/FLle7raNip/+1gno9XT4fJRcSFtbRaL9jYz5nXYTQpHr16lEEQGlZee2KzXLg8AkKExIe3fhG+x1bCH38KTaLXbF5++cQ3++kQsIBRcbyR3bRsRQ7Z86cpksIVXRl1olOsRt3GGS5hYSHLXaLFi1oC3QrDiwfVn0UQpuDBw9ain3t2rWALTaA+/59aRdPDLASV6pUibbAVbGF8AEKXaNGDdMXuGLrfiHh0JX4ypUrURbqAFYMVL7RsmbXfCH0sBfHWWkhumIjnl2EhId19NFHHyWB/7vvvqMwxtLi//73v6ZLCHXwIkybNs30iWInNZyMrz0sSgynHwlJC+TiI0eOpLmwChYsSIN6eHklNLhgrWs9nf0ptpD40NMObsjZs2fNEAMfLeZIQtKnZcuWtNrpnDlzHBeVf+ihh9T8+fPJrSu2PghEFDtxwmmI9cwBMm2kp46lxY8//rjpEkKF3r17+ywaP3r0aOp+eOzYMRJ+QXTF7tpnhI9i16pVyxLMXy0kPJxuS5cupXnFX3jhBecFAxBRFyFmvFrMtwEjoWjTpo1fa4sF9sYvm2P6fBW7SKVmrnXs27dvU7iQsOg6ilZxJ3y0+OOPP1Z169Y1fUKw9Jg2gpS7w4SB6qdGpRNM0f0p9prdW+i6IFjaGOiK/eF3xaUonshhxf7iiy9o+8QTT0QxyJYPM6cIsefDDz9UWbNmVfnz5zdDHjwdnnuOBnhAOr/yirpx/ry5xyhVsLxWPAOFQaEz5KxqKbcoduKGlfjHH3+kLXBVbHzkvnnzpho1apQZIgTL2rVr6QGjvQJb9PRKCFixGbjXeurbQFdsCIAyd+s7Qr2QKqcodhLArsROWDGKFCliuoSY8s6XRUje/aqIKlDR24/3QeOk2EO+/ZbcUObL16+qPG2q+yj2mjVr1VdZKya4YqNR7znP9T/11FM0M4gQFVbsgOYVxyyH+O7ZsGFDM0QIFigF8/aXhdVnWbx9eR8kelEc0tpTBwMjFk61lBnoig1lrlSnfYIqdqrvS6mPM5VVvYZMUc07D1UvfiQDk5xgxZZ5xR8QrNgpM5RUL6U2Fo9nkBhox1i0aJEZEv/gnHqxLW21XOqNkj+YvqiKPXD4eFfF7tu37wNR9OmRi1XqytnVmyUzqhr921DYL43LqJr9jZl9Dp465pM5hSN6mkY7HjtHjhymS4gpydN7G8zmLV3r469Tpw7NS9W6tTHPmBtQrDmL15B06Tdepfsl5nPR2RUbCoGWe2bp1jW0ZWVesXKVq2LDje/g8QkUOEO9YuTGtUJSVzEyS9wHWvHREePIkSMUFq5wmgY0HnvKFGOxcyHmQCkYuNmfLVs22gYDEq9fv36mL2Y4KfaJC2dMnxdWZohdsVeuXGm54xpcG2bsKVu2LPlbdh2u2vYcSW5QtWF3tXzNVutZstRs6mudwg09TRl7WNQYgsX3uWuoD74rQfJVtirq8pXr5h5n8NIxcN+4cYvcUOwlS5aQe+LEidEqOhpEMEjDKQEDJU+ePKpevXoqRYoUqlmzZhTmVoTFtTopNtpbWKHjWrFxnobtBqo6Lftaz+3zLJXUtzmrkXvluu1WOLaXr15Xl65cU6VqdbDCwxVR7FiCxpxfC9cxfV7FRXEQs7miPzYUiPvp8v76bQb4vHxYiEGX6EAiPf3003Tct99+2wwNDhwDnzCnT59uJXqwin3hwoWAFRu/Q6MXplDKV76Z+jGf/7nzEB/VDWx37DlEYbpiIxzCbnDl2nXLzfzjH/9QJ06coIEvDBoMt40dq7aOGqVGZc2qZsdDaSMhcVJsOxSjadOmPhKOQIly585NAyY6dOhAfig2v2CQBm0HmLGVevbZZ+k7tf6Q+aXDNpm29CyUGcVqHDc6xcZ5V69ebfqiT8RxTXKpZSNaq3NHd6u7t2+QH+B3ugBdseFmP67XSbEBFBqDRQK12I888gj1YWZwjhu3b5o+pYYt8Fb5sreoRJ1kSnVrQH67Yt+5a8yBnjx9Adoy7Mex794z4hw6fUxNXbWQ3CMWTVXpqudW33vq61//UUjtPLKfwkMFTs/SpUs7pjPw/9aEKOg0P2LECCryMqyUgF6qO3d9LDbCPsxQgtygxaheKkXpTOr98pnV0PmTKIyPoR8LsDIXLlzYcn+UsbT6Pk9NtWHrHlWpfldVy1NvvOIpbgK8sFmallfvlv3FUj6ARR0qVKigypUrZ4Z4sSueTyKbbv1YcLMf16sr9vIVRr0a4LgQp1k67OA86OaIzzDogQeq9G6h3i7zk5qyaoH6fWB765z6tTCs2LWb9/Z5hrr7+ZQ5LD+2uqCoDkYunq4+q5mPFPvL2gVU96nDKTxU0NPWDSvGl19+qYYPH642b95shiQc6AEFzl+8QnXbjn3GkN+Jz7JUVG98WoDk/W+LqZ6DDCVrM7afaj9hgJq2epEaPG+iajW6D4VjEXeWtD+X99SbjZdBf1ladTNajr/IWtln3aq3PitIx8dLyf2s7QpSoEIL61hMsWJGSy+AW/cjkfSEcnrhdWAR7ZTv2US97rF8LUYbvcs+/fRT1aCBYQUBSiJYm00/tv26dcXuM9j7vFmxA4GPCUGmx6BNIXny5NSHnUGcySuNYaO9Z4wiPys2ruGL3yrTPqA/T7gvXDIGPsDdtf941f7PUeReFrnFCmfgvnkrtAav8PvCI/fwHduu7JbPPrVKQoOeUa8X/16lr5GHBi64YS8uN+88zNyjKJPCt2P9pjnR9x48Rm62kr8W8tal4f61cF2fomG91v2t33JGAkn7czl15PhpCudr4HgMW+njx4/7FMVRP7x06ZJavHixNWwWL/jc9cvJffXGdfID7q4Ki4jtvn37KJz3g8jdm1XJrvXJndfsWcYCsL14zVAKPRzXqyt2uVre1WDweS4QxeZjgb/NP3J7MkBcL0pITukA4M5VuomPYu85cMzc642LRkz778CpsxeihF+8fJW2q9fvoLA0mcpQ55d2nkwAre/f5ky69W5+ji+99BJt/So2wy/Mg2Dr1q2qTJkyNG64atWqVg6kvyQjF0/z8duB1c1WwttbLtknedSKNVupux1uFj1y9Lnc9GNtOrCTBPCLMX76Esttr/OtWLvNcrOgd9Tm7cYz08N1WJmxRXEcYIbJzz//nNwAGVD9+oZSvlXqR7pOSPIS31MY4DDIxBXzrDCA+irvA9juPGrULeFGfRXbCcu9S+FyXFyvrtipM5aicHDjxo2AFPvXJmVVyoreheH42Bh5pMN+fkZ4xnY35PmU3mfI+7E9fMzIREHGvLVMl+f+Pe8A+7H4AfPe10XVO18Z3aVxTZ/XyqcKtq9lXd+wYcMo01m2bBk1NA4ZMoTCgyG1p1qFEsbEmRGqTqt+Kmepxur27fgbu64r8TfffBNFqQGFJNTaXR988IHau3evWr58OX3L1NflHjRoENXVIiMjzRAD3MT48ePVO++8Y4YYIFy/QX5BWLiV9pscVWkLfi74h+VHHN6u2WgoOys2OprwfoDMg7l+45bl53NB0CWSgULjfnRr3WXyEJ9eYHuOGy3D+nn4WIBfRDsIH2LW8RsO60r+LQd3+8T/0KNw9+7fp/N984eRsQCOg3Poiq1fA9AVG1WBM2fO0BalDKQf2iz053ri1LkozxXAfejoKcvNW67WsGKPmrwgyu9K1jC6u+qw/77n9/b4YK/H6rM7Q92i1AEG4L4h6PySJk0aS7766is1duxYigMlxzuJbeXKlWnLvPvuuypDhgzWgCk0FuIZ4LlA0M9dbwCNa/T3nN97pJ2OFWPTpk1RlCO+uXr1Kn1rRWaC1mj0zgKoi/G1QFD3B4cPH6YGJNTZatasab0QiLNz5056wHz9SFA0dr3/bXFy/97CqGNzQqPRit0Abh7dxLBiI+zs+UtmqPcYAO6KdbtYbtTz7GtdQaFZGCiarny/NatALxr/bui4OT7H0OOizUD3oziPgRNMjpaVfRSYqTWgnc/v2I3zBKrYnZMlo89Ji5s0sQTov4H7/MXLlpu3GBzDwA95IZW3x6NuvXkLOC5E75yix23X0zsqUQ/XLTy6o35eK79601MiqjekM4XpaQI396575ZVXqM8BxlBg/ri33nqLwhn9mTgNutkxYYJ6IWUOtWvfEbVoxQaVr1wz1WPQRDNG7OB3XJ/1yF4ysq4mS5YspuvBgs87GC7KFws4YQDcSHDAHTuQG2IuL/gPHDjg81u4T58+HeUYPxX43XLzljMGAD8Lwy+aPZzd2OrFPg6HxdLjOyk2Zxpg6apNPsfUtzpQRJYf6hc3Q4171p8B+oTnb1eT3BwfmcbFa5fJzbAb5wpUsWEAMNcWXngIXq4dO3b4XPfvzY1MFMCPkpH9mPCzMHgm3HCKcL0xDNK6+wif+HC/+FEunzDA8fUuvfrzxj40tAK7Yv/888/k1p/Tkq1rSAAm0cjVqqoq37OpytKsvKo/tIv6tk4RyphBuZ5NSGoPbK9eNscLzFy4Wn2dvaoaOtY7a01s4LTGpCj4+oAJK9H2oi+la70NmTNnpm+tAwZ4v9XGN+hUACVkuJMBJxS2nfoYRSPAiYD6M9yYqseeYK+lNb4f8zEAPpHoLwyLDvwDR830CWfFBno43Ki36WHAHofh68Z20iSj2MzXjfuz/46l73DfKYIBWvHh1vIkSmgMu0VnGVCtb2tP3dwo5qNOic9m3OeaFZ0F4His2G/Yqh3AXse+fv26lZnw0Er8huWWVr/Uw3Xg37brIG35e7U9Lfk32O7ce9hyMxwHcvOmt+VbD2f42AhDgyejpw3aeXRKd2uoXi/xPT3DsRFGX2y0jcCaDx482FIw/br1nnRvlMyolm9fT258Z+djTJ06VVWrVk1169aN5pLTV+GxF/Od4PP6w4qhdyoIhvu3vJ0PVr3qO1PizuK/qW05vyG3fR/gh4rZRtgNnBIGIE6uXLl84uoJtm7zbjPU+wJgu++gbwvrj/lr0zbZx966MsfXi+P2F+27XMYLDjekWaehVlxgd/cZNpXcfL2oRrAbx+bjYAw3A//LaXKrq9duRDle/grNfcIAXgqeE54T/N79ez4WByOjAlXszIV+j3IOXbH5uhdErPeJBzdk8uxlUcLPXbisfshTM0o4eD2dNyPRn3fPwZOscPvvmnQYbLlR6ir3R6cocXhbsGJLcvN1v/V5IZ+4SA8WNKQx+jH4mgCHj5q80HLzdcOfKb9RMtRBuqAzCWP1jPMU+5d5qp3oHQecju1EUIodEy6vXKIuLTVaZy8umOmovKzY4ED9iqbLgB8oihO//vqrGeq9we4DJ/rcIOKiFxS2PIkbJxjQ48IN0T9TgWDc+os2ZuoiK9weN3KD8UnFHs5+XC/Dbhybh3Yi3v5Dxy03A3f1xsaXArgreOry+I3eqw2JrAsDpUXrOjeosWKnrJjVUuo3S2WkMBybFbtuix4+1wDsFhu/7TxpsBq9dCa5z12+GOW6x01bbLkZuLmgYQ8H+vMGHK7HRSboFA73vXv3LTfg0g3AsfG5CyCseRdDiZEeqM6xm0EclsPHjAY/oIczbu8g4DSxp82tO0YJA0V7+IHTsZ3Qj+WGFWPPnj1URMiXz1tnDBZW7L1VDQt0bct6tSnDh6T0a/73jDrcyvutGNhf+NSpU5NbvzG48b0Y2OPfv3/f52VAQwn/Vj+GbhXsx3YLT/V9SccX7dJl78sC8InD6Rj47MF++3Vj0kj92GhIczoGSiBO4XBnL2l84tMTGX3XuQPLtZs36IVh0bGH4Xis2OMn+1ZHgK7Yq3dtsn57++4dVb1fa59GPzB3yVrLr4e/qJWG9HC48VnK6Xkjg9DjAqdjIMNzCoc7Z6lGjscGetqgWMx++zGmzDH6FnD4mXPezEw/tt4oO2HCBPrUin4KEE4r7GexlyaBfmwnglJsWeJHEEIHH9VHTvDee++ZPkEQkipRFDsQMy8IQuLG0mL7ZGjBglY/fY0o5l//+hdtsWiY/SN/bEBPLgaZEb4/6itIBgp/tzx16pRKmzZtlB5t/oiLjHDhwoXq22+/9fnsFyzo/ZU+fXr15ptvmiExg6dNjg34Pad5TImLZ7J//34a/xBXPSlj854w+rPF8fiY8YF1Jn5JY5Ow9+7dM10GH330EW0xzPDrr78md3yAa45pBxv7w43J/V++bPSyignoI65/CokNsUm7rl27mq7g+fe//2264oa4eCb8LGL6TOz3FBfvif4bjM3nWXXiAzoT5p3SJSZAqdevNz7GMzxXOWa45JUBYwrm3kqWLJnpcyaQh41joIMFoyeYPj7bDf33ON9jjz1GM3gEA47B98LdAoN9UfRjMDF52ZjYLO1kVwIsFBcbYvpMdPA5FL/H1FAxwZ9iB/KeOBGb+wmWB3emeIQfGPqPBwsnGEbJBAv6ufN8YjEFQzcBT+gXEzjTjO2Lg6JvTDJgXQlKlChBvdHumr3JYkJcPBNe1yquFTsm7wnD6YMpp9BrMrZVJ39Yb0LOnDI5uyCECpZi6/1VBUFI2sSu7BZLMNXQ1LkrTJ/hZxYPbqLGNc6pIif2MEOU6jx+pSrdaZqq3H2mqtB1hjp98RpNX5Q8nXcUD9wYcO92bBSHrl0zpkPSOX92h1q5tKlaOLuKilzR1lOUvEHhd25fVSuXNFGL51ZXRw4ak+WhW2TN3nPVbw1GqQItJ6iJEUaXUrdjOxWRefijLpuGesdwr1jcSK1d2d70KZrKSYf9PJNLis8LqRI12lEYs23TYBWx0Ft3xnU4Ta3Evc50YRoOWqhyNR2rLl41xgRkbFBCfVQpG8mnNfPSuHKm8eBF9EwKt5mkIncaPapu3LpDaZWl/khVyZNut+8YDaxIu+LtJqusDUer7pO8Y5cXbjig8jQbp/K2GK+WbTEGfoC6/efTsQu1mqjmrzMmkHB73pv3n6JryNpwlGo9cpkZqtTyUe3UvD6/qzk9q6n10/tTGJ4d9yoD3MvR7dhjFm9T+TzXhmv5va/RnRqsmdRTTWxZUE1qWUhtW2RMLZXii0JqmvYOwg+uXT1B79jqZa3UsoX1PO+VsTrMgJnrVZ7m41T2RqNVtZ6z1e27vo3RjP4+oTssullDdOJUsYMdBKJ3rWMBYxv5rkrC/i7jV6mCnoSt2G2mKtlhKiV8mh/LWL8DcH/pUXb9mCzALcEWzq5Myv333/fVhshuaoVHmdev7krhdhZtPKhOnDP6qm8/dEZl9ry0wO3YekIwTooNMKgB5zx5fI3n/F2s8/P1M+zX7y9bce88Z/gdZNHcatYxcB3BKDbuCwpZu89ccu86ck6lrZ7bpzsq3FB20GXCKooHKdXRGACD+/mj33wrvKsnDoA7e+PRavJyY1ILBuFjPcpj5+yl6+qvBVsok0Ac4Pa8W45Yap3vj35e5Tu+M1Ktndrbo9T91IpR7dWZg9vouRWr1pYWKoDwc8WxMc79zp07loCZq/fQ9sr1W6r58CV0Dtwj3tF9a+bQlt9XPW1YwNUrx1Tk8tYexW6pli9qoE4cMyaPxLEOnbpIE0d0GrfSuk87Tu+THZ8YWOYnmM8edy9ftBQ2JoNAcKMTZnhHlfGNrxzTkabR3TR7CD2kMwe2UjjvB8PHzyP/3Xv36QGgv/Wt23c9lnSOx0rcdT2228vg9rCgFHfuoBXcUDgkCuI6KUgwx2bFHuN55ixTS5emcxzYq88I6p1MAuPPMbqNBeizuWDk0jc5qqkb189aygzgvnh+j+t1+1NsBlYVisuKjTnVML+aPh9d06GL1W8eK5m/5Xg1cZlRirnusdiw1DhWaY+y7z9xgcL1Yy/dfIj8q3ccU0PnbjJDjTjIxMHSYS2oBDezSwV19bzxFYIVCNy/f8/y43d5PZav7ahl5Mb27JmtPs8EinXx/F7qHw7BMEwWoB8bsN8pLcG4JdsoE8nZZCxZ26s3bru+g1fOHldrp/Qi2TBjgCeTMUpabse2o8fDd3UnrBj4dhhbgh0E4vaiIdxJQfbtnqrWre6stm4c4Ck2NyMLC5BzZm88RmXzFGHqeKwD03NypCeBx1PiQuEBjm0XULLDFNXGU2xDUWvUwq30As7qVpkSdOEAYy6yCc3zq2kdSrkewy18y4YB9FKtimhO20sXD6j1nlKB/qIxCLt311hBRAeZwIqOHX0E6C/gxZMHyY+X1unYuJ5gFZsFSgvsFlsHo/T0+wb267h71yjSHz+yXC33VDdgtVZFtKAME0DJUdRF8Z8tN5774c0R6vSBLer4rrXWPaPojyrRsHmb1Ny1+9TWA0aHFv38Ok7K5/ZMUJIo0naSqtpzliriKdZPX2UMCUb8jRs3+siFc7t87nPHlhHqyuUjqnyX6VQdOOOpdoDoqhBLhjRRR7auULtXTPUU7XuoLfP/Mvf4ot8fOn6x6FgxIiIiaHohfDh/UOAC7cLhTjcOHn74YRLOiNau6ujzUK9cPkpbHMMpwXCPNWrUIDe2u3cbCQbF0af7Ob11Kyn2+KZsEY3iFhQb2zs3r6m7t29R0Z1fNIyCwvrOAD2feFSUk5IBKAsyJEiL4UbOjrj793h70KFKAMYv3a7Gel5MvOxoa4AVBFyM1wWZntM59efMAtwUm4GlhXJn8dQrb9284HNs1OHPnNpI1qhqwx5q0OhZJGydjGdlfPc/d3Q3WV1w7HAEFUNXRbSkjOjWzYtWtQrzyEHgRrXq5LHVdE5kiKdPrrfOjwwGEzZuP7JPDZo7wcpw8PxQjdm6cSA9v1Mn1lkZUqeJg1Xbcf1UzlZV1Kb9Oz3GYoratW00Hffk8Uh1aL9hAFDigEKjxFCw1QSq/4Jtm4ao3dvHUakKRgbtLp/WyEuTTmLuud4zR6mUlbLS1MpNPOmL57Zk00FPprKd3AxmDmIJFk43YE9Lxtf3gNm/dq5aMbqD2hkxSW2aM1RFTuhO4Qf2zqSGH2x3bh3peZDGLCpuq14gE+CbO3fuHIW5HZtfOIb98+bNo26q6GSDWVOxoiO+6dofGMBvnF5iwMqsD3XctK43vYyscLduXSIlRULDaqCRBO7mw5Z4Mop7FOfUifVq1VLDwgNkSDyLKba7du0iNxT573v3fOSKx1rw7wDcG9f+SdepC0/r5KbY+ou4Yc8J8l+/fjrKsdH4g+fklJHy9EAM+zGxIsZ0d5w4iKZy+mNQB9f2kmNHltF5Ll886KmPGkoOWrVqRZ1h0Dlq7ty51kqm9qI1xO3YW+aN8FjIaerwlmVqb+QsNbuHdxYVJ+VDvwUMweR52zGzrtt7AiNwxHNcFL2P7VhtGYDY4nQu3L+OFQP9Xx80ePkh6BjBAtyskxPoC4yOKVipggXzcqE32KFDh0hhsZ8VbcOGDbSWMPpX9+nTx+otRxPP7T1M0rH3GPL/7aneDp2zSXWbuFp190irvyKoiI4X68olb4vtXaqDu1tmKESE2cI7f/1+KpLxi4b5rSH8ojFoLUVxPTpQdIXlL9R6oirRfgq1KgNcC2TRnKrWdekv9qbt+yy/P8WG4CsEtvgi4aYgZ05tUmtWtPdYyxlqz84J1AAJkPHoJSEIwMs5ZswYH7lz5xpd640b5zzVkZtq6fza6uKFfa6ZBuASHEQH02xBuBMIlmNCWjfxnB8dizD1NUpV8QmWLyraqY6aFrlIjY2YRZlYXKAr9qpVq0h4EXzGihGf06UGi5t1cuLImcvq8KlLnmLiSKrPwI0Wa7cXbdW4zurghkVqz6qZJEuG+Fur7G+1flo/svqLBzVS83rVUlfOHaeXtW/q1FFe1tfS+k5SwX4oRb/p66gVP3ezsapwm4lkZTDtMmduqKshzN9L7IRT7s1sWtfHU4/1zrkOJWzfazRty/7eyQz1XxRHCzPaLjbuPUl+N8WGBc7WopLq5LHCTf7qoTLWN1rK8aycpgFCOi3fdoTSDW4IQClt6fzfqTV/60ZDEXCP3bt3p2oi3HzPUGZM9QvQDZWVWy8l/DVxPvnRE27Lli004y3mEYebW7qTGv7SnIk+RgLAL8M2Ty6+wpOYo37zTkT/IIkul4fCnr9sfO8G+gsP2K8XwVBFmNKmmGvxjV9cXfyBTAFFT4yIOnnyJJVU7Kuj8HXwFsCNVnTgpti47nGNPdWfv1r73INTI9Su5VOoSHtww0JPRjhRTWlrzKKKOvWhTUs8slQd2rzUqmOjCIvBQZigH+uR4dm6PRO8D70+/FDN8ZS8WPzBdWlMO4SFDHpOd26ESqrozwjdb1GFtD838uGl4JfI6cGGKyjmo4FNbwGF8riBF3BCgQI+whxYN1/tWjbZU5eLoLoXWDyosVo9oSt93oMwTq3LweC2/C+4euWoiljwB3WAuX/f6M/tT7GZzXOHq+kdjQn3ATI1dNKIS/AdeFZXY6ppgPPjMxaqRZjckKtK8PsD1Z4JETvo+uDmalCo4PRe6FNpA9HiOASWE0VGvdEGIHPgOn67dsY3S55kHiWTzZ7iYY8UKdTu6dMp7KqWecAfLFBsSIsuw2j5GVZs1F+5eAvQKAUCUewrZ4+R/+bVi2pe79pqx5Lx1MMKVZS4wpjMPyPNy12iSz1a9GDfidBSyrhAV2w2ACwMudDAgGVzhNgxa9Ysa/0xzNGuLz2LXkys3P6AIv/166/qcESEJcECpX7zs4I0nzqEgWKjowqDT3UgOsXGFoK2ifjErSFU8EVXYDcoxtGjRx21XggOVoTLp49Q0Yj9elGYe8z5g7+z40XXZ4oJFL0ojnPpK0tCuVkilxvL2rop9qXThy2lhqyf1pfC4wu3hlDBF11HkRHCb5+M1EeLMS1ubAbchzsDZ26gbpdD5mykfu09JvkuKBgI66b2pp5Hx3ZEUqPTooHeVu1A8VfHdqq/uyk2Pp/ZRUh47MYXfiyTpWPFiIsupULsgbW2N9jFhEMbF6uJLQqoqe1KqMtnjN54IBjFBvhuj4YyIfGgpx2nJeaI07FioD4Drfe3ZpCQNJjeqazavdK77CuK0ZdOGcv0imInffS048UIIDreGEJIgfHBev0YXRrxfRddN89evqBGLp5u9a0WxU5a6IrN8Co6jCh2CMJDQvcvWGAJgCLrgs4bQBQ7aeGk2HaixAjkR0LixmkShy6eMChz4xHGYBgdUeykha6j6B2JdffsfeWtGOifjAETQtLH36g0p4H//hQbx4HYpzoWEg6ntLXP0OsTAyttpkmTxvQJSRVe/RFDS7GmN3c3FMUODXTF5vTRwwD59J32CELSI/2vFdQrabxTJsENBcdoMj192S2KnbSw66jdD6wQWUY3dFix7QgNfMAgCMwCCvf6PcY8YRi+yMrKiGInLfS04/TRw4DlQ3ENi6nZIwihAz576bDfTbF5kgbMNYft3l2TKFxIWALRUYqBljVdhNAE87ehJxrXuXk+NzfFhjILiQ8oNiYjgXCPM1eLXaxYMdMlhCoYeQalxqw0c+bMoTnDQCCKffzoCrV0wR+mT0hInCw2Z9aMFWPgwIG0UNjo0aPNECFccFNssHl9PyqSH9rvO1mekHDoio0ZVOD/zTbLUFTVF8ION8VGxxYh8aErdrR9xeNq8XUh6SGKnbRwKoq79hX/9ddfTZcQbrgp9uRWhWkL7t6+6eMXEg4nxbbjE8PfRH1C6OKm2PgcNrl1ERrXfffWjSify4SEQVfsgGZQEcITf4rNwC2KnTiwW2z4XWdQEcIXN8UGeGleeOEFtWTJEjNESGh0xYYb4jqDChrPPvnkExr+9e9//9sMFcIBN8XGC7N9+3YSFPWwppmQ8OiKzbqKiS91rBhPP/206RLCDTfFBniJsBBdVnNpHiHh0RUbwI8xADo+MRDhnXfekbmcwwx/ii0kPnTFxpJTRYsWjbIcbxTFtucGQugjip20CERHrRgY2SWEJ6LYSQtdsdkY25XdxyfDNsMTUeykRRQldtBZCmnatKmPCOGFKHbSQldkuFl0oqq6EHaIYictnCy0HVFsQRQ7iaErNiZb2LFjh/9WcSE8EcVOWjhZ7DNnzpguA1FsQRQ7iaErNtyQ77//3gwxEMUWRLGTGE4W244otiCKncQQxRYCQhQ7aaEr9tixY2l5Ljui2IIodhLDbrHh79Wrl+kzEMUWRLGTGE6KDcutI4otiGInMXTFnjhxokqePLn7vOJC+CKKnbTQFRtuSMqUKc0QA1FsQRQ7iaErNnPv3j3TZRC0YmfJkkV99dVXpk+pa9eu0RbT59inZ+F9p0+fpsXYhcSJKHbSQlfsN954gyZbQNj06dPN0CAUWz+Yrti6Mtub3fPnz09brBnllMsIiQNR7KRFILoUtLatX79evf/++2rGjBlmiMGzzz5rzZtWuLB3YvkRI0ZQxb5evXqqTp06ZqggCPFJwprRYcNMhx/sy/omT25sMS/bN98Y7thy4oRS6dKZHg+6H7ljADnkMPNennnmGdoGwquvvmrNB/3YY4/R9oTn3OnMcyNn1nPnrl27mq7wI3fu3KYrZsybN4+29kn/QGIpTcbldSTsHT38sLHlG9I7snOYVuxXmASCww8fVqp8ecMNEA5BPQPb27fNHR5+/lmpF14wPSaIs2WL171mjeEGuh9uF1Aleeqpp8iNaZtZEX/66SfP5XmuzwMn1qpVq6z94M6dO7SFH78FPXr0IP8a89wcF8Ad7oqN5/SNJzPPmDEjCUAYuz///HPrmenPDitSMsmSJaOtU9yXX35ZvfTSS+RG2HfffUdup5mFdD/c7Oe4OXLkoKGUuDb4naYew7uD8IiICPX111/7HCe2xM1RYkqjRqiA48l4t5gnGVuWs2fNyCYIY9q3Nx0eOD4Ue8cO33h2pUZC2zOFAwdMjwe7/4MPTIcvaFOYNWsWuRt57mX8+PHkxiw0y5cvJzcnlF2xwaOPPkpbDqtduza5D2jn/sBz7qlTp5JbLLb3WTFc0mHs+3X++MN3fW+Oa982btyYFknAN+Jjx45RmP24uj9t2rS01ePq18tx9RUxr1+/rqpXr07C+/W4sSVujhJT3nvPdJgsWmQ6PPANsmKzn7dQzkAfwhNPOMc9fdrYvvOOdz+UTfdj63KeJ598Us2ePZvc73nuhRUbifO///3PcjuBAfKckJcvX7biYfpndvN+RhTb+zy5lHPlyhVrkoF9+/bRWlZAf4bM3LneNb457osvvmg95+PHj1tfbz777DM1YcIEcr/22mvWb/l4qHotXbqUSl5oP/rxxx8pnOP6U+yrV6/SNkWKFFYVDu1WiKcfNzZ47zoh8DxUV8w6UZxgFr/iE7wgjJ6YXLcTkhY1atRQGTJkMH1Jj4RVbEEQ4oUEVWz5fioI8UOiV+wCBQqYLgMu4kZHnz59TFdgNGzY0HTFDFwXt6LauXjxoumKCn6HRjN2t2zZktyTJk2iLd/vggULyI36F0B9kPcJiQ9OG2xZ7LRo0SJKOPyrV682fTEnQd+MQBQb6Kt/4sa5Aww/FN6WK1fOcrNiowssQPjjjz9uuSFc/4WbFRst1XwM/JbdU6ZMoa0O9vFwuWrVqlmKjXD+xMK/X7FiBW2d4DiAFXvjxo0UjgYzXBMyOPg5Lj776L8TEhdoEAX2DFqnefPmPl9AAMdD+seGBH0zAlHsKONMPTfOiv3pp5+qfPnyUYs06N69O+3HN2RdsdeuXUvhRYoUUZs3byY3P8C6deuSGwq1bNkyS7GxHjRaNzket3jr6K3iaAWFYvO5sDrlnj17rN9funSJtnawP1OmTKbPq9i4b+x799136bMLgL9y5crknj9/vnVsIXHC6YNv53Cj9RxwqzjCOA5v8Y6yOzYk6JsRiGLHFrbY8Y09MT766CN1//59+hQzefJkM1QQHgwJqtiCIMQPotiCIAiCkAQQgy0IQlgR2966gpBQiMEWHgg8h87zzz9PI84ZjIlD+H//+18zRIhveIBxYoE/EAfDhx9+GKN7wG/0+Z/wITkxDa2yX09Mno0QusibIMQ7uXLlijbTsfdCun37NnUAwO9YMPeWDjJedEnk7oEsPDia+fnnn332Q6ZNm2buNejdu3eUOKNHjzb3GiAMY0Tt8c6dO2fGMLqb2ffbZ/FEGMbs6qDbI8KZQI7jBAac2383ZswYc69xbl0wb5kTPDuiXfbu3WvGMODr1sXeGQWzSej79SmG0ItM34c0xbhXuO3oRtrJYKdPn946DgvGQDP2fYBnwdCJ7hkChEX3LjgR3buoX4/Ts2H8PVMhdPF9UwUhHuBMJVCGDh3qGB8LuyOcjR0yMKd4CGvQoAG5Bw8eTH70ANTRB+VgP2apsYNxBTyBA0C8kiVLmj4DffYTAPcvv/xi+gzQhVkHcaIz2IEcxw5+Y180AOhjHwDc/lo0Lly4QPdlx+kanQwFpnjasmWLWrlypU98BnP8IZy7WDvVIuGHcWMwS5Eex26w0ZXcaaJUxEF/fAZ+3fDZDTbcgT7D6N4FO4G8i/brsT+bQJ+pEJq4v12CEEdgWSmnTEYHU4zxZK2YUcotPsLLlClDbn8G225w+vbtq5544gnaB+FZlQD8BQsWVB07dnQUBvEwRkjHabp81LIyZ85snQuCGjwDv91go4AR7HHsYL/TAMIOHTr4HBvu6D5BYD5HPifiYlQxxq/YjwND6Qbm80Qcp2cKwRSAwMlgw6ghDGOoANwoBDB2g425P+FnwVismTNnkpsHbQL4ozPYgT7DQN4FJ/y9i9EZ7ECfqRCaRP92CUIcwM3bqCXb4doLrxWJWgL8Q4YMIT9TokQJn8wrEIOdM2dO1zi///47ud0KFAjTDRv80WXScNevX9/0GfC8swzclSpVMn0GCAv2OHb+7//+z3E/wvQWBPj9GWwMIHY7jh7OUy/qcFP+1q1bafZ2uLmAxWD+XoTfunWL/DzrgJ3+/ftTOFo6MABax26w4cbga52BAwdSOE9hAuDnGfuB3UAG8wyDNdiBvIv267E/m0CfqRCauL9dghAPYEYKzNIPI40pXbnp2gnUQtOkSUM1ENSYzp8/b+4xCKaGjeZLZMbPPfdclInFGWR6mEgc8ewGFeC4gWTSCxcuJIOC6/744499aoZMu3bt6Jv022+/TStZOtUyAzmOEzBQ+N4Po4xalx2cJ7oaNr5Vw0D985//VKlTp/aZdxkrG+igKRr3gvR0+iaOida//PJLOlaqVKlofTA7rVq1IsOsf3MGr7zySpTnAuwGG1StWpVmPcG1cHM1Zl/R48HgoQUH7x+uy24gmUCeYUxr2P7eRafrcXo2gTxTIfSI/u2KAZgQnZs3AToQtW7dml5SHcwowsJzgx05coSUFIqPl1Q/jhN4uUeNGkWKxd+GUDPLkyeP6tSpE73MgiAkHbiWiPkDAzGAghAuxLk2QMF00dG/Henoi2cw+G2bNm1MnzNFixal1VEwnx86v7BxxzJOKJVieAT2C4IgCEJS54HUsBkng2036mgu4pmU0TMUzZQMOn7oQyAwuTAmaQX43jVu3Dhyo5mIsR9fEISo1GneXZWr3VbVb9kzynzB9Txh2AcZ/JcxAbYgCMERF7ZIrJkgCCpNxlLquQ+zq/S/lI1isJ/3hGMfZOacheYvFH1ywvdd9PBHMzY+faGA3a1bN9WlSxczliAIQAy2IAhxgj+DzcYaAj9A5gN55JFHyC8Ign/EYAuCECe4GeyVq1aLwRaEOMCfwUav/0CG5InBFgTB1WB37jXMMtapPXHEYAtCzLAbbAztxIgonW3btvk17GKwBUFwNdgZcla1DHazDv3EYAtCDLEbYswHsGvXLtPnRQy2IAh+cTPYbKwhK1auEoMtCDHEyRBjQiLWJQgmBPKHGGxBEAIy2BwG9EzGnwiCYOBPHzADX758+aLVG9EoQRAcDfaatWtdDTaH6dy4ecsKfyFVTjNUEARgN8TwY9phzL8fKGKwBUFwNNjtug2yDPAvBWv5Ndg9Bk60whq0HWCGCoLA+Ks5o4d4tmzZpIYtCEL0OBnsH3JXs4xw935/uRrstz4raPlv3b5DYYIg+OJkiDHZ0A8//ED7nn/+eWu2TjfEYAuC4Giw2QhDOMxusO1y5ep12i8Igi92g/3NN9+ozp07mz7vmhpSwxYEwS+xMdizFkWq6o17Wv779411zQVB8GI3xLlz5yZhxGALghAQdoO9anWkZYBfSp3L1WDrvPtVUcdwQRDcDfGhQ4doqy9s5YbjEe7du6dy5MhBJ/juu++iXZNaEISkjd1gd+0zwjK+uUs1CMhgAw532icI4YzdYD/66KM+gv1sc93wW8NesmSJevLJJ+kgWJWndu3aUU4qCELSx26wv81RxTK8YyfOCNhgA97ntl8QwpFAbae/eI57evToYbq83LkjvT8FIVSxG+znU+awjK5urO0G203u379P8QRBMLAbYvjdxA2fPQsXLnT8MeS5554zYwmCkBR4OXUuEoBJTWYuXK1qN++tvs5eVZWs2V4NHTtHHTxykvbbDbZufP0Z7NrNepPUbNpLFanS2ud3giB4gR0NBH/xfPagyRuTkWPrJIIgJB2aeRQfMuLnn9XobNnUyMyZVf906azw9s8+q+7euEFxdYO9Wutw9uZnBfwabCd43/Ub0S8XKAjhgpMhlnHYgiAQbJivnjRq0To7Jk609gPdYLfvPsQyulXrdwzKYHfqO9Z1nyCEM3aDLeOwBUGwYIOsS6vHH1e9PvhAza9bV9257p3kRDfYP+atYRndGbMX+DXYbnLi1DmKJwiCgd0Qx3ocdtu2bdWBAwdo6ySCICQdqlevbkl06AZbN7x2Y2032Dv3HlYjJy2w/P/7phjtFwTBFzdDHOtx2ODpp5+mE7AsX77c3CMIQlIgLgz2yHHT/BpsHf13giD4wgZbt6ssn3zyifrvf/9L7o8//pjiOeFosB9//HHT5SVv3rymSxCEpEBMDPYnmUr7GN7fm3YL2GADDn/1E8kvBEEHxlgHk6U48d5775muqPgcQbf4TiIIQtLixo0bltHevn27On36tOW/du2aGctrsO3yfe5qQRnsE6fPWftqNe1lhgqC4GRDH3vsMQp/4okn1D/+8Q9yd+3a1dwbFVcrDGXetm2b2rp1q9q8ebOaOnWquUcQhKQIG2on3Az2C6lyOhpsTK4UiAiCYGA32JMnT3YVNxwN9r///W/a7ty5U3Xr1o3c//rXv2grCELSJCYGG+JksPlY0YkgCAaBtlL7i+e4p2fPnipt2rTkxo+x+Mc///lP8guCkPSAHutiJzYGWxCE6HHSOybQqb8DM/mCICQ4s7pVVmMb5VDjm+Yh/7ULp9XBDYvUmkk9VcTwlmpck1y0f1qHUrSf0Y300aNHHY22P4O9du1aMdiCEEvsOoeKsd5yjXHYhw8fjhJPx3FPzpw5Vd++fU2fgb+DCILw4GnTpg0ZzFatWpkhUWHj7CTo5MLYDXajNr0t97hJM8VgC0Isgc7pvPTSS9YYbBDjmc5mzpypypYta/oM/B1EEOKDzpMGq1eLfUdSqlsD1WHCQNVs5J/q46o5Kezdsr+oO/fumrFDHzbQkHr16qlGjRo5StOmTSk+G+Z9+/aRX2fixIm0j4223WCv8dSq2V2/5Z9+DbabYJ5kQRAMnGzohAkTaIpSgP0pU6YktxtihYVESeXeLcgov18+sxliUKlXc5Ivaheg/amrhM8kHbrBdpP69eubsX35pFouq/AD6Td7rLnHwG6wYZjZ/YNtaBdwOrddxGALghe7wb516xaFVa5cmfxwQz766CPyO+FosPfs2UM/xFAuDOvKly+fevLJJ829gvDgeeqpp2hCnxQpUpgh4YdusDGmOlDeKvWjj7Fm6T51uBnD12C/kT6/j8F+0Ta0C+iGWRCE6LEbbL0j9//93/+pP//8k9w8SssJR4ONKdLscLVdEB4kqDHiRUehEeC7D/wjR44kfzjR4bnnrEU8Ng0bpjYOGaJW9+ihRmXNaoX/+b//mbENhi6Y7GisWRjdYJep2drHYEPEYAtC7LAb7Pv371MY5Nlnn6UwLLHZunVrcjvhaLDB4MGDrYP5mypNEOIDbi6C2MEwQ9537949MzT00Q22E7yv25tvmiEqioF+r9wvPv7+ZtO4brCnz5pPhvntLwqFtcHG1JEPPfQQFQ6LFi2qChUqpEaMGKEKFiyoihcvrgYOHEj7ubOQIPjDKS+Lk/Ww//Of/1D3ckFIKFJ9bxiQr7JVUcsit6hlq7eoJas2qcFjZllGpGSNdmbs8MCfwcZymbyPl808fu60ZZhzta5KYQyHv1PmJ/LrBpsNc94yDaOEhZPBTvdLeZoT3S5vfVZQpf25vKpQt4u6fMU7vasg+MNusONsPWz0MnUSQXhQsMF2kudT5lCNOww2YxqgrwXGNZYpU0aVK1dO9e7dWw0ZMkRVrVpVVahQgfYhTijxzjvvqGTJklHtz4nyPZtYhtlOme6NfPY5GewWHftZYZOnz3E02PPmzSO/zoYNG0LCmPM7+GvhOmaIUnsPHlMf/WCEZ8r/u7py1bumeMYGJeh5NhreXV294WvI525YrlqM7q16zQi/TzmCgd0Qx3o9bB18+MYPWZYuXWruEYT4xymzBFUb9bCMyNpNu8xQpa5evUqTEOBdxSecDz74gOTdd9+lMHRaQzN7bBg9ejQdL1WqVCpDhgzkHjVqlLn3wXLlyhUf/XSCDXL+djXNEC+nL56jfaW6NiA/G+xU35ewDPOU6XOtZ41x2brBxrAyN6Nco0YNCv/999/NkKTJki1rrGd44/ZNM9RL23H91LAFU9TeE1FbI8uXL0+diiBdunQxQ4Vwxk1PY70etiyvKSQ0n2epRIbi25zVzBAvL32UyzIk+w8dp7Dp06erbNmykaxatYrCABaxqVKlCoXrpdlgePGjnCQ6N27eUq26jVCvfJxH/e+bYmrkpAXmngcDvp0iA+jevTttnXrPs7GJ2LbWDHGHDTbWw2bDDOHnnDFvdR+DferUKctg26dV5PAjR46YIUmXKubwwrfL/ETzAExZtUCNXjpT/T6wvXqzZEba922dIhT3rbfeIgM9ZcoU8ut06tSJ9qEQKYQndoMNv5N89dVXZoyoOBpsp4PoIgg6x44doxrFc889p+rUqUO1WWzPnz9vxggeN4Pdoddoy4gUq9rGDFWWsb571zuRSvPmzam5GML7Y8Pff/+dKHSBh11iaT7A12If98wG+77nuqMjOoP9SprcPgYbsGHWlwNEpxkOT4z8+OOPZDjx7fDMmTM+gpYB7Mue3Rjb76/QyM8Fwtj9zOmzF619d+6Ez0Q/gi+B5hf+4on1FWIMN1tjnG7y9AVIXk+X38qcIEtXbTZjB4dTZnnv3n3ruPiO7QQ+3TRs2FAVKFCAMt4iRYqQ4V60aBEZ3JiCmjobRob9GJ7xIOHzXrp0ifzDhg0jv31BfDbYgRCdwYbYDfaMGTOiGGf2T5o0yQwJHqeOXq+ny0ctGT8X/EMNGzfHjBk8fC/bdx8i2bbroFqzaZeq28r4Xq+/V24G+72vi1rH2bB1jxnqa8R1+TFfbTV8fNRv/UJ4AR3VYT22S44cznkbEIMtxBi378xXr92wMiv0pHUCRhXfnCFOQxmcMks+JsTO+++/T2IHNW7eF9Nv2FyjxTSeqIXpwkqGGlpswJSEaObW5dVXXzX3ekHBg8/pJPv37zdjOhvsHlOHq1oD2vkIiInBBmygsWY+ChDsjw18Ph18fuDwIWNmm6FepkcuVkU71VGpK2dXr5f4npqrP6+VX9Xo30YdPnPCjOV8bBTkUmcsTeHJPs6jbt4yWiqc3kGcm49RorrvKAUOt4MCLcJfTu39JIOCJWrzL7zwgjp58qRPTR9TyaKVCrqxevVq8xdGAQmfKzHJxuLFi2m4Gd4TjOGNiIgwYwmJFehnIKROndp0RcXnCHXr1vUrQujz5mcFo8g7XxZWn2auoCrW66ouXr5qxvQ12Mj0UJvmTKtYNW9zNYPZufDSoim3RIkSPsIGhztg2DNLGH4+9rS5KyhMh41yixYtVK1atSx/qVK+K1eBtm3bWgYX3743btwYRTZt2kQZqc6xc6eo5/WHFX9TrxfPoD6rmY96/samhr1t2zbVp08f9ccff1CGfP36dfomjN7XmDQGvd313u38nC5cuGCGGKDDCu9jnAx29haVrHB9v5vBRic0fu5OBrtZs2ZkoGvWrEmLkMCNwlhckDlzZrqfAQMG0OcMuJG2Or80LkP3kKFeMTPEwH6PPIXt4HkTrbDZ67xG7vL1q1Yv7xSlM1GY/R3UW3hghO3wPjuzF0Va+1J+X9IMVWrm2qU0zS7OW6xzXc+71ZR67+drW4PCSndrqAbNm0Bx+Zp12o0foMp53kddhMSLrpsALWIrV640fV4CNtgMMqBHHnnEygBYwpk0mcqol1LnUh9nKqva/zlKtTOlZdfhKtUPpTxKXV31GBSzZkD04oUyfvl7QTPEoNuUYSTNRvZUdQZ3VC1G9TL3BAd66yL90CmGe09DeNYwGDCGM5ZsJRqSZC3WQP2Qp6YVXqZ2RzOmew379DnvN7vfinnntkbHHdxne09GYwfGsMe0EdSpB+iZJQoJfLz0v1ag/XbYQNvBBEC8D7VTwO82ajNYBAP+n3/+mWovMJp79+6l/aj9gFSVstJ1/9jAm9kykbs302QkJbsa98nHxnd9fNOHnD59muY2eOWVV9TOnTt9js01UsisWbMchSeH4aZv1MycwD4I9zZ1yuSDNdgFyzexnv2M2QuiGGz0ztfvAWIvTAQL0gHPUW8tYJCG2IcaqBOofT7xxBPUg98Jvuc7Wl8HGMs0VXKQ6M/EbrD5OUCccNqHZncOf/dr7/A7N90ByGOwL3n6/GaI77mdBM3uQuIGumnn448/tvSW5ezZs+beqDhaYc4Q0JxYsqSRSf3yyy+0DWdQkClcuDA9VMx0hFolWh7gxyxIMZ11y7/ylqF9qOk6gR6pqLFCnDI4PjYygV5DppD0GDRRNe88VL2QKgf1fh47bbEZ272WkCl/bWvf2fPGt1OnJkOG40JQMwEHTx2j2gsyRDRf/rV4mpq6eqHqOe0vlaVZedfMUj/W8ZPOL7Obwf7666+tfWvWrDFDDZBerCTosMVuO/p1MW6Gj7l8+TIdC7qEWjMfW+8Ux2DVMT5GlqblVenuDX3CRi+ZYcb0oo+xZlm2zdeYcrhOsAa7Y8+h1rNv3NYY2mXHbrBjy/ee2jKu69MaUUem4J1Bk/dPjXxbTtB0jOeLQhHA5wv4jx83RhHYQcEQBWUsLvNa8Qzqo8rZ6Z0cv3yO+tvzB/R3EAVXfg5Hjp+m/XZ4P3P+wmUr7M1PC5ihBqyXH3xXXNVu1lt9/ptxLnxDX7/F+12c4eN8mKEEyfvfFqdv+xz+e4s+Zkwv8dEZVIg5eB91UIhHgZfhcdj4zOGGo8HmaSEBSqxw208WbqBWiEwEGakTG/fvUCfOn45R86iTwY7csNNSRqfmZdTakCYPP/ww+fUezJi6U+f6rZuqy+Qh6rdmFdQHFbJQhpe8xA+0TGXhjr+T0WT4nHb0zOHwMSPDcjPYHA+i4xQG8M2Q9926bQwR4mPbRf8OqONksPFdmMNhNHVee+01elboNYymVxYu8eor5izeEmkZtyHzva0o9+7fUw2HdbX2gR49elAN0G06X0w/iP2Y1AXovw2Ew2eOW79xEhgfhsO2Hd5rhvjC+4GbwZ47f7H17H8pWNvRYC9ZssQy1vPnzzdDYw5fl95F0F8BCYVVpFnjxo1pHmYWVDYQzvM0A74XHZyHw/V9/A7q7z6kdK0OZgxfeD+4feeu5X8trTEPvo5bIR16jEI09qEDJ8PH0jl64owV/lMB75h3fI9/IVVOlaVIPTPEU3i4eIUK65g5EPs79hmjzpkFb+HBgHdRB/0YELZggdGqiFa3atWqubagAZ8j1K5dW+3atYu2ThJq4GFBUEBBzzxMFoMCSv78+ek7Iu/XGbl4uirUoTY1n8HwvVHyB5Wueh5VpNMfqu+sMeritctmTC/RdbDSgcHn89rPzXCNGrU4O+ggxfvBlRvX1HvlfqUMDt+8Dp0+ToYGE0Fs3L9TZW5ajvbxNz6njIHD7OF2g41ZnzieU4uA0zF+KVSHwlCz4DHVwG6wsxb31nAuXvKWShm7wWa/HqYzLXKRlfF/XisffTss2L6Wes0M02t3GXLVILGDlgbeh88GDB+3eGfffh9bDu629mFSDsD+ueuXkx+ggHX1xnUS3s+wf9Bc49umDu/DZB66v/5Q545/vB+4GWwIP/fX0uZ1NNjAX+0aNQl+n9euXUvf7Z1EX7db/9bsJBX+NGZedCs0YigbXzeEsfuPnzpnhaEXuo5boRHiBO+D0WX3K2nymHt9cbvuKXOWW7/V93GYnZI121v7mpiz/6FwjmeEvMmJPccPqdt3fcfOA0wCBH3BfAUYC/zFF18ENJlHXIPWErSQYG6BEydO0CcOfO/Fp6qkjFt+Di5evGi6/ON+hDAgZ86c1JkFPVyZc+fOUWcjZB4o+ei9NAFqUHjwmTIZHVOwshn8s2f79lwNpoMVg+VMEf4/c8UlNI3Aj++eOm7KC3ifv56uoE7Lvlbc35t7m9M4DJw6c8Hyf/JTOQrT0Y+9fvNuK26xat5v4jq83w6+v/G+vyYaNTQ9s3z7i8IUxn5MVmJHN87sdpukIkPdopShocOSjm4QIP4KMZhnmsPXee6dSWuuO13AY/x13I4N8P3ebQnM5J5C4aSVxpCglqN7U5hei/YHJvTg4zih7wvEYNO9xsBgM8h80USL9xrTxSITxjSyCNfhc9nRrwNGETi93y26DLfisRFjOBz0HT7N8nfq47s+ONDfQf4Nu/OUjTpVsx5XF2410nG67jc+LWD95oKnRqzD4TocZg+/5yn0c9q2HtPXDDW4efsWtbRhH7+DrC/o78HSt29fVbZsWQp3mzQLnQFRG0SrFIyq04QxAJ+e0LkTnTyRf2LRFLwryO/0T0Suc+V70nrnpEnWvl2e3+l8+OGHVp7Kgil7Exu4Lh10kH399ddNnwFsjz2ejuMeGCGMOw0n2DhC9CY0Bg8XGQympXQCHbiwHzNPAZ6oY/dub2bOoBaNxVX0ZtpPPvnEOr+ToLmW0ZUUHbLK/t6J/GgGW71+B4Uz9owBnW349y+nzkVhOryv+8CJlhsziznBx37ejMfydXbfhSYY3s9gDCyHffGbsYg7o2eWTNNOQ6wwzDSmw5mOXfx9r8M39d8HdaDhP/hE8KbHaH5Xt4iqN6SzWr93mxnL97qvXb9p+bkgYYczy2wtKpkhBqgxf1m7gE9mqYNCIKc31r6282nNvPTb/G19a/tz1i/zkUWbjULmpJXzrWtBrUoHrUG8DzwIgw0CyeT5XEyu0o2tsEXLN5ihBvb3W38XneB9P+StZbnd4urvIHdS+7VwXdffcDgEE81w07ZTXP269U9CGJHhhH6cUZMXWP7G7QdRmI79mTC79x+1fqef56effiKxg0oH7+PlbQH3n8D3/86TBluzv6FFCeEoUJ67bNQY3zBng1u+fT35wckLZ9Sh08eoxWlsxGx6Z5ndxw7SZ6YfG5akVq7v6xVX3/xRWH1UOZvK2bIKvbcM6wrP9tehQwf6FAJ3//79rf2JBfu1FCtWzHFqY3/X7LoHP0JHM3SuYglFuHOKk+jfEpyUYMzURZYCFKkSdQ1TdPrAkJ3KlSurPHnykAFHczu+U/Tq1UutX2+8xGjuxYICuctEHZaBmhz2QdB8BzCJBMQJTOqAfe98ZUyXqF/3p5krWtfLHcfs8H674Ld29AwNcuHSFcvdb8R0M5YX3qe7n0/pP7O0Zzr8O3uTu26kMRwqV65clt9OsGnJ4XpLAMSJYNOS4d7j+MbN75995jJkYsj8MORHB2G66IUBPfzsZaP3dtkejX3CgT+Djc6JfM+xMdh65ztd7IUqPhc+fbAbtU8nOC312imkeHX/rTx2wfhrO07vid7cnVn7Rgw4nKexRc2Sw+q17k9hjF13WD78zjdtGd6vT8sLccJ+3SdOn7fiY0SLHbue4LMFh2ECIp3VuzZZ782la95WADSxQ6r3a0377AVStCYirdEBjvNcvcMVg3nZm4zoQa1fKKD+UN9jsOsUpk+Q+HyHAjZ/PuJ70mePW7V+O42PRzj0eO4S346mgYLKD2TavJVq6twVNPUwRgfhvfoyaxXqKIgWyGDAPevALgQiOo4GG99xHxR/O3xLAfdv3VSrXnXvLaezLs1Lpsvg1uH9an3619W6T5KpW0d9axY69hcVHDx40ArH8mdOTW/VG/e0Xpb5S50zMPuxMTyHw7CClI5dwaZ7XhI+vlMHF97HTJ69zAqzZ1T2jCFL0XqW297sBngfd5S5e9eb6dRq5jusTD8207q7d4IL+7dmDreLU/Oi/ZkwmOmKf3dba2rkZ7tsmbe0zmH2pvFg05L3QzIXqavS/Gj03IfYCTYtGTZeQF/vW2faau93dydq9m8bJbP8olZ+6zduAvwZ7I8zGZOKQGbPM4bG2fFnsO3PZNKsCDJMCCtfp7M6Zuv5z+eyiz4sitHfQQhgd+HKrcivw/swrwDDYdlL+I4fd3sHP/i2uPUbHaewnKW8rQM8WgLo141ObYD9H/9Ulvw6vA/Stf94lb98c8tvh4+d7mfvZxvIkLFRJ5wBrCeYjIXdaPFzwu2ZYAgon2f8jCVmqFLPPPMM9d1BIcDOmDFjaB8PcXQ6NgrmfFx0nNO56CkwYH73XK2qeKQqFUQxlh3D9DDqJEfLylb/jdQ/lqax8xgt07nvWBJ8BsHnE1RuEN7/L28lA/19creuptqM7afGRswi3Wszti8VGCr3bkG1/yyeAkQw2PU5JjgegTMLu8Q1dy9fVBfmz1B3zp4iN7OngmEsAjXY23J+Y7q83Dl9Qp0c2F3tr13aDIkKv5xo+mG326B1XcEgegerem18S8+Aj2cX9O62Yz82i1vt0ykuBCVpO3xsvacqSo38mxVrvU2/gMN1kMFyOEqbjJvyvpwmt+NxOExXDA7DtKY6bsfG9zn+jd5JiJ+vDkrwHI5vp0ywacn7uPAGMEaWw3WCTUugj8SwC5bQ1GEji5m8dHBtvM9eu+FwJ9l+2Ojo5c9gl6nZ2rqPpu2iDh8CwRhsBjWjH83hghj2tGmb0amIz7V5u7cTGofZn6N17BzeY+O4HD+fx7DpcLgO1lvncL1lyO26r9/wfhb5Joe38M1hdjhcv3anY+u91b/M6luz4nAdHq9tD9ffwVyljZYe/lTg1JLAOgLBwjnt2rWz/Ddu3DBjGejXnSF3Des8m3dEHVIKeD/Ye+CY5f8uV9R3hY9tb0Vwm3uBwSxv0BX0/eFPm/Z+EQCz4aGzon2iGhj3nxqVVk3/6kkdPgGfG0R33YGC64otrkdAEwa+M+GjeHzOcnZ55RKqTTMw0rqsT/eauccdu8E+2rmZ6fI1+vZji4iIiIiIxEYCJd4MNoy0XpsAbuNKkzJcinSC93FzqltpG+idQKo0MDqdBXJs3u/v2HpP1obtBlIY+53gfbzf37HnLfV2KMprNkvrv7XD+3i/v2Ov27zListDnvTf2uF9vN/fsfUSL5qnQVw9b6e0ZL8TvI/3B52W5mxobvjb3258f/W/cr9ShxynYV52EP/NUhlp8hE7/mrY8xcuta6bm2/t+KthM+hchOk20ZPeGBKJ+b7zqXI9GlPnI57DgM/lBO/j/f6e95JVm6y42Yob637rv7XD+3i/v2Pv0TpwfWI2Yeu/tYPatb7f37EjVnun+OWZAvXf2uF9vN/fsSfO9LaW8ayFcaU7+nzv3QYY7yP77dzVvu/zqA9/x8Yskhy/RZdhFPbkk0+SOM19gWFSvB+4HfvEqXPUSRb7vs5RVe3ca6xtzuey43TdAMY4EIktjkfA9IzoKc0TcKAnW1ycTBAEQRCEmCFWWBAEQRCSAI4GO126dD4LQgiCIAiCkLA4Gmws+YWZiBKCESNGqMmTJ5O7Xr16fqejc4urN98npqb80aNH0/VUqVLF8boe5LXiXOhRiWvCSlU6GH+uTxMZH9eFY+o9OR/kvdvRz42x85gbOyHAdehjUxPqmWCqXp6jHuAd4Zn94hNMDWwnoZ6JXSdAQrwnbs8kIXXH7ZoSIj+xnysx5bHxQaK7evtUbZhoxA23uFmyZKEtwDzGDNbuZUlo7C8OOkkgDIUlLK+GWaBQCIlvUOBxypyYjBkz0hSucY19bCbuHetQP2iwXOPLL7+s2rdvT7P74X3BxCsJCZ4F+pAEOr9wXFOxYkXVsaN3GVUQnxkd3j8IMnZ222eAehDPpEmTJtb50dGP3eBBvyd8bqdnklC64++amAeRn/hLJx37O5tQeWxc4nNHaAY/cOAAbZ3kQYAef+jZx1PL6WBpy549e5o+97iY8OSPP/6gqd+wgk9ixH5vGO9oXx7THic+cFMwTE+LeX8fFA/iXp3AO2Q/d0Jdi3060vTp06tJk2K2xnpswOQzadOmNX3G/PpYYSy+caq5JdQzsetEQr0nTs/EzoN+X/1d04POT5zOxdifS0LlsXGJ69U+/fTTdDMsy5d7VxMSYgYyQv2ZsjAoJWPSeigECiHxidN1ZM9uDGNw2rd161baF5dg2kMYAiwAkdBgvmTMBY+V1RISPAssGIMJUxJydSJMi4p585EPuC3q8KBILM8EJJb3JDHpDnDKMx50fgISUx4bHzga7Mcff9x0eXFbsUUQBEEQhPjHx2A7lUx0EQRBEAQhYUi0VvhBLP7BM9ZMmLHUDPEyfPw8az+4e/umGtsoB8nR7SspzOBvtWJUewqf0sZ3cYKlmw+pvtPXqaZDF6sqPWapQq0nqt8ajFIl2k9RzYYtUQs3HKB4+mISkRt2RhHex/MLsz+Q60bnGC5wBbJk6sLZlUmuXD5ihvhn0ZyqFH/Nivbqzm3v8Y8eXmod68wpY73xgbM2qMz1R5K0GblMjVm8jZ7RnmPn1ZmL19Wla7dIQLDXzXED+dbaOVky53V3/XDjxjnrfuyydP7vZizftPw2Z/UowvvsaWlHX3LRvp7yvt1THa8Dcveud5rfYJ6JfXYzf8JU7TnbSk+7NB7iXSQkbfXc1tzlg+ZNIOk3a4xqNLy7z7zm68wlTfM2H0/HyN5otLqjLZgBWnvem9Z/Rai2o4xFXu7cvWedc/0e3/mj93reK8SFXLluvFe1+86luL81HKUOnryoMKHj/ft/q1Xbj1rH+b2vsf444LDmw5eovcfPq3OXr6vN+09Z1whhyneZTv6snmNHbDnseae97+389fvV/HWGgGDf7wItJ9Cxszf2Li8JcO05PGHZG4+mOGDunzUoP9q6wHttOpyPXbtgrGvA71l85CfB6PycntWN614YdclJEJvrXrm0qaUjgbDn6HnKs3HdeFfKd51B73SPSZFqQsQOtfVA1DUhogPPzA4+r/DztIsTidJgx9fiH/r8ryIiIiIiIrGVQHEywm6G2Q3H2Lx2ab9+/WgdbPS0DvbAMcX+MOJy8Q87uCdITHrAXr90Rl06fVjdun6Z/Cd2r6MS4tXzJ8nPNU/UNO3cunlJXTi3W129coz89z3F/Ju376oLV2+qQ6cuqpWe0v7UFbvUgJnrVYOBC60S6jyzdN5gkBGWzVMD2bD3pDp+7oo6euayWrLpkBW3oScO0EvEWNVmzZo1jrJtm1G74bhYsxbzx7uJzq1bl9TOrSPV8sWNPPddRS2ZV1OtW9VJnTiqt0QE97xjet3RCXPv3m11cN9sus6IBX9QekGWL26oNq/vq06f3GDG9LY63LjuuwykE+eP7VUbZvRXqyd0Uwc3LlbHdkaqTXOGkuxZNUPN6FyeakDXLxnHWje1D9Ua5vSopk7t26RuXr2orl08rfatmavGNc5J+y6dMlqJdm8fG1Qtge85PmrYfaattd41CN7V257arhN6DTsYPvzwQ5+0g6DDkM6dO9fofcMz2bdrCrWE/P33fXXv7k115tQmtXR+bbV6WSt18YIxDvjE+atUY+LrztJglMrq0SP9XmavMTq2QR85DK1j0MtjZy+rbQfPUI2b9y3aeJDicw3wb4e5rfevnUv7prTxrjB35exxtXvFVLV2Si+1ZlJP2q4c09Hz/gxQiwc3VitGtVMXjhs6z/cfaF41eflOVaf/fFWk7SRVqftMVbXnLFWuy3RVpM0kVW/AAjV91W4zpnceeAg6gzkJz9eNNSaWDm1G97Lsr9ae93SOWjyokXVv2G6aPYTigmCve+KyHXR9uM5SHaeqit1m0nUXbDVBVf9zNr1nyCuZWZF7VV3PfaJ1Aa2XSNtCrSZSvsmtGUBv+cK61nbhfdzylbzE9yR529ZQQ+ZPUoPnT1QD5oxX7ccPUKkqZaXlNYt2qkNxAwXPwQ4/HydxwjEUi+gzMNggZcqUtA0l+MEEa0ACaQrCxAZQABR+atWqpebNm6cWLlyoatasqU6ePEn7ePKDYDOd0p4XGRlFnmbj1IINB9SBkxfV4dOX1Nrdx61mShhzgEX0cS7u5Q83hl5gC+VDr0m4EQ8s9mQ+aK4v1WGqqu956dGMheZHhJXsMIUygfFLt1PcWd0qk4KOb2pMgn9g/QLLyGyeO0xNaJ6f3NM6GIvmz+/zO/nXT++nbl67RGHgwvF9alr7UrTv4AajoIHnhuvi5f3wDOGHgLt375IbwxABG7It6/uRX+em53keOjBPXTi/h/y3b11Wi+fWMJ737im0H8/77p3r6sSxVdaxzp4xerKy//q1U+QPhOvXr1vviy7nz/sugQrDPbdXTbr3hQMakAHHpxX4IXiGMOJg2cJ61rUEAp8T43YvX77sKsDJMLsJg+Zkfhed5Mr122ZMg0ue93frxkFUKELhaPHc6mpVRAu1d9ckz/tnNIvqBGKwAfTkwN6Zau3KjvR5AoXGRXOrqRVLGtP5UDhm+Pnd9hQyo8PfuufAnskzF0/sVwfWzVc7IyaqXcsmqyNblqnDWyI8RriJpQvXbt5W/WasJyNUoesM1WL4Uo+eLVetR0ZQkzyaYDuOXaEOnzKuk+8fedWdO3dchQnG8CEPqdFrjsrXYrxq9VcENfv2m76OBP5hczep7YfOUFyAQsu4JdtUB8/1/dFvnirdaZrK2WQs5UfVPPkPPgNevWGk/dnTW9T2zUM9adNB7d4xTu3fM8OTVjPU3p2T1MY1PdWmdb3U8aNG3gR94/Q5f3YHhTHXr51Wkctbe+L3VhfP+44UOHvpOn2C+GvBFtVu9HJ6nvwO1uw9l+Igr+s0bqUq1m4yPV+4e09dq/p70qDLhFWq28TVas7aferefWPRqxdS5iDpOXiS2rX3sI907D3G2h8MSL/Y4nqEBQsW0MuBk3zxxRdmaGjBL8eVS8YKLXaQgTO6wa5duzYNuHeS7t2NFZ7WTe1NGTFK0Ee2LlfHdkR6ZLU6tGkJZcqLBjYkZWaCyXT4OgIpaKT7pbx6OXUuEid4H69ig3HumFgGLzgWtMfkEA0aNFBz5syh/a1atbLGwgdbiAH3791Vxz21zh1LJ1Ctc/Pc4Wr3yume5zRNLehXlwoBzJYtWywjPXjwYAobPny4Fca1a8BpuXl91PWaoeDLFtVXO7aMMEMUKWvOJmNIqVF7qt1nLhVMBs/eSH0L+LsaWLG4kXV8O/ZvYxg3zNe3YsUKWv/cLpi0geFv6d3ffFNNKFDAUY54jgO2bxnueh1gl6cG/vff3lruhxlKRhGsLJWzVGNatUnHyTC7CYOWIc7gdHQjDpYvauD3uu2wIQzk2+S1C6fU5NZF1LgmudS+yNnU6rVkSFO1oH89qrWi0LPEUyNk+LfFq7eLUssqXLmVz7F1g12xbtcowvvYYPM9ogAeHcG2OiA/wLGPHlpshni5dvUEteShcA+C1Xk8O8gST4Fi2YjWnoLGJHXuqCe/8aTv3ds3rP3g3NntnvxoIFUgjhxcpE4dX0utUadOrFPHDkdQKxC2t29fofhc8Lx31yhMQP+RZjg28kLsm2z2/Un7czn14kc5STZs3RNFeB9W1wIo6CON0bKJfkRrJvVQkRO6UwsA8hJ8C79vnjcxgHzSzs6dOy3ZsWMHtWpjxjg3XA2206L6oQaaGrcvHqsiJ3ZX2xeNJQMCZcdLu3RYczWjczm1a7kxBhU1gP17pqv1kd3IgKJmBgO7f/c0jyEYTi8wMlSUBAE/M9RuYFjcBARr+IK5bo9eUFPe0DmbVK8pa6gkiRJ0d88WpUyUoAfN3qD2n7hA8WvUqGEJat9Owi0D+nX7k9SpU1N8zuACyYgBnikyKZTOkRldvXJcXbq431Mjm2xljhfO7TJjB9489mnmirRMpNtSkbwPC/Qz166etM5pl9XLWpqxlDpy5jLViliyNECzq9ERSQ8/cc7I0E6ev6o6j19JtR/UVNDRpXL3maqwp2aEmgLS67TWeYnPiRYZHXyS4H1ce7Q/T+bS5WvWvjt3jFqWk2F2E8AGGYJ3TKewpwCkG2zmwvndasuG/lR4Wji7CrVyRC5vQ3qEFg4mmFpZsLVgNpKNRxgFa38Ee2x+3wMpSKMGaRm+Qx7Dd0IzfEeWUavD8aMr1Z3bxrSsXAiEODVZQ7jZOtj8RH8vl287Yr2z6Fyn74sJwdRUZ3evQi1045vmJmNuyFJDNi9VE5rlo/3TOxr9kpAHr1/dVe3aNpo+v50+uZ7k5PFI+tx1aP8cn/whoUF6BMKZM2dc3yHHIwQyu04owKU/fIe+f/+eOn1gq9q2aIyKGN7SY/haWPtBsDWnYDh48CAdd/369TSPM6beGzlyJNXY0SQMZcR+nqUnmAxN7xE9p2ZNV7nouYZgQVPt+ml91bzetdXGmYPUjiXjqXSOZ4jCBL5twc/wdfT1GPDFnnt0E8JjBVYtbUYGSDfYFy/s9RinUZZxQu1CJ5DmsfjMiINl3/Hzqsv4VXSdBT2FC2zRfImRBCU7TKVvpcs896ODDIrv3y6eB2dE8sD34SYjJnh7QzsZZjdh8Dz52doFBRRGf95vfFogivA+ft6BvCenPTqhg08QmP/cLvZPEEwgze1rV3XUnmtUrlw+6tgrP5D+HzHVy0CuO9hCY1KF7z+QSlFiANdqh+9Bl++//97cGxWfIzj9WBfByBjQZGEXt4whEE7t3aRWjeusVo7uoA5uWERN53tWzaSmYmxnda1ENWju4MaK3j9dOrWiY0dH2TjE6PgRbBNWMOiZjlOmysJwgQfiVOCBoCke6Jl8lYbdo4g9kwdHtq6ggtaUtsXNknoeNbNLBbVm8p/q6nlfw44mKFwHWhJQOALjxo0jP8J3747ZJ4hg4WPjHcqVK5ergFTfl7Lu20l0Aww4XIfDnrd9f3MyzG7C3LtzW41vltcq2LLgXbUTTCeoYGrBem0S82s7ZdgQXnwC3+zhRodFxB84cCB9bsF9wY99ly4Ztclga6rx0VGJ4XQLtHVKSHzgPXICC5bwu4apVtE/xw3HIzgdGHN2C4LOx5nKWk1a9uYuCO/7KlsViv9a8QwkyLSmRy5S0zwydfVCNTZilmryVw/VceIgNXGFYXT0woA/2TR0KMXnDm6HNxvfZk8f2EI9tY/vWmt16kLvbRBsRswE2gkqGPgZBdJkyAb718K+mf6FS1etDDtzEe9iBm6Z+Nnzl6x9+cs3pzC7UfYngHsEo8e7HTbcp/Yb4+9BsL1/O3XqRAuQYIQKWp0wVWrTpk1Vt27dVJcuXcxY8Yv+nvgT/uSDlh0WjNWlzzIewacafV9MCLZPjJD4wLtixykMc+XzO2XH0WCXL1/edAlCwqAb7L/v3fMrAJ39UDMGY8eOpZoyeuQPGjSIwrAPmT1A5yQYFHRWoQ4wHtCcv3f1LBqeh30TWxSwOsrwdYzMnFmN9dR2x+TMqUZmyaL6pkmj+qRKpWZWqqQu2BYViA/cDDbAN3fs+/y3SmYI+l3ctpp00ZERLSwnj69RWzYMsMIxhA04GWY3AWyUnUDHL3/7udkcxiwxE2yHtvgkmM6gQuLEzWBfueLbuonPJmgBcsLRYAtCQqP3GZg1a1aUDjYQ9KpksGRe3bp1SfSlBxGvUaNGqk6dOjFewIYNdtfkyclgu0l8E12TeM2mvcyYBmyU9dEObjgZZjcB/gwyRgBg36RWhc2Qv9WhjYvV+mn9aIwu+jWsGteF+jisHt9VzetViwzflXPHzfiJA70nd+fJQ0i6eKT71OGq36yxavLK+erAyaNmbEHwj5PBxpKf0YmOzxGw3iwUEgdGO7pdBCGh6N27Nxlvt1oED1WZNMt3uBL4a+J8a39MgLFv164duY8ePWoVJHjlqK5du9JyrvGNUw0b36LZYNtZH9nVMtr37vqOc8YkN7wP2I2yPwHocMhGe0G/Our8sT1q0aCGVti4xvFfgIlvkFmOGDGCvnHPnTuXthhqiO/eqNkOGzZM/fXXX+rCBWOEhSD4w8lgY+lahOvib71wxxr2Z599ZroEIWFABx3uxIMOPNSJZ95E1XvmKFW5dwuVslJWlbFBCarlADaiEHtHNhbu0BYsbBADGbsbn7g1iX+fp6Z1DZevRP0m/9VXX9FC/7rYJ0JyMsxuYgdjXTHCgsbumn50+BvbyD3jEYRww8lg62HsRqfHF198kdx2HA32nj176MdTp06lJsV8+fJJpzPhgYJJ8dFzGj24ixYtqgoVKkS1nYIFC9Lse6jlYL/bix2XBNNZLj7x9w0bhQc22nsO+DbTBtJZzskwuwnQh3D5E0EQDKB3dhDGk0Lx/pdeekkNNTvT2nE02P/9739Nl5dvvom6wIYgCA+Oq+dPWU3O1y96p4oEe1ZON5qim+Q2Q7zEh8HWwaQ7bKDPXzamkhUEwRc2yLHB9Qiw+qzcPNhfEISEA4uDwCjz3O1gescy1JHr7OGdljFnPqz4WxRJXTm7+qJ2AVWwfS01a613TK+TYXYTO2KwBSF6nAw221hdHnvsMdfhorE3+YIgPBCCHZvubwKSd8r+bO0HTobZTeyIwRaE6IExDgTMdOk226gYbEFIIugGOxD8GWw7TobZTeyIwRaE6HEy2HrN2i5OOIb++uuvasoUY/EI/uHTTz9NW0EQEoZgZ2h767OCJFPnGqt96YyZssjaD5wMs5voYN7jV155xUc++eQTc68gCIybEbbTuXNn9cwzz5g+XxyPkCNHDjV79mz1wgsvWAoa6MkEQYgfgp0qk3uNRyfAbpT9iU58TNcqCKEIdMMJzMyI0S5Yq6BAgQJmqDNihQUhifB5lkpkYD/4rrg6dNSYUnXctMXqxVQ5KbxT37EUxrBBDmTBCCfD7CY6YrAFITCcDLYexu5evXqp3377jdx2HA328ePH1fvvv2/6lNq1a5d6/vnnTZ8gCAmBvoLZssgtUYT36SuYnTp1yjKkmLkLayaz/+TJk2YsMdiCEN9AN+zoYexGjTtTpkzktuNosNOnT28tR8dgzVFBEBKOmEyVuWfVDLVoYAM1uU1RWshiUstCNBQMS7me1lbTcjLMbqJz4/pZtXXjIBWxoI5aOKeKWrGksdq3G/1fYjarnCCEKk4GG0ycOJG2yZMnpwmi/M3I6HwEE6zxjLVkBUFIemCpUSw7OrFFQbV1wSi1ac5QNblVYWsp0gnN8qk7N43Oa06G2U3AIo9xxjzkWGfdzqWLB9TGtX+qI4cWmyGCILDBxjYQccInFBaeBT9A09YPP/yg/vGPf6h3333XjCUIQlKAJ1K5df2yunfnttq2cLTHWOejmjavqMUTrTgZZjcBvHDIzRvnyC8Ign+cjLBT2MGDB9WXX35p+nxxNONPPfWU6fLi1qYuCELSx8kwuwn4++/7HoNt1LKx3bl1FDWFRyysaxnzM6c2UlxBENwNdp8+fUyfAewvOp454WiwwZAhQ+hgEFm9SxBCGyfD7CaAJ3Bp+3//p3qkSOEqgiAYOBnsYHE9AlbnYoMNmTRpkrlHEIRQw8kwuwlgg+1Pto4eTXEFQXCvYdsl6LnEnXqE582b13QJghBqOBlmNwFslNs+/bTq8c47riIIggGMcSDEaC5xHByG+4033iB3xYoVzT2CIIQaTobZTQB3WGM5um0lhYO7t25Y4YIgGDgZ7HPnzlG4Ljlz5jT3RiVak+9m6QVBCB2cDLObADbI6IEOTu/fYoWtHt/VcguCYOBksPUwdl+6dImmKnUiWoPtdBJBEEILJ8PsJnaGDx+uHn30UZLNm72TsQiC4MXNYGMCJHaDl156SQ01l8i142iNFy9eHEVWrFihrl+/bsYQBCGUcDLMbsJ06tSJMpkUKVKorVu3kuAzGsJ49iZBEAycDHawOB4he/bs6sSJE6bPACsFAbequiAISRcnw+wmAN/ZkAFheU07efLkoX3IRwRBMHAy2AgrW7YsubGE9TvvvEPbP//8k8LsOBpszEn8+uuv00IBAPMU48CY49TppIIgJG2cDLObAO4lvq5fP7Vt7Fi1bcwYtXXUKLW+f381KmtW1T99ejW7enWKKwiCs8HmEVlYYIv337x503WxLbG+giA4GmY3EQQheJwMdkREBIXr++rUqWO6ouJosEuXLq3at29v+gycTiYIQmjgZJjdRBCE4HGzoVhOE5+aH3nkEVWgQAEz1BnHI/z6669q+fLlps/goYceMl2CIIQaTobZTQRBCB4ng62HsRvziP/222/ktuNs8k2wwL0oqCCEPnaj7E8EQQieQA02atxui235HKFu3bp+RRCE0MTJMLuJIAjB42SwAQ+BxLLWhQoVos7dbjgfQRCEsMLJMLuJIAjB41bDdhMnxGALguBomN1EEITgcTPCdubOnes6n7gYbEEQHA2zmwiCEDxOBnvVqlU+Mm3aNPXPf/5TlS9f3ozhixhsQRAcDbObCIIQPIHWsP0hBlsQBEfD7CaCIASPk8FGmD9BbVtHDLYgCI6G2U0EQQgeGGA7p0+fNl2BIQZbEARHw+wmgiAEj5PBzpAhA4Xnz5+ftj/88INjPEYMtiAIjobZTQRBCB4nQ/zMM8+YLt/9vCiIHTHYgiA4GmY3EQQheJwMdqpUqaxwbL/99lva3r17l8LsiMEWBMHRMLuJIAjB42SwdbCsZnSIwRYEwdEwu4kgCMHjZLARNn/+fNNn8MILL6i2bduaPl8eqMHGhejgYnVhihcvTm34RYsWNUPcGT9+vHrsscdoDladtGnTqueee44WMBEEwT9OhtlNBEEIHt3GMU5hixcvVtmyZTN9vjxQg/3VV1+ZLl/sY83A9u3b1ZNPPmn6nMFC3+vXr6d1RPUb/Mc//qG+//57MuT79u0zQwVBcMPJMLuJIAjB42awoxOdBDfYKVOmNF0Gf/75p+lS6tatW6pEiRKmLyo9e/ZUkZGR5L506ZKqXLkyufWbtN8woz8QERERERGRmMiD5MGeTRAEQRCEGBHeBtteOura1XSYLFigVPbspsdk+HClUqc2PSY4jltJq3hxY1/LlmaAB/hnzMBHfaXefdcMjIZGjUxHHHHqlFK7dpkeE1xX9+5KvfWWUq+/bgZquO1HeM+ehmzfbgbGHC61zp49m9y3b98mvxPDPemR2p4eAYDjjhs3TuXNm9c6Hzp6wL1y5Ura3r9/n8Lh7u6577c89/26dt8IRysPBJ9wmEGDBtG+rvb3SQgLcufOrf7973+bPl/wXthBnx1IbMGsWY8++qjp84Jr2b9/v+lzB9c2YsQI0xfeoLXWKa0SmsR3RQ+KL75QntzacCNh7MLhTiD88GGlzp413Lx1A/t0gw1++skIv3bNDDA5c0apIUN85ehRc6eHcuWM39kH1mfJYoTfuaNU3bpRr+fECSPsqaeUWrbMDNTYvNn7m+PHo/7ebX/hwoab5dAhIzwaeGYfLNaeL18+coMvPOkCIwqQeSD86tWrND4RfROuX79OnRd1ZYL7MNLD5IznGQ7xPDddjurPUAOdG1OkSEFuHAf9IthdzvOsN3vum8913HPf7C7suW+4WQ6Z9/3888+rPn36UJgY7PAEBpvfkx49elhuoLuZJ554IorBRjzufwP3hAkTyO3GsGHDHD852s/n77jws8HGOGD9t3D379+fln18+OGHKaxFixYU7hbXDXtc8Mknn5DuABQupk+f7npc/fl26dLFcmO7detWy82fS53g3wC4V69erf7zn/9Q/gN++eUXn+MyujshSNizJyTJkytVs6bpMdETY+NGpX74wfTYQDxPAtPWLk4gnA32nj3eWvX581F/A4M9YICvHDniPX6bNmZEG2ywwcWLUY/LXL6sPBbK2L92rRlowr/p18/59077cd7GjQ33G2+ge77hjgYYbO5UyDVpkNyTLjXNdMEIAA6Hsc6YMSO5W7VqZYUDuKFwDAz2AM9z0+UInqHGs88+a2U8zPvvv68++OADcuOYy5cvt9ygn+e+2Z3Fc9+Nzft+w3PfGJVgN+KQgwcPUhwhfNBr2FzoZHQ389///ld99913ps8A8WrVquUpf98ht14ghWG+ceOG6VMqc+bMjoVDp3P5Oy78eg0bfrQ24Vxwnzt3TjVt2pTc4NVXX7XcTnEZ+/Vi/6JFi6g3NP++efPmlvsnT2Xm6aefJrfTcd2eL28B3Dg+43QNkydPJveXX37pqc+c8Gltw1Z32683oUjYsycknpqd5+mbniC4dStmv4tvYDiTJTM9SRfUuJ2UAgpz5coVci9cuNCKg46JCa1EghDXxNc7HdvjrvUU8rlQiwI0G1bhwSA5nSAIgiAkAcRgC4IgCEISIGwNttOEEE4SW9BzE81QEHzjdOrFGQw4Djo1xQfcXIZOXnydcXHNwYJOZegkhu963CEsEPCdaubMmaYvcB5//HErjebNm2eGGiCspdZh8Ouvv7biQsCoUaMsPybrYTAhEIc3bNjQDDXIlCmT9XtBEOIG6G8geoVv4eh7gib9kSNHmqHOYI5v5EPolMad2hIKMdjRCLNq1Sor82VBT8azZ8/S5C/wv/jii1GmQtXj68YP/oEDB9Jv0OkEcKcGFga/0cPtBhsdoDANK14+7E+fPj2F45uv/rt69epReNasWcmP32DLsJvjowOYfs1p0qSx9nFcADdmm3vvvffIje/Q0YFOZ7jv1157jX7zv//9j8J///136vwFYLDRg5bPh/MDpAuHIS62jO4GbulmB0qJc/F0uJjA58KFCxRfN9jwY4Ud9C7fu3evFTZ37lzLXapUKXIjPWbMmEFr3uoTBCHOpk2baCsIQnCgJzcPr6xbt65P51F7z/LoCEQP9f1wJ2RH0rDNMeyG2U0Yt4x/8ODBlr906dJmbC96T2fd+N27d8/6HQM3enxiDCCkQ4cOUV4ouJ0MNowNw/GxbdKkCbkBh8Og8tAICPem5P2oDbKbr3nbtm1WGIABgkEHejjcuOfocOsljvvga4bBRoGG4TjYco116dKlUc6v17IDNdgA466xXwd+3WDr2OMChHXs2FFt3LjR2q93pMPWLoIgBAf0Bh3g7PoTqMFG/vPQQw+ZPv/geNzDPKH1NWxzCyfj7CSxxclg165d2wrbsWMHuXmcMGq/iNOgQQPyAzTDwJBhgRPEdTLYyZIlo5ocDByatJnWrVvTbzG3OoOJSNKlS0dNtlwbBHxNeOlfeukl9emnn/oUMvDSYpKS//u//1PTpk2jMMC/A3DHxmAvWbLEcsNgo2CB+8L16PfFxlyPD3R3oKxZs0a9/PLLVAhBQUoHx9MN9s6dO6l0/+6771IPdebjjz+mcaT6BBUo5KAFAU1vlzGcTgMtMzG5VkEQwpewzTGcjLOTJAXYYIcKGDfttrwcAyOOpjAYShQwAMZqC4IghCpSxBcEQRCEJIAYbEEQBEFI5IixFgRBEIREjhhrQRAEQUjkiLEWBCHBwQIUgjPybAQgxlp4YOTIkYOGLtnFvnKWEL9gWB4/+969e5uhCcfnn3/uuBSkP3DtGFIXDFi1Db/TgV9fxSmhsV9PTJ6NEJqIsRYeCMiEIJhAhDl27BhN24nwQBbTF2IPT9iC2dYSC7ieB2GsnSbVwBKUbuuiJwT264nJsxFCEzHWQrzz4YcfUqZz/fp1M8QX7LNnokL8gElmEtuzjolBwm/iwlgndmLybITQRHJIId5BhoOF4N2IiIjwWSwf/PHHH/Q7XcaMGWPuNUCYfU50iL5APmYRs+/HRP12nnrqKZ84zzzzjLnHABkmFsbHRDR6vLRp05oxDH7++Wef/RB95jcuuNhBmD4hTHTHcQKz1GFKRf03zz77rLlXqezZs/vsg7iBOeftcd955x1zrwGma9UXMYHwlLQMmtn1/ZDRo0ebe4371oWngHWaIhbhu3fvtty6sUbLDB9DF57THTMA6uFsAOHWm52je4Yg0HfBTiDvIsL06YB1YaJ7pkJoIsZaiFcOHDhAmQnm9A4UTJeK3/Tv398MUapixYoUtmzZMjPEm5lh6lCAjJbDGLh1A8LGvWDBgmaIMQOavooWmoqxeAeEQQaN32HKUaZq1aoUhuljwebNm8mP5n3mm2++oTAmEGMdyHGcwH5cMy+ugpYMhOmLHwRSsy5ZsiTFweImzLBhwyhMT0f4YdhgYMGpU6co7JdffiE/5myHf/jw4eQHffv2pbANGzaYIcZx9Noj/Prc96BGjRoUzsCtG2v47QVCNrqMU80aft1Ywx/dMwzkXXAC+6N7F+G3X4/+bAJ9pkLo4V9rBSGW4NsoMpJr166ZIdGD+PrKVQx3jGLghmHRqV69epQ4bDwYGENm5cqVPvEZrMyF8EuXLpGfM2g7COM53XmRFzZezMWLF01XYMY6kOPYGTp0qONxuVMVG7ZAjHX37t1VnTp1TJ8X/K558+bkRo0Vfl7wgClfvryVJtj/wQcfkFsHS5Xqiyognm6QUEizXyP8+fLlM32Gn+8JhQqkux19gRoQnbEO9BkG8i44gf3+3kWAOP6MNfyBPFMh9Ij6xglCHMKrYO3atcsMiR7Enzp1qunzUr9+fdrHwI0FQXR69uzpE6datWrkh2BBkgULFph7DIoUKWLtdxLuLe0vg0atj+HfobaOJUBR29cJtBk8uuPY4fW3nUA4jgGC+WaNmt/YsWNViRIlqLaJ3/HqZ1iuMLrjYL8/YeDWDRJAWLdu3cjNNVB9wRX49Zo1g3n98RzRJI04ECY6Yx3oMwz0XbAT3bsIsC86Y+1PhNBFUleId5CJcCbvxPnz59WiRYtMnxF/xYoVps8LlhDVMyS49WZxYDfWAN+wsRQpwlnYCP/000/kRy91J0FhA/jLoO21OjRLohmXz6U3oQZqrIG/49jBGuFOxwUIL1OmDLkDMdb4rMDnhGC1M25+5XTEymzRHQf70cTr9FwhDOLZjTWvfQ6weIv9XPDrxhortCEMgrXTscod1nTXfxedsQ70GQbzLtjx9y4C+KMz1oE8UyH0cH4zBSEO4UzJDYwl1ffDzc2tOpkyZYoSLxBjbQcrlXEce1Opjt4MHdMMesuWLRSHm5U/+ugj1+PYjbWO/Th2ihUr5nhcgHA2CIEYa+x/8803TZ8XhHMzb5cuXRyPg/Ro2rQpubE/T5485NbRv4UDxLMb6z179ljHx5Zr2QzC2Fi3adOG/Cj06WApWD4GiM5YB/oMY2Os7ejvIoA7OmMdyDMVQg/nN1MQ4hD09kYmgxqSncmTJ9M+GGwGa2cjzA7C9O918EdnrOFG87mOvrY4L17PtSYGBgfhvH51IBl0zpw5XeNwE2revHmjxOEOQmysAzmOHXxbx/4hQ4aYIQZowtaPFaixRjO3zsCBAykczw7weG27EX3hhRes46MzldO5EIbaLwM/1lq3g/D27du7HoONtb0QxyBMD9+4cWOUePCzcQz0GcbUWGO/v3cRwG031vqzCfSZCqFH1FQXhHiAvzdD0MSZJk0ay48MXoeH70CQmXFPcIgO/NEZ62zZspEf3wjRyxwdfOBHrYtBpyiEvfzyyxSHm6oxNIcJNIOGH4JrRq0dTdf679DRjuOggPDqq69afqdv1m7HcYKbV1OlSkX3wbW2li1bmjECM9aPPPIIxUHBYNCgQdTrGX6I3smrQoUKFIbvw6jdYogT/Hovdv4dnjH3mIborRZ8PvvQp0KFClG4fegUQDgba+7shmFQuF7U/uHn7+wMjxZ4+umn6fMHgF83joE8w5ga60DeRfj163F6NvBD/D1TIfTwr7WCEIegg1ClSpXU888/T5nQt99+67fjGQw1MmrUGJy+xyGDCqQZfOHChWSAYfA+/vhjalK2AwODoT8YN4yMev369eYeg2AyaPSGRuvAc889R+PF7aDD1GeffUY9ePE8AI5jbwaP7jhOwIChIIR7xbdme9NwoB3MYASefPJJMoDcu/u9996L8luMb8YzhWGEoXOaxxqtFCiQ4V74fnXQuoHvxejtrxt6LrRFRkaaIV4Qrn+zhsFGqwvSD8Zw7ty5FI54aNlhWrVqRc+dx4xjv24cQXTPMKbGGkT3Ltqvx+3ZRPdMhdAjeq0VBEFIADCW2MkoCkI4Ei+aYFcw1J4w4w9KlAy+H+F7JQSlUYx3BWiKRJMavpm9/vrrFOYGvi2hs0WnTp2oNsTg/KNGjaIamTQNCULSAs3VPFxLbyIWhHDmgRhrburRjbUOmkWZ48ePm66ox7HjtH/cuHFUEOAZiARBSFpgbDl0G03FgiAYxKmxhnJByVjwbUfHyVhjUgr7LEgvvviiz/SPbiAOvkFhpZoUKVJQWNGiRck9f/58mt8ZM1EJgiAIQlLmgdSsGSdj7RYX+NsH9P0ojQP0kOSOGJjXt3Tp0uQGzZo1I8HvREREREREYivAKdwusSX2R3DA7cLsxvrIkSOqUaNGps/APmewDlYi0kHPT4bjYvUm1NYB5hhGs7iduHhwghAqYIrOcrXbksBtF97H+wVBMHiQtuSBnAk3pAuDDmL2+XG3b99OQ1XQFM7L2zH2B4Pv0hhOgrj6DD5oFsfQINSynbAfRxDCGRjg5z7MTqIbaciq1ZHWPt4vCILBg7QlYWm1xFgLghcYYDdjPW3WfEdjjbHIGMWByW4wdhhgfDD8CA9m4RZBSKqIsY5nxFgLghcYYDdj3aHHEGvfh98Vp7Bl29erin82U781q6AGzZugJq+cr6ZHLlZ1h3RSNfq3UT82LKm+q1tUlevZxDyDIIQmYqzjGTHWguAFBtjNWJeu0cral6tUfQrDrGbQIUgw65QLQqghxjqeEWMtCF5ggN2M9Y95a1j7ajXuSmFirAXBQIx1PCPGWhC8wAC7Ges3Py1g7Rv810QKE2MtCAZxYUswF4g+77sbYqwFIcyBAXYz1hwOWbpsBYWJsRYEg9jYEnTSZD1icVpHnhFjLQhhjm6UdUOth0PWrjXCxFgLgkFsbAl+u2PHDtNn8NJLL9FaF06IsRaEMEc3yrqh1sP1fWKsBcEgNrYEy57awRKzWPbUCTHWghDm6EaZDTKLGGtBcCc2tsTpt1u3blVvvfWW6fNFjLUghDm6UWaDDFntMHsZRIy1IBjExpY8/vjj6uuvv6YlYQEmF8Lx9uzZQ347YqwFIcyBAXYy1hOnzrbCX0+XzwoXYy0IBrG1JehQxroEmTdvnrknKmKsBSHMgQF2MtYdew61wr/KWskK1421P0mdOrV5BkEITfCexzUtWrQwXb6IsRaEMAcG2MlYV/i9nRVeompLK1yMtSAY4D2PC2bMmKEee+wxOh4WpnJCjLUghDkwwE7G+tscVazwTn8OtcI/z1KJwr7NWc08gheOD8GqeIIQysTGlmAiFCwbjWM89dRTatq0aeYeZ8RYC0KYAwPMBpYNMiR5+vxW+KRpc6xwN2P9ZdbKVvy5S9aaoYIQusTGluC3VapUMX3RI8ZaEMIcGGA2smyQ9TAIeoZzuJOx3rxjvxU37c/lzFBBCG1iY0v27t1Lw7RwjP/+979q6dKl5h5nxFgLQpijG2Y2yHqYPdzJWOtxBSFciCtbMn78ePWvf/2LjvfBBx+Yob6IsRaEMEc3zLpR1g2wHm431tlLNLTird20i8IEIRyID1vSoEED0+WLGGtBCHN0w6wbZQ6zh+vG+sjx01acH/LUNI8oCOFBbG3JgAED1NNPP63+8Y9/qKxZs6r79++be6IixloQwhzdMLNBjoxcY4U9n9LdWHMcyKkzF8wjCkJ4EBtbkipVKvo9atLYlitXjrZ37941Y/gixloQwhwYYDa4bJCnzZpvhb39RSErHMLG2i7vfl3UPKIghAexsSX6b9k9ZcoU9c0335DbjhhrQQhzYIDZ4LJB1mcvy1asjhUOsRvr978tbrlv375jHlUQQp/Y2BI0fzP6cR555BHT5YsYa0EIc2CA2diyQS5VvZUVVr/Vn1Y4RDfWL6TKQcdg//fy3VoII2JjS/BbbvLm49SuXVuVKFGC3HbEWAtCmAMDzMaWDfJP+WpaYX0Gj7HCIbqxvnz1Oh3jpwK/W2GCEC7Expa0a9fO+j22EHQ0c0OMtSCEOTDAbGjZIL/5WQErbNGSZVY4hI3119mrmkdQ6sbNW1b88nU6m6GCENrElS0ZNmwYTZLiD8czZc6c2bVHWiggxloQvMAAs6Flg8x+PYyFjbU+KQp48aOc1m8EIRyIjS2ZPHmyqzjheKbp06dbs6mMGDHCDA0dxFgLghfdOLNBZr8exuJmrGcvirR+07nvODNUEEKX2NiSRx991JKHH36YjvXkk0+q7777zozhS7RnqlGjBh0kXbp06saNG2Zo0kaMtSB40Y0zG2T262EsbsYa6L8ThFAnrm0JWrVz585t+nxxPROWtytevDhdzLvvvqvWrFlDVr979+5mjKSLGGtB8KIbZzbIutHlMBZ/xrrs752s382Yv8oMFYTQJK5tScWKFYNbz/qhhx6ii+jSpYsZ4gULZCd1xFgLghfdOMOtz172cprcPoYaUrBiS5WpwO8+8kuhOqpy/W5q597D5lEFIfR5kLbE8UwXLkSdNvDAgQOmK+kjxloQvMAA68Yaa1ez/+tslXwMNSTV96Ws/U5SvFpb88iCENrExpbgt27ihGMoBmbrwHi7zaqSFHF7GIIQKuAzVqdxK1WxdpPV733nkbv31LWq/4z1qsuEVarbxNVqztp96t79v8kAs6GFu333wZa/dI3WPoYaEp2xhty7574ggSCECnFlS6Cvc+fOpeNdvnzZDPXF50xs1Z1k3rx5ZqykD+5HEEKZr7JXVS+nzmWthLVjz2H155DJKlfpJipj3lqqeeehavHKjerO3XtkgNnIwl2xTnvL37rzAB9DDWFjjWlGazfrTVKlQXf19heFvb/r/hedVxBCmbi2JegT9sQTT5g+XxzPNGHCBNMVmoixFkId7gT2ZbYqZogxcUnPwZNUyu9LqlQ/lFIdeo9RJ8+cJwPMRhbuDDmrWv7J0+f6GGoIG+tfC9cxj+yFf/fJT+XMEEEIXeLalsD2omO3Ez5n4uZvbJ0kVBBjLYQ6HZ57TjXzvOeQ0dmyqVFZs6rhP/7oE76kWTOKCwPMRhbuN9Lnt/zobKYbaog/Y/1V9iq079VP8pohghC6xNaWxHg967ZtjY4h2DpJqCDGWgh1dKMchb//tvbNqVmTDDAbZ93Nfrv4M9YfZypL+975qogZIgihS2xsiaxnHQBirIVQx6+x9sD7ur/1Fhlg3Tizm/12CaQZvEztjmaIIIQusbEl+m/ZHfB61viBPwkVQuleBMEJf8Z6Qb161r6bFy+SAdaNM7vZbxc21sk+yavS/1qB5H/fFPP53YnT582zCULoEhtbIutZB4AYayHU0Y01S/OHH1Ydn39ejcySRe2eNs2MGfWbNbtfSJnDx0izsLF2k/e+LmoeWRBCm9jYEvw2xutZcycyvVOZLqGCGGsh1GnTpo2qXr16tFKrVi0ywGxoV0d6F+N4/5uiUQw1xJ+xLiYToghhRGxsSazWs+ZOZPaOZSyhghhrIdTRjfX27dvNUGdggNnYTp0xz3K//UWhKIYawsY6Q+4aasPWvdYwMcj+Q8fNowpC6BNXtiTG61mHOmKshVAnkJp1/fr1KS4MMBvbzr2GWe6XPsoZxVBDnDqY8W8gghAuBGtLZs+eHZA44Xim8ePH00WwvPzyy+ae0ECMtRDqxLRmXaZmax/DazfUECdjPWTsbOs3/UZMN0MFIbQJ1pbodpUlWbJkKnXq1JY/bdq0ZmxfHM+EH+i0b99eFS0aOp1G7PcnCKFGTI31j3mrW26I3VBDnIw10H8nCOFAbGyJ028x1hr21gnHM+XJk8d0eXn00UdNV9JHjLUQ6sTUWL/5WQEfo2s31BA3Y523bFPrd6fPRl25TxBCjdjYkv/85z+myxe3Zagdz4QeaTdv3jR9SrVo0UKNGjXK9CV9xFgL4UCjRo3IWDczpxVlOnfuTOGYOQnAALORtYvdUEPcjPXtO3et332bs7oZKgihS2xr1vbZylCzzpEjh+nzxedM+LE/CRVC6V4EwR99+vQhw/zHH3+Qv3nz5uTv2bMn+QEMMBtZu9gNNcTNWINkH+exfisIoU5sbMmMGTMs24oJUtjtRlhardg8YEFIaixevJgMNMv8+fPNPQYwwGxg7bJmzdqgjPWyyC3Wb8dMXWSGCkJoEhe2ZMGCBWrQoEHq1KlTZogzrmfas2eP2rp1K0lkZKQqVqyYuSfpI8ZaCDd69+4dpUbN+DPWi5ZERDHWI0aMUD169IhW/vzzT/MMghCaxMaWTJ482VWccDwTLuDZZ5+l7TPPPEPbrl27mnuTPmKshXAjpsZ6wpRZUYx1IGO4IZgdTRBCmdjYEnTaZnn44YfpWE8++aT67rvvzBi+OJ7p/fffpy1fyIEDB1T58uXJHQqIsRbCjZga6659RoixFgQX4tqWZM6cWeXOndv0+eJ4ph9//JG2b731Fm2BDN0ShKQL3nkWO/6Mda3GXcVYC4ILcW1LKlasqF588UXT54vjmXABCxcuVB07dlRVqlShXmtp0qQx9yZ94voBC0JiBtOKsqGGQJ91/BnrYlWa+zXW0Y3hFoRQJq5syb1790yXO45nunXrlurQoQO5X331VfXQQw9FGQ+WlBFjLSRFoIcQLKqDprKWLVvSUCxMYgR95f122EhfvHjRcuv4M9bf56oqxloQXIiNLTly5Iiljyxu36tBWFqt2DxgQUgoxjbKQXLr+mV1//49dfrAVrVt0RgVMbylWjqshbVfp1OnTvS+86ctzI4E/9y5c8kP/Bnrd78qLMZaEFyIjS3Bb4cMGWK5QYoUKVTfvn3JbcfxTLKQhyAkTnjMNCY5OXPmjLp27Zpq2LAhhWG8ph3W4fv375N/27ZtVhjjz1i/lDqXGGtBcCE2tgQ9wBk+DmYOdZuG1PFM9guQhTwEIXFx+vRpy2CePHnSDPVl8ODB9K67CfqlAH/GGiLGWhCcgR7FFP237MbEKMmTJye3HcczyUIegpD4YYPpBt5zyO7du9WxY8csmTBhAoVjDQBgN9Yve2rTL36UMyBjXbNmTer1bRfMSy4IoU5sbAl++/XXX1tuTEAGndyyZQuF2XE8kyzkISQ0127eUGmq5FCvFvtOpaueRzUe0V11nDhIleneiMIgHSYMNGOHB2wgITCGbgKmTp1K7/m//vUv8tvBPkhEhDFDmW6s02Qspd74NH9AxtpN0ANdEEKd2NqSDz74gLasjzNnziS/Ez5n4h+4SagQSvcSqrBBvnrzuhki6MYwWDYd2KVSVvxN5WhZWd2+e8cMNbAb6yKVmqkvfqsgxloQoiG2tgQjrwIlLK2WGOvEDxvrs5e96yJ38tSsK/VqTsL7wwkno2iX27dvm7G9HD5z3HpekNeKZzD3GNiNdctO/VXOEvXEWAtCNMTGlqRNm9b6PYZewg25evUqhdlxPVPt2rVpJpX06dOrvXv3mqGhgRjrxM/N27dU2uq5ybikrpxdNR5uNINX7NVMvVkqI4W/bjM6oY5uDIPhjZLG89KlRr825t6oxnrkuGmqbK02ln/tWt+Vt6SDmSAYxMaW6L+F+8KFC2rZsmVkxJ1wPNMTTzxBnczwwXvKlCl0oFAy2GKskxZY0vHxxx8nOXHihBkafsTEWB8+cyKKoWZh7MZ65arVqln7vpY/YvlKMdaC4EBsbAkWyQKYcEw/jltnbscz6XOCM05hSRUx1kmHy5cvU3rhBcYWwmOGw41mnnu3S5unnlL906VTG83JFexkbFDC0VBDDp46RnHsxhr+3oPGWH77yltirAXBIDa2hH+LERXvvfceufPnz0/ihOOZPvvsM9PlxW2gdlIkNg9YeLCwgf77779p2BHcPOQo3GADvbp7d7Vp2DC1fsAAtahRI9X6iSesfRcPHjRjGzgZaZaqfVpSHCdjDQPN/j8HjBJjLQgOxMaW/PDDD1b+hgmOwD//+U/aOuF4Jvx4+PDh5EZvteeff56aw0OF2Dxg4cGBzzFIKww/4mZwzH2NsJdeesmMFT6wQb7qMAlKv08+sfYzd+7edTTSLMlL/EDxnIz18hWrLH/d5j3EWAuCAw/Slrie6X//+x9dCGTgwNAaz/ogH7AQM7788ktKpwoVKpghXj799FPa99tvv5kh4YE/Y7172rQoxnr00pk+xjlF6Uw+fgjQjfXzKb29vzmseJUWVhgkXIx1TBdOEcKH2NqSAQMGqKeffppaC7Nmzer3E5/jmUqVKmW6QhMx1omfd74sEkU++La4ypC7hmrR1Wj1CTf8GevIHj2iGOtsLSpaRjlTQ0OnMcban7F++4tCllHmsJ/y1bTCIOFWs8aEUO+//z4Z7K+++kp98cUXapqncCQIsbElqVKlot83aNCAtuXKlaOt2wqXjmcKdWMW6vcXCrChWBa5hSRi9WY1P2Kd+rVwHWtfuOFmrO/dvm3t650ypRmqaDw1G2V882eyNqtghd+4fcvHMGcrVtcyyhz2v2+KWmGQcDHWr36SN4q8ni6f53kUUz8X/EMNGzfHjCmEK7GxJfpv2Y3Pzd988w257TieqVChQrSONVb2wYo+LKGCGOvEDxsKO8dOnrX2hVuvcDbIbjKnRg0zpgEb5LfL/GSGGOw9fsjat2Hfdh/DXLNRF8soc9gLqXJYYZBwMdZ8/72GTCH5c8hk1aXfOJWvfDMK/zFfbTOmEK7Expag+ZvRj/PII4+YLl8cz9S0aVNHCRXEWCd+OKN0knS/lCejzWDGn+nTp9NEPmXLlqVCJvyNGzdWlStXpnD43WYGSoqg42eyZMlI3GCD3GPqCDPEC+8buXi6j2HuO2SsZZT1Z85hkC5duljG2gneh2+9SRm+d51W3UZY4UPGzDZDlVq+fT09z9eLf68id282Qw0uXbvy/9k7C2g5iqWPnwfve9jjAQ93f1gECBoCCRACIW5AEuIJcXch7krc3d3d3YgbcXd3p779907N9szOrNy7e7V+99S5M909vbOzM1Nd3dXVVH9wJxWBb+/xQ0aqkBSIjS7BsdzlzfXgXVW0aFG1bSdZai1R1gkf+4tyzuK1ZlqtZs6Ls6Or96mnnlK/79ChQ9X/FFq3cFKicePG6vtBsBiHHVwLVsjnLl8wUn1wXotRPS2Kecmy5aZS5jQIp0FWrVplKmS9e53hPKfzSmycv3yRmo7oTl/XKaIc9DC08E7pHylH03I0aO4EoxTRmp2b1fV8sXAGWrJ1rZFKai47ejLytKio8lNXSH7DN0mZ2OiS1q1bm8fzsxxoWqrjJ40ePdo8GBKo9Z4YwXcSEjasJHRu3LxlpmPcUKdGjRrqd0XwHqxkw4IpXkiPrZWHyGmlS5dW3r/wUEeQFjiExFdENXSV8fP52WefGak+jp87bSpkJ3g8GxHOdMWsK2VOs6fDGmCFvGfPHqNGLwhiw3n6yn2JEQwf4Bq1GdvXSPFx5MwJ6jJlKE1aOc9I8XH27Fn1+2DOLOJT3LplXThFSDpESpcMHjw4aJRQx0+yn0DXrl3ViympEKkLLESPlz/+WYkTUNTIe+2zAkaKF8TWxb2K2Qw5c+ZU3rsVKlSgUaNGOVqAoZDy6+JKWX2etTzNWrhGyYwFq2ns1EX02qf56amUuah+67if2siKmsXOos1rAirrfK0q092/vWP+umLWlbLbmtaAFfKwYcPUPjNv3jwzL7HD10+/d2BRczqLDpyD8HugZwfg/sO+W1QqIXHj9OyFysyZM13FCcdPggVhxy1eaWIkNhdYiBtYSdjZd/CYmQdlwuTKlYuyZ8+ufCv0sWl0xSIdsnXrViM1dN7PWFJ9TpZCdYwUL4tWbKQfCtRSeaVqtKejJ84YOdHn+PHj6h5GkBj8h9gbI/3njHdUJk5AAfM11ZXye+mLOKYDVsjVqlVT+4zufJbYQRc2z00v1L4WDVs4hSavmk9dpwyjLI1LW64v1g+HJQ3HXDvoiXjkkUdUPuLcC0mH2OgSfnZ1QY8Mpgc64fhJOOjOnTvGHlHDhg1p5MiRxl7iB99PSNiwkrCDedacx1Nn6tSpo5RxXPT+6A9WfFGiRAn1+Zih8corr6jtHj16GLleGg/vqhSJfTlMJ6CA+ZrqSvnLHOUd0wF6MJyUMqd16NDBSEl4YMwdY4Ovv/66GsZApDwYI/ZuyIr1Oyuxg4YR53E+98C4yVMpctLNm9IdntSI9HsAPYKY1++Eq7IOJImdpPAdEhLRCBrBLzk7+guQgdc3lHXhwtZx7EKFCilBxCnkYzs2ZMiQQd07L730kvofX2s2Q9Hg8zE+PHDgQLX93//+18j1UrZbY6WsYRkGAwqYr6mulH/+rYGZjvCjnA7Wr18fUFlDISY0Fi9erKxbOCGidwLxmFkw9v7vf/9bhbblc+fvbqdF52FmHqZxAVbWiANgBwF9kPdG2oJGipBUiLQuuXr1quqFcSJZaq1IX+Dkyrvpi/oJuo2zF6lHw8bHrruPX4Y6G7ftMdPtDma5c+dWChmOZhcu+Lyfd+7cqSzR2CprXsaO7x19O67RPxtWntO55GtVRSnrT6v+ZKS4AwXM15UVMqTq7x3N9PGTZ5rpAHPcWTFD8QHd8YynpCQkWKG+l6Go8jOA1G3Zl4pVbWN+z56DJxul3ZX1kx4rmfOuXvM60XHdmX6pQRcvX1Vy5txFFdCHyzZuP0iVFZIOkX4HIITyRx99ZOxZiZ+3TTwT6QucXOGX0Msf/2LIz/T8h3nN9GdS5TZKhg/XofNhplJm+ur1O4xUH7A0e/furbrD0Z0EBQ4Hn/79+9PRo0eNUjEDY5G4b9j5o1ixYmrfLdpQtFi3bp36XFiADPYhcLBjMtUvrpT197+XNFLcgQLm68oKGdKsfV8zvfegMWY6w4qZF/nBuXFaTMEceqfIYXDmS/N9aSpTuyNdvHTFKB0erFDT565M23YeULJp+16auWA1PZ3S60zXsN1Ao7TzPXjt+g0zHUqbcesGR5mK9bvQ6bP+0+eExA+eu5jCz61d3Bq6oqyFGMMvJDu379wx867fuKnSMCaIaU/Dhw9XFi6i5MFjNn/+/FSkSBG1WAzyn376aVXeqW5Os6enT59edcMHEijymHLy5EnzQULUIRZOi8spSpkyZVKfmSVLFpo2bZqSxx9/XKWVK1fOKEWUrkYBpaxzt6hopLgDBczXlRUyZMDQcWZ6g5Y9zHSmSpUqSjFzdMOePXuqfaTHFFZ6H3xXyowc1qX/eGrSYZCKpAaHvtFTFhqlw4PrTpejogpf23voVPP7NfbUb4fzdIpUamWm61Y41613gxep7Cv756adRqoVWFL47bDKIQJiYBuBfXTaPvGEGaVu6+jRXhk1ijZ5jlneti11ef11GuGpZ+fUqcYRQlyB3yuuEGUtxBh+EdnBQhtueQAtRyhvWIdYftUJ+/Hwvua0zAVrG6leWFlD8dv59ttvVV6aNGmMlPDBufJLFIqIJXPmzCo9tmu9Y5yKV3DSBfN17eDz3ATHMB9VzquU9S+tqxopXqr1bW2RhsO8y1/ytWWFDJk5Z4GZXqRiUzOd6dOnj8WSZuXdrVs3tR8TnJTe7v1HKNU33vTvfq5Bly5fNXK8hBq4xKluMG7aYvN7tu7mc+7hNB1Os6e71Q2FzuUx3Y/JmDGjGj+HI54+dg7BdURejhy+z8Azg+lf+J1xH27YsEHd29jH7J3kFno3oYDrH2nc6rSk2sOL2iWpEI0LnBSIqfXrJK9+mp/OX/AP7zl+/Hh1/XlcBs4U2F+9erXaZ7ge5q10hcw0e5ciK2ss5o5u8F69eilv5apVq5qWdUwdnnAczk9XhDrIg+zY4d8tH4yZXSrSmIa5aWzDPLR4cBP6c0ovOrR5KV2/fF7lj2+WX+VPbefryubPcxPmg4q5lLIu0LaGkeIFabogohYUMF9bVsiQ5St8a1pnKVjDTGcwFU5X1rwN57NIcf/996vpLG7rl8ckcMnJ82eoZv+29EmVfGpN79eKZ6Rv6xWlPyYNpr89fwx/d2bPgaNmGhoPOp9mKauGgnIX/91I8YFxax4qYl+OV4p9q84bYUqZ4+dO0YGTR2jz/p00eslMmrVuqZFDtPPIfhWyNGP9Yuq80TD5smZBSlU+O+VqVoF6zRhllBTiEv2ZCxf7s2sXezQzyyfVrl07oCQVcCEEfz7LWk4pWV0wVgiHHMwptq8ypL/M0N39Td6qah/jdCdO+cZPmVSpUqlr/+uvv6r4tyzo0kU6lC6j1w14X09jWFlj/BiNyh9//NFU0ps3bzZK+dCtY1goTuIUmaz/nHH0Td0i9KrnRftmye8pX8vKtGx7zBUT5oPPmDFDeZWjccGLYmAKERodmJKGbm7uwsfYMK6TPl7NIB3CjZ4PK+VWysBuWbOSZgmkrNeu9YV4TfV1UTOdgXMbK2g9clkkrDzUh+8DCxM9D/z97ON5/D1CDVzySrFv1H7BdjXo/JVLRqrn2noUOpdd9Zc3tjd/d+bTH8uaabv2HTFSvXyWpZxK/ypXJSPFBx8DYYc0fHbbcf0od/MKHqlIpbr8TqW7NqLCHWqrOdw5m5WnuoM6qrJf1fpVnVfWxta13X/r2tAi1fu1MXKEuAL3ZExxO9Y13fifrIjNBU6s8BQfjJHx1KMFCxYYuV7cuvIAW7a6Fza/gHSyF61vpu896K/wpq5eqAJMpC6fg14q+rVSfJ9V+5mq9GmpQl8yet2TZi4z96s3sc4nBk7d4OhOZIWNRd11MOcV8teeQ8rJaMHy9dS66wj66bfGlMNz/hgj3bx9r1GaaOIK34scllzxTvXUy5TTYJ3ZQVyC//3vf2rNWkz5wrbb/EkGc6Wh7KC4ncB3we9mD0QCEHIUeV999ZXah/WFc8vTwqo8+JxZAilrPf25D/KYaTqsoLGIPm/HFjQS8F0gmAYI4e8H0UOchhO4BEoR21/U8B8ucYK/O8P7ehrjpqxX/LnNPObd9EWMVGtdTlKgXDOjpJfdxw5Sw6Fd6IffS9InVfOpRuOXtQrS+xVy0o+NfqMa/dvS7HXLjNJCXIH7MRLocU3ccPwkDpFnl6RCTL7LM6lzK2nTbYQSjG3hBV+tUXdK+U1xz8PVPMYWBb9Qrly/ZqQQjV4yQ3XLQWoNaKckJsB6gyWG7/zWW2+ZMbOhPJCGuaVYwQmwsoZFDaWbvUh9+rFgbTP92ffz0DEtUhe/WOzwiwvCDmZ6+MtrN/0dslqN6U2D501SLyWg1w0vc96/fdv/pnYbs4a1hYU8kPfhhx8aqd7fH4LvDa9xdMU//PDDakwQcZw5H5y9dME8b2zbgaJGF+rMP72LVvCxnTt3Vv/btm1LLVq0UNsY4+V8oEf7goMRrGy76BGv+NjTp30rjjHz58+31J2+ttcay9zQ6qzE34UlVGWt5+lgqIG/AwS9FbGhS5cuqtsb96oT8HFAPhqfdpYtW6YCnECcxvt/aVNNfWcMEehA4UFY6fNiG/y9wbR5viGBSg26qDQdN2Wth2w9f9E3LMRpdm7dvm3m8bPDz18gOXT0pCorxC38vMWEQ4cOmc8si967aMfxk/gE+D9eePaA/YkZ/l7hgBjQEB14lGIqybOp89CvFVrQvCW+8adweOWTX/zk9c8KUJrvf6OiVVpbHsRFW9ZQ6W6NKFuTsjRw7gSasGKuslaHzJ9EPaaNUGNxGL86fNo799VpGozbAvp2y/rylWv0wXclVRrK6y8bgC5yiBOpvy1hyYdFgBdhhjrW+dGsNFicXpS8jek1TtSqVUsFRHFacx0NT+RBMLXIDoKJ8IPyySefGKk+eLWktNV/MVJC548//lCKBYKAHIEIpYs92JKYen6WRl6rMl1Na/x0/VpDYqusBw0aZFHWaJDElpueBlOaynn8zpWlwZA/jJI+9PnmLE5gfBp14Pk5c9HrGwCwrvdn1X5SeU73IJ4Z3neygpyU9eFjp8xj8DzrcHqnPmOVdOg1hhq1G6gaykjXn6tAPV6fZ/NGmXvpI4k9Hh+43WehgGO50cn1IKoefG6ccPwkBJAAGC9iUElSIaYXGFYOt9yXLl1Ke/fuVdGQEKN5zpw5Rqnw4QfXDlrWnIcVp5x46KGHlBPOyy+/bKRY4eNDWUDf7aWwecdesx4EkGA4zQ4+g/N0z+0KPZqqlyG6kjFeh3HCkYunU41+bZSSQh7G5wAfjzWDeVuPBa4Dr2xYz7r3LMC4J9Ih7733npHqA/c57gVYwenSpVPbCK2rg6AiOC90oeogTRd+wTMYN0d96B7mz3Hqvo5JFzvGO3nVLBZ0jeoUbFdTpcMrWkc/BhJbZb1r1y6LsuZx95hy5fpV89z+3O0fyx3fG05V6OrWYY999DqMGTNGbT/77LNGrhUsGfr70M6qO5wdzNBQajKiO+07cdgo5bsHMRrO22iYO+GkrNHo5uMQIEWH07Hca6ka7cz9PCWt9x/Qe7bgPwJ58wtvVDTIc+/npStX/XurohFZULCC+yym3HvvvcaWrx5MA3WbXeL4SegSBHgJchcppyUFYnqB4ZEJyxVemDxF5O3fMquuxk6TBtFdzcklHPihswuUE6KBbdrm3KuBHxXfpX379uq/09rNXJeO2wL6Jau3o8wFalHZOp2MFB8/lW6i8iBrN/2l0pzqBpyu58Fb1t57AHnnq8L07U/VqGt/3xQbwMdj6MGpPh03ZY2ub1bWR45YHYLwIsM1Q3crrDIIDxcsX77cKOW1eFl56Fy+dlVJhZ7NTKXHPPfcc6oeNOR4zBUNX6TpjYZwu9jBzdu3zGPs8m6ZLEYpoqp9Wqk0+AXo2I+JrbIGurKOLdwD8139YkaKF3hp2/8YKCNc29SpU6vZCxBW3rpjrFtXNdC/Jzur8T4at7ytB0LRsdd95eo18xin1eM4TyfLr3XMdCxYw+iN6Dt37tLytVvpSaMchzvVieaQnWAF91hM0Y/l7RMnTrgaXo6fhJcL5gFi3AeVQLp3727kJn5icoH55bZ+z3YjxQdufCjyS9diFlmJH1AdeF8jDS+HvQf8o29ByeB7TDUCIWBZSOxj7qWdBZtWUZlujZQjF6yIlzyNjP+V+l5ZE42GdaFLV73n7fYy27H7oHmOevccp+nAMYbT+4+YbqQG7srjrnZ0ATJch11OnfF1XTJOyhpTqVhRY0qXDjy9ca0wNQIWsC5Ih+hBVNiDOEW5bOa1ArD83vRcR1Z6AL0s6PZGr4sdOPQhD34CICZd7Ogi53vRSTbs9d6f6LngNCdYmQdT1rj/7Hl2IqmsszUpo87Lfk34u7Dw9cb54PfCdYVvgC78W/Jv4XZ/F9YCnbTvOdpIdb8HnbDX/XHmMmb5I8f9fQzc6uqu9UphOVbg9uzwOwKir/oWzSE7wQrur5iCY9Gjx9tbtmxR7ySnGSwg6CdhfMbJWSMxgwsDxysoOkQNQpCBmjVrqn0sClG+fHmVjn1ebpFfEgs3++YDw/ty+MIpSjg/JiBEJ8TO1Ws31JrNyPsyp+8F891336nvgN6ORx991BReMlFf0ILP6/pNbw8J2H30AG3ct8MiwO1lxi8EiO7gxWmMHrkM0aZ0+IXjJCkyFKMmHQYbJb04lYPUa+W/drSTsoYTHStruxWB6wRxijx2+PBhM1+HlZuT5G1ZiW7d8U0pWrtrC71Y2NpNzfJxFd/vHG4X+4Url8w0fSx67/FDfmVHLZ5upjkRqrJ+KY1vrJbT7OBZgaKGs1lsuXHrpnneczf4ejiYEn/UN88b8LCUU4hGzAjgfOB0f2MlLP5+9nuW0+2y9a/9Rgkfet2437is03MNvs1XTYmdcxcumXk8RPWJR/FjzDxnsQZqX2fizKUqDzJ5tvd6odfh+wYl1HVC799PraqoqWGfexpAfG3h6wIwJ75NmzYqpj6mCS5atEg56sG5ETERMDNh4sSJKopftOFGxpQ5K9R3GT5hnuoZQCS4tNkqUPXGPRynhMYneN/GBrynAOqBTJ/uM3DsWD4JDx3/d5KkAi4KWuL4jwcaNyX2v//+e/WSxk2Lua7IR1cms+fYIao3uJMKSIDxRbyQ0Q2eqUFxqj2wvUWRM6FE69JBrwb/cE5z29GowBi17t2sAwcj5Ddv3lztI0IVHk5EtFq4abUaE7zjeZkcP3dajfvxwwucXma1m/c2XzxtuluXSeV0JsXXxcw03WscOFkHiO/N5QtXammkeuF0u2B8zo5dWWM+MitqJ6ezcF5mhTxWSIbcVai4NlbPYI1r5EG2/LVPpXWcOMisY9cR60v9OyNeNz4ThNvFXrRjXcfyoGLP5pY8WP1uZUGoyjrVN77fdMXKVSrNDnrdoKzdppzx/YxnAIFU3IRBw0f/Lezyv1I/0HLD+Y7PzY6+OEfDtgNUmtP9rc80OHfeN+8acLpdYJna0evOVfx3s+zeA/7TFwHn29F7MnhOttN5Awy7cVkIw9eJG+F2EBTGDoaJEAntiSeeUA6b6P3B//gw1EIJwZpQwLlFAj2uvxuWT2rVqpX530mSCrjAX3/9tWrVYLEHKGZ0QUBpQ0EWLFhQORrNnj3btKx1EM0KdUDsSxPqhBqti8EDg3w97jSmEukEslBZdO/xL3NWVGIHypTzvs7rtYjsLwWMj3GdTs5dnAcOHjlp7n+RvYJK08EiDLAyMCXMDhoB3LuwfM0WlcZ1QTD/We9WtGNX1qyoIU6E8zJze1Hq3ZX5POfHcN2nNU/jQITTxc51o2FoBx7UcExDrwm4ePWyWd6JUJX1D/mrmXlTps9RaXaCzQ/nezmUqXIYRsE9CWvKDmYv8D27fZf/FD9m974jZvr/vvA6LAL7b6mviJW7hL9jF+dBoER1RWpHr5vLQNy6mzlfRx9CGjByhpHqfg/C54PLHzh8wkj13Sc6boFiEGv+/fff95OPP/5Y9eBBYV+65GvE4D2J37lkyZJqwRz89vBorlixIpUpU0bloYwOhp3QEMB7E2VgvOBYe+ChcEOwJgT4vo0J+/btM+99lhdffNHI9ScyzYJEBi4KVmKCly7CaOpTMbDcH2TWrFm0ZMkSvwXpWVGjC3Xjxo1qm7vZdMKJ1sVgvAJ5eKmhKwrb9u7YQGO/TtM4+GG2w+kQdqixvxR4HV6IPR4z4Dygzyfl+nTcXjiwHvg4vAwZToPAWaffiOnmvv1cdGXdunVrU1Hrc5R19JcV4/YyczrvC5eumOfy/IdWL2z9WCZQRC0Qahc7p/G0vGBw+e2H/B0UQ1XWhSs0MfP6GCtv2QmmrJlQAsW43SfwmubzqNGkp5HqfH9zmj3dXrdbOUbP7z10irKo3cpz3XaxL+XKcD6DAEKchmVmdZyuSdOOvvj73HPAIEAKftvXSmRUQWN0Vv+1ybwvAMcogK/LgAEDlCCsMJxWYczAIXLyZN+CJQyWoUUAHjS64NWcL18+unnTOy/cDqb9It4Ahkmwah16B/GcYiaBDi9WctlYcpW5cvIk9fS8T5HX0TZ1UY9up0tc9Qjgs2IKjsUSvjq43m692I6fhOlA+hdnSSrwd4HXb7t27dRc3KZNm6qxGwSqQNcp0uCkwg5cgJWpk+jT3BiMP9SrV09Z6lAkuXLlUksropdi+3aroxpedqgHkZrgHAVBdzbSdOc+VtahTuPgdJ0X0+Qz08+e9zlS6S8F3epw8g4HnD95li/CGOp2wu0lzMdB9LFlPR1g6hrvt+o6XKUxurJmRQ1Bg8eJcF5mTufN5wGxN0z4WIwjM9PWLKIBc8Yr0eu2gyEMdEPaI64xgY51gstjBoOdX9t7p3YFU9Y1GnU285q07a3S7ART1vwS7pU6NS1s2NBRThrWmNP1Xr9ll3kOmFWgw+kMOytC0Nujo9ddoZ7ve3Fvjh3Oh4BV67ab+6vWWaeocd1O4oQ9L1B5+zU5e/6SWVbvObAzZP5kytW8Ar1dOrMaeklZLpsKP4v78NZtb4+dU0AhWHxoTCH9p59+svQuQpFAOWOFN4xl65I3b16V5zT0BEK9T+zK+uaVK9Q7TRqV18FQ1qm+LaGiEKJXEA6wuEeGT5hL5ep2UsNT8HyfMme5o5ERSfB+jinsaGoH730nHD8JS+4lZewXGFY2K1z8d+qmRtcNxMnRAk4ayOOLjKkjsNpxozuB1hTmg7Jy0rsC3YSVgm5ZhzKNgx9qJncJ33jagmXWoBv6S4HLQOxxkBm9jC52hy7g9BLWu/HwAtLh9FZdfIqZ016wNQhYWdvlgw8+MEo4E8rLzH7e6XJWNM9jz35/L/0+M0ebSpI9s5nxy+eYeU7ov7cTTscijjUWfNCF4fI8Rq7DecGUdaeePguuRNUWKs1OqJZ1KNaY/XrrEb2eTe2/PjrngRET55n7v7fpr9J0uG4M03A5CC+uYYfz3/c0ABhOszt7cd0s85auM7fhiW2H80D63FXM/YNadzZjvyb8vPPxdtzy0LDnPF6yE7NI0BWObmo7aDQiD4JoW2DX0QP0anFvTISSnRvQ8IVTle8LfDU44AzSAVZCwz7i1N/WHDCxWAlk2IIpNHnlfNq4zzsVFAxdMFnFCPioch76qlZB+rpOYUrjOR4OlZV6taAdh7ye/exzhKFDNHAheDdjOiumTsLYQb7ucxQN3J7VUHA6Fs8QniUnHD8p0DhsUkC/SAhviH2MzwBeGxjdNTpuD8CrmsLhuZEIygBljfFwHXStQzAOhHysbAW4J2Ps2LFqXwddRsjDzQjcusHdpnFwGpgwY4m5r3clMvYXDgs80p1wKgspW9u7AIGO/YWDGNxcfs0G/7FjztMNV7cxQ7uyxhAEbzs1HJzqAE6/pX7e46YtMvOxDKgbWDXppSJfmwrRLj2nWx31QMeOHdXvzLJmjXfajg4frxOoi/3lor5z4MYHQFhXTg+mrIeN9i3xmPXXmirNTjBlHY41Zr9P4KHNn+80vMJ5N2/5lLrTvGbgdn8/mcL/XgCcr8951o/T0etGrxfgfcx2sMN5aGzztj51UUe/Jhi35/IHj/grdsD5OmhwcPqWHV5nSGD392A+/fRT8xk6eNDrHwD4vtHBdFZEVtSFmb52MZXr3kTFC8AiJVisBMocTp1Ig3c/HC2BU92tx/b1W7AEfJGjomq8YfEgAB8GBGOC7wE86bH++cIVGzz3ffCY27EBz2pMQW8GjufZSC+88ILax2/BouP4SfCmxZJ0GM/VJanAFxhd3th2E3gjMk4PAG4WTneKIATFDEc1KGVceO4Gb9y4MU2YMMF03MBye/Yl9wDmWXJe3pLeJUrDncbB54flKnkbFq0T9pcZhz6EOMXk1sumzVbeXOwDYkd/4fQdPs0s123ARKOEFad6ildra6Zz3GRgV9aAt52WdnWq2+235PO2X5shY50j1oXzW+rwEAvGdfHfySJwepkFUtYcCxvyRQ1vgwuWql42mLKePW+hmZcmU0mVZidUyxrjcfrzBbGHT9Xvk0+0Va7sy6IynP9MquDBc+y/YaGKLc1tpylBnKeDbnindL1udMsCjFc7lQWcbhen9wjXrfdEQZyc8ADnM59q57Zrry9CG3BS1nCI5efn/HmroyRmv+C+0Z0c4VOBYD16wB47iKCG3xvvQvyHRe8ELPUiHeuoaY2IZgjLGovSYN49FmrpPNn7TuZrklZzZr12/QZ1HTBBzUpB8Je2PUbR8VPhj10jVDKmkH2etbzqSh8/fQn1GjKFajXvrVYmhLc/enEw7Q/fJaZginAw0XH8JJxAkyZNVKhEXZIK+H4Yo0bXNZxdnEBjBfkIRQn0BwAtfLby8N/e4HdrreIz+SGAwwWj183ozix6/G79ZaajO+A0bOdb5IDT7OIUvtT+MgO8HcxbFugrDGFalg7XjZWHuAykXivn+4rzddZu/MtM79zP2xoHurKGgwzgBTwgdvS6g/2W9muiixNOeW6/JQPrH/ckP/j6tg6/CPXgO7BSENOa41rrL0p9ah6EF6rQJZiyXrPGt0zmcx6LEWl2oqGsYe3y50KgcJzQy+hSqKL79CoIvgvgfYyB2uE8HXSZczq6uhmuW49fP3m2z5djpW2Mm9Pt4nQesbkH0+eubO7vP+TvmGh/V+lR/zh6pZ2LV69QqzF91PRHBFfCMMs7ZX6krI1LU/NRPWm70VUNrl27ZjZEcZ/g+cTSr9jHVD7duVc/b+aGp1HOzycUKL+3wu1ihzMwelHRq4mIdzCiEP4XMxJg1fbs2TNGXuz4HnGF4ydhrm9ccfusf3QfsPHrFHRpjW/8zY0bh/bRxm+sCndP1aK06pX7aHdlZ09MXGA3hYqAInyz6s5lfCPpgT/cAh441Y2pEFyvvbXK9TG6RXvR5iDBD66urPXybmO/dvmfxwq2o78UuAWOlwen2eF0LETAcBqsex37C0e3hAJ1b9rhdDjVMXy9OcAAGDVqlHm97dHEuI5Qfkv7eV+46PMERxhKO5zHBPotGV7ljq0NXlzEHtCfFezAueONFCucz2A+Pae5CdZMhgLmc9QVNQvncb6dYMqajwVwaGTnrne+KkIjJsxT6Yz9esNZiLft86CBXhb34c+lfd7rdvS6YYWBH3+t7VreKV2/ZxAml+G67Y1oLmv38OZ0yIatu6lJx8HmPiw2Hfs1AbxdsLw3noIO5+ld5hAn9HcVpmzxM+MWBMWprj0HjprpaIzz8zx48GClkF977TW1bwf3OfIxxRXY60ZPIac59SKE08WORhSkQ6/RStp7pG33kSqqG2a9ICY7h4teum0dle3WWK0fjuMnGosloTcBS/lmrF+M0tcupLrk411ZoyURyvqakWDlC/cYWz4uLJlLh9s3CqqsceyZqWMtyvpgq7p0bZe3FXu0W2tPHf4ewU7KGtMI+Ea1K3DAN41d9PmNjF73/v37zXrhUOME13VO66rG6lhO6C8FODhx+e9+rmGUsML5EHSx6Q8AHjIdrjt1Rl/rHq1xLo91nnU4XeebfL55uboS1l84PLWM9z/+wd+5hfPscLqe59Q4AnzdeY1nRq9DF6ffUj9veMiD/33h3t3P6aH8lgzuRwg7W2H4BPt4DnXgaAMFCwvZCVbAOpzmJohspytkXUmzcB7n2wlVWcOabddjlFqTHPuvf17ALxqYfr0z/uydwsL7z3/g36DiPHYCwz3HafnLWteE5rr1OADwFubyNZpa/Tg43Q6n63lct11Zs1WolwWchq54htM+sj0P+jXhBUEwVstpdjjdLmj42OFnx0mc4LoYvUHg1pumXxP0IrHfDXpPtu/yxgUAXA/4Oo/v++3Z7+zgymAaLT9DECfY0/zP3r1p6+jRtNXTmN88fDj96WkQj8ialfp4jKmZnnsYhHPebp8XDRw/Sf/iukSSO5cu0O2L55XCxf87V3zTA3YUyUpnJo8KybIGdssaQGGv/p/z4iP4LvoLHmPJfIO6rRrENw4EU5l0pWSH69a7YiGIkOaEXrcuvYb4z2/kG8k+RoegIU5wvr4YCKfZHWvcXjhcHqLjlHbs5BkzvWJ97xAC0F84TLueo8w0e8Qze1kGY76cd+uWt/vLTVnrY286fDwk2G/J543xUwYvTC5ft6W1G5/T7eL0WwLEILc/Z7rojeYpqxeYSnadbUWqduP7m3k6CGXK6XZBjHigK2RdSbPo3wP7dsKxrHXGag57CCUJ+Hq/mMbXM4Pwk1wODlk6nK7zwXelHNMjcX8DPeoZN0jd6m7Qpr9Zdt1m37xiTtPB2vGcDgueMevWQg7j3ueyWGRHh9MhaKDPXLDa3Nedy4CurNH7B3gfkcTscD14n/C2UyMK2K+JPhw0Z9FalabDeXY5djLwuDMcFPGsYKos/jtFisRCOa3H9lE+HrlbVFQWeGmPZfxru5r0ebWflWU+ZdUCVTac88bnxRVx90k2Lq5cRBdXLFLKGv+vbPFOI1rzjnd5sNgq69MTR9CqV++nvx1iBuMC21uUiJDD2/YVmgD/WIO0MUdOs6/prNedNm1alcb78H61w/VALl25RotWbjT3l9nmgPKNBIFDF+D9b7XlLhnO05k217eQ/pgpC41U9xcOxpW5PLrsGE6zw+l6nlvdXM6+8ID9eKZzv/FmXn8jypObsp4/f7553TEmxfDxofyWbueNFxQfo8NpkGC/JcC54350E4yR6ejKFuFIxyydSSnLZbek65y/fNGSp8vqnd6eAl0h60qahfM4304wZR3OdJ9g9wlExyntoha0Ro8u51Z32x4jzfILl28wUp3rBnqX9YQZ3neUW936Mrd6g5rTdHSPdow1M251v5G2oFleH0jiNN0vRXdO0+FnB/EdmJUrV5rPjX3pX64DAq93dC1j2z7/HfB560NBkLyl/B0sgV4G76g6LfqY+xcvOQ8hYSxZf04QAQz73bp1U/sM32dz1vvizWNNByx4Y1/0JpzzxmfFFa6fhOkWTz/9tGpt2aN4RRK9G/zWqeNqX5dQ0JX1iUG+ACJ3b96gPVV90ybsdYuIiIiIiMRG4gpHZY3wmbAA4R2HaVxoPURTYTvhZFnbL8zZWZOUrP/0FfUf3Di8n9ameIJOjuhHa95+lG6e8A9cge/jZo316dPHbFXqc625dWUH03A476893sABbnVj6TOuGx6RjFvd+tQPnqrk1srWozyVr/uHkepe9+xFPi/fKg29rVC3uoE+B5lb7LxvR482xtPEAtXNZSGMfV/HXt7tegPEgOdrzo59bnU7/ZaBzhsRlOx12fcZp98SfhK4F91a55xnd/Yp2K6GaQnoAocYJ/SVrFh0fwLdetYtahbO43w7wSzrcKb7ROo+wVg45+UqHthqBxg/5/LsfMb7TnAe5weqG2vAc1le8EU/Vkf3Q8F4MAhUN1u2EP5Ned9OTW3GyJzF3u5ct2cHdfFzg7gFjFvdPDavd4m7nXemX2qY9Zw87Zsyx2l24OPCeXrcBPYyx3t64cKFpqAXDel6VEk+/i3PcwjHxlc+/kUFl+nY2z+2RTjn7fbsRgPHT3Ly3nPz6EuM4AIHesF36tTJvFGhvAH/SE5wHucHqhtxd7luBKwH4dQd6MHt0n+CWbZpR++Sk/qxdjiP8wPVvWq9L9Tid56bFujH2uE8zg9UN+Ygc9mfy3jH3/Rj7diddgJd702bNpnXG74JIFDdnMf5gc4bXaZclue968fa4TzOx9xTBLuBN7gTiNeM/B9++MFI8XHg5FH6seFvKvjKL62r0bnLvrCxTmBxEqxnnqlBCbruUd46ukLWlTSLfr2xbyeYsgahTvcJdL3nLPadZz6jS5L3neA8zg9UNwLzcFlemlI/1o79HgxUN8aJuSzi9wP9WDucx/mB6taHWbIXqafS9GPtcB7nB3p2EBOcnx1MbwKh1I1rAwKdd82mPc3yg0Z7h6N43wnO4/wCBQqoYFJO6/eDN954Q+WXLevtnnerW39nwjschHPerKzxP5jEFscaEL3GDsK4JRUiceEEQRCE5E1c6hLHT8IJcPQuTIyHdx26w5MKoqwFQRCE2BLvyhq8/fbb6kQg6LpNSoiyFgRBEGJLglDWSRlR1oIgCEJsiXdljYUmcBJ2SSokpe8iCIIgxA9xqUscPwkn4LS0YFJBlLUgCIIQW+JdWTt5g8cVp0+fViteYapYsPjkbmVLlCihAsRj5TAn4ltZ49zsoUex9nWaNGlUOku06d+/v+O1eP311+n+++83V0nCdY40WLv14YcfVtNC4vv3eOCBB9R3xowHRECKL7BoPqabYCU4XJMTJ5zXK442ly9fVp+fLl06NVcVKw/FFwnlmoCEcp8kpGdHJz7fJ3bi6h0bl9ff8ZMQa1UPmhCX6F8+2IVwKjt06FC1qD1A4BGnYC5xeYF18LlYnAFrFttvlA8++IC2brXGPY4WvGYyr/akc+HCBUsaVq+Cs2Ek+euvv1TgHQbrtmIB9vgAy5ZiqTymXbt2xlbcsmfPHss1GTt2bMSve6g88sgjlpXK4up5sT8T8XVN8P3txNd9Yr8mCeHZsZ9TfL1PnH4nfFZcvmPj6tkAjp+EE3CSuACteQato0A4ldWj7cDatsdWBnH1XdxAY8J+Iz366KMqJjnWWnULkhENgl0LtJYzZcpk7EWG3r17q1Yuc+nSpXj7TRAFCTRq1Ihq166tthMC9evXp4oVKxp7cYv9t4BFtHr1amMvetifCTtxdU2clEB83Sf2a5IQnp1Av1Ncvk+cficmrt6xcXnt4+cNGYAsWbIYW8EDsTiVfemll9R/BouLM3CcY+e5+MTpRsI5IRoPFmvv2LFjnJ1joM/BuUTjPE6dOmWpNz5/E3wuLJWjR4/S8OHD4+08GEQ1wzlgcfz4wn4NEN2K4y5EGnxPPAsQRGvjbZ24uib82ej65+0RI0aovLi8TwJdk/h6dkL5nUCgc4nU+4Q/2+l3YuLqHRsX156xfBIW7+D/ThIX6Ao62IVwKvvrr7+a49fr1q3zW8AfRPsCP//886Zcveq/WozTjWQHY2ILFniXbIspK1assJyLE27X4tChQyoPa8XGlECfnyFDBlU/JC6UpH4e+m+Cz9X9HeADgfOOFqH8JjgfdBVyqMS4xv5b4AUXF0GRAj0TcXlN3LpX4/I+YZyuSVw/O3YC/U5u5xKJ94mdcC1rO5F4x8bltbd8UqtWrcz/ThIXfPnllyoObeHChen33383Ur3YL4xTWXixwyEFMb3dLmRcXmAnnG6kHTusC7e/+uqrtGTJEmMvejhdC4zrcLdfXDB37lzKmDGjsRe3/Pvf/6bDhw8be94HOC5ewnbWrFlDo0ePNva8xNd9av9cjAHevGmNJx4N7M9EfF0TJyUQX/dJMIUTH89OuMo6Wu+TcJV1NN6xcfmMxs/bIJ6Jr5cg43QjwbuTg+WvXbs2zs7R6XPi4rPxGXBiROMK23GhDJxYv3698lQF6OKMq+tuhx1x8B9g+AZev/FBy5Yt1dK4AAt3xFXDzf5MxNc1cVIC8XWfOClGfHZ8PjvhKutoXatwlXU03rHR+m5OOH4SvC5xEizPPvuskZM0iMsLrKNfUxZ9tRusJANHOTjO3b5920iNPEuXLnU8FzBw4EDXvEiC5Vfx4oXoFkt8gAX2MaTyv//9TznsxBdYMhPTXO677z61qH580qZNG6Wc0OUanySka5JQ7pOE9OyAhPA+YZw+K5rvWNQfVzh+kv0E8OAWKlTI2Ev8xOUFFgRBEJIm8a6s8+b1LSDOoGWbVBBlLQiCIMSWeFfWGKPSvfYQEMDuGp+YEWUtCIIgxJZ4U9b44ECSVEhK30UQBEGIH+JSlyRLrYULnC5HRXrt0/xKnOC8736uYaQQ3bl9izbMGEDTOpSmMQ1z07gmP9HcXjVp759zjBI+Ji7bQbX6zKVfW02gcp2nU8WuM+i3jlPp15YTqE7feTR15U6jJNHLH/2sZNKsZUaKjxET55v5INzz5obWv/71L7UfjDt3btL+PTPpz5Xtacm8mrRgVkUlyxbWp03retHJ4+uNkj6OH11D61b/QYvnVqf5MyvQ0gV1aOvGAXTlynGjhJe/Dp2m1iOXUbG2kynH76Pox7rDKWfDUVSi/WRqN3o57T12zigZ3nnD6YfLX7lyxUh1p7GnXChi5+aNi7Txzx60cHZldW12bR9n5Ph44cN8SibOXGqk+Bg+YZ6ZDz7NUpZe+eQXP3nnq8L07U/VqGv/CaqcEyeO/UkrFjdWv826VR3p+rWzRo6XcK4JPL7DEZ3RC7dS4dYTKUu9EVSy/RSassJ3XzOpymW3Svns9GGl3PRVrV+pxB/1aeNe65SaazduUZ9p66hMp2mUy3N/ZPHcJ7kbjVbP0YCZG+jmLeuaAUu3HKTfByygAi3GU1bPeWStP4IKep6zRoMX0eodR4xSPqav2kXVes6mPI1He857OOVrMoZq9p5Ds//cY5TwcenqTeo6cbXnnp1E2Tz1Zm8w0nO/TqGeU9Z6ztPqoHTq/BXqPGEVleowhXIa93euhqOptOe57zZpDZ277Out5N8m5Ofy7t80dO4mKt9lhroWuCY4/0rdZtLIBVss4aFv37xOm+cMpTk9qtOMP8rTvN611XtqaruStHhQY9q3bp5Rkiht9grmfecE52X8yRtnI9zzDueZB7tWTqMF/erRxJaFaGKLX2lCswLqvFeMbEsn924yShF9mbMSvf55ASVOcF6m/F7vb3D00DL1/C5b2IBWLmlKq5Y2o6Xz66jt7VuG0eVLvnsF91SjQQvVvY3zZinaZhI1HbKYVm33lsW1iC1w0MMUPF2cSLDKeuPXKejSGv8Xnp0bh/bRxm9SGnte9lQtSqteuY92Vy5spFjBBX4/Y0l64r0cSpzgvLTZyqv9+X3q0ugGOWlm5wpKaTPnju5R6ZDzx/YZqURHTl+kMYu2UlvPDYkXAR5wPLh5G4+hSl1nUq+pf9Lla94pF/xZbbqPpNXrd1ikacfBZj4I97zDebigcOfPLK8kFA7tX2CWP3FsrZHq+U2uX/Ao7LoqfcGsSioNLxO8ePGw4lr09nz/Gat30bpdx+jEuct04coNJXgpgXDOO6bKelLRokZKcFYtbW5+V7ucO/OXUcp3/VN7fqevclW2SKpvipv5IOXX3v3MBWupfZ0PvvP+zq/6Ncr+9nxmBb9zgOD3Y6KtrC9evaF+Sze5oSnUFwqnV5KnRSXqP2cc9Zs9ljpPHkI/NvrNzHujpDcE5a3bd8w6cG/o7D5ylloMW6LkkufzQb4mY1XZHB4leuuOdaXAFsOXqrKtRnjfI7gHue7h8zab54j7rrynIcB5fA9CyXDagg376aRHGR89c4mGzd1sprcf451rfdvz2ZyGe/uvQ2fM+q9cv0Vz/9yr5KqnIQL4twnl/r6pXRN8vg4aRzl+H6kE3wPw+8iJM4f+UnljfveGLI3m+yTcZz7QeZ89sss471xqP+z3t/GM3LzhnQYYjB6T15rnjkZgdU/jDvcRGovz1+8zrzWuRUxBnHe+nnZxIkEq6wtL5tLh9o2CKuuVL9xDZ6aOtSjrg63q0rVd29T20W6tPXX4W6u4GPqPHUj4xw50I0FJ2/PHL92uLGhY0sXbTaayf0xXlnX+5uOosqc13Hf6Orp+09sy588aN22x2tcZMnaOmQ/CPW/+8UN6KXgsx4Wzq6ibes/OSR5r7YzngbtLt29dpWNHVpo3/OlTW1R53tdbpG6s/euoslwmLfcpNjykR09fUi9CfhnV7z9f5YVz3tGwrLeMHGmUJlqvNWI2/tmdLl086Lkeq8w0CMPXP5TfkpW1k6TIUIyadBisyunoihq/1fJFv5v7EJwXiLay5t8LAmujicfagKXHabC0GVbIvw/tbKT4+LZuUTOfwUt+guf5qdl7rrJm9M9CvZ3GrTRKeoFi7OhJK+qxfvWyEDx7m/b6VuqCdcx5sNTxHC7bcshU/jpNhiwyy7YYvoRWbDvkUbyB5zTDwN124BRN9ShRWN91+803X/qQrftPqXL824Ryf4NVO46YDRNdYPnBmj929rJR0sul00do96rptGF6f1ozoSutmdiNNs0eomR296q0ZGhzVU5/n7TqOtxPOM/pfXLr1i1XAeE+8wc3LaFxTX6m8U3z05Z5I2jjrEE0sXlBlYZ367jGP9Gt6957Odz3IBq5Rw4uoQ1ru9GyBfU81nQTjzSjJfNr0eplLWjnttEeI+O8KjnaY2Txuc1bt08ZVbgn0Wjasu+kmddk8CJ1LWIKIhhialuoJEhlvaNIVjozeVRIljWwW9YACnv1/x429rxAuYuIiIiIiERKYgqU9fnz3gZCKLgq6y5duqi1PwH61KMBf9kNX7xppBCteccb7zu2yvr0xBG06tX76W+Hie9oDYXbjXL90jnVBYMW3vw+dWjbwtE0tX0p06Ke4GkBMuHWjbE+tNSy1R9JZy5641ajJXf41EWq1mM2Ve0xi1oaXXnh1q23hIMRroW6b/cM06LDGCpz5fJx00LHmBAIt24uG03LutNLL9GonDldBRzYO8f8jk7Yx4r5PBCiE6sjuQlI831pev7DvJS9aH21r4MhEeRBlq+x9mTAJ8AOuuKRt3P7WLUfTcv6xq3bpnUBK1IHvUWwciGnL3jvZbacP6qcl/K1rKykQNsaVL5HU+ozczTdvmN9RtFV3G/GemX5YnwWn4Mx4BIeKxndzvZxzmVbD6nxRfRiYbwa49Y/NxtLNXrNUT1cDHxI+LxhAdvhvEKtvL4Cc/7cq8bkT5zzv34Yb+XyzE2P1QeflpldKiorcLTnfQHLcEHferRn9UyjlBd+b9y8ZrWIwZ41s1QexmoBzhUWNH8extvRRf/7wAXq+yIN35nHxOHLgHthw5ouqleMwTvl4L65yh9l26ZBKg0xNLD0J6Rz5840YMAARxk0yFuez9sJe1d1uM8lWLzpgBoixO9ZocsM0w8BvTeNPZYsuqBBuO9BXMTD21bSptmDadXYTrR2Ug9aOaYDrR7fxSOdaVaXSrR+ej9VNJzzRpmYgiVgEfI0VBw/CUuJIeoLnwjmWC9cuFBtR5Nbp45bWiyQUNCV9YlB3Y0tors3b9CeqsWMPR/4XjG5kZjbN6/TxVOH6fKZY+oBwBj2n1N60czO3uX7du8Yb75Y4bBlB93IF87voxvG+AnGu9DVcu7SNdq89wTNXbeXRszfQh3HrjS7vkp3mqbK3rnrGxsbu3gb7Tt2no6fvay6AuH4wHncxc7fEVF7EGvZTYB+Td5880166623HCV79uyqPHPs8Ar1Alg0pyrNn1VBOaPBYQPd6ky415vLhnvegSR16tSqPDh7ejtt3TjQ82JrpBzG0L28aG41Wr28Fe3+ayLdvn1NlVuzvLX5W4bCX8sm0YpR7Wjn8il0eOty2r9+Pq2f1od2LBmvXg6TWhVR9wq4deOq56WeT73gti8aS5dOH6UbVy6ocUV0UyJ9Qf8Gqizg8zh+NPhyleFcbyeFHEgA32cQKBK9q9kOK2unbnA3cM76b8dy5swZo4SXHVtHqGsCh78zp7d5nrcbnmfyLl29clI5OeJehNJimg1dYjl3jPXq+1DUrMgxbMXp/T2Nhz1Hz9HBkxdo9to9qjse6VCWYNmI1ur3WjbceQ0F5EFuXTeUZ5SUB8D7oMPYFer8MVYMpYcxeTjdwWnvj/Gr1Pg7QGjZypUrK5kxY4aKjmaX7dt9DZ5wuqrDPe89R8+qdx7OMX/z8eo/hg+hqOGghmGJpZsPGqXDc+hj5V2kcmtq022ERQqWb27mg0+q5KOXi36tZODcCUoGzBlPPaaPUA3MFOWy0bf1itLEFXPVd4spfG2cxAnHVKxfC/SD7EtPRhsny9quvM/OmqRk/aevqP/gxuH9tDbFE3RyRD9a8/ajdPPEUZWug+8VU+UR6hgTLM0tG/opj0N4IGIb3tTYh2Lbt3sa3b3rVahQ1P2mr6eKXWfST03HqhcAxtbyeKwKPHCwJuBcw1zzKOJxHkWNlibG5NDy5JfKL83GqRsVSh3weQcTcNfzAoFXLTxeq3osejwIg+dsVJ7teEFNXv6XGrO5ddtbN7+AlHha03vX+rzib9+4ZuaBcBWqU56TMBg3hzMbKzSMSS2ZV8vc/3NVB6OkT+ldunjISHFnyfzaZvlQYKu9z0cf0fJ27RxlgzFOBU9dXB8oaif4+qFRCPg8bly3WpZORFtZozHJ95wuuHc27LbOAoimsuZrcvHCASPFyrVrKO8zo69cPkY7t49RjbLlCxsox0E02NADBN8EOE3q4NnE2DOUHr4bnksodPR07TzsO5cj21ep3woezHeNnoLFg5vQtkVjlBcz/5bMhKU7lIc5lH7L4UuV9/sojxU/Y/VudW0Xbtxv9iCE+64CoVqo4dYdTkNArxuLnmzYsMFR4GgF8G7Eb4lx5VtajwCAzwx+t/17Z6n9aDr0ndi9UTWc4IG+f/0C9dvuWjmddq6Yqv7P6FSOFg1sRDeuXlR1xpTTp0+7ihOOn6S/MJknn3zS2Er84HuFe5Ny2VCVdfPmzdVKYPPmzVNdTFheD8uMzp49WwWZadGihVEyPOtg/a5j5k2KKSVQnodOXaRdHmWOLj/OGzLHO80BXVtoNQOsYFSlShWqWrWqWgQeIO+PP7xexHCe6e15acABDg8eLPVWI5Yp5xp0KcK6R/ffwRPeHgF+AeGmveVRzrACsT+lbQk6e9jbJcYvKHbCG9soL53Ys9Hbt+fh9s1rtGPpBJU3ubXPOxvnVauW10saa/hy6wqVd+AAAP/0SURBVH/v3r0qrUGDBub3On1yk/nSxnWzg65hTC/jLuttmwarsos91xsWNno/cNzlS0dNZ7Lli7xrJ/MLBBIOaPDyPcPitCTmlnnD1TTA8U1/URYWW9QsuiLn87hz298Zyo5+fx8/fpwuXrzoKJcvX3ZUyIGEgULg+80ueIHr4Poe2Dub1qxoQ4vmVPN8jwqqMbVxbXf1+9kJVVmDM6c8FuCG/srZbsFsNNgq0OK5NWjtirZqqObvv70vcSjlcH5LtrZCcRZkbt+8Tkd3rPa82KfQ9sXjaffqmXRq/1baOHOg6tY+tNlrgCzcsN/b2PZYjHBCg8KGtzHSoMTRZY+eM6D/lljUxMmhC8KxrsOxUNEzCGMAvSN4xrENT2g0HjCUAeU7y9NQZ49tEGpD4K7nudq3e7rnmeqs3mNwWsX+3l1TaMeW4aZj13Wj8RlO9z2D10goDn3zPOdUpfssZQw1H7aEukxYrZQ8BPuDZ280h3Q++K4UPZUip5K/dh/0E877InsF9ZvEFY6fhAhmrVu3VieCdUgfeOABFcQ+qYDvpT8AgcRu6YWqrAHWTb733nv95OxZ6zgnv0BCsQ7CbWQAKOhmzZqZyg1gG78xFDfTwaNM2DJc2LChqzCsUKCsdc4c3KEsDM4Hayd2V9uLBviORzfxlXMn6e+7d8yyeNmBnTt3qnPEykI4/x49eqhlT/k74D/KAJ4mBgkFjLnCCxgvmrxNxiiPY0z9wYOMaXUDZm1Qnp9gz84pAetGF/quHeNMhQCLCNM7+njqH79kO43zyPD5m9XLDz0neKHh5QD06x1INhrjhXwe8NIPRjj3t5NCDiR2YH2iN0dX1hBYO2Cl8RKGFy5evDqwlGDdbtnobTzqY5H9R87wE87jscjxzfKr++bINq8XPAPrFl3SyEMjiEEPzF/bRilFgfm2aIyt8DTMcG6w6I4d8S17yZ81YuI8unrthkX6jZhu5jM8vQ+NhFMnNqrG34Xze9WwCv92PM2Pexsq9GxGOw7vpR2H9tKWAztpwaZV9E7pH1XeW7/9oMoCxDfANcJn+HrqetOa5a1UAwhDb7dve58drjtr4zLUfvwAJW3H9aOGw7pQ5oalqGjHutR16jBVFo1Vbw9gczp0YIGagonPQs/gkUNLPec+gY4eXkG3bnrH1sNpCMDo2LtrqppSiMaUqaw9z9T2zUPUZ27z/IdRArjrOV+rKt6u57njqe+ssdRmbF9KWS6b6p4u1N7bgIcfAebI4z4r5/l8TGGD7wKGEPUpd0u0bnOQIkUK5U+iS2xWcsMzFFPsz6IuTrh+UsaMGdVBUC4TJrgHZ0iM4HuhW5QfICcw3srd1IAvIq5HnTp1XAUc2rJMBR9Y6rGSMGZ5ZNtKOuJpbUM57V41QzmgrBrb0aOYfBZSqNZBuMr62dS5lUyY4b9u67Dxc818sH//fqUE161bRzdu3KCGHsWMxe3xva5du6bGr5DP1i2fRzgNmAsnDyoHms1zhylrY+uCUXRg42I1tWRym2J07C/ffG18VuPGjU0FDbDN42wMxnD5t3SyrNE9/ueqjsq6BrsOn1WKGg8zhhzQYwBnHbS2oVzRW8GgPq4bLy8dWOScd2i/d/oJzovl5MmTjsIKS1fW4375xVUY/iz4CDhx+uRmY4vom7xV6b0MxSyCqWIIJlGtcQ+6fsPnS+GkkAMJo48JMhhH5BclLBnA5337ltcPIBDhOg5hjBcKefmINnRy72Y1DjyrayWloBFQAz05x3dvUGX1uu3jlhB73byfpVAdKlu7k0W+z1/TzAfo/eLvGQqsUEMZGkDjgut28oGB1Xn8yCq6ctk75BfOM493EXp2xjbMo7rt4U8B6//6Za+XMhpDyGdnNzQ8EITnr60j1X148vg6Jfh8r9U8TfUOgsWDm6rfBr8Rc/HkIeWIh2cAeRD4aYCnU+VS0rH3GFq/ZZdFWnYZZuYzfy2bTAv7e96X/T2NrnGd1BQ1+IvM7lZF/T+2c51RMnrg/RdTsL62LitXrqT333+funf3+V3pxPyTEjG4wLgZ13luTET5wVxEdDfuWDJBKQ84eCz03ADYZ/AiRBcMlCfGTnBTYtx5944JtGFNVzX/9uhh75zucB8AJpSu03DPm18ooXTlIR481u2FgsYNM3XqVNq9ezfNnDmTevbsScOGDVOKHIob8DmGoqzDtZgA1pyF0sP5MFi+FWkY69K5eGG/iublfalVUFGJFqmIat6XnN59xt1kCHRw4MR51cWH8fqzF6+pbkBWNsya5W3MeuB3cOniITp8YJGZBtFp3749tWvXTg2DoNGD9YYbNWqkhhs6duxolLIq67/v3AkogD+LPex18MLWzyXQHG6WrX/tV2WdFHIgqexRwvZrpMN5PzfzRnjD2LA6bwfLevvmoSoPzokgmo3RT6v+RK8U+0ZJhwkDlMDqbDWmD5Xt3lh5q//cuirNWOt9Vvg6hdQN7vle3IOgW9bnz+2mHVu8w1wQjJmDY8eOqfv4wIEDapgMPZfz589XPV0YtkAeyoBwPbbDOe9wxmd1QrFQo9n4h3c9FP2srpXpyjmvcyPehTCGju38U+VhaEkPYBUNcL6Rxq1Ox1S8WPjC6ZJU8H6Xv+nAhoUexddbWXhQcCvHdFTKDq3yOd2r0SKPdXzpjLe1iocP3sN4ce/c5lPW6AKFle51TvFaV/oLBwpn69atjgLXfcBlQ7NQwzzvC1dp0rK/1FQYBJOA0xgEY1HossK4FIc+bdWqlepyhkBR2x1BIBs3blQvE8DnHUxAuBYTWur8gkPPArzn8fJDK55f/nAiY8LxDA0nJCiDrlI+H7uwVz/AeD4LuuXQVQeBt7Sex4QTlhZjvvyZuB6Mbv1zxLhA0dEQhhF5HKrRSSEHEgToYIWMsUsdOBdxHkcOAxjqwO+4ellLY1pfBdXo2Ly+j1JoTLjjnHzfhKKY0lTOY1q0oRBO3eE2MvC91q3q5G+hHl2twv0e2DvL7DIP12ObzyOU9wn8XfT7ku9XONLp6cdskdNCIZyxX4ApXxAo4gMbFxmyWAlCpHI+CLf7Plrw+y2SuNXpmIrCcIhKquD76Q/A8uXLHbsrda+8cMYiwwWtaZZp06Y5CixeJhznNSxOj1Y7LGU4la1evVq1dAcPHqzGgXEM/BJAuA9XOA2BcIcduOytW8FffOF6hvJLNpSQoDrXrp5W42+w4DFODuUTW8IJSwv4ukAWzqli6X6F8PhfIGX97Pt5VB7Hj3dSyIEE8PWGYCiBnXf0dB735+sZitILd5yTeyZ6pU7t6F8BOelRZkBXqLj/R40a5SizZnm778Nx/AxXWTMpU6a0+LNA3GbewAcG02jtYveB6dq1qxo+Qi8GptzWrVuX6tWrZ34vvD9QJjHzceW89GKRDEqmrl6gZMqqBWo6Fca5m47oTr1njlb+ANEEv3dMQbe3LsuWLVP6yK1Ox9Qvv/zS2Eqa4GLwtBmMaQE4OqEbCOMeS4Y0U93UyJ/StrjKZ8UOcVLsEHsXX6iE83CFa3nwy6z7e+/RLE9jwEnWuIyRBGPv2tm0ZHBTWj6yLW2ZP0JZ+dsXj1NzL+f1qkWrx3VWXuAgVOe14x7rHaB1zApo/54ZdPH8fuUchHCa3gVDytN6bf4swOUPxTM0HOUR05dwqIQTlhboVrRddu0Yb5QK3g3+YpqfjJIxU9bBYoPrPQL8meit4IUhWJ73pHE+CNfJkQlX6fFvqkukHD9DiVHA3zGc5zLU89Yt4lB6dxIj+vUOpfcyWuDzYwqfvy4YTtANMx3HT/rnP/9pTgNIiuCixIRQxyLDRX+Agj1c4VoeWH1n0cCGKkjHoS3L6eDmpZ7tybR79QxPw6SLGl+Hs1dMuHDigIrkhrHybQtGKyWN8a2lQ1uosfppHX5TQUJAqC/hFZ5rDKBMIE5d1fDO5XwQrmdoONPZoqmsY1M3GjOw7NDtDe9gDuLCsLJO9W0JatF5GH3yYxm1/2SKnHToiM+BDjgp5ECig2uNCHyYL1ywxXjVE3BXm+YDWBmH0jgKd1yZ76k/e/emrZ7fcqvHMt48fDj92asXjcialfp8/DHNNH7rmHT5hur4iS5n/I5HjhyhJ554Qgka8PiNn3vuOeVAhPynnnpKlecGBfZ/+ukn5S8CZZwzZ0569tlnzXzw0Q+lLWPvdjjvq1zeIRBMyYOSQtAgKLJ+/fqpMW38dthHHqaACbEHv2lcYfkkfnG4SVIhNt8l0q7/IByFqis9p4AbLDunTFHlw/HeDBc+j1C6IMMdduAXeLbC9ahC/c4WyVywtuUFD8IJ9QhCnc4WV8oaFpdTWFIIhjoAf2cnee0z61KBTt3gXQdMMMvD+YqxK+NgwqBxht4nu1w+a10tK5xAGuGOK/P1Q6Q7J8uKBcAAgb/F5s2blSIbMmSIcngaOnSoUmJIh1MX5iwDrjuUsd9wol6FS7j+HkLcgfsjNqA3NUuWLKqeRx55hPr27Wvk+BPyJ+3b53NoSezE5AKzYtJb8FtGjKB1ffrQiGzZLC345EJsxsbY2kUwBSf4BRSKNRZuqMdwXsK6Qg0keijTcAjH/4C/s5u8rilstzHrYlXbmOV37vH6Kjgp5EAC0Aji64r1khEaEyEoOQ2rPumEGkjj7JHdKjzrqnF/0P4NC9WURzQKIFjrGGvJY2rO1Qvehl04TkkIAAPHSVzfUqVKUc2aNdU+rn/58uVVOvZRDvBvG8p9ojeinbq0Wc7v93rgh4PegOF50+3G96dWY3pTue5NKFfzClSzf1u/dcGF6IP7I6agdxbHZ8iQQfXq4VlHbwqGUZxw/CTctDrnzp0L6YZNLMTmAgs+2OEMFpvdGa1dj1FmPgjXIYRffMEEhBvqMZyXMAOrmo/TxT5eGA7hOvSxkrXzS5mmfnmBHMy4Sxxy585dR4UcSO7cumFeU8Q314HStl/vcGM+o8sYvRxo/GE6E+DGINI5PGW0cfq9nQQs33pIDbOwoCECweI8erp9je5QiEncBiFu4N8/Jnz66afK0dGOW52WVP0GtEtSi2AmxB6e5gVxmuYF4bmi4cLKuPOrrzoGCoEcWr7cKO3ldoihHs8d3aMcCTFHE8E0MNQAZzi8EGElwlnurm1+ZqjOPdHErpB1OO/adf8XNqZ8IVIXxrcxn3nd6k505pS3axg4KeSAMqWXUsZYbMIJu7LWQbxr7lXBvPaETDjR0cJteIVDNBsCQuzAOyCmPPywdQln5v777ze2rDh+0rhx3mAGSZXYXGAhbmBlPbFIERUUxE0Auo5hcWHqA8D2xIkT1X900aPRgG2ejggPf7xoobwx/xerXW2dP1JZ6FDeyENENdD2iSfMcxmdO7eSkTly0OBvvlFLbA79/ns1NBIXuCnr02cvOOZhHip7NCMoDOaiHtw3z1y+FAIHKUeFHECmdyyrrhFWEnMCeRCsTGcnMSnrcKKjRZNwg4sIcUdsdAnmzH/yySfGnhf4VLBjoZ1kqbVEWSd8OGITxB6pSReGu05h5XPEszFjxqh9pHMcccDKNxT/A11Z27nlsbY5b0qpUkZq9GCF3LTjECWN2g20jEE/ndIXihFOhKyQnYDj4dnTO9TcdieFHEimtf9NKbGdyyYbtVlhZX3hhLdrO5wpfgmJV4t/qyR97V/pt64NlZTs3IDytKhE71fISTmalqOuU4YapYXkSGx0CY4NRRhR1kKCBAqWxR6tiQWLfIDz588rBw2URchF9tqGV+/IkSNVOrwsY9JlrTsOsWXtJPvjYL13VspOgilZt275pltiqlEgZa3jpJADyaoxHZUyXjjgd6MGoju3fIFbWFlz3IFwpvglJNipK1vjMtRh4kDq6JFOkwZRt6nDaPC8SbRk65905663t0ZInsRGl+C9FYowlk/CpH2AKQxJGVHWCR9Mt0E8cnjsIoIbxoyhfOE7AUcjRF+DwnYCc+GhoBFTObboyvrgkiWuEhewYs5RtL4l6EmH3mOMEj54qU83Zc3LhQInhRxIrl06ZypkBttjGuah3aum++UlVsKNLCgkP+JSl1g+CXMVMRcRXY/4b5ekgijrxAdb2U6EGzQiHPAyxudiRgTAfPH69eur6T4A03yQDyUWbVg5M3OX/GmmYVUiHT3SGWLZ62DRE85DLGW7Mg4mAGuPs1Le9+dcOnN4p7kPOb4r8SsxhObF7424ABhywZRETKlDLw3CQ6IxiDJC8iW2ugTTtlCHLjx10I7lk5wO1CWpkJS+S1KFX/q8ag48cNXqOn//rebSIm9iy0IqL9pBI+DEw42Fgwe947CIVMVpiD4VFzh9x7fSFTLT9W5wL38rL3BWzHbBmDVwUsiBhJndvar5O9kFzleXziRu72Q9qllSDdspxI7Y6BIM0eF4HrZ7+umnVSPQrU7H1C5drDGXkxqirBM+4SxEH250tHAIdw3kaMKfpXP7zh0z/Z2vihipPjB8wOEvdeGeAuCkkAOJHXh9n9iz0VyXeMu84Uphnz7gWwlKEJIisdElUM5Hj3pXRwTYB2Epa4DAKDj4448/VmsaJyVEWSd8FmzYr5ZYxCIXWElr4KwNSnpP+1OlIeoVVj+LNgkpIIWTsgYlqrU1846fsjrRhTI/3EkhB5Kyf0xTAU2CSf3+3oAmgpBUwbMUU/7zn/+o55NhZY21OZxw/KQHH3yQ8ubNqxx4Jk2apE4oKSns2FxgIW7guOtYYztPnjwqjneTJk3Ufdm2bVszP9oklKX4gJuyBpyH5S91oqGssXwnz5UOJFDqgpCUwbMUU7D4E5Y45VkTUNYbN250rdMx9bXXXjO2fDilJVZic4GF5AUaCxylDXGj7RHaIHjAEMwgLrh59RL9ObknTW1fSi3jOq5xPprTvZrrnOdoKGs7rJwRVUsQkhN4lmJD2rRpzXUF+Nl0G7Jz/CTELLWDBQ2SCrG9wIIQH0xp4428hiAiOuiCH9fkJ5V3cJN1Gpkoa0GIHniW4grHT8IJYPk4gPB2Tz75pOoOTyrE5QUWhEjBntZOXD573DFflLUgRA88SzEFi9O4iROun/T222+bDzYWL09KxOYCC0J8gaAjXuvZu2woPLDn961Lx3etUwuVIG/jrIEq7+s6hem9slktAi/6NJVyU8Z6xajh0C503XCKc1LIgcSOKGshuRIbXcL61S7PP/+8UcJKstRauCCCkBg5umMNzfijvGlFs4z5PbeSDTP6q3L6GshnLp2nMxfP04nzZ2jjvh2UpVFpM6/H9BGOCjmQ2BFlLSRXIq1LENPBrU5R1oKQSOCwp8EE6MrazqLNa8y8Yp3qOirkQGJHlLWQXImGLhFlrSHKWkiMsDLGspx7581zlMsnTqiyurJ2kpeKZKB+s8aqsk4KOZDYEWUtJFeioUsuXbpkbFkRZS0IiQRW1pOKFjVS3AlkWdtxUsiBxI4oayG5EhtdgmPdxAnH1E6dOtHo0aPp5s2b5sGykIcgxC+srIMJEGUtCNEnNrpk//79FkGo5BQpUlCtWt4wynYcP4lP4Pvvv6exY8eqOMKYvJ1UEGUtJEZw30L+9a9/GSnupMtRkV77NL8SJzjvu59rOCrkQMLAGea5557zEz3uuCAkZaKhS9zqdExFSEegH+QWrzQxEo0LLAjRBvctJBRlHc5KZE4KOZAwWC2Iz0mXM2fOGCUEIWmD+z3S3H///caWFcdP+sc//kF79uwxT6R9+/amAk8KROMCC0K0YWUYTICurAOJKGtBiDm432PD3bt3KVu2bMoYfvnll9Wa6W44ftKUKVNU1DKOUfrKK6+o/0mF2F5gQYgPWMEi8P+w8XPpkx/L0FMpc1L1Jj1oz/4jRikvYlkLQvTB/R5ToKhx/KOPPqoWKXrggQfo//7v/yhr1qxGCSvJUmvF5gILQnzBCnb8dG8EsytXr1Oekg1VWvpclWnX3sMqHYiyFoTog/s9pmTJkoXKlClj7IW5nrX+wDlJUiEpfRch+fDc+3mVTJix1EjxMdxjaXM+88QTT6h7vXDhwkaKl5YtW6r0xx9/XO07KeRAwoiyFpI7uN9jCqxoHVbWjzzyiPpvx/GTXnzxRVq5cqWx512Fa9euXcZe4ic2F1gQ4gu2hlt0HkZLV2+2SMO2A8x8nU8++UTd719++aXar1ixotr/+OOP1T5wUsiBhBFlLSR3cL/HlM8//5y6du1q7IVpWTOYsmXHTdsnRmJzgQUhvliy+aAp45ZsV/OaITNW77bk2Slbtqy65zEmhv961xtwUsiBhBFlLSR3cL/HlOvXr6vj0aAGPGadLl06tW/H8ZPuu+8+Y8vLpk2bzJZ5UiA2F1gQ4ovVq1erLmwETxgwYIDyHJ09ezb17dtX9YS1adNGlWEunDhIayZ0pemdytL4ZvlpYstCNKFZAZrbswZtXTCK7t7xBjpyUsiBROfQgYW0elkLWjCrEi2aU5XWr+lC58/tNnIFIWkTW11y584dat68udpOlSoVjR8/Xm074fhJ+fPnVyeB7nBo+qSm3ERZC0mdWV0rq9W4tsx3jirGq3VdOXfSUSEHErBv93SaP7O8klVLm9PeXVNo2+YhZhpEEJI6calLAn7Sli1b6Pz588Ze0kGUtZDUwfSuxYMaK4W8dFgL2rNmFi3s30DtT2pZWP3fONO79rWTQg4kly8eNhXynTs3VR06KxY3op3bRtOF8/uMFEFImsREl+CYYOKEJdUeq9QuSQW3iyEISQVY1mMb5VWyfGQbunDigJHjZULzgipvWoffHBVyIFm1tIVYz4LgISa6ZMeOHabgeA6EcvbsWXrnnXeodu3aat+O5ZMQQQXy2GOPqUq++uoreuutt9R2+vTBFwRILIiyFpI6M/4or6xnKGRwct9m07JeNrylJz2f2p7StrijQg4kKxc3EWUtCB5io0s++ugj2rfPv/fpnnvuMbasOH4SvNJ04N2ZI4dzcIXEiChrIamDnrDKlSvTunXr6MaNG9SwYUMaPnw41alTRy3AgSEu5O/du9dRIQcSOJCxsnbqBue83X9NNFIEIWkSG12CqVqYUWEH0UOdcPykTJkyGVs+/vOf/xhbiR9R1oLgw0khBxKwe8d4UymvXtaS9u6aSls29DfTFs6uosoJQlImNrpk8uTJKiY4wo4yEydOdK3TMRWFURHAXDC0AAK5lCc2RFkLgg8nhRxIdA7snUMrlzSlBbMq0uK51WnTul505fJxI1cQkjax1SUVKlRQdejCa3LYcfwkeJJ+8MEH5sFJSVEDfCdBELw4KeRA0uH556mx5xmCdHn9dVfZnsTeG4JgJy51SbLUWqKsBcGHk0IOJLqyFoTkTGx0ycKFC13FCcdPmjp1qjoJloceesjISRqIshYEH04KOZDoyjqQCEJSJza6RNexujzveb6ccPwkHKDTuXNnKleunLGX+LF/P0FIzjgp5EAilrUgeIm0LsFMDbc6HVNz5sxpbPmwxwtPzIiyFgQfTgo5kFjGrN9801UGuCxIIAhJhWjokrCU9T/+8Q9jy8uaNWscp3MlVkRZC4IPJ4UcSLAQyMTmBZWcO7rHqMXHlDbFVd7MzhWMFEFImkRDl1y6dMnYsuL4Sbzm7SuvvEL/+te/kpxyE2UtCD6cFHIg4ehoLFPaljBq8jKuyc9mdDRBSMrEVpdkyJBB1aHL5cuXjVwrAT8J0Y+OHTtm7CUdYnuBBSEp4aSQA4keyhQLhLDS3rFkgqpPlLWQXIiNLhk5cqQ6nqOYIZ4Jlrp1qzPgJz3yyCPGVtJClLUg+HBSyIHEHnccoMsbaWN+z2WJOy4ISZnY6BIo56NHjxp73n0QI2WdVJWaKGtB8OGkkAOJk7IGl8+eUOksoqyFpE5sdAlCeF+9etXY8ylrhCB1QpS1ICRznBRyILHz4IMPqtkiL7zwgpEiCMmD2OiSjh07qucGEUMBlPXGjRtd6wz4SXPnzjW2khairAXBh5NCDiQ6WM4Pz9P69evV/6S04I8gBCO2uiRt2rSUOnVqtY26IGHFBreHPlu0aBFt3brVyE38xPYCC0JSwkkhBxIGUzzxLK1atUotuTl48GC1n5RiMghCIOJSlzh+EhbxwIOYJ08e+uSTT9QJpUyZUv2/ePGiUSrxEpcXWBASOk4KOZAAVtQbNmygbdu2mTJ79myV7raAviAkJWKrS+rWrUvdu3dX21OmTKFvv/1WrT/vhOMn2WOBnz9/nnLnzk137tyh999/30hNvIiyFgQfTgo5kEBBs7JesWKFUYuXnTt3qjwIusYFISkTG13Sv39/dTzGqTG3Gtvly5d3rdMxNWPGjMaWjwceeED9hzNJYic2F1gQkhpOCjmQMIjDAKUMKxoK/OGHH1b7ehlBSMrERpc8+eSTdPLkSbX966+/0tdff6223XqlHD8JJzB9+nS1fffuXXrttdeoS5cu1KNHDypatKhKT8yIshYEH3ZlHEzaPvGEGRt86+jRXhk1ijYNGULL27ZVa1mPyJqVdk6danyCICRNYqNL4IzJnuCoBwFRABq8Trh+Erq7UQGkd+/eKu2LL75Q/xM7oqwFwYeTQg4kgiB4iY0uwXh1mjRpaO/evWY9pUuXdq0zWWotUdaC4MNJIQcSQRC8xFaXPPHEE6qOGjVqqP0sWbIoHzEnHD9p6tSpqgIWu8NZYie2F1gQkhJOCjmQCILgJS51ieMn2U+gc+fOVK5cOWMv8SPKWhB8OCnkQCIIgpfY6hL4hGXLlk2FGH355Zdp1qxZRo4/jp+UM2dOY8tHUgp0IMpaEHw4KeRAIgiCl9joEihqHP/oo49SkyZN1Iyr//u//6OsWbMaJaw4fpLdG23NmjWUKVMmYy/xI8paEHw4KeRAIgiCl9joEoxPlylTxtiL4apbFStWVAe88sor9K9//SvJKTdR1oLgw0khBxJBELzERpfAitZhZe22NHXAT0LQg2PHjhl7SQdR1oLgw0khBxJBELzERpd8/vnn1LVrV2MvTMu6UaNGASWpIMpaEHw4KeRAIgiCl9jokuvXr6vjsf4G4DHrdOnSqX07lk+qXbt2QEkqiLIWBB9OCjmQCILgJba6BOttNG/eXG2nSpWKxo8fr7adSJZaS5S1IPhwUsiBRBAEL3GpS0RZC0Iyx0khBxJBELzERpfgWDdxQpS1ICRznBRyIBEEwUtsdMmOHTssgoU8sCYHr29tR5S1ICRznBRyIBEEwUs0dIlY1hqirAXBh5NCDiSCIHgRZR1lRFkLgg8nhRxIBEHwEhtdgm5vXZYtW0aVK1cWZa0jyloQfDgp5EAiCIKX2OgSHGuXe+65h9avX2+UsCLKWhCSOU4KOZAIguAlLnWJKGtBSOY4KeRAIgiCl2joktSpUxtbVkRZC0Iyx0khBxJBELzERpfUrFlTHR9Itm3bZpQWZS0IyR4nhRxIBEHwEhtdghUtFy9ebOz5EMtaQ5S1IPhwUsiBRBAEL7HRJRs2bDC2QkOUtSAkc5wUciARBMFLbHXJ3bt3KVu2bPTPf/6TXn75ZZo1a5aR448oa0FI5jgp5EAiCIKX2OgSKGoc/+ijj1KTJk3MJTKzZs1qlLAiyloQkjlOCjmQCILgJTa6JEuWLFSmTBljj+jpp59W/93qFGUtCMkcJ4UcSARB8BIbXQIrWoeV9SOPPKL+2xFlLQjJHCeFHEgEQfASG13y+eefU9euXY09sawdEWUtCD6cFHIgEQTBS2x0yfXr19Xxn3zyidrnMet06dKpfTuirAUhmeOkkAOJIAheYqtL7ty5Q82bN1fbqVKlovHjx6ttJ0RZC0Iyx0khBxJBELxESpfAyg6GKGtBSOY4KeRAIgiCl9jqkgwZMqg6dNm9e7eRa0WUtSAkc5wUciARBMFLbHRJz5496eGHHzb2vKxdu9a1TlHWgpDMcVLIgUQQBC+x0SWYonXz5k1jzwdihjsRZ1pr37599N577xl7RCVKlFBflKVv374qfe/evfTCCy/Qs88+SwcOHFBpgUiTJg098cQTdPz4cSOFaOzYsXT//fdTgQIFjBQroqwFwYeTQg4kgiB4iY0uSZ8+vWN8cLc640Rr4cPHjBljUdY6r7zyirFlPdFgF+Kxxx4ztohq166t/l+5csVU0osWLaKTJ0+qbZ3YXGBBSGo4KeRAIgiCl9joEoxN4/hOnTrRoUOHlL6C4VmoUCGaOnWqKUycai0nZY0T7tChg7Hn5dixY/THH39Q8eLFjRRn/vGPf9DXX3+trOg9e/aotFq1atG6detUV0L27NlVmh1R1oLgw0khBxJBELzERpfg2FCEibjW4g94/fXXjRQfTsr6nnvuMbZ8zJ07V8VMzZUrl5HijOWLGNs///wzDR48WG2PGzfOEiGG0Y8ThOSOk0IOJIIgeIlLXRKnWstJWX/00UfGlpdGjRoZW8EvhJOyhnJevXq12r5w4QKVL19ebeugrIiIiIiISGwlroiTT5o4caKSl156Sf1npk2bRqNGjTL2vPznP/+hBg0aUM2aNenxxx83Ur3YL0ydOnWUJY2ub8RZZVBu6NChqiv877//NlIFQRAEIXESd80CQRAEQRBiRPJW1sG6MD77jGjLFmPHA7adnNb+/W+iTp2MHRuYR2f/HNTxwANECxYYCQmEQoWI7r+faPJkI8GGU37Zst7vxxIBuAcFnpD33XcfFSxYUO3b2eL5PdycCIORJ08e1fNSv359I8Xr2AhvTPvQDLwz4cQ4WfveZT3fm7vB7D0++/fv90sTkg/x9dvfvn3b8bPfeecdmjNnjrHnD+b7Ot3HyRlci1BCgMYlyffXQfB0/UU/Ywb6640dA6eb157Wv783zUlZX7rkzdOPyZwZc868itqpficwh/zoUWMnQjRpYmwYtGrlPZ8VK7z/7941Mgzc8h99lChvXjgLeCWWIKg9K2A8MK1bt1a+B27E5AXz7rvvquGW9evXq+MxrRBgu3PnzvTaa6+pIRvQyvO9kb7C873x/67xvR/1fO+8nu8NHwm7EyPKQYTkidtvX6RIESV2InWvQOkiToUOpq6iwRuMpUuXyj2rgWshyjqhgBvz3Dljx8PPPxN9/72xY+B08379NZE+pQxlIE7KGunDh/vXw3O/kX75sneb4fp0gaLm7aFDjYI2kDd7ttdid3CqU3ha3pQ2rbes3Qv/3nvJY8J6t5HfpYt3m3HLx/amTVg+xrsfIngY4AiIcHu6dYz0c57f5dNPP1XbkJUrV6rpeA899JCazoc0DqKDqXv2KX58nC46O3bsMKf6Ia9atWoqkhCXW7Nmjbl9r+d7s2WPtC7G98b2Js/3xqo5OvguX3zxhXm8kPzAb58lSxbVc8P3AWao4F5CsKdvv/3WvP+wjTL4DwGIE4HlEl999VWVV7JkSZUOcC863VsIU/n8888bez4wvRWxJ0Cgeu3K+uDBg2o/derU6j87/j7zzDNqH88i/s/wGDluZZ1AIBCeKYSGC64J+Pjjj9XMIHwHnDNwqxfbuL5YThLbIGfOnKoHAXUgja+lE2fPnlVl8uXLp/7PmjVLpeNc8L0efPBBlQ5l7Xa+8UHyfaMYP7JHE3i3dcFEdFiQP/zgLaMzcqTv2CefRIBX775bN/j+/b7yOkjLmtXY0Rg40F+YVavggec9dvNmI9EAaeim5u0//vBuM+i+Rrrb3HXk1arl2/7tN+8245aPbZYnnvCmhQAehqpVq5rbq/DdjG1w7do1tQ2HRFiz2B4wYAAtXLhQbbOyHun5PfgYZqDnmtnFCbxocCy6D6F4uZ6jnsYRb+M/HBh5+zfje2ObBV3n4PTp02qf/wvJE/z2f/31l7nN9zaUQCiWNcpwWp8+fUK6l5zKoIGAhiMTqF67soZS//LLL9X26NGjzTz8P3/+vLk9c+ZM17JOuCk/HMO9Vhj+uuwxYgKdA4bAeBuNfgxrcX7Hjh3NbSeeeuop+gxDnB62b99uqZfBtijrhAL/MCdOeLtvP/wQgzvebSjYH38kWr7cWwZlIQgNB8E2xi+hADk/XGUNkA7LWwdpdmGqV/elHTliJBro5TDmqkWFU+D7oAwCxzvNlUVelSq+bXyWTrB8gPQQsT8YCBHL2wy28TLYuHGjXzora4Tr0/MA9u1ihxU1lD2ApcPlEBqXt/G/ivG9sV3d4XvrZXfu3CnKOpmj//bYRgMTwO8hVGUNxQ6WLFkS9F7CzBndSmbCqdeurLH966+/qm30bHGevQyeT7eyTkD5YZgJwNLXlbUdt3r1stjG9YWyxjAAwEwgp/oY5KF3oXLlyqZcvXrVr15W1k7nGx+4f6Okjv3HtHeDu/3YPNaMrlH81wWK2Y5dWWfM6FPQ6O7JmdO7zUAJ2YXreOEFojNnjII2kL9mjXcbDyQ+xwk0Kvh8ddBQefdd7zbyli3zbjNO+Z4bnN5/35uGVrG9zgDYH4xAytrpQWJlvcDze+h5AHl20WEHMATN0eF6evfubW6jaw1j3ABpyzzfG+fzvvG92eoH+G8XIfmh/+7YZmWNqah4+dux3ydQqpwGy5i7hUHTpk0t1jJwus9+9DTOEcZSJ1C9dmWdP39+Mz9dunTKygUo06JFCzp16pTaxvPpVhbYz7dUqVLm5+C/rqzx3LGT3KVLlwKeA4PtYMrafg5ofHM+3jscfAtpyz0GGr9ToKzdzjc+8H2j5IbxA7jilo8Y5G+9ZewYoCw/GFDiukOHXVmPGOHdZwllrPfiRWMjAKgLVjPXe+uWkeHC1q3GhgE+g4/VHmK1D9zy8QBxOsbzQ4QfAIDtQMoa8DgSS79+/VQ6YsK/Zf89gqDXA8GiMuDNN98008aPH6/SLnq+N6fpLze8ODgd4+Y6Ylknb/TfHtusrKGAnnvuOTWuCoXHlC5dWimBp59+Wu1DqcIpLFOmTPTkk0/SjRs3VDqwj1njnp0NXxUN3f9Cx61elNWFfTRwXhgXRnkG/hyoAwoQZfmzncoCpzF2OG9+8skn1LJlSzMPzxm+Cxw/EcGScapXrw/bwZS10znATwX1poUPj8GkSZOUnwHeRSiPsW3gdL7xQfx9cnyDrg17F3QoPPSQtys8oRGPN1EkQZfTcIffhceoAB4YBNQBcAhxWrlGEBIrUKrRsOAiUS+UJpQh9yjpDQkhuiRfZQ0vbB5zDoeEqhSTiLKGYwnG9uzgxaALo28LQlIgIStrdH/D4QoW8JQpU4xUIS6QN50gCIIgJHBEWQuCIAhCAkeUtSAIgiAkcJKlsnZao9dJBEEQBCEhIMo6gEQCTHOAExSW8oytMxRCCkbLoQrTGziGcN26dek44pF7iGsHLsQBZyeYcD87JueKMKY4DvLPf/7TSPVSsWJFvzq5LITnb3OIQwhP01m0aJGlrB2k2efBCoIQO/AsYrpXMCpVqqSmbjnNe7eD9yHK5siRw0iJH+L2TZxAcFLMThIMBNfAj4hFHtzAS5nnCseWaCprHXwGK+u4BrGHMTUEhPtdoWwRmSkcEItYjzmMOdIA54F51fo5HDp0yO+cMM+U05o1a2ZuYwoagjoApEF5M1gEBGmirAUhPBBXQX8G33vvPeWd/v3336t0SDBlzeFIMY8azymmf7oxb948Vfb8+fNqHQOswBdfWN88yQQnxewkOnwj6AL4h4fYA9jbF6PgYxAxB9tnzpxR/7E0I8CUJS7PNwUiZnHaY489pv7bQRpalIhRjW2e+4goW3ysfhy2saAA/nNAD7as9Zse8H8EdOB0SJ06dVQ6egwQmenFF19U6W+//bZKDwbKIgABAppg+++//zbTGS6D/xDECwf2ACls4aIF/PLLL6ttRi/H4gTiEet5TZo0MSOdMVgBDPtQ4lmNuO6YvsJlsHoXb8NiR+AUhB9FGn8/hDfFtBekibIWhPDRnydsI5Y/g/1QLGsGitoeyEXnm2++Md9pEhQlHnBSzE4SDkOGDFE/JJSyDtLYstZ/aLbaihUrpvbtVjNv4z93v/ByjXaQBsUPoNChgLHSjl4WSg8r1fAiFVBsvBoP0LvBkW/vBofi4ZB9vBoO0Lv3gwXx10E5PmdsI3oQbzPYZksX558xY0bVTW4vw8p68eLFlrxwgAKFxatjV9boOkO3GUc1w7xVgG1cO90S7969u9qGcDxmgH28aPBflLUghA/eRYjnzYaMDvZDUdZ4BvG8wjIPxIcffqhWBAPdunXz+7y4JP4+OR5xUsxOooMfyS63bt1S4eqwDasYKzfZQZ6TsubjOI+tsvLly5sCkIY1ngGPg9rR01KmTKmC1G/dutWSniJFCtPqnDBhgrngPCxyEExZ43/Dhg3VNuB0KGvuRsJ34fRg6OWw7RZulEEoQsTo1lfJAdhmZR3TRT0YfH+ELWTsyloHrXEoeB1eHxvgPx5ugAYUFiSA8Dmw4DMEQQgd7ppG6FYsYqKD9GDKmhvLWLs+GAhLyu9FLOTx3//+V23HB+5vriSMk2J2kmDgRQuli+DzbuCmsCtrVir6Um4cvg+f27VrVzMd67JyRK9XXnnFTNdBGpQ0rxbVo0cPM71s2bKmksf4Kse9xTrM+mpWdmXNIT85nxUNGiRp0qQx06OtrLGWLRbUxzbHA8c2xocHDRqktllZ45zRWg4HKFI89PA70D8D2JU1Wtho1fN1hvUMsI0eFTSAPvjgA5X2wgsvqHFvLgsrGg0oxD2GIA2/TUJb4F4QEgN4fiAMltuF/wnS8D7S1/bGu00vi25tPp6FsZcFern48uUB1rNKJtiVsptEAvzAdmWN/1A2AN273P2KFz7Gf2FFYoyYyZw5s1Iq+tKNOkiDEoWyRfcQgzFeKDs4RuihAbt06aJaiBhnRpc20JV1mTJlVNctrynNYPEBpOsLV0RDWfMYPraxcAB3ezGchnWmUYYd0mDt8nKW4YDxZ3x3NJ50nCxrfF+UxUIGzIgRI9R1wTXUweL2cEB0W1ZTusEFQQiV0N6sSQwnxewkiQW7QknMwIkL3U2BwPeFgjxx4oTa1pW7IAhCUkSUdQBJLCQ1JRXs+4waNUr1DMCib9++vUrbtWsX/fDDD2pbEAQhqSGmiCAIgiAkcERZC4IgCEICR5S1IAiCIAiCIAiCIMQSMa4FQRAEQRAEQRAEIZaIcS0IgiAIgiAIgiAIsUSMa0EQkix79uyhNm3aqMg5L730kooPi1iwTz31lFpODrFrN2/ebJQWhKQLVhzCYg94DrDwBGI3Y+EJLEoheFd6wSIRvNxlNMByb4j+BdmxY4eRGj2CfScsQsLns3DhQiNVYEK5PnFx3wiCkLgQ41oQhCRF//791cIr3ChiwapoWEXt888/N1ez0wUG9+rVq41aBCHpgJUB9XsdSw9/9dVXatEnLJKU3Fm7dq15bdDpFi3i0rgO5TuJcR2YYNcnru4bQRASF2JcC4KQJFi6dCndc889ZmMHK7ueOXPGyHUHBjVWleXjMmTIYOQIQuLn6tWr5r2N0WrBn+RqXAuxQ66xIAhOiHEtCEKiZ9KkSWYjBxKTRW8//PBD8/jSpUsbqc7A3Rwu5R999BE99thjytX8mWeeUQZ9u3bt6MKFC0ZJZ9AQw+c88sgjRgrRuHHjKFu2bGqE/V//+hc9/fTT9P3339PAgQPpzp07Ril3ZsyYQYUKFaLXX39dGVEQ1JU5c2bq1KkTXbx40SgZmJMnT1LTpk0pbdq0ajSf3ei//PJLatWqFZ07d84o6UxC+27hGDT169c3y+K7uhGpax0KMb3X4KbK38VNhg4dapQOjzlz5lD58uXp/fffN+8RdFC9/PLLlDt3buU9cvPmTaN0YPbv30/16tVT3+8///kP/fOf/6QnnnhCfb8uXbrQlStXjJLuxPSe7dmzp+N1YcG9PHfuXHP/8ccfp1u3bhlHu9O6dWvzGNxTTDj3YkyvcSjfiQln5DohvvNCITbPqtv1Ceca68T23SoIQuJAjGtBEBI1mPOGRjk3bNB4iQZ3796lPHnyWBpR77zzDlWuXJmaNGlCJUqUUI1DPb9z587G0Va4oYnGcpYsWczyadKkocKFC1PevHn96kI5J3LmzGmWQcMV82pxDSA4JzSEOR+Gi9sc84YNG5rlIDAEqlSpQi1btlT/8V31fDQwnUho3y2SxnWkrnUwInGvrVq1iiZOnEgjR440y+A3QRrL4cOHjdLBOX78uOUzH330Ufrll1/o999/p2bNmlGFChUoZcqUZj4Ebuf4Lk4UKVLEUvatt95S3w91FStWTJ0r5+Faw7izE9t7FoY9rkP79u3NMjiGr8+SJUtUORj/nI/vHAjMbeeymIKiE+xejMQ1DvU7gWDGdUJ954VCJJ5Vt+sTzjUGkXq3CoKQOBDjWhCERM3ixYstDRM0fCINRhR0Ax4BbAKBxiKXxaiEHW5oQhBk7eDBg0aOFTRuMT+Wy2IkT6d3795mXqNGjYxUf3bt2mWWe+ONN4xUH6lSpTLzg41mopHPZdGAtZPQvlukjOtInU8wIn2vXb582czHyGtMuH79Oj300EOqjnvvvdfR0NX58ccfzc/s2LGjkeojRYoUZj6MHTdg/OvxE/bt22fkRPaeDcW9F6ONXGbIkCFGqhWMtrKBiPM+f/68keMl0L0Y6WscyncKZFwn1HdeKETqWQ3W+RDKNY7kfSoIQuJAjGtBEBI1M2fONBskkLNnzxo5kUNvODZu3NhIDQzcDvkY+0iE3tAM1mjVXUyrVatmpHpBA1yfZ54uXTrVgIP7YajAiOTjMTIWCvr5T58+3Uj1kpC+G4iUcR2p8wlGpO+1SBjX4YA53iVLljQ/s0GDBkaOl27dupl5GK2MCZG+Z0MxkuA+DJdilIHxe+LECSPHB0aZ3T4DhHMvBiLYNQaxNa4T6jsvFCL1rMbWuI70fSoIQuJAjGtBEBI1p0+fNhsjkPnz5xs5kUN321u2bJmRGpgOHTqYxxQvXtxI9aI3oBCILRBYKonLwh3TDkbL4KKJ5ZW4nF3gFlm0aFHaunWrcZQPfQQsJtK8eXOjJi8J6buBSBnXIBLnE4xI32uRNK4xrxa/N1yT//GPf5j1BhJ9zjHAteE8NxfiYET6ng3FEAWYB83lsPKAzoABA8y86tWrG6lWQrkXI3GNQWyN64T8zguFSDyrsTWuI32fCoKQOBDjWhCERE+pUqXMBgmWHYoJw4YNM+vACJXu0om5k5w3ZcoUIzUwCP7Dx9SoUcNI9RLthiYCHaFeNC4/++wz83gIGuxbtmwxShL9/PPPZh7mEMaWhPTdgG7QbN++3Uh1pmrVqmZZJ+PaiXDPJxiRvtciYVyjA0ufD/v8888rd24YHMizU7t2bbOs3fDDCB7n4ZrFhEjfs6Ea10Cff83nf/ToUdMQDvT+CWRcR/Iag9ga14ntnRcK4T6rsTWuI32fCoKQOBDjWhCEJAFGkrghg1Gfa9euGTnBQXRaPhYyfvx4I8cL3Bj1uoMB90NEguVjNm3aZOR4iVRDEy6TaAQj8FGwUVnd1TJ//vxGKtHs2bPNdMz5DOZWj+sKIw3f77XXXlOBs3QS0ncDeiMaUwjcQGA8RBHmsnbjOlLnE4xI32uRMK6zZs1q1hGKi/Cbb75plq9Tp46R6gXranMeooIHi75ds2ZNszzmpIJI37NYXYDrczNEddJq868xd5ivDwJjnTp1yijlTyDjOpLXGITynQIZjwn1nRcKkXpWgxnXwa5xpO9TQRASB2JcC4KQZMCIBDdmIGiotGjRgg4dOmSU8AJDCg0jRJDVy6MxpgdN0sEoEpfDsjEwyO0gKFGlSpXMcpj3N2/ePCPXR6QampiTx3n4LMwrdALRa3m+KARre+sMHjzYzIMggi2+iw6uGQIFYb4pl3MKpJTQvlufPn3MPBg/Y8eONXK83L59W80Dxm/K5SB24zpS5xMKkbzXImFcw82Z68DyS8eOHTNyrOD+sLvhli1b1sj1MXr0aDMf38/pWsJz5LvvvjPLYckmnUjes3v37jXzEc06WBR1ff61HvQLS0sFIpBxHelrHMp3CmY8JsR3XihE6lkNdn1CucaRvE8FQUgciHEtCEKSY9q0aWppH71RE0jy5cvn2pjVwSgbGpJ6I8hJMJdvzJgxxlH+RLKhieBG+rIzboJGJtbNhTHpBjoi9OjMTgL3SbjhO62xCxLid1u3bp0yWJyOhcBwwLnobp5ObuGRvNbBiNS9Fqk51/iMQPNXWWCQwGjh/VdffdWowQoMCkRy1kc7nQRu1oEiZ0fingUwUO3H4dzcfkN9/jWkXLlyRo47weZcR/oaB/tOwYxHkBDfeaEQiWc1lOsT6n0TqftUEISEjxjXgiAIgiAIYXDlyhVz6SwE/xIEQRAEkGiMa/SeOgX1cAJunU899ZTqJXaiRIkSfj2GuvTt29co6QWuP0WKFFHz8dAj+eyzz1KhQoXowIEDRomYAxfFNGnSqN5qzD8rUKAAHT9+3Mi1Ek5ZQRAEQRCiA8/lx2hkoHnWgiAIQvIi0RjXcMmBIrPPVWGyZMmi8hEEAq5JcEFyM66dQC/0K6+8ogxvHQQKQb3btm0zUrzAZRDpoS5RYQef99hjjykDWWfRokUqCqi+HmM4ZQVBEARBiBy7du1SHevotMe8feh+CObZ2uM5CIIgCMmbBG1cY71HBDWBTJ06VSmzEydOmGmYS+ZGOMb17t27lcLEGo2BwJxMGNl//PGHcgezr+MYDliyAvNrMBfw66+/VnP+MCKdPXt2v/ll4ZQVBEEQBCGyIJo3jGnMLYYejsZ6+oIgCELiJ0Eb1xiZxYg1pFOnTsq4xtIGnLZ+/XqjpD+hGtdw+UZAi1DWNJ07dy4NHz6cypQpowzcXLlyxThgDa9/iEiSOog2inQE9GDCKSsIgiAIgiAIgiDEPUnGLdxOqMZ1ihQp6KOPPjL2/MESLYhoaufGjRvqfIoWLWqkhAdHw7Qv/YDReqQjeiUTTtlAoKwgCIIg2MHSdIsWL6MFC5eYsmjJMpUeTBYvXW45jmXZ8pUqXxAEQRDsRMMuSQi2TpKxtuAyPXHiRFMQvfOll14y97E0jx2k4UcYNWqUkeLP/v371TqW//3vf6lBgwYq2FnNmjVVGpY1OXr0qFHSSsGCBVXdgUaVeT43RqaxDiPcvzEi/vnnn6tlSnTCKetGQrjhBEEQhIQHjOD3vy1OT7yXw5SPfyhlMaLdJE2mkpbjWOq36K7yBUEQBMFONOyShGDriLWVjBDjWhAEQXACRnBMjOv5C5fQM6lzW45jGTluqioD0FGNzmasW9y4cWPVIY6OYXiBwTOtYcOGVLduXTX1ql69eqpDedasWXTt2jV1/JYtW6h58+bqeNSDKV2CIAhC4kWMayHRI8a1IAiC4ASM4JgY170HjbEcw/Jimny0avVqVQYs2rKGWo7uTaW7NaLczStStiZlqc24vjRw7gQavWQGTVgxl6asWkBTVy+kkYum0ZD5k2jAnPHUY9oIajG6F9Xs35aaj+xJvWaMoulrFtHh07IMpSAIQmJGjGsh0SPGtSAIguAEjOCYGNcNWna3HMPyWZYyZhmA5SShg3TB1CYsNSkIgiAkP6Jhl0SjznARaysZkRBuOEEQBCHhASM4JsZ17uJ1LcewlKjSwiwDxLgWBEEQdKJhl0SjznARaysZkRBuOEEQBCHhASM4JsZ1igxFLMewtO82yCwDxLgWBEEQdKJhl0SjznARaysZkRBuOEEQBCHhASM4XOMaS3c96xDM7EmPjJs0wywHxLgWBEEQdKJhl4Ra58WLF6lFixaUKlUquueee0y99I9//INSp06t8i5fvmyUDg+xtpIR0biJBUEQhMQPjOBwjeu+g8dayrO88XkBWrXKG8wMAsS4FgRBEHSiYZcEqxMG86uvvqrK3X///VSiRAm1SsWiRYuUYBtpyEOZN954I2w9JdZWMiIaN7EgCIKQ+IERHK5xXbtJF0t5lu9/rmYpB8S4FgRBEHSiYZcEq/Ojjz5SZSZNmmSkuDN27FhV9tNPPzVSQkOsrWRENG5iQRAEIfEDIzhc4/qnUg0s5VnK1mxjKQfEuBYEQRB0omGXBKvzwQcfpEceecTYCw7K33fffcZeaIi1lYyIxk0sCIIgJH5gBIdjXK9du5ZSfVPMUp6le78RlrJAjGtBEARBJxp2SbA6q1atqsr88MMPdPv2bSPVH+R9++23qmzp0qWN1NAQaysZEY2bWBAEQUj8wAgOx7hGMLOnUuS0lIc86UmbNXehpSwQ41oQBEHQiYZdEkqdAwYMUIHLWBf93//9Hz333HP0wgsvqFFqTkegs4EDBxpHhY5YW8mIUG44QRAEIfkBIzgc43rg8AmWsixvp/uV1qxZaykLnIxrNFy+/vprNToQrvz222+qXkEQBCFxEg27JJw67969q7yw+vXrR61ataKWLVtS3759acOGDfT3338bpcJHrK1kRDRuYkEQBCHxAyM4HOO6VpPOlrIsuYrV9SsLnIzr2AiWShEEQRASL3iXR5pI1HnhwgVlZH/55ZfmCHc4iLWVjIjGTSwIgiAkfmAEh2Nc5y1Rz1KWpWbjzn5lQfGqbSjTLzVMKV2rg0oPxMXLVylPiYaW4yDf569J67fsMkoJgiAIiZGEYFyvW7eOKleuTE899ZQ6lgUdwliSa+7cuXTnzh2jdGiItZWMiMZNLAiCICR+YASHalyv9cgHGUtYyrL0GTTGrzz4LEs5S7mvclVS6W6s+HMbPZMqt+UYSMqvi9OZcxeNUoIgCEJiJRp2SbA6M2bMqKYksRH973//m/LkyUOjR4+mq1evGqVih1hbyQgxrgVBEAQnYASHalzPX7iEnkrpH8zs2dS5afGS5X7lQTjGdfM/hlrKslRp2M0oIQiCICR24sO4/vzzz03DGvLwww9TwYIFaerUqXTr1i2jVOwQaysZEY2bWBAEQUj8wAgO1bgeOGy8pRwLjncqD0Ixrm/duk3f5qtmKQd5OlUuWrp6s1FKEARBSApEwy4Jt86lS5eqAJmPPvqoaXBDXnzxRapZs6YKbhYuYm0lI6JxEwuCIAiJHxjBoRrXdZt3s5Rj+blUA8fyIJhxvWvfYXoxzU+WMpC02crTtes3jFKCIAhCUiEadkkk6jx9+jR17dqVPv74Y9PYDgextpIRYlwLgiAITsAIDtW4zlm0jqUcS9P2fRzLg0DG9cBRMy15LHAPFwRBEJImCcm4hkt4uIHL3BBrKxkhxrUgCILgBIzgUI3rD75zDmY2dNQkx/LAybjGOqIFyjWzpEOe/yAvbdmxTx0nCIIgJE3iy7g+dOgQffDBB6psIEmfPr0axQ4XsbaSEbhRBEEQBMEOjOBQjOuFi5eqOdB6OQgM4mXLV/qVhwC7cZ3q2xL0VrpCljRdZNRaEAQhaRMNuyRYnXD3Rpn/+7//o4EDBxqpXpD+9NNPq+2DBw/S66+/rtJ69eql0kJFrK1kRDRuYkEQBCHxAyM4FOO696AxljIs6XNV8CvLAuzGdSjSa8gUdawgCIKQ9IiGXRKsTqxffe+999Lly5eNFB+6cQ2uX7+ulu3CMeEg1lYyQoxrQRAEwQkYwaEY1w1a9rCUYSlcoYlfWRYQyLh+N31R+mv3QXr545/98sZNW6yOFwRBEJIW8WFcP/PMM6rMgQMHjBQfduP6xIkTKu3ll182UkJDrK1kRDRuYkEQBCHxAyM4FOM6b4n6ljIsrTsP8CvLAtyMa33t6g1bd9OTKfzXz164PPylUARBEISETTTskmB1Ll68WJWBpEuXjubNm2fkeI996qmnaMuWLVSpUiX6xz/+Qf/85z9p8+bwloIUaysZEY2bWBAEQUj8wAgOxbh+L31hSxmWaTPn+pVlAXbjGvO2V/y5TeXpjJq0wFIOAoN707a9RglBEAQhKRANuyTUOseNG0fvvvsuffnll0aK91iWFClS0PTp042c8Aj5Wx0+fNjYEhIr0biJBUEQhMQPjOBgxvWSpcvp2dS5LWUgL36Yj1avXmMpqwuwG9f2da51GrYbYCkLee79PHTg8AmjhCAIgpDYiYZdkhBsnZDP4LnnnjOtefij16pVi3bt2mXkCokBMa4FQRAEJ2AEBzOu+w8dZ8ln+e6nKpZydgHhGNfgp98aW8pDXv00P505d9EoIQiCICRm4sO4Zls2XAmHGH2rkydPUrt27eidd94xP/TRRx+l8uXL08aNG41SQkIj3JtDEARBSB7ACA5mXNds3NmSz1K5fgdLObuAcI3rW7du04eZSlmOgbyXoShdvXbDKCUIgiAkVqJhl8Smzr///pvOnj1Ls2fPppw5c6q6smbNShcvhtepG+tvdeXKFRo9ejTly5dPhSvHibBgUnj//v2NkkJ8E5sbThAEQUi6wAgOZlz/8tvvlnyWjj2GWMrZBYRrXIMTp87SCx/msxwH+SxrObp9545RShAEQUiMRMMuiWSdnTt3VvU9+OCDRkpohHUGWFC7adOm9Nprr6kPg9x3331UoEABWrRokVHKx4IFC1SZF1980UgR4pNI3nCCIAhC0gFGcCDjeu3atZT622KWfMhTKXPSzDkLzHJOAmJiXIPla7dajmPJXLC2UUIQBEFIjETDLolknQh6liNHDipSpIiREhohnwFO9v7776dChQrR0qVLjdTAXL16lTJlykQNGjQwUoT4RIxrQRAEwQkYwYGM6/kLl3gM6VyWfMh76Ysow5vLOQlI+bW17lDlmdS5qUK9znTl6nVVjyAIgpA0iA/jeuLEiTGScAj5Wz3yyCMhGckvvPCCcgcXEh5iXAuCICRu4C2GKVgsw4cPp1atWqmO7zx58ihPsmbNmtHQoUOpSZMmlD9/fsqbN6/qeW/bti3169fPcjwClAIYwYGM68EjJlryWH4sWMMs4yYgpsa1LmOmLFR1CYIgCImf+DCuoUPd5N5771XHszz00EOUPn16JeHgeAaY0P3dd9/R888/bwo+5N///rclTRdEE8fINsq99957Rk1CQgK/jSAIgpB4OXTyIi3cuJ/GLt5GA2ZuoK4TV1Of6eto9KKtNH7Jdhq/dDuN8/wfvXArDZ+/mQbP3kh9pq2jDmNXUMWuM+mX5uOoaJtJVK7zdGo+bAnNX79P1QsjOJBxXbtpV0seS60mnc0ybgIiYVxDVq/foeoTBEEQEjfRsEsiWeePP/6o6kPHdTgEPINjx46p9a0hqLx06dLmvl2OHDlCZ86cUYa5kDAR41oQBCFxY5+7/Nqn+SlX8d/px19rq/9lanekjD9VV+tRP5kiJ2UuUIva9xxNc5f8SSfPnDdq8QdGcCDjOnexupY8FizPxWXcBNiN68wFa6l0Nw4fO+X3XSF5SjY0SgiCIAiJmYRuXJctW1bVxx5eoSLWVjJCjGtBEITETdsnnqDGnnd5MGly773U/P77qc3jj1OXN9+kIRkz0uyqVemvSZPo9rVrRm0+YAS7GdeYU50mU0lLHuTpVLlo3oLFFkPaSUC4xjW4cfMWvfLJL5bj0Jlw89Yto4QgCIKQWElIxvUtj165E6FVKFzPACcHmTlzpmU/VBESHvK7CIIgJG6cjOvLx48buf7Am+zkli00sXBhv+P6fvop3bhwQZWDEexmXCOY2TMeQ1rPg8DgDhbMDAJiYlyDb/JWtRz3Ypqf6Np1WedaEAQhsRMNuySUOg8dOkQffPCBabO6CeZanz592jgqdMTaSkbgRhEEQRASL+Ea1zrbx4/3O7brW2+pPBjBbsY1XL/1dJZfSv9uMaLdBMTEuD55+pyKFq4f90X2CkauIAiCkJiJhl0SrM6uXbuqMv/3f/9HAwcONFK9IJ1dwLH89Ouvv67SevXqpdJCxfUMGjVqFCsREh7RuIkFQRCEuCM2xvXkEiX8jp1erpzKgxHsZlzXb9Hdks7SoGV3ixHtJiBU4/rW7dt04tQ5GjR6Fj3/YV7LMZCBo7zedIIgCELiJhp2SbA6H3vsMRUV/PLly0aKD924BtevX1erauCYcHA9g9q1a8dKhISHGNeCIAiJGyfjetgPP9ConDlNGZkjBw3PkoUGpk9PnV97jZp4Ggd6+daehsLCRo3oljb3Gkawm3HtFsxs5NipFiPaTYDduI6JYL1rQRAEIWkQH8b1M888o8ocOHDASPFhN65PnDih0l5++WUjJTTE2kpGROMmFgRBEOKOjh07Ut26dSMmDRo0UPXCCHYzrt/P6G8YP/d+Hlq+YqXFiHYTEBvj+o20BWn1+u2qHkEQBCFpEA27JFidixcvVmUg6dKlo3nz5hk53mOfeuop2rJlC1WqVIn+8Y9/0D//+U/avHmzUSI0XM+AP1gCmiUd5HcRBEFI3LRs2ZIqV67sJ+vWrVNubjERACPYybhevGQZPZPKOu8Z8m76wn5GtJuAcI3rp1LmokmzlpGs7ikIgpA0iYZdEmqd48aNo3fffZe+/PJLI8Vq66ZIkYKmT59u5ISHWFvJiGjcxIIgCELc4WZcI2r3hQsXQpaLFy+qSOIMjGAn47rv4LGWNJbnP8gbq5Fr+5xrBC9L9W0JSxnItz9Vp1u3bhulBEEQhKRCNOyShGDrhH0Gp06dorZt21LmzJkpVapU9NFHH1Hu3LmpW7dudOnSJaOUkBAR41oQBCFx42Zc16lTh+rXrx+yNG/eXK3rycAIdjKu67kEM4NMnzXPz5B2EhBKQLM7d+7S59nKW8pB3kpXiC5f8V+bWxAEQUi8RNu4xnakJBxCLr1mzRrld44PyJkzJw0ePJgWLVpECxcupAEDBlCmTJlU3n/+8x/as2ePcZSQkAj35hAEQRASFm7G9bZt24wSMQNGsJNxna9kfUuaLhjVthvSTgJCMa7BlavX6c20BS1lIZ9mKauMb0EQBCFpEA27JFidN27cUOtXo1zZsmUdA5tt3LhR2bookyNHDo/uuWPkhEbI3+rxxx9XC24H47333qMnn3zS2BMSEmJcC4IgJG7i2rhOkaGIJU2Xhq17+hnSTgJCNa7B7v1H6OlUuSzlIUWrtDZKCIIgCImd+DCu33jjDbUU1/nz540UdxCT5MEHH6R33nnHSAmNkL/V559/rkKR625kTrz99tuUOnVqY09ISIhxLQiCkLhZv3491ahRw2JYt27dOmhDAb31PXr0sBxXvXp1Wr16tcqHEWw3rlNkKEpPpshpSdOlTI3Wfoa0k4BwjGswfd5KS3mWHoMnGyUEQRCExEx8GNevvfaaKrN//34jxR0Y1w888AA9//zzRkpouJ6B09rVsNxxQi+++KJSyt27d1cu4c2aNaO0adOqvC+++IIGDhxo1CIkJKJxEwuCIAhxz9mzZ5VRrRvLmEttbzDA6G7VqpWlXIsWLVT8FB0YwXbj+qkAhjUkW6Fafoa0k4BwjWvQvudoyzEsf27aaZQQBEEQEivRsEuC1bl3717697//rcp9/PHHNHHiRDp37pyRS3T16lWaP38+/fDDD6oMluNatmyZkRsarmfQqFGjWImQ8BDjWhAEIWmBuWBjxoyxGM/VqlVTy2hiDWs9ffjw4XT7tnPkbRjBduM6mKT2lLcb0k4CYmJcgxLV2lqOg7z+eQG6fFUCnAmCICRm4sO4Znbt2kW5cuWi++67Tx2jCwxqDBYvWbLEKB0eYm0lI0K94QRBEITEx5YtW6hWrVoWgxou5Bs2bDBKuAMjOFzj+qWPfqJVq1b7GdN2AT8UqEVpvv/NlGIhzp+++/fflKNYfcuxkPJ1/zBKCIIgCImRaNglCcHWCfkM7t69SxUqVKB//etfpmUfSISEh/wugiAISRv7vOquXbsaOYGBERyucY352NNnzfczpu0C3AKxxVQwOi8IgiAkXqJhlwSrk+3UcCUcQi7Nc6p5PvWQIUPUPveIb9q0iVKkSEEPPfSQLMWVQAn35hAEQRASF3FpXEN6DxztZ0zbBYhxLQiCIOhEwy6JTZ1///23imcye/ZscymurFmz0sWLF40SoRHyGWCN6+zZsxt7pOZtIa1YsWJGihdMAH/99deNPSEhIca1IAhC0uXw4cP0xBNP0COPPGIK5o2hwRAMGMExMa5bdOznZ0zbBYhxLQiCIOgkNOPaTufOnVV9WI4rHEI+Ayy4/fDDD9OFCxeMFKLMmTOrkWos8cFky5ZNlRMSHmJcC4IgJE1OnjypGgB4z9vlo48+CmpgwwiOiXEdynJcwM247tatGw0dOjRsQXA2QRAEIfEC/RRpIlnnuHHjKEeOHFSkSBEjJTRCPgMY0FjrGiedMWNGlYahcxjSrMBZsESXkPDAbyMIgiAkLbCMCEapWQcj+mmlSpXMfcinn34a0MCGERwT4zpLwRp+xrRdgJtxvW3bNpUvCIIgJC+gmyJNqHXevHmT+vbtS9988w395z//UcchSviTTz6pBoqxCgfijcWEiHwrLAWCedYwtoWESzRuYkEQBMHKzC4VaUzD3KaMbZiHFg1oSIsHN6GlQ1vQn1N60Y4lE+jQ5qV05vBOun75PCZ7qWNv37xG45vltxw/tV1JlefEpUuXVGMA73fIPffcY8ZCQeRwToekTZvW1cCGERwT4/rTzKX9jGm7ADGuBUEQBB3opUgTrE4MFqdMmdLUi4gXVq9ePTOWGAaNf/vtN/rvf/+r9tEx7baEpRthf6tTp05R27ZtlUt4qlSplLtZ7ty5lWsXlLyQcAl2wwmCIAix59ixY6rXW18WC2tOz5o1i65cuWKUsoJedKyp2bRpU/MYLKM1cuRIOnLkiFHKytWrV+m5554zGwkQrG+tg7goen66dOkcDWwYwcGM6zfTFvRLw3JcK4MsxwXEuBYEQRB0oJMiTbA6v/zyS1WmQ4cORooPpD/99NPGHtGkSZNUGo4Jh5C/1Zo1a1QAM3wIIqgNHjyYFi1aRAsXLqQBAwZQpkyZVB6G1iVaeMIEv48gCIIQt8CY3bp1K/Xs2ZOqVKmijMqqVauqSN41a9Y0DU1Mqdq8eXNIrmjofX/11VfVe53lxRdfVC5udrn//vst5b766is/AxtGcDDjumilZo7pM2YHXo4LiHEtCIIg6EAfRZpgdcKWha3qBI7VjWvw6KOPqmWowyHkb/X444/TBx98YOy589577ykXNSHhEY2bWBAEQQiPmC6XxcBF7e2331bv9JhKhgwZjNq8wAgOZFw/6ZGufYY75g0aMcHPoNYFuBnXcGG/du1ayHL9+nVVnyAIgpC4gS6KNMHqzJMnjyqD/3Z3b6TrxnX16tVVWtGiRY2U0Aj5WyGY2csvv0y3bt0yUpyBwk+dOrWxJyQkonETC0Jy5fad27RixwbqOHEQlercgDI1KE4fVMxFb5TMRC8X/ZpeLJKBXi3+Lb1XNiulq1mAfmpVheoP7kSTVs6jS1edXYOFpAHczerUqRMxqV+/vlEzqVFt6Fi8z1kQvCwYGKnGNC79OIxqMzCCAxnXb6YtQEuWLacXPszrl9esfR8/g1oX4GZchyt169ZVLvSCIAhC4gZ6KNKEUmfr1q1V8DKUhccXw7qRBWViEqTb9Qxq167tJ++88455IrDm8YFwCW/WrJkKlII8rKk5cOBAoxYhIYHfRxCEmHPs7ClKX7sQvVA4vSnZmpShtbu20N+ePzfueAyiiSvmqmOzNi5DhdrXooq9mtPy7euNEkJSIpou0JiCpa9jXbBgQSMnOAg+miZNGsvx6L0HMIIDGdeZ81dXZVJ9U8wvr0zNwMtxATGuBUEQBJ1o2CXh1nngwAFji9SU5ylTptDu3buNlJjhegaNGjWKlQgJDzGuBSF2fFwlr8Wwxmi0G1X6tKTvG5QIKD+3rmqUFpISboYkFPeMGTNClrlz5yqDOFQWbV5Dn1TJZ7lHIW+WzESNh3ejG7fcjVIYwYGM6/K126oy3+Sp5JeXu1hdizFtFyDGtSAIgqATX8b1xYsXqUKFCvTggw/6TctCENHvv/9eDRojEGlMgnWLtZWMEONaEGLH6YvnKJPHKNYNlwx1CtPCTauDBqG6dvMGFetU13Js6go5jFwhKeFmSKJHfP369SHLpk2bQgpuBs+Ioh3rWO4tJ/lfqe/pr8P7jKOswAgOZFz3HDBKlSlUrrFf3sc/lLIY03YBbtcE0VjXrl0bsmCOdkzXHhUEQRASDvFhXHfs2FGVQZCyVq1amatxnDlzxgz+iVU12rdvTy+99JLab9GihSoTKmF9q6lTp9JDDz2kPshJkDdhwgSjtJDQwG8kCEJkgEHz5+6t1H3acCrfo6ly98ao4Vu//eCbc13MO+f6ixr5KXfzClS5dwvqPHkIzd2wnM5cOm/UJCQ13AzJaEXGLtapnqMx7SSvFc9Ih04dM470ASPYzbh+KmUumjt/sSpTo9EffvkvpfmJVq9ZYzGodQFxfU0EQRCEhE007JJgdSL6N8rYl8XMnj27Ssd/BrFK/u///k/Zt+EQ8rcqUaKE+tA2bdoYKf507txZlSlXrpyRIiQkgt1wgiDEDMzP+e9//6ueMbt88sknKsqxkHyIS0Oy+7QRjkZ0IMncsFRYS3G9+1VhNWqMMm06D3Asw8a3kwAxrgVBEAQdtJEiTbA6saIVApXp04uWL19uttn0+dbHjh1TaXrQs1AI+VvBcsf61sHIly8f3XfffcaekJCIxk0sCMkZzIfl3k4WdDLipQ23Ij29YcOGxlFCUqftE09QY89vHlNp8eCDNLt6dbpx8aJRozN7jx+il4t+42hAB5MRi6YZtXiBEexmXOcrWd80lIeOmuRYZsCw8WYZuwAxrgVBEAQdtI0iTbA6Bw0apMpgNLpp06bUpEkTZePq7TS04Z7w6HGkQRYtWqTSQyXkb5U5c2Zl6S9btsxI8WfNmjV0zz33qGimQsIj2A0nCELojBgxwlzKAfLWW2/RhQsX1Iggy8KFC82XNuSBBx5QPaRC0sbJuL58/LiR68zVU6doTL58fsf1SJmSbrt4PoQyz9pNPq/+i2X0Gkawm3Fdr3k301CePXchPZkip1+Zlh37mWXsAsS4FgRBEHSiYZeEUuf169epXr16akQaRnaGDBlo48aNRq4XTHPev3+/sRceYX2rihUrmo1ENBhfeeUVJZgUzully5Y1SgsJDfw+giDEDrgJ4YXM7zwY2BkzZqQff/zRVT744AOzPCRVqlQqWqWQNImJcc2s7NTJ79ih331n5PrYcXivo9EcjizestaoLbBxPXC4b1R69eo19PwHefzKVKzbzixjFyDGtSAIgqCD9lCkiWmdt27dCmt1jkDE+Fsd9zQU1q1bpxQnGptCwicaN7EgJCcQTwKjzyyfffaZ6gENhcOHD6vIk/rxWFZISHrExrjeOWWK37GdHOZ71R/yh6PBDPmufnGatHIezd2wgn5tX9OxDKT2wPZGbe7G9XMeQ3r5ipUWY/nD70r4lctZpI6ljC5AjOukw+XLl2nLli0qyC2WsalevTqVLFmSSpUqRb/99hvVrFmTevToofIHDhxIv//+uxqcKV++PJUpU0aVx3HIRz2oTxCE5Ed8GdeHDh3yG/RwkvTp09Pp06eNo0In5G/F0dVgUAuJE/x+giDEnJRfO4/shSMFyjWjC5esUSqFpEVMjeu/796lAenS+R2L0WydO3fvqCj0dmP5lWLf0OIta4xSPtbs3Ow4N/vTqj+ZruEwgp2M608y/+ZnLH//SzW/cp9lKeNXjgWIcZ10OHDgAA0ZMkQFun3zzTeVWyWmA9aoUUPNWcQ6sWPGjDGlf//+VKtWLapUqZLqkMRyN/DegbGNsrwUjiAIyYto2CXB6kTHHsrAAxudfzpIf/rpp9X2wYMH6fXXX1dpvXr1UmmhEvK3atu2rfqA0qVLR2zYXIhbgt1wgiAExm5cZy5Yy8hx59bt2/TBd6Usx7388c90/YYvUqWQtHAyrld360abhg71icc4Wde3Ly1v144me4yUji+84HdMt7feovMOc76WbP3Tz1CGYLTajQFzxjsec+TMCZUPI9jJuC5UvomfsVy4QhO/cq947mmOKG4XIMZ10sH+HsyUvyZdvXbDJtfpytXrdOnyVTpy/DTNXfwnvZWukOW4j34o7Xk/SntSEJIr0bBLgtX52GOP0b333uvoMYNj2bgG8ExELDEcEw4hfyt8YDgiJDzkdxGE2GFvVL6fsSR16jPWIh16jaE23UZQo3YDqUS1tvTqp/ktx7zm2V+6erNRo5AUcTKunaTpP/9JLR9+mDq99BL1/+ILmlamDG0ZMYKunw+8BnqzkT38jOSfW1c1cp3BuuyfVM3nd9zsdd4gpTCCnYzrNl0G+hnLdZt19Sv3ZIocKtiZvSwEiHGddLC/B1N9W4LadB9JrT3vvSYdB1PF+p0pXc6KljLoYKxQrzPNW7KOrl0P3rG488h+GrpgMtUf3IkKtqtJGesXo48q56FPquSjr2oVpK/rFPFIYfqyZkFKUyk3pSqfndLVLEC5mlWgSr1aUK8Zo2jHob1GbYIgJESiYZcEq/OZZ55RZeCBYwfpunF94sQJlfbyyy8bKaEh1lYyIho3sSAkJ+yNynfTF6FazXpR9cY9qFSNdvRZ1nKWfERVzlOyIa3bvMuoIXzOnj1L8BhC4Mh/eowxFvSkduzYUQXhEBIPS5cuVe9iXR555BHLmpvByNq4jJ+R7OQObqfd+P5+x3WfNlzlwQh2Mq7HTpzhZyx36D7Yrxxk6KhJfmUhYOzYsX6G9YABA1ReMDA3137ssGHDjFwhroGh/GzqPKZkLRw4dsSdO3dp3tJ1VLxqG3rxo5/M495M+yvVadGH/tpzyChJHsP5V8v9iXvdjdZj+9JvXRsGlOr92hilBUFIaETDLglW5+LFi03diyVT583zeXwh7amnnlKxIDCNBQFr0d7avDm8AZGwvxWs+DZt2tB3331H7777rpo3ky1bNhW8QqLfJmyicRMLQnIiVLfwE6fPUZZf61jKQtLlqEj7DgYPAIkX+ZdffmkqgMcff5yGDh1qzo/Fu7ZChQrKXQn5UAA///yzCtIR1yC45ahRo1Sgorfffludy6uvvqrmY2K5MugMHbhiTZ8+XRlI0CEoj2XM0IGA+ZdJPUCmff1zlgYNGhglAnPtxnV6o2QmiwGC0by7f981Srizce8Oy3GQ5qN6qjwYwXbj+uWPf6JVq1f7GcvDx0y2lGNp/ccAv7IQcPToUT8DuVq1anTlSuD4A7jnGzVq5HdsTJdIESLDrqMHqLTHeH21+LfmvfRO6R+pZOcG1GHCABq+cKqapjB51XwauXg6dZw4iIp0qE2vFc9oln+xSAZV/sxFf0+N3ccOqjoaDu1CRTrWoR9+L6liBMD7Agb4N3WNketaBdX9/36FnJS2+i/0Y6PfqFD7WlSjf1vqPHmI6ZkhCELCA7ov0oRa57hx41QbBG0tRtfJKVKkUG2VmBDyt1rtUbCY/I2GUIECBVRjCuu1LlmyhAYPHqwMbJwMAp/t27fPOEpISIR6wwmC4EyoxjUDw6D7wIn0dKpcluNe+uhnmrXQOtI4efJkeu2118yR6RdeeIEmTZpk5Lpz+/Ztat++vRr95GOhMObOnWuUiC4fZipFz76fx5R3vipCxaq0cZDWVNQjCOj2Tb5qqtwnP5ZRo17VGnen2Yt8y0IlVaCodeWtC+aAnTt3zijpzpb9O03jhEWP+h0IBEJ7vcR3lLJcduo9czTdvO3zeoARbDeuP/q+lJ+hDFm4eKmlHEv52m0dyzN//PGHn5G8aNEiI9eZHTt2+B2DGDBC/JGxXjHL/fdDw1JGjj/r92ynRVvWBJQV29cbpf3BOxRBhzCaxM9K1qxZVWcjVl/gNDSEFyxYYBwlCEJiAM9upIlGneES8hnABx1ruQYjZcqUqlEoJDwSwg0nCImZVl2GU9VG3U1p12OUkeMOGoctuwyzHMeyfM0Wo5SPvXv3UvPmzSlnzpyUPXt2i/z6669qhLhs2bJUuHBhypEjh18ZjAb+9ddfRm3Rx97h8GmWsjR51jKaNHMZjZ22iPqPnEG/tx2gRvKf8xjfKIPARjmK1qfmfwylPzftpLt3g4+6JgXg6cXGAAQj/Po+Ru+DMX75HIthAxm3bLaRG5wr168aW1ZgBNuN649/cDau16xZSy98mM9SFpKvZH3H8gwCntkNZXjCBQKd9/Zj0LEvxB+r/tpIb/+W2XIPooPnwpVLRgkft+7cVp04ulTu3cJybOoKOYzSXuDdgsjjGNDhZwMdj/BwQcehXf73v/+Z8ygh//73v6lVq1Z048YNo0ZBEBIieF4jTbA6+T0RroRDyKU/+eQTeu+99wI2gtCIxMsPa4cJCY9wbw5BEKx8lsU6p/qrXJWMHHe69B9vOYYlc8Ha6p3JwDvIbiyPHz/eyA0MIlpiyZuZM2fSihUraPv27SGNgkabPXv20H//+196+OGHTfnoo4/UaHtyAy7yuqKGeziuD7zB9PTdu3cbRzjTaeIgi2EC2XZwj5Ebc2AEh2pcQzCqrZeFpM3qvBwXg/ZDnTp1/Ixlt+kMMI6qVq1qKYs1lCXOQMxZv3495c6dWxmu8HLh///5z39Ux1y4y2JdvHqFZq1bSq3G9KESf9Sn7xuUUAHG/lfqe3qp6NfK9fuVYt/SO2V+pM+q/URZG5em37r8rqYjjF4yk7Yf2mtpV36ZsxL974tCQQUddO9lKKoijmf8qToVqthSdXbu2H3QqEkQhIQOdF6kiU2daJNduHBBxUb56aefVF0YzAiXkM8ALjiYZ40PggGN+WGDBg1SvcoYZfn4449V3osvvki1a9f2EyH+icZNLAgxYcnWtaoxVqZbI8rdoiJla1yGWnv2sVzQ6CUzaOKKuTRl1QKaunoh9Zg+gtpPGEBtxvZVUZLrDOyg5tRBKvRsSo2Hd1Vz8+KCcI1rNPSeSml1CYe89NFPdPrsBaOUl6JFi1oM60BzcBF5GXOaA0mVKlWM0vHDmjVr/AxHFnhCJacYHTAe7KPUc+bMUXlFihSxpOfKlUulu1GjXxuLYY31qy+7jEaHA4zgcIzr7IVrWcpCcF+vcViOSwfTH3RjGYKOIScwQh1qWcEZNBKxBrX+LCIYYsmSJVWjkQWeMhzDAQKDO3/+/LRx40ajJh8x6WTctfew3/QYyDOpc9PBIyeNUv6eMJh20mfYVIv0HjqVeg6ZTF36jadqjXsoQ1s/BlKvVV+jRkEQEip410SaSNYJ/YX60BkeDiGfQbNmzWIlQvwTjZtYEGIClkAYMmSIMgLffPNNeuihh1QDEK6ADRs2VIGt0Ihm6d+/P9WqVUtFb/zss8/o/vvvVy625cuXV2XDHW2JKeE0KrH00edZy1vKs0yft8oo5WPTpk1+ruD9+vUL2WUa81n1YwsVKmTkxD3Tpk1T7xuWDz/8ULkEY14xpz3wwAOOS2EkRXr16mW5Hp9//rmRQypGib0TAt4HbqBTSTeuU5bLZuTEDjQiwjGui1ZqZikLeTplLlqwcIlfWZ3Tp0/7GczogHfyZkA0fHtZBEYTgoPpGa988ktI8vpnBeidrwpTmu9/o29/qqZiI3TtP4EOHfUZvTrhGte379yhjzOXsRzDMmHGUqOUl3DjWgC8IzGCrR+HSOS3biU/DxlBSExA30WaSNYJL0DUhzZqOIi1lYyIxk0sCDHB3oAKV+AWOG3uSqO2uCOcRiXWe9XLsmCkJRAHDx5U81Dhuqkby5CCBQuac64x4uk05xpSqlQp1ekQH6BDAO8aFkwp4g4CKCp9HiVGylat8u9oSErAhVkPxgSB+75OsWLFLPlffPGFkeNPtiZlLcY1IiZHAhjB4RjX9Zp3s5RlcVqOy07Pnj39jGZ7OUSZt5fp3LmzkRt3wOiHlwWi4sONH5H84ZUBQYcROglxzw8fPlwtLQYvP3wX5EFQHschCj7cDePKpT0mRur1Gzfpg+9KWo7DOv03blrPOVzjGvEl9PIstVv0Nkr4cNINWNLQKtZ8XZ7/IK+K5QCDXhCEhA30XaQJVqfdy88u8CJE2woedqyTu3XrZhwdGmJtJSOicRMLQkwIteF39+7fdPPWbdq17zCVqd3Rcgzkx4JxO+Uk1Ebl6vXbLeVYPv2xrFrz1QmsuIBR+WCCUU+4KCHAJFyIEQSrQ4cOtGHDBqOm+KNFixamMoKkTZtWGdaYx8SCkdr77rvPUg5rICdV0FGif1d0NthBh4p99HrixIlGrhUY07pxjSkVkQAGYTjGdbe+IyxlWVp26udX1g68NOyGs73xMmXKFL8yMFbjGvu7KlP+mnT12g2bXKcrV6/TpctX6cjx0zR38Z9+rsoYWb11O+4Mvph0YMJtO0WGYpS9SD1q0mEwbdrmPJc/HON68uzllrIs3+Staok5wdjPO0OeKmod7K1/7afla7eq1RewzrZe5u0vC1PrbiPU9Y8JkZ6HLghCaEDXRZpgdebJkyeg5MuXTw1k4NmfPTv0YKE6Ym0lI6JxEwtCTAjVuNa562mI+bv+FfRz/UOk2S1bttDUqVOpa9euVL16dTW/EKO5v/32mwqIhHX5kY8lXn7//XeqWLGicjHHqDDK4zjkox7Ux4TSqEQDGoF29HIQzL3ec8DdpTV9+vT0zjvvmILlZjCqq8vKlSuVy/DixYvVyDTmROrHQGCExAe4hmwYxkTatWtn1JR0uHr1qopc7PR9gwkiIDsZH1jrVzeuf2rlPrceo3eI1hxIbnsEwAgOx7geOXaqpSxLtd87+ZW1g++F585uPJ89e9Y1v27dunQnHkYj7e+qVN+WoDbdRypjDt4pFet3pnQ5K1rKwPirUK8zzVuyjq5dv2nU5E9qT114L7BgGsmUOSs8slwZpeOnL6HhE+ZRryFTqI3n82o1701FKreiz7KWo7TZKlCu4r9T9cY9aMTEeXTi1Dm6qY0wh/qOXb1+B/1QwDp/HqPDhSu1pL0u76tQjWvElXjug7yWspAX0/jHnGBCPW902jVsN8BSFoK6Z8wP7A0TjXnoTsBToW/fvvTVV1+pYxHQEQF/MT3mwQcfVI14LLd486b7PSIISRk8V5Em0nViehLaheEg1lYyIho3sZB0OX/+vGpEIABRly5dVJRfnveM3j3M6cX8aMz1RQ9f3rx56eeff1bbMGDr1aun3D+xti+MVD2Alb0BhXl/aODpkumXGmrUAvMA4eqnl4dgTuGJ06FFxMbcXrjaciPpiSeeUOevN66KFy9uMaSdCKVR6eYC2X/EdKOEM3bjGo24YMBV9dNPP7UclzlzZtMNO67gqJosP/zwg5HjzqVLlyzL50AqVKhg5EYfGDJPeYwIlo9/KE1LV29WsmTVJlq4fAONmrSA2vccTVUadqNSNdpTiWptqUT1tlSzaS/q1GcsjZ68UJWHEXLtuv+yP/Xr17d8v3Cld29/t1lEYtaN6/xt3ZV+jqblLGWdhJdBghEcjnG9cNFSj0GY01Ie4rQclxNwjdeNZ8iMGTNUHqYP2PPwHooPYCg/mzqPKViXPRDwTJm3dB0Vr9qGXvzoJ/M4zAGu06KPGoXV2XX0AJXu2pBeLf6t+Zu8U/pHKtm5AXWYMEAFa5y0ch5NXjWfRi6eTh0nDqIiHWrTa8UzmuURkRvlz1w8b9TquU++L03Pf5jXlOxF6xs57mAUHh0Hr31WwHIsInjrywaG8h5Et1Bmm9HOMneJ8z0BYtLxOmHGEnWe+nEYhR86zhs0UOfspQsqUGbrsd6AmnhGvq1XVAXWLOy5rriOpbs2Ur8Jtn9tV5OyNC5Nn1f7mTI1KKHKNBrWVQXcvHrjulErKV2JBvhzzz2njGcY6+XKlVMrPsALxU0wnQC6EzEocByWHMN7A8+AICR1oOciTbA60c5DwFd4kSFA9+uvvx5Q/vWvf6k69bRgAWNdz4CVe0xFSHjI7yKEQzRHgO0NKESMfevLwmok+lljLWRdMJIC4waGzPUAI0E6165dU40b3YBGwwfnjLmRLOg0wKgCl4FLINybnUbJgjUqZy1cY8lnwShQMOzGdaiCdV4xCgP3YxjbcQ1G2PWltuBeGSoYsUmZMqXl+AIFChi50WXGH+VpdIOcpoxtlJduXPV2AN29e4eunDtJJ/dtof3rF9DWBaNozYSutGRIMyWLBzelMQ1zW46f0ra4OpbBKCwrZRbMvX7++edd5ZFHHrGURyeQfY7uBxVzmUYVJL6Ma6x1/cbnBSzlIZ9n8V+Oywl0tqGBohvQjRo1UqPWeJ/o6ZAzZ84YR8Y/mIeN9xz/TnjHwCjiffzumIcdjIz1ill+ix8aljJy/Fm/Zzst2rImoKzYvt4o7WPrwd1UvFM9FVVe/6wXPZKqfHb6qlZBSl/7V3VfwUjXy0CyNCrt+extRm1eQjGu23qMdL0MS9NOQ4wSziAmRf6yzUyp3dy/g8kOOjTK1/3DchzLMq1TAAa13imB7z9n/XK6cctfpwxfOIXajutnke/qF7dcG3197mXb1ikjnfNeKvI1NRjSmVbv3ESXr10xSvmDtcFnr19G9Qd3oqYje1D78f2p+7ThtPe48/J0gpCUwPsy0gSrE3oVZTC9DgNHGAQKJC+88IIqb0+fO3euUaM/Ym0lI6JxEwsJEzTsMRcXjTwYjizoTYeLSyhBdewG8Guf5afcJX73k5zFGqjRnE9+LKOMYP2Y1z2NbycXvVBGJzCKkq9UI0s5CI4NtJYplgd89NFHlZEMQaM31Lmao0aNUusy87EwhvS1pgM1Ki9fuaai7ur5EARfw3cJRrCRaxgdixYtUi6GejkYp02bNlUuyG6kzlhCRXJmwWhch16jLdIe0nO0ahQ37ThEzXF/84tf1Ygbyucp2VAtgwP3fDf2nziiRoPsDflg8k3dIqpxagedBfhN0Fnz9ttvKyMGS1oh6AjWjUbQKx104MBTAsYYOh1QHj3TeBbgRo+gUm7g+p46dUrdK+PGjVOeFzD+mjRporwx4JaMueEIZIXPRflAYBQe71yWNGnSGDnuwFsE951+nH21jY8q57Fcu0Bu4dE0riHI18tD3kxbQF1DvZwbMEDtRjTmv+J662loyCQEMDc+derU5m+DVQsmTJhg5HqNbnQ+6r/fjz/+qNyDnVj110Z6+7fMlt+j9sD2yuCyAxf+m7dvWaRy7xaWY3VjD0aj3VjuMT20IIdXrl+jLlOG0pD5k2nmn0to7a4tdOqC12UfBDOu12z8y08XQH78tU7Q5yYUw10H76MshepajmHpNtAatyBdjorqfRZM/ud57737VRG1DBi8p34p21R1Cqz1fC831uzcTD/8XtK81i8WzkBV+7RSy06ev2JddvDY2VPqXQnZffSAevflaVHR8lvpv6UgJFXwjow0wep87733VLspVO8QDBplyZLF2AuNsL/VlStXaNeuXbR161Y1GsWCACWrV69WrluFC0cmeqkQWaJxEycVrt+8QfM2rKAOEwZSxZ7NKF/LyspNrJKn8dJwaBdqObo3tRvfX+VD2o3rTy1G9aQ6gzpQ0Y516XuPUsUSOQ2G/KFc9/SGSFyBqLRffvml2ah7/PHHVeRabsxgpAgNfp5DBsMDbtyHDjn3kMfEPW/jtj30xucFLcelz13Fz005nLovXrpC3+arZikPQXAwt3l70XK1DNTww/I1eh7Lij+3GiUCE45bOEZ8Yfzp5SFwfXeaD8guhyyIhomOA8wHhks3DITr170ujjDSsfwZ5hviuGeffVa50OvHI01nxtrF9FLRr81rB/mkaj4au2yWxXWSueZ53gbPm0Rve34T/Rhc/78O7zNKkVr+gjs6IDCs8R8dIDB67Wtlnzt3TnkiIBCRXp4FngtM69atqWrVqn6C6M9wTw5XZs2aZdRMdPjwYctcTQjmVoYCflf9OAR/079n2ur5Ldcsu8eAdiPaxnXOIrUt5SHovJm3YLGlnBs7duywGNEQu2ENwbstPsHzgXuRfxPcR927d6c+ffq4Cjq89MB9GC1ZuHChUaM/F69eoVnrllKrMX2oxB/16fsGJdQUgP+V+l49W3gfvVLsW3qnzI/0WbWfKGvj0vRbl9+puUcPjV4yk7Yf2mt5z9o7YX5uXdXI8QfvOczlDyQwHJlA70FEHH/HY5jq+RBEHb9w0X0ElwnXuC5YvrmlPAumbdix650vslcwp4IoWeWdErJo5Ubluj5g1Aylm/RjIMU873o7qAu6L6ikLagCsKXOWFK526PTEmtyz1+6zvP7Be54EISkBt6NkSbUOtGOQkyEb775RrUZcBzaxU8++aQKMIt2UEyn2IX8raBIWEmgYYORIWy/9NJL5jYEjZlOnToZRwkJCfw+0cauvN73KBAouY69x1K7nqOoSYdBakQMCgXBWLL8Woe+/ak6fZ2nqkpv1WU4DRk7W0UGjUvgFrZw02rqNGkQVerVQjVEcjYrrwzt34d29jR4bMa1ZxsGd+Ph3ajOwA7mvK1czStQ8T/qUdMR3Y2aiQ6dukgHT1xwlGVbD1GWesMtkq3+CNq094RjecixM75RDXRmYWSWR6bhvhJKIx4jLO3bt1duqHwsRvp0Nxf7b4lAMWhAfJ61HKX6pjg9kyq3Jf9Jj2T0/JZd+k9QDQUYxW7ExHA/eOSkCiakHwf5rWYHS6Mkmq6Wbg2/kZPmW9JZEPQoVDBPGetBs8AADgWMZsOo1o/FXCJEWw4F/OYwsmFIs2BOUaBRXp2uU4ZZrjeMALsbaSDOXb7oOhpud6vGyDLASCBGknGuSIdCxH+4lWOkF53AYPfu3Zbj0aHAtGzZ0s+Ig2zbFvq5u4EOZv1zMdoZKjh33ZCDoOecsd/feO+4EW3jukwN5w4l+3JcgcDv5fQ7sCCuQ7DRzrgEAeAWb1lLLUb1ovxtqtEXNfLT26Uzewzfb9S9/3qJ7+jDirnox0a/qZFldOSdvhhabAgGLvBoW+n3AAumYYRyPTAa+rKtw6uJR1/d/Tu0xiJGXfVj9ZHUQAZwsSptLHksiPQdCuEY1wgap5dlwbxxJ2KidxD9HQaxftynnnMM1mGc8efqqvPXLidPn1d1rtmwQwWos4/wYwWMhHS/C0I0wTst0gSr88aNG2rkmt+pKVKkUJ3a6FjHPtoRmPoIWxf7iGuDNnM4hPyt0AjHyAiDHmd8KIIZMVhiBaMDcMETEh74vaINGrMNGjSwNAwQHROdM3B5dAK9R3DZxMgdN5JxPIJ6wEsiLrArRkR7rt+6n0XqtepHdVv2pVrNelGxqm3ovfTWiNAIWtNzsH/QnaWeRk7rsX2pbLfGlKdFJcrauIwyzPvPGUejl8ygiSvmquAoCLLScnQv5RZYo39bqtKnJZXv0ZQy1i9Gn1TJR+lrF6Isngbbb10bGjX7n3ckl4kJtSGCz8CyLc+mthrb6J0fN22xUcoKOlKyFalnSsX6XYwcdzAi8muFFpbjWBDxlommq6VTw++Mp8HkFHANS9qE00hCIDJ9FBrrLAYDngn6MSyIQhtMGWA0FO5R/JxilA29tbwPgWdDsJ7bj6vktVyvQCNkA+aMVx1PgaT9hAFGaWciNd9VJ9Lu7IFYuWMjVevbmr6sWVAZYjDKYIwVbFeDhi6YTFdvXDNKOmN3H/2wkvsc92gb1w1a9rCUZ+nQfbClXCDmz5/vaFSz2NcEjw+OnjlJ3/9ewnLdYEj/4rnX+84ao1x/Mbd5+6E9qjOu/+xxqnNWLw/B6O/la4GXi8KyenwvQxDsCu7o8ETiNHSGLliwwDgiMDuP7FcBunQvHpaU5TDn+lelW3AP2r1PWNJW/0V59zBuBvDgMbMs6SxOo8huhGpcQyfr5VhadB5mlPDHrtNCFRjA0JG/tx2gdKgToepL5uz5SyoK/NO2TuoilVoZJXzg3QxPGBYEQWvVqpXyKEJwUcSpQCcV9AE8euD1hPumSJEi1LZtW/U+1I/H+r2CkBDA+yzSBKuTPTzxrrWDdP35wGAV0nBMOIT8rfBiz5gxo7HnBQ0arLmqg7lxeBEICY9o3MShgFEmuMnhXmHj+cUXX1QveewjHflu89LiArtiTJ+7Mm3becAiGE3ftH2vmk82c8FqFWgFLpB8DBRww3YDjRqDs2TJEnPkzS6hjhzazzuSy8SgMfHCh/lMyRFCtFks/dNj0CTl/qYfi7lrC5YHHwF249SZ82r+r34MBIHQ1m3aaZTyJ9Kulk7nnaNYA0uaLhNnLjWODE64xjXmzuvlWUJZMgKjvvr9Btdw7gjAmq56FG88o2jMuYHRO70hnrp8DrrjYpCHY+zZifR8VxAtd3Y7Zy+dt8zHDCavl8hIs9ctM462Uspzf+plX/V89u27zktURdu47tHfOWhVlfodLOUCgcCDcMd3Mqwx5x1R5eOTzpOHWK7XS553xoa9vs68YMAwv3bT/16ygykNeicRnjtMN9ApVqyY5f7OkCGDa/yM32q2V3OcWcrV9Q2EuIGI95hfrB/HgpFWxuk9uO/QcbWcmJ4OgYu42/vAiVB0A2JD6GVYGrf3dQA4EcwAxjtwzuK1qmNULwc9g051dFK7Ea7h/mSKHJS1UF1q6tHT0BPnLrjf51jtAqNqiDXx5ptvKs8WBLGsUaOG8uzA4ARcWFn69+9vruzx2WefqXdlqlSpVKckysq63UJCAe+xSBOsTnROwg3cCRxr73yCdzY67cMh5G+FqL/4UARlQU8zwLqkSMM8TszXmzZtmjrp999/X+ULCYto3MR2oJzGL5+jRnTMxoin8fqLpwHedeowFRxl3e6tymjZcXivp5GyXTUi4Y79XX2ru+PXdQrTpn3uAUQiiV0xIvAJooxi/hUiQPceOpVyFbcaUV96jNbGHQbR9l0HjFpCAx4eiAyM3wMCFxSeJ4veZ06HwB0lUOMymsvEhGsAg+Z/DLUcw4Korfoobjh17/Sc03MOEcRhbMPotmP/LSPphWA/72CC+yjU0etwjGun+dYQvKcDgUBTWF9Vv8fgbaS7hLOg80svB4N7/37/6RqIhJvGNr8TnhYHT4XmVh7I/RREa75rNN3ZdTDip39OOFKkYx2jFh+IQKyXQeCkw6etgd0YjMhjNFWXYp3qWY6PjXE9fvJMS3mWn0o1sJQLBkbcnIxrGAnxTZpK1nsbo9VuQM/BRTyQwI3cDrevYiJ4Tp2mAoX7/j5w+AS95NEJ+jGQF9Pkoz37rcaYvW685wK9G/uPtHYSBCLYeWNJQz2fBe/0YAQzrnVu3LxFFRt0sZSHwCPLKbBZqHWjYx4B0/Sy6JhHZ/2NG86d3fa6E8t0O0EIBt5hkSZYnfD2QBn8t3v4IV03rjFYgbRQp+kxYX0r+KnDoIabCQPXJA5Tjpc8Rg7C9U0X4oZgN1wk+Kzaz5aGCFwY3UDwL7iQBhKM0sQF4ShdGEtwd05tm/8L12CMGMN92QkYyR9//LH6HVjeeOMN1busC7w/7HNNEVzKaYQCDXzM+X6z1PfmNYe7KUZblm77kw6dPq4iv965e0eNHmAE5bAnbeHm1SpQG4yidDULKJdHBGRD45sJp3GG0V1EDtfLs/QdNs0o5SPUuheu2OA3Jw3ydd6qdMvlPWP/LSPphRCoAekmTtHSnQjFuMa9h+XQ9HIs6Nx0A+/utGnTWu4p3GfBQKcp5m/rx2HOp9MyZeg4Q9A4/fmHYFT3x4a/qeWAEDgJ7rLvlsniV44lW5PA57Xr6H5lGCOQIFxa8ZmYW4oRxTdLZlJu6oh9gPcLIibD1d+JuHBnx7OpfwbLG57zrNy7pZqPO27ZLBXXwenaQWr29+lb0HvmaL8yeJ5Dxa0zA0ZwuMb1wsVL1XrC+jGQr3JWsJQLxt69ex2N67/+ipvO1UDA7Vu/XhAEv3QCHUpww9YFHjP6sXrnEaZmYCRSf77s0eGdwPsW0Wv14zDwwUEJQTjvb8TIQMwMvTwEMTZgZNoJ9z34bvoiru9rO4HOG+tZ63ksWHc+FD75sSy9/PHPpsAQDQWMZsOo1o/FWuBjpy4ySoTXhgA3PfocHbx2/YZR80BRyQHuK9yXiAmDqWIIXoc2AN6D6CTEOzdluWzK3R/rdLcY3UvFD0G8ADvRXHJTEIKBd1ekCaVOBDTVPWkZfp+yoAw688Ml+taWkGDAjQIwKqVH/o105OBpaxZZ1oPEyArcEztOHEjTPXl/7t5KO9TI9T41cj1/40oaMn8SNRzWxa/B+36FnEat8acEEKkWbiEYPWNBMAS4M4YCGkK//PKL5YFFw8jJQNHBMkRwD9eP0wMbgQJtq1uuF6K6Xrzq/L0w7xiGjS64vvrxesMv1MbZ+YuX6T2bGx0E7uBuo/qh1D1s/FxLGZbStfznyejYGzmR9EIIt1EJ+SZfNQpl7DqYcY37BT2tehkI5k2HG005ko0zJ+AGjXgCMORgWOO+erXYt6YBjPsU8QfqewxgxBwIFF0fHQrtxw/wc9/GeeI9U71va2o9po9ahxbGbOaGpVSeXhaCOAc60XZnRxR6exlMP8Bosht4H2IOtv24Tft9jW2siWvPx7q4oRJJ43rN2rV+o3AQrH+9evUas1wooLGjG9YwMkP1+og2uD/R6aNfN0j2JmWpx7QRtNjzbJhzrndsUJ0mmFePKSj2Y/T7BOvfo6OQpUQ1a0eKE2fPXaRshetZjoNgRYXNO/YapUJ/f3fuN85SjqXS7+5eMDF5D2J+cSi4nff8pest6SxVG4Xe8A31mjC4/8rW6WQ5hqVmM6tBH83fEh0TiL+i30fojOs6Zaha1suNAyePUo1+bcxj8A59r2xW1enIYKUfuJxj0AzThdBOwnKWaCch2CUCZi5dupSWLVtGgwYNUoYG2lEIXIzBNrRJihcvTmXLllWR/vEcJ1WwTGDu3LmVtxe8dPk/XIzx3cXdPnzQro004daJaRcM7n0Eg0X8qNjgegbcmOdgIrwfqggJD/5dvv7a84L1NMhZvv32W7/F0WGkQrp166Ym/WP+DuZGY/4OyuNlqi/zFAp4gcMlFe6aLPB6wMs9puChQKRkvu/g/gnjn3ukIDjXmPam6lHy7YKX6rp1wYMZxcUSHVhKDBFsMWINgwkjdxiRhoGEoEk8soeATf8r9QN9UDEXZfAYTjBwynVvogyPUR5jAA1EJpSGyIatu/2ihkNg0DqNeDDB6kZQGj2fpesA3xxbN6LphRCoUfmc55gNW5yvx+xFwdfZDmRcoyMHMS/0fAhGlU+ePGmUcieajbNwG6zobMpfrpnlGBa4L+psO7jHz9is1Ku5qiMYMIgwGl3B8zzA+EawMHTqMdF0Z8fqA/bReeSHMvd2+fb1luPQOamPiu87cdiSD3FyH3cjksY15Its/s8ERuMwqs1lQgH6Rjeu0YAPlWh3GOvg3sO6z50mDlIu9pi+lMLzTNijhaOTp2z3xtRt6jAV5AzvaDvhPjtDx83xXFvrtYZkLljb730bSt2larSzlGEZPcV9yTAQ6D0IgR6zp2G9/5u3gnfOOZ33us07HT2YXv+8gKunmBPhXO9jJ8+QPfAn5KWPflbeT3ai+VvCG01/ZtEx7saSrX/S5JXzAwq8jJhozudu62mPNfa0lXT5s3dv2jp6tE9GjVKyZcQI2uQ5j3V9+tByj6E/Ils26vL669Tn449pRNasNNPzTtjpMfgZDD6M8hyHgZO3335btfmwWhG+xwhPXSdOWKfKoA04ffp09W7Byigo/9ZbbxECMOO8nWLcoFMB10JvTz722GNqUAedCSx4l+jTqNA2RFA5p2UxBSu4XpEm1DrhZQ17B8GUcR/z7wfPUdgV6DyCvogJYgUnI/QbDu5o6InES7VNmzZq1Bdz57FGLKJNYpkapKMXEtuNGzc2R4rxckIZrA+Hl4/uiuYEbl79xZM9e3bVA4jGD6eh5w89pKEAQ6NcuXKWFx7mYaJxNmDAAFPwXfCS4zLoZWzRokXQEWMAowvRNvlYCHp28TBiqSM9HdcnEHZjL5JLdISr0KG0sxSqYzkGAiXfZ5hPcYFgdQ8YOcOSz1K3VV+jhDuB6i5bu6MlD/KU51pgrngoYH43OjRYCjtEX7Vz+Ngp+u7nGpbjIBhFCDQPXRd2EcTIuj0vc4HALoLAzbg+e/asasToeRAs3QV371CIZuMsnHvwz007VSeEXh6C2AF4BuzosRsgWRq5r0SBqQ8IqBdM7ETDnX3koml++dPXOkfOd+Lc5QuuHZfwHoAxp9cNbwBM/wiFSBvXuYrWtRzDMmr8NLNMKMTGuI5mQzs+37HMLY9RiveTXhaC96LbtJNAdaM+7Ov5kBfU/OqjRil3Ar0H0TF803MN3krnb2CH0jlqrxudzk4dliyVA4yw2wn1ertFPS9SuZXrcxnN37LnjJGWZxadOFg61Il1e7apPF38vHS0jkAYFrpewQoRaGPZBUYGnhs8a4sXL1bTjPTjYITap4Si0xpB7lg+z1qepsxZ4ZHlNHn2cho/fQkNnzBPeTW06TZCtXtwjT/LWo7SZqug3ParN+5BIybOoxOnzqn7isHqMytWrFDGfu3atdWzjP8YXUdsEV6OkcG0Ongs4vnGijYoj04CtGPRFoaeZZw6BWDod/O8I7qyvPkmdfakdXrpJWr7+OPUxiOdX3uN+n3+OY375Rda0rw57fe0ae/arokdXFd4Quqde26CVXT080wKoA0daYLViXuHp+OggxV6AoOFiCf2/+2dB5QUxdbHj+GZ41NMKPgMT/0UMeIzIfIMTwmSFMSAooKKggRBUHJGQHLOkhZYcs5pWXZJS1yWnJYMS04L3K//tV2z1T01Mz273WyY+zvnHpjq6tqenu6q+lfdugVDmwGPDLnNNLRKcnLoelElrG+FYDYQVZ999plwTwxmTPZDPnAQ1HBtgciFff755xQXFye2xLIzffp0Gjp0qMUwYinPhWHUXwf2UVYFMFycly5dKio4aXDBgOiVeTCbHR0dbZZgBXnxsCM/DJFVUYk6AR0v7Fknz8XLEujvYOAhf/78vmuChYraWrhw4YCiPdy1WOFs0eG0QQfDArhZl/mmkWjw7QQrG5Fn1WOwewqUopkLnHWkdWWj04LoqWo6DPtrI9iOU8K5J5iFCjR707qrv6utvWxp1f9I7+BhNl+XB+vHg6ET17t27RIBItV0GLxIAkUJ1uFl58zJ/cZv+21t/X0eODLwVkvv/WHd/gizhIHITCRyiVvu7NguT/278BZxMtvulE9ty0FgcEV2gtviutpv7SznSPuz6yBfHidkRlx3yJvXrzPcq2BBmteoUYZs36r0dzWc+sTNOlayKG6Ndl07BuyCzQQHKnv/oaP06H8qWo7BMJgYzNtIJVA9iKVAKB907uvvbv6vVz4N+TcClR3M5sUEr1sloe53aupFERRUzQODuMfSomB4+VtKsPMFtvJ8SHl/YS/VKEcft6ohBgERpwb1NZb0oO5S88GwTWXtfumu23ZxDc9GeCx26dJFeC0ieCb6eWoeeC/ChRw7noSaXAEQ3YgJAuEOMYM+EwK5YkkfAk2uMt437EiBcuVEDPprGOzC3wi37sQOEZh1VOsTTBYF2g7Wjk5cn9y3zzwanA1Gv9J+bhdDyEkKvvONiO8iDQPLHXpFWaw9rGcUtes+gpp1HCKC0iGAKwLPIj+8GjFQ5ySgZnYHv7XbhCpTbkGKZQ+hiI2NFXn//e9/mynOcPyt3n//ffEHEL0YrrJRUVE0evTogMZkP5w8xG64bmMARhXVEAeoPNevXx/QZsyYYdnHExUsOlsq6KCjIob7kRT2cMfB2mo8c3gJEAAHg0BwdUpKShJiHsLaPiCAmW/dmgoMMqiz3eEYZt/VtRsSu7gOZeFs0eGkQceMICpkNR8MHaykrbvNXP7oykbHCOuT1XTYvwpV0EbuDoS97Fc+/IFe/uB7S5pqusjdgXByT8DkWbHarWOw5VigqK32smEvvl+FEIVdRTdIUCJEJHe7uH7ppZdEI6CmqYbti8LFi85ZqPu9Pmm7NgpxkTK/iD3YgwEXaLjZqn8f14ZgQE4I5rodDMx+2N9vzBzo3m8dRX770vJ3QwVpCxfsrqCWD8MykFAcPpFCj3+bHvwQlllx3bRdb8s50mo36uTL44TsJK6XtG9vluysPnGzjpUEGpBCneUkSKKubHhFYYZUTYfhOkO9iyq6ehCG7R0l2NYLYtueB6IhGIHKlvaUxuUcAdOc1AnB7jcCXObVXC/EtpNgbF7+luW+bSzaR2nwzgoFXNdxDep5sHc+qU3bdqZ7ZkDQYuZUGiZbgoFJBAhebJP3/PPP+86Dd1WLFi1oy5b0oKgqKSeP06S4eSL4I4Knvv1bJRHnAvU7lhthwBftDbyIEBgXg6W/9GlFg2aNDbhU58iJY6LMNqP70PfdGotz/tvgKyrT8mf6skM90Z5hj/eqXRuJ/yN+SLEmVelVo3wM3CJP46FdaeLSuZatF7Uz1489Rt2efNJimMFGekejj/znPfeI2ewBr79OYz79lBY0b07bjf7qJdtzCbd7OckDg4cN/sVgAvrOmNxRwRZ98MJE/1LNLw1emzkZtK1uE6pMTK7BDdxJ8G14baDtV4OeOcHxt7r99tv99rRmchbBHji3XLfhxvPCe1V8Vr5qU/NIYOAq+lqJapbzYP+rWJd27kmfsYTrhiqQMXIaiN69ewvXn2DWurV1JlhuLSft4YcfFhUdZggDGe4RKjj1PLiXqDiduc7IFh3BGnTQ+M+BluMwnXuiDnvZ/1e4koiSqqapVr9VH/PM0ITqQNkNkWxjlzvbJinUPUFHGIJYzQPDfqxqp0OHvWz8Ppu2+Qcxgdubmk/akmXrzBz+2MW1E4M3hxO8fC8D3W90KH9p1M1yDIbR+smzY0Uep3SbNMxv7TUGCCBiIaDRuUJAMwTtQ7wBuyCX9nqd0AIULsFoTNV3WhruuROw5lb9uwg8GIiMzLgjKKQuH4JrBQLrwDFgYj8ns+K61wD9nsMVv2/ky+OEzIhriRczZKHqEzfrWFn2lh3J9HChCpZjMKzHdTLDCXR1lfrZbgiihXfWCfayYTpPH+w7bc8HwX36TODlLLqypWHJEMDAnP1YnWY9xbFgBLrfuuvE/Ro/Xb/XvI4r+Vvan0GVrcbfK1DUf0Af68cT1vsL32CxPnQgeKZumRL2XMeEhsr8NfFiZwS1vmk7uq+j2BN7Du+n1qN6U5eJf9Pg2eNpfOxs2rx3p3mURJ2PpTuy3GerlRSxQFDP2Rk2b6JoH1RTg+7C1Dp28foVQqTLY/kqvS22QIxLWi1idQTi2KkTIuDk74P/omYjelD76P4i2OTWfelLy+w7wRw8mBbzBLPt6NPKektOUKH+QnBH6eaOSSH1fPTRczL4Dm4Tqszdu3eL+4Z7G2iXFbQF2NYT/Xt43WKQIxwcfys0SlD6WHPrxA2EyX7oHji3XbfDaQSmGB1s3cg2Ou+69ZcgJibGbxYa68WxjgbHEhMTLTPXcBuHSzdeErhyq+d9+WW6i+nHH39siQaOBsdpRwPrkLBeTz0fAwGScN3Cw9miI9D9xlZTOiEcyD1Rh71sJ5bRiLB2K/W1NZo3DIFkDh+1jurqCHRP8HvWbtrDcgwGNz2nnSinzzf+1vPvfmvJC8N2ZYEIJq6feeYZGjNmjN9MNtaLOvEqcXrdINz3Ulc2OniP/OdTSzoMbqHhzJDpQKdr0OxxIlDZ+398IzpVmPGQwaQQ+RyCtU7/dsJVOlh0bjv43eAxIOs6mH2JiD1ivw7MjKgdt2Br3DMirnGdukjUcF+Hu7qdfUcPivtizw/LrLieOGWm5Rxpb5T80ZfHCW6IawnWMcJjSvXACmSYCQq2jjHQu+NFHYuyAwVzRD21JnGbeWZo7GU7sVA7MUjsZWMQTgfqC513UMvO1gFolUDXXeXX9GvDDLwuT0yQwUtgLxuDrC/9r6olTTUna8QlV/K31NXfe/YeMr6P/3d5+q2vKHFzuii141RcI3grthJV88r8gYJq/q/ht5a6BoOhgfpVGakHdWCA7ffffxfvtpzdheXJk0cEZHNCfNIay7UjqCQGcReuW0Ypp6x9EAQERRsD25y8QwhzbEEb6Lrtv+UjRpuIwe8PP68n/oULOLwL7i9YRvQBsWQA3h6zFi6nA2F4B+YU0Ka6Tagy1fY8sxYIx98KrruIxKwrXGdM9kP9Xbxy3XbSCPQdNlnb4NZq0l0bcEgCdyWsD5IGsRwKRLtHlGX1PBhmKtQGwcl1SzCi1a7HSO3aKVSMJ09ZAwvBreyZt7/2WTCBJYHYwyyheh4M7mD7DqR3BO3XjSjdFQNEYsbsL4STU+xlq4YGIW7lBhFV234M212FIlDZauCyWk38hTCC5YRaZ6T7LRfErqb7nytrSYc9/HIFOpoS2O3eTjjPCVzZ1bzSAu1hGkhcYymOHN1GoD77cXR47MFb7Di57oy+l8GeE53BfRYuo04I536H+17qwBITWb/BsNMAhJoMbCJtwoTgyxQ+af2LtXNVLXCnMKOdylZRvbR5YQgENz52Ds1YsZgqtKmpzSMts+J64aIY0RFUz4M98cbnYnATeZzgtriW6+pCWd68ecMS11eqjtUZvD7gvuyEYGVjoAxRtp+17ZIAC+W2DcJ5LxFwTM0LQ7tx7IS+ztJdN1yq7VTTxP1AGxlsfW649xvm1oCx3TLzW6r3G4FQsV5ePQ577p1vxax5KEKJa0y2YA91NQ8MdWOodgdAdP7Uo5nFmwiz2XANxwzy0HkTxaz0hKVzxPaFXScOFTtUwH3bviypcN3ALuuY8IEXinyvMUiKiRaAZYPwvpXHEMwKSwAD4WWfDXjlzu4lXgWNxO/hNl6UGS6OrwCdC4SgD3dqnMk+yAcOWwS88cYbPqtUqZJIDwQaK7w8CHShngdDtMXDhw+bOQM3AiijUbsBlmMwCB7sZ+wEpyOsmLVGwDY1LwyiGtEldQRrvCSIGo0olmo+WKEPf6A1QRpJJ2WDrTv3UtFyNS15YZj5nr9Ev6VDuA06LLOdhZKVGviCt2GLKftxBDbLyH7R+Q2huys5fVsobD+GxsqeD52qYIR7Tx54rlzQkX0Vp78lOHX6rAjGpuaHVfihmZnDik5cf/jhh36BBjHIZM+HIJPBCHTdbryXoe43/pY97f/e+opOnAy9xYWT+53R99IO6gbZ+YJhMFlGY8eer+oxuO6p9Z6dDmMHWDqFsIStiebR0DhZK77r4F4xW6/my4i9WTft2YEIzoi4hkFIq+fBMFCzYOFicdwJmRHXb5WpId41ae9WqGMesYJZs7WJ28TezoitgDpHnoOdAeAePDdmpWXwJ9z6BOaGIMM7iD35IcLUdNxXBE0MRaCyW3RKnzXevG2P1l0ckZyD4eS9lGzattv4G9byYY3bDzRzWLGXDeGo49jxU9qdBxq07mfm8CfY/UYdstcQQdgyzH6s/whrQFMdV/K3xP1OOX5SuPKr6TB4eIUTADRQvwrLJLCmWj0GQ4AzJ2tVAVzfsdxKGt65YKA9wr1GlHH1PBj2G7fHdcGkD7YBk/UyvGvRPmIrvkBWrFgxS12OfqE9lobT5zsjfTYv3dkhaOFtivYK9afc4QfLYqpUqSK8PFHP4vjAgQPFYDI8sRDHCKIZ+XEejqMclCeZvzZebNlatVtjKtPiZyrR9AdqO6YvDZw1VgQBHbtklhD7GDTAbhlD5oynATOjxVKlllG96Nf+7ajFiJ7Ua+pImhI/n3YfSgsQh9/AbbwoM1wcXwHWKMFHHetMcxPHl8yn2AevpksOR3+2N6pBSx++XpxzIn6RmRo+l40X6cyWjbSnSyuKf+pOin/ydkooWsA8auV88i5a/kJeWvHig7Sna2s6FD2Udrb6jeIeu5lWvvKw42uXD5wTkQrxhFkye+WKEajGjRuL9SE67JUSGqzKNdta0qShYXESzEMS7LrRCcZ2YepxGEZcnQTYC1SZIlAVXNggGNXjGHnHTF8gFyeVYBU1Zg+wVsze+YC7IfbBDIW9bNW+/qWtWNOlC0D2e5vAHRCJruzO/fyXA7Tq4u/6hgYeUc8DYS8bLu+6/UohnHSdP9z7QAS7J9h/deHS1X4BtjDjlNEgQcHAfVbzS9N1qOzPNz7rni8McKJDoeaFIWZAIOzX7eZ7Geh+P13kK7G1HNDN4mOLnWDB+kCg++3Ge6mCAYx7773X1+GCwetFxb5DAPbBDIRuL2rMNjjFaSA2uMar+TJis1alDThCBGdUXL9dxn8ABTZ89ERx3AmZEdf25wSzdtin/r0Kv4rnWT0Gz4aG7QY4Xp4Q6PmGeVHHwjAzLoMkLohN8DsOD5+VazeJ44Gwl416FB48dtDOqPlk3mADpIHey0B8/lNLS34YhLFumU84ZevqFbSlcBvXEeh+9/47fTBkz96DWi+nUO3xlfwtQxnWeG/dETx+iMTe7mDGt2DBgpY01TDzGMw7QMXJb4l7033gODHApeZF3Q7vtZRj6QJP5f1PfxUDIdJKfNnAPKIH7zuib6NdUs+DcEd9cCQl/VkMdt2Z7bMFA3UlYhupSwzR5z5xwpl3HTxR8DxJk1uJYvIAAe7wnGHwcNjYWdSm63D6sf5f9EmVJmLrQAx81Grcnbr0jxYxYzAwrQ6Ae3W/0Za6jRdlhovjK4BAwYwnLhqBnrD9Uq1atcS+cjrLKTgV16kpR4S43T+4Bx2eMDLT4vrkqjg6nbjG/ES0rvSbAcX1pbNn6Px+f/ceXAuu4/QGZ5G85QMXSKRi4AQdHHvFin2dsRegk4GVUI0AXjR72nsV6jjaAkR33QhGgMZATYfBzX3btoyvacLM2ssfBF6LhSA2TtFV1NjfERG21XQYopVu3u58jajufiOYSfL+9Fm1i0ZDCHdqe76vaqRHfNYRrIGxA7cpNS8M7r+BoqyGU7a+A1UqrA4UOtSTZqV7LaBT94hmO5q/+gQfiAnnugFmEHSDA19W998bPdB7qQMjy2peaTNn6ht33T1RLTPvpa7sHpro7m27jfDLhw7JAXPrHh32st18L1UqVqwo6kdppUuXFrMZqm3atEl0fNR8GGgMhE74NhnWzTwaHLgBqucFEtf7Uw4HDN7mxBoN7WKWlDlxXe6b3y3nSevUa6g47gQ3xTV2H9CJZwz44R23B3yCCEfHGN4mdnTPt1d17AOGqEMgQTtjJi+w5IOhc6/LK7GXHayuQidbzQuDQMPssI5wygZLV2yw5JfWoHVfM0c64ZQN7yad14puBwdgLxudfZ3Ax31V80mLmjDXzOHPlfwtVYMLc/K+Q/T8e/7R6nWD4Xbs7Y5q6EfhPUTMD3v6hg0bzBICE+i3REwCbDdlX1aGQXlcs5OYBU6eE2x9BoGp5oPhnsWtDOxJpCvbrT5bIOrUqWNpW9Q4R7Bx48aZOQOji3K+vHdvWhcVZbWRI2ntiBG0ZuhQWtm/Py3p0IFGGP0NRD7vY/SnhxcvTtOMOjhpYvqgk1f3G9/NbbwoM1wcXwGi1YVj2Zml+f8hRGkgg9BVOTh6CC1/7j66cChtja4b4tpOMHGtsvy5+8Xfjnv0JjGLHQ7ygbNXpnI7BTVNNexbfuhQ2gxUKHSNAMQFZpnQEAJszWOvVJEnVFCpYI0ADK6x9rQSJUo4Wsqgu25paLynzFlKiLappsPFC1tlhSJY2fjexb6oL2ZO1XSs68tM8C47GGkuUtY/wuq75euIjqEOp2UDuFHa7w8MlapuEjGcskG57xpb8sPQ+dPNfNrLRrAd3TwmRmUxk63mhcmItDrCvW4AIa2eI229bWYoHHENMLip5odhRluuZVKxXzfMrfcynHuim8lH8LSde/QBcXTXLS2z76UEe/fLDkxGbNEi/d/CWrinfyjuJ2if/7m0iPZt5/DxFKrWo5kInmM/J5C4BlELp/nld2LfdLa6aEIEZ1Rc/1y/veU8ab826SyOOyEz4lrF7S1/nD7fXtexukFGzE4F6rSGUzaEqC6w16tG3elEpDqpBz/8rJ7lHNh9Bcv49sWWhFv2wqVrLPmlNekwyMyRTjhlTzDqPTWvtLFTF5o5rFzJ3xJW4ftmfrErvqze2i8flkwEGyTV9avglQO3YAm2I3rvvff88gUbXAT2637oxY/Fb66mqQYXa6dBu3T3G4Nn2LXk/oJWzwMMdIwYN0e8o07Q3W9pme2z2cGsNAIJy/YEsYzkrjzwElDbGiwTC/YdUOc9rKxTf6F6GRFgLfWi/2AFglzuOLDHZ2u2J9HQuRNFezIhdo7YtjNhW3p8GK/uN76X23hRZrhk/RVkMUFnro0HY33ZIrSlVmW6eOqkzw6OGizOObZwFl06E3rdoBOcimuVlNlTxHXsH9TdTEkH6WxsbGxsbGxsbGxsbNnR3CbHiWu4ImINgBxFsRuOjR3rfOuC7EAwcX059YKYnbbb7o5NxTn7h/Skkwn6yMjJPf+kxM/+R0dnht7rEgQT1xD3sfmupVPrVpkpaaTMnSauY3eHJmZKOvKhZWNjY2NjY2NjY2Njy27mNtCjWY3jK0C4dVxw27ZtzRR/OnfuLPL8+OOPZkruxIlb+OafPxd59g3Ur7HbUvMry8NlNwQ5UzmzaT0lVf2Ylj17Dy19+DrhHr75p8/o7PbQkSYl8oEL1/0UdOvWzXIODOtwoqKs23boXEdCsSv5AD36qv/6V6xhU9fAZeS6sX2YfW9gWLNmzSxBjzJy3QiMpQt8gm1DVDfAjJQ9aeYSv8iisLrNe2X6uuEG/N6nv1rOg8FdC3u3SjJSNvj59y6W86SNnpTm6gQyWvZvLftYzpM2cGR68KmMlA3XR91aIbg3JW3dbebK+HVHTZhnOU8atoiSZOT5Bq1bt7acJw3uzpKMXLfT9zKj9wR7eqrnweByF6espc9I2U7fS2xHiDpRGvZBldHBQ4H113DfU89H+xcM7F9vjxSrs//7vhh1nTRUGz02FNgDHJFc7VHE4RKNfb9PBvG0gvt2Rt3CJ02dZfx21vsN+/frn4njTsisW7hXW/5k5Bn0uo79pGpTy3kw3P/F8emuvBktu2bj7pbzpMHNU5LRsoePm205T9pPDdLfnYyW3bH3KMt50lp3GWbmyHjZuoBssLmLV5o5st9viWji2ApKPQ+GNNV9OSPtDpYJvvbaa5bzYHAdV4NvZeS6sZ2ieg7svmfL0OBRM8wcaYRbNmIw6H5HxE+wb4+Zket22mfDllUIDq22Hb179zaPBsceVBNbYR0/nv5b2q/7/96qRNFTFliix6PtHjVxHpX9tpHlet8qXUOsg9+k9HdUvLrf+B5u40WZ4eL4CrC4vlSpUuanwHz88cdi83Ym+4EHbsWKFWxsbGxsbGxsbGxsbFlm2UEIe4Hjb4XRLWwCvnhx4OA28fHxYjQfo1dM9iO3PsQMwzAMwzAMw+QcIl5cA2w2jhsBw0w2tuSCXXfddb70H374wczNZDfw+zAMwzAMwzAMw2QluVWXZPhb7du3T0zpYz2VbusXJvvB4pphGIZhGIZhmKyGxbUJAr5s3LhRCOtly5YFNCb7weKaYRiGYRiGYZisJuLFdb9+/cRNgN1+++30f//3f1SwYMGAxmQ/WFwzDMMwDMMwDJPVRLy4vvHGG0XYdybnEuniumPHjuIevP/++2aKHrntXDALd5uY7IrTewJSUlKofv369OSTT4odAW666SYqUKAANWzY0LIdRHbn4MGDVKdOHfr3v/8tvscdd9xBb7/9Nk2cONHMEZkkJibSZ599Rvfdd5+4L6jvf/nll4hd9oPtZn799VfL847tB/EOHDlyxMwVWZw8eZKaNGki7gP6BLfccgu9+uqrNGDAAMt2M5EEPyd6uD6xwu1O+ERi/yQUua0fi+vIjTj+VogWftttt9GpU6fMlMjgwoUL9Nxzz4nZerykQ4YMoerVq9M111xDVapUMXOFTzjlunUNufUh1oGO3u7du2ncuHGiEsJ3z5cvn/g3VKWEBg/5Fi5caKbkDjJzTypUqCDyvf7665bOEfb7ffTRR8Ux7E2b3SlSpIi41nfeeYcOHz5sphKNGTNGBGnEbgerV682UyMDdEruuusu8d0HDx5sphKdPn2aSpQoIe5XpAWqfPPNN8X3xvaTR48eNVOJtm3bJvZzxbFq1aqZqZEBBCS+N+6N+u4kJSVR3rx5xbFJkyaZqTmbN954g3788UfzU2Ai6Tlxek8iqT5xek8ivd1xcp8irX/i9T3JKf1YXGNuxPG3Gj16NH355ZfiRuBhrVy5smhs69Wrp7XcQvny5UVDcenSJTMljfXr14t70alTJzMlPMIp161ryK0PsY558+bRp59+Su3atRMdHYAKCvcgVKWECPjIl9tG2DN6T44dO0b9+/env/76y0yxIvcqfPDBB82U7MmwYcPEdaJR07Fy5coc8T3cBrNs+N7bt283UyIbzDZGR0fT+PHjzRQr2HIS9+vpp582U3I/c+bMEd/5P//5j5li5cyZM2LXEAz44v85HQxkh2onIu05cXJPQCTVJ07uCbc7zu5TpPVPvLwnIKf0Y3GNuRHH36p58+ZhWW4Bo0TFixc3P1mB4P3kk0/MT+ERTrluXUNufYid4qRSwgAG9nOH3XnnnSK/3VDZpaammmfkbJxW1IGAuxXc/VAGOprZGfldX3jhBTPFCtw75W+MEe9IQHbsChcuLNzNMIMi74E0DO6dP3/ePCMywfdft26dmP3APXniiSeEm2ekULduXfG9mzVrZqb48+6774o8gcRmTsKpkLSTm58TJ/ck0uoTJ/eE252Mv0+5uX/i5T3JSf1YXEtuJLLVlgMQnO21114zP6UDV22M0mfUvSmcct26htz6EDvFSaWERn/RokUUExPj5ykAhg4dKsrAekOsP8zpZLTxggskXLBwLtyPcspyke+++05c8wMPPEDTp0+ns2fP0s6dO6lBgwZ088030z333COOY71gJDB16lTxfWEY/bcDN18cw73BvYpEKlasSI888ohYw4d78fjjj1OHDh0iao0x3Bfx3f/8808zxZ+SJUuKPFi2lJMoVqyYuG4nFmziIDc9Jxm9J7m5PsnMcxJJ7Y5b7xPILf2TK31PclI/FteRGwn4reQPPW3aNMtnp5ZbwJoYfJ8RI0aYKWlUrVqVrr322oAuF3DjwMMfKFhFOOVm9Brs5OTfBe4xuH6dOa0cMlpR28FAB8rJ6pHQrLgnCQkJdP/994tzsO7/4sWL5pErT0a/Pzq7+O2+//57+uKLL6hFixaio4MGCe8TYkvkVMK9J1u2bBHHIAgCUahQIZFn8uTJZkrOwo33RAXuwJh1wKwA1htHAgh8g/sVLMbHY489JvLADTOnk9FZJZXc9pw4uSeRUJ+ohPOc5OZ2JxQZfZ9ycv8kFFfqngQiu/RjcQ25kdz5rVwGriU///yzeGkRfALRCLt06WIe1YMomXhogkXjC6fcjFyDndz6EDvFSaUkt5x75ZVXzBQrcu0hRvwQoCWn47SiRicAUV/RURw0aJCZmrNAQ4uZJLxH8PqwI0eX+/bta6ZEBjIYzB9//GGmpLNmzRrxmyP6am543p0QFRUl7gfqWF3nDLNO6Bghz+LFi83U3A3cBzG7hmdBN7vWvXt3cT9Kly5tpuRsnHR8I+05cSoGIqk+cXJPuN3xXkjmxP6Jl/ckJ/VjcR25kbC/FdYPYVYW0cOfffZZeumll6hMmTLUrVs3OnHihJmLyY7k1odYB4K9odFSDc8q7kGePHks6RhBVkGnCSPJyIv1KgjiA9d8uX6saNGiOdJFNqP3ZMaMGSIPDGvpUKkHsh07dphnZU+wJhAzBPgu+fPnF9FbH3roIfEZvzVGviMRdP7kb/ziiy8KVzq4K+IzAhSpkZAjgSlTpvjce9EBwfuP9g7/l2mzZs0yc0cGmGH773//K77/DTfcILbgwi4W6NAiLdh67NwKPyd6uD6xwu1OaLh/4k8k9GNxLbkRx98KkS/lD4VtJ7DFwvz584XLHfa4fO+998QxVCBwDWKyH7n1IWYYhmEYhmEYJucQ8eIaUamff/5581NgsO0ERlSY7AeLa4ZhGIZhGIZhspqIF9dwAYM7i27NiArWH8H1gMl+sLhmGIZhGIZhGCariThxXa9ePT976qmnxI3AWpHatWuLICZwCUfoeBl5DuHvBw4caJbCZCdYXDMMwzAMwzAMk9VEnLhu3LhxpozJfuAhxjYpbGxsbGxsbGxsbGxsWWWquMb/3bKshqcyIwj5wD33zrd099MfWWzM5AXiWCiGjJ7pd+5rJaqZR9O4dPECbZg/msa3+pKi/ijlszFNP6GZ3WvRgsFNaeGQ5jSnz280vrU1z+hGZWnp6I50+tghs7R0Ll66TLV6zKAP6w/zWYnfh9Og6Qm0cM1OStiynzbvOUJ7Dp2gIyfO0OlzF8Q5SbsP04i5ay02ZsF6Onch1SzZ23viZdmIAmmvVK677jo6deqUmSPjXLhwihLXDaf5M2vSnGnVhC2c/Stt2TieDh9aT2fOHKaLF8/R5cuXhF1MPUunTx2gg/sTaF3CAFowqzYtnvc7LV3UglbFd6GUo/6BDk+e2ENrVvaludOr+/6GtEVz6lHswqbCFs6u63cctnxpBzqWss0sLY2Lly5Rg/5zLM9JyT9G0GjjN1+5eR9t25tCyYdP0L4jJ2n3weO0cddhmp+wg5oNWWA5B/a7Uc7Z8+nPiZf328uyO+TNS02M8lT7K18+GlGyZIZs25w5Zsn+4JnYnBhN82b8ov3N7LbSeDZOnz5onm1F9+5ETZhHF1JTQ9rAqGl+56rvToG3K1uOPV3kK/q9TT+LNWjdj+q36kt1m/eir2u2paff+spyzv0Fy1LPwRPMEoOD9yJmfkPtPVBt3owa4h27dCn9uVPx6jlZvny5Z2YHdXO38fFUwngv7e+czko3iqIhM1cbv+slswQrL9YoSw9++VamrWTTHyhhm/9WY1PjNlO5pqMs1/Rt+4nUftQSGjwjgUbNX2+0KRtE29J78nJR/5T43frdKrQYQzOXbzVLTMfLso+fOkdtRiym4kY7qeaHFWswnMo0jqJyTUZRqYYj/Y7DUG92HruUTp09b5aYzoXUi9Rv6krjt9GfG8o+Nr7z8DlrjfrC+ptevkzUa9JyyzXjWlsPX0TRizbQvITttHTDbopL3EMx63bRjGVbqP+0lfRV2/GW8nHtfaesoEso0MTLOhasMtqXyn9OsFwHnvGfukwV7Qt+07/GxFLbkTHid6zYItqSF/Z9p8m0dvsBs8Q0tsRPp+jmn/r6SVP/+pH2rF9KF84G3kbp0sVUOrw7iRYPa+07b1TD0kb/6i+jbknfOi6n9k+8bOdT9m6jWT3r+O7b6MblaMWk3rR/SwKdPXUs7SFVSD1/ho4mb6HERWNpYtvKvvMmtPmKtq+0tpVe3u+jhzca/S2jb620J6uWdaMjhzYY/bnAz8q5c8do755Y2rDmb0raMIq2JE2g7Vun04nju8wcxnc03lPUS+p9Qz00KTaJDh8/LX4PCfZ0P2fcT9z36IUbRL+9Zo/pPmtlvMtnzqXdbzwTbuO0zNmzZ9MTTzxheT5DmVNYXIfJ9kY1aOnD11Psg1fTifhFZmr4XL5wns5s2Uh7urSi+KfupPgnb6eEogXMo1bOJ++i5S/kpRUvPkh7uramQ9FDaWer3yjusZtp5SsP06VzzsLpywdD93L/+Ntf1GvIxJD2be0//c5VX+41M//2VSywKX/9ELQBUIkf181y7vSuNSyV2LT4zdT87wXUZPB8+mPAXKrfb7ZonFGB4mXWgQoBL/ifUTGWSgGGl1yiuycPvvAxPVyoQkjLa+Szn6veEy/vt5eN17LYPy2VNOz4MedbWZw4vlsI8FRDdBs/ZFqiyaEDq/3KXrOit/E76jvPKmeNMpM2jKYd22bSvuR4Onpkk5F2xDyazhmjcl+xaa8YSOk6Lk48N790ny46Px83HU3FjQ6b/Zko1sDoqDYfI54NdP5j1++2NBpe3m8vy9aJ69Hly9PJ/fvDttQA23eggXYiHgPZ/Jm16NTJvWZpaXjZEbGL67fK1KD1STsstm7jdlq9YSvFJ2ykaXPjqF6L3nRvgdK+c/I8U4oa/TnQLFHP1k2TtN/Xia1e0cuvbvPqObELYjdNgq/SdMh8v/cuHOsyNs4sLR2duG74d2fzaGDmrl5Kj3zzjt+5X7Sva+ZII9YQc9/YRBMMnXnUJ3V7zxLir8eEZTRszhohmJca4m/r3qNiICEYXpV93hC/qOfsZc5fvYPOX/Dfl1uScvKsEPEQuKodM4S6BEIEwlwtGyIbnexgQOB8Y3TQ8b2kocN++PgZM0cap89eoHGLE+m3vrOpbBPr35FWzDBcQ6U24+jnrtOo0aB51Dl6qRiEWLx2Fx065n8tXtaxQNfPqNgymloOWygGStCHid+YLCYBcK/QP3HCqaP7KS66C41r+bnoG41qVIZihrelLXHT6MDWNXTswE7avT6W5g9sbPSbqtPsPr8JER0/tiuNbV5RnAOBOH9QE9q3eZVZahq6OrZA0cr0esmfQtozRb72O/dK9U8kXrTzy8Z1t/RF5w9oZPRjrdecev4c7V4XI+7/qaMHRN/l8qWLtHb2MMu5Uzr+YORNbzN193v4uNl0+sy5kNZv+BS/c9X7fejgWlqyoImlDcHEBsR1agBxjfYFkyI7t82iuMUtaXlse0pY3oPWrx5EKUc2m7lIDFLhecW7f/LMeTpq1BNHT5yhHftTaM3W/bTEuIezVmylCTEbRb8cA1sdR8dSg35z/Oqhqn9N9g0G4plwGydlfv311yIftlJs3749rV27lvbs2UP79u0Lak5hce2Q1JQjQtzuH9yDDk8YmWlxfXJVHJ1OXGN+IlpX+s2A4vrS2TN0fn+y+SkdXAuu4/SG1WZKOkhnY2NjY2NjY2NjY2PLjuY2TsQ1BnmQLyUlxUxxl8gV15cu0dntmy12bs9O86CVg6OH0PLn7qMLh9JcddwQ13aCiWuV5c/dL/523KM3iVnsQKgPLhsbGxsbGxsbGxsbW3Yyt3EiritXrizyjR492kxxl7DE9eLFi+m+++4TFyStUqVK4tizzz4rPrdp00Z8zu5cTr1AR6aPt9ixhbPNoyaGAF9ftghtqVWZLp466bODowaLB+LYwll06Ywzl+dQOBXXKimzp4jr2D+ou5kSHPw+4Eq46oCTh/eKtddwVcLak6iGpS3uMtKim5anGd1+8bkvibTmn9LCwc3EWiOV8+dP0oF9K2nrpom0NqG/WHOLNb0rlnYUrixYv7t2VT9hq1f0plXxXSk+pjXFzG9E8UvaCjdLrAfdv3e56a6czqbdR4TrHdZHqevIsPYLrl1wZandcwY1HDhXuOnBPXHAtFU0ZuEGmrNyG63ddsDiOqcCx86Nuw7RyHnrxBq4mj1m0NftJtAnzUbTRw1H+lyX8G8p42/DZemb9hOoTq+ZwtUM61bgBmjHy9/ySjwnx49tF7/b3Ok/W1yZ5kz7iRbN/Y1iFzYTbk7zZ9W2Ha8m1mnDdQnuyCo59Z7oyr7qqqvo4YcfpkceeSRs+/DDD82S9W7hmbGORnkSvGv23wZuaG6wa+1iWj6hBy0Y1IRmdK9Ji/5uQUkxE8Q6Nhzbsz6W9myIoz2Jhm1YKtz0diTMp81Lpxrn9aRpXX6muf1+F3EcNi4aJ1z57Jw/e8ooK4ZWTR1AC4w6B+eMb12JxjT5RKxRRL0Fl8pxLT6jKR2/p7l9G4glLHDJPHnE6sYu2bt7id892bhuhHk0OFhrvWfnQrGkwr6cAnj1DOrcud0yyXcdrGv2YFh3irWQqltmuGTULTwjnD59ml588UWCO2Eoe+yxx+jIEf8lK3YuXjwv3pntW6bRuoSBwjVzyYLGIsYF1uCn1Y8/iX/nz6olYlnEGe2aaM82jhNtYmqq1bUa7UV5o32x32+4acI1HGtR4Tp+6dJlce/h6rlpzxHhVo32x37esNnpnnbtRvq7P8OF+9TZ4C7wYPzijX7nwlVccuHcafHujmnysa8/ML1LddGXwJrXE4eS6ezJFDp36hidSjlAh3dtNPoJM2ihUTeI99U8Z27/P+jYfusyJryzE9ulr4nF0rNdaxYJt2u49AKUj7+1bs4IUY+gXtmbtFy4YcvzoptVEHXARaMfaQdxXtYYfQG48MMdvHq3afRl63HCvR0xYuDOjj6FaOdbjKEqHSeJeweX5unLtmjd2dO4LGKUoG7YuH6kWEsLN97FcxsYz8MfIjYJ1tvGLmxOS4z+zsI5dcUx5EHepPVRtHfPEjp31jpT16pVK6pRo4afjR8/nuLj4x3bypUrjWfJ+g576V7tZVt8pZcgurXU6aX/VaX7C5ax2NipC82jwRkaPcvv3MKlq5tH9ff76quvppIlS1KZMmXCtlq1aolyUY7bOCnz5MmTNHHiRLrlllvorrvuol9++YUGDRoknvtJkyYFNKc4/lZVqlQRF9yrVy8zJe0LSHEN8IeRVqJECTMlZwMBjtlpu+3u2DRN1A7pSScT4s3cVpJ7/kmJn/2Pjs509mMEE9cQ97H5rqVT66xrZVLmThPXsbtDEzMlOPKBu9ICwa2y0aDMnf6TpcO6e8c80TEJBdZyYk3J7p0LaN+epSK40KmT6a72UfPX+QVmgZCevWKbWFOCjgcaTVSsWHuCTsmR42eEoEaQEvU8WFOjUpbgHF3gF3QoWg1bRL0nLReie2rcJlpgdHqwfgidnP1HT9LBlNNCsKuG65Do7ndmzL5H/fKkZLF2Bo1M9a7TxIAA1gCi4cEgATpZsLbG/9GR+N1oiOSauhrdp1EzIx8GIPCd1DZpRreaNKZpeYtN7lDVaFCHi0GZYKCBHd/qC8u5ED2SQM/gsWPHxD794VpqavCAZpkx+/1WuXD+pFhTjud+RVwn0WFCkDjZ0UanGwMQGDxCALld2+cY75l+TZCXwelijI6dLFNaoPVd4aIbFOj+9NM0vWbNsC2+e3dK2b7dLJlo8fA2ls4bAv9cdijwti6bYTkXwRvV2BKrlnX1uyfhxCsIhld1rE4Uu2USdD6x7letB3WGIFuNB82jyUs3+a3H1XElxTXu89PGM2j/DXSW13h+Dx/GIIkevNf25+SEEkTILSDYpsdvEWuSf+09U9TjCCiGgERS7CFo3GetxlI1M/gWAsghMFSgdcEIctZz4jJxnu43dGI/dp4i2gaVqZ2qWd4tCF2npOzbbjkXZm9PvGrTvOz7eBnMNZC4Xr9+vZnDHRBgDWvDkxPjxKTJhgVjaM2soZQwfRAlTBtIq2cMoXVzR1LSkkm0I2EBJcVMFAMYs3vXowltvxbPxd6Ny8zSvL3fEvQbk3ctFkG+MAmAAS0MZKDNw8A/2kMMaGAgbNGc34QhfaXxXm9YO9Rok+eKAREVPDNeBezzUrjr6tjvujSkJYmr/Cw2MYGWbkyguKQ1tHzzOhEkMnH3Vtp5MJmOnjxuuWb8bm7jpEz1uQnHnOI45z/+8Q8qW7as+SkN/CFVXAOMSOABz804cQvf/PPnIs++gd3MFCtban4ljgcyBDlTObNpPSVV/ZiWPXsPLX34OuEevvmnz4Q7u1Pkg+FlpeRl2RgZrVu3rqj44SFx9Gj6TO7u3bt9jcTvv/8u/m3YsCFt3px+fzBS9ddff4ljv/76q6XTJ/FiBmHZxmSau2o7zVi+haYYncXxMRtp7+ET5tF00BieOH2Oko0Gcv2Og+IcXfAfRLaUTJhgNPjG94H17t3bTE3j4sWLYi96eRzWunVrOnfOOns3dOhQ3/Ho6GgzlUSDjRklzMrPWr5VdM4wIn8w5RTtPHBMNNwIZIHvhwAys418iByJEV6M9KrX/GWbcaIhkNg7UIgSv3P1QjHDCE8GmY4I87GjOtC+TSt9wif13BkhqNXzMRth59j+nbQpdrII6jK3XwMRXG+cIcrhFYHAMPg/vCVgk/78VkQHXTKinWjgD2xdLToDdvr16+e7Vzp3oqioKN9xGO6/nWnTpvmO238zNMZpz1h6Zzs+pi3t37vMENv+79C5s8fEgNGiufUt52BW/+D+9FgMXgans/9tGAYGvACzhgUKFKBrrrkmpOXLly/orCFmpNTnCM8EnkH1dz+wbY3Y3WDpmE60fv4oSjY6d3g2MIuuPn8rJ/cxz0gDHTD7PbHXCxklJ4trgI4VPIQQVEitI0IZRCAE0HGjjrSTU8X1+XPHaf3qwZbI+gsw6JU0XrRDCN6INkkOemHQ6uSJZBHZFx149fmCdxYCGkm8jBz8Zqnq9OirFS02cUaMeTQ4IyfM9Tv3vU9/NY+mgd1CMHOJ9wzBu/COYbZ4Tt8GIlAXZrYxU41BVvU9lIb3GqIcM9wqXrZpXvZ9vJxJ1V33tddeS4MHD6aRI0eGbdOnp5ft5aCA7rozY+pAN/p86nsDO2/zkMsMVzJgn1u/pR20xc8884yYvQ5lDz74YMC2GNfoNl6UGS6Or+Cjjz4SFzxlyhQzxV9co6OPNLgJMNkP+cAFegH79+8vhFa4NnnyZFEu8LKBkZw5c4b69OkjxAlcOfBvixYtaOdO65p5RP6DmMTxmjVrin/xHc9qoh17PYOADiUEc9S8dWJUvHavmWI0HO53cA+TbuEYwcSIJGZuvmg9jqp1niLc0DFDgFl0RHK1g4AMckABgwYHDhygefPmic8wbDcA5s+f70ubMWOGmMlt0KCB+Izz7YEddLOGvYwGaF6jRhmyfavSPS/8xHXjcnTu9HHzaDpwE1s/L0psPaLmt5sqruHqpx5bO2e4eSQ0R/ZsspwLN0Ncg4o6YDFH2ZIKDZhMR6Mk/68K7Li4OF96t27WgbcVS//yewbto96ZBTPSh40O+LbNU2jtqv60bMmfIsL3gll1aO6M6oYoh2fIT+L/SMOxZUvaibzbNk81OuxJRmfOGmk4YXl3v+tWO/mhOH1qf8AOItLRwYV3CCLAokOLpRRYLtFi6EKRjuUZEGvwAOkzeYX4t+OYWHG8k9EZQZReuFvi/UPHLRCp589Syt6tYmZl2/JZlLRkIiUujKYNC6KFS/nmuGnChfTg9nW0c81CMdsyb0AjMTCD5w/HJHDHtN8TeA+4gVedSp0odssCAQ8gdLLRcQxnSyfM8ti5mHpOPNf2wR7MJmHwEzsMIHI7LGn9KCE07ctN8BliUt0G7eUPvqcHnitnsbFTncVbGRY9y+9cRKVXSTWeOyxtwE4b8KaY2aM2TW7/nagjZ/asI2busG3lrF6/ikjQeN7gJo2lEism9aFtK2Zrt670MnKwlzNkKvDE2bNrkVhSgS37MCu4cE49MRjhq6umK3VV7J9iUBw7SRxPgZeK9X3/T63y9K/K/7XYW/U+pypdG1mtS0P6tvMf9FXH36hsy+r0au3y9NxPpejNXz+jj5r9SNV6NKOuE/+mLXvT+xxeir1Xan5CD39d1GIljevoMHaAz9rDogfQn9H9qfWoPtRoaBf6oXsTerF6GXqpRjn6b/2vqHybmvRr/3Y0dVn6b7XrwHExW4otrDAjD/f0PlNWCG8+LEfDbCqWvqHvAld31KeoZzuMXiJEH1zbMasKLwTUuRi4kHg5KIAlgeqzDTtxTB83SQcGtvAeBNryEM+OF2748AjBpAnuR70+s8QSwZnL/bcptYOlG/BwtN8TeFRIvPwtvQLPuts4KTM2NjZD5pSwvtWff/4p1gCqFQBGJdTP9evXN3Mz2Q38PuDSxfN06MAa0RFBo7kyrrPoQMP9M22kerzRAZksjm/bPFmsb96cOJYS1w4Ta5hReaBDjcojefdiQ6ymzyBfCXEtwchZODMIwWaxvJxBuFL3ZOrUqT7hBuvSpYuYvVbBmqiePXta8s2cOdM8asVtcb2kfXuzZG/vCRptzECi8ylnJqObfUqLhrYUbudwSYMr2rz+f4h1tDiOfOq+7FhvC/FkXx8m6dixo+/+JSQkiBlo/B+DPXKQJzk52Tf4A4ENLwp5Djwo7OAdVJ8j2IkwBniwv3wg0GHxYo9KcPRIkt91xxqderwnodCtTYYQkmBwDANjdsPaKAzqOTW8G/B8wW8l0T3f4ypVokupqRkytbOo6/gdS/Hfhzgj5CZxHQisA96+L4UGGZ0/+zYu0uBaKVmzso/f/cbMrRvohGTLzkNpUdyakNao3QC/c1UhiVgjss6BYbbWKVhrrJ47qmEZy0Cgl+svdfckM6bek61JE/1+Syx5cUKa51miEFlnTh8SM/RqPaTzcCjR5HvqMG6gzzqa9tf4QdR5whDqNmko9Z4aRYNnj6dxS2bRwnXLads+bN1kbVsRy8XudQSvIifL1s6dPSb6DBi8PJayTYg6NZaIl54Zhw+uo80bx9LaVX1F7Bq4OmMJEbyoUD/vT46nA/tWCK88/It4NXv3LBXfDQNVG9YMFV57u3bMNfqVay3XvctoQ3buP6a1xet2Ce8V1TCrvXrrfm1+mOrxB68ELM9ZMbGXiM+DQamYEe1o1ZT+YkAdnguJC41+q2FwQYdHGtr9uOjONLtXXdH+x43pLI5jX2sVr1ygVfYfPUXT4jYLAYxBh6odJ4nYPlhmIV3GMenyUcMRYkAZohfLEiB6IdCXJ+2lC7YlG17eb69AG+Q2TspU28BQhslHrMuGOSXD3wqupehEbt++XYgcJvuDhwRgbSXWUqJixCgvZm3heorZKYzo+4lro7HblDjGqESH+AKIQVCuNz6j0cNIt8TL0dsjezbTxsXjhQvmkpF/CldNrMvZvmqeCIiBoEYIdIQKFHnwL2ae4BoM12Ks6UWgInRolhsVsm60X4JnGn8byyFCWf78+YMKd909waBUZgNBAF0np1KNNtS22/CQ9lm1Fn7n6mYQEhMTxT6AEIUYYMMAGlzuMWsrXczPnz8vZssbN24sjnfq1EnkhwjduNG/k+uluPZ6pglASEmvCGkQffv37zdzpAGXUPxear527dqZR/3B7LA9rsCyJXALX65x5bxMp07uE++nOigEw2ydOuuNBh4C2+09KiW7d8y3/H0YllGgQ6YDHU7sa24/B3tdqzO8aF+6du0q7luTJk1oxYoVaeLfeO7wvDVq1Eg8b8OGDRNeGL/99pvwGoB3C8DelfBqwfkoZ+vW9OvWieuBhQvTmqFDw7aUHVYXe9SL9u+GwUknYM92eQ7W1G8yOu3qb2nfnztce/a/31DMsnVmaenoRLFbBuBFAI8ddBI/+iNtrW/izsB1sArcd9VnEPZ5q7HmUaxx72a51zDEEnAK8p44vstczmDtDHtZV0nwTJ84tEd4TWxeOkUE04JIWDahh1jWgj2Osf50xaTeYm0qBAH+RZAtuE6jTYObNLwqJF7OLntZNjwM7L8lZtKdAGGH9wXLurBWFpMIp06kx1bxemkZ/j7qang/INAjZv4xu4l+U1rA1T4iHUIWg4iY2Ehbs9tE5E3zEJosBvTVGVUv2/lgXmSXLl0UAzYHtq01+lZzhUDF87hwSHNhCAAp3falqV5kiFdy/PhxsT/wli1baM2aNb4AaMuWLaMhQ4aIpVaovwcMGEB///23uKc4BkN+nLd3715fzJR0LouAdTuM/h+821ZM7C2EMwbF18+NEu8I+oCxozqKoLoQ04v+bimWFWCpz8zutYw+YRWx9zf6lScOpz8nuvvd+++JtHPPgZDWqe8Yv3PV+x0zIj0wHiw2qj2dPxN6GRV+C0wMqOfCiwWB/XIyqE/dxs0y0bdFAEv02RHU2ylhXwEebnS2MT2+aNGigMZkP+QDhwpRfUHRcNujXmLd4fEDu4yKdb+Ipmu0/qIDgEi86rlYt6q+3F666njZCNhBx8mtdXVe3m+IprGLEoWbZK2eM0Q03s9bjxWBWTDrA9cfuWYJounvWatFcDXMPsLNtr4hnpC3v5GGtWiBgtfYgbiRAloahLTO5V5HoA6rG0HHdA2jWzNNKm67LNoRax93LxGiDB0vuKIhIJko2zD8H2v+cQzBU5AX708gIKoRMK/flJXCLQ1uYBA6voj1vw8XI9kwLE0o2ziKPmsZLaLZIuAPXLDHLNgg1sjpwEyRbv21U4uPaWO8x9b3Ylrnn4RrvrTRjcuKiL94L6y2wGqrFwh3WRnxW9qkP78xS9aL68yYGkEdvy1cBe3fEYMQwcCggy5AHAI3SuziuujHtWhX8oF0E528/bR91z5K3LyTxk1bRG+Xq2k5B4ZOt4oqht020H18vJ9A/rrdeDp3wToDqANujvZzUdepoN3AwDDeQfXe4ZnEzhGbNowRg8bwxMI7i7YKyx/UvHhP4Y2koqursKYfAzkQX+GaukzES9Gkm30r3uR74TqsGtyI243pR61H9RauxD92b0ofNPqOSrf4ib7qWF+4EXedNJQStiaaJXsrrlXgHYYZUtSBmASAR8zC2XXFwB3qVxj+j5goEKgr4v4SeUW0faM+CoQXS8u8jLrt5QCPmx5qK4x7uicuziw5zfMI99duCH68atUqxwaPIwhsiHQ7V2rw39W1y0a/DVHpd6+PFbtfrJ4xmJaN7y6EP/qty8b3EJ8xKYSJJPQZV07uKwYP5g1oKJaFxAxvQyun9KOjye54RGUVuLdu43aZWDKJMu+55x4zJTSOrwAVinzIbr/9dsLWW1DzgYzJfsgHzktXSwhCr9ZIetkIeFmZejlavm77QeEihKjjiG7+XYdJ4r5j1hGzj7iXQ2evESIbBnGNYCJYww1XJIiral2miCBpcE+an5AeTfnlGuXooUpFLPZF+7o0KW6uzybCls6lCUvnCJe5qIVTqe/00aKT1mx4d9Fx6z0tiqJjZgpXKYmXgwJeLnvw0mXRuCVXNIpo1IR5dCE1NaQNjJrmd26gzjDA98K9tLtI6gx5EtcOdy3YVzh4GWwH4DvBg8D+nTE7j2cmfYb+shio0bk2wzAgo2IX1x98Vtc8Ehy49arn5XupPJ09l+6yahfEbhrA+mq0B+r9loY4FHBpRPshgeiGRwUEuO4cvPeSV43nMb/xfVQbP93ZLMPwcXP8zv3vx+neQV4OGLvZpsHUuBZeCjJJWp3mbgBQL6/bSxdoL6Nu6+6JWwM8EA6IBYJZY3wHzCDHxMSIuCz4Pwz9GcwiIw0zzX379hVpmGRDH6lt27Yi/g7KUfs3uQW3gncBL5/BnAieZbdxu0w83ygTXqpOcXwF2LPx0UcfNT8xORH5wGEfV8ziSkOkZuw/CFcZuM3AZRouNQjQc3h3UlrETbPTk3r+jIi2rJ4P1xSJl8LdSwI1jGhkECDMqR06dMjSQVTxYrQ8GJmdXfYSLwcFvFz24KXLIvAqiqiXM01XohPvBV4G21HBII39mXFq6HDZsYvrQh9+L35L1aImzqO/x8ykHoPGU42GXYWQVs+5p0Apmj7Puo2kThS7ZRKs7a9vPNv2exeOYfBpWZL1vdE93227j6C4lYkhrVnHwX7nqs+3lwLY7bLVuBZ2IBDcirTvZQDQK1mfuBm3xY4XZXsxS8tcWbx1lc954Pl3Gydlqu+fE7vtttssy8pC4fhbffjhh3THHXeICoPJmeABAcdOnRXbPME9FLNi6OygM4/ZY8wiYzZw4PRVPsPsWO/Jy4XwQT7MQqNDihloBDzaujd9pNLLNZJXAi8arys989HnpZcoxrj2cG3VwIGUNNHqaukVXrrKu9lhPWA8j4Fw22XRyyiiXm7ZllPF9ZW97svC3Vg3k203PENprsl6gZ+RNdcPPFeW/vtJLWrTdTgl79cvYbELYjfNDmb5Ec02nAjhP3SaTAlb9Pu4ezl4dKUFsFuCbP/mBBGBHK6l8wcaf3dEu7QYJSvn0q61MWIrup1rFtGm2CnCNRX7C2+Omyo+x4/tInZowEA81qtiP2J1NwcvA4DefPPNlpgm//rXv8S///znP6lp06ZCmKhgphT9CHR+1fzSHnjgATPnlW0v3fwtr4R7NXNl8HKpU04Ez7/bOCkTff1glpSUJPRMRvsDAa+gXr16fvbcc8+Ji0bl9fXXXwsXVV0+GJP98OIhtpNTK44rvbazu9HoTq9ZM2yLN0RQivHCS3JidEjgdodVnQ3y0nviSqw19CKKKPBqyzYW1/4U/7I+vVLsh5D2avFq9HbZmlTmm4b0S6NuxjMygw4dCe7mF8otHIMtHXqPojzPlLLky/9y+aDPqk4Uu2WBOHP8CCUuGiuCCiEGBuJooP7EnuPYd37VlH50eFeSmTswXr6XXq5dbnf33X714PLevWldVJTVRo6ktSNGiOB5K/v3pyUdOtCIjz6iLo89JsTh8OLFaZrxfqpiz0t3Xy/fHZSjlnvw4EGRjnoIg9k33nijSJc719x6663UvHlz39/Gkir1fHWdpK5sDCJisLBUqVLiOJY9vv/++6Jc/K3y5cuL9gAzhMHK1j2DbgcXZZjcBt4jt8lMmfDsdMO7M+AVoLLKjDHZDy8eYjs5Vex5ub6YR5398XI2COuRsWZWZ9jjEcJUNWxJNdUQs7r8sBWb9pol6ztQtZp0p2FjZ4e0nxp09jtX7UBdOHealk/oSWOafOyblUfgEmwpsn9LggiAgiUamKU/lXJAbMWzJX6GiBIMQSLPmdv/DxFFNRBub9mm62i7tW++l3gZCyEjs8uqwW175AR/l3AQzprrhu36W/LC7nu2DM1c4C947YLYTVM5f/qE2LNZPq9ODYL74A79+lUv18/vWrvYeC97iK39EJl7kfG+YaYXO1Pg2J71sWKfauxWgdlg7FyBgdjNS6eK9xmzv3P7/U5LR3cU+6Wnnk/3CPFSAHs5YOyluL4S2yB5gZd7UTNMbgV1h9s4LRODa0WKFLHUYzrDenu17XeC42+F0bw//vjD/BQYLOYPJ6Iac+XAQ8Iw2Qm437jthu/lmiYvZ8js0fAhqp2Ssm+75VzYycPpgwJXcnYZ7pAvvPAC3XDDDSHtkUceCWsdoxd4EQvBLoAfe+0z+uLnVhb7/KeW9OkPzalkpQb0yH8qWvJLw7YudsIR1+DM2XP04Wf1LOfA/lPsR0o5nr4FjF0Qu2kSiEv7c4r9aY/t8x8MwvY0iJprzz+3XwNfDBCJl+vnc+pSJy8HdQPVJ27s9nAlXbfdRDco4NZe1AyTW0Hd4TZOysTkAfLBQ2XWrMBxc9AnhKZFXtSpTtFeARqOd999V6wDkYaCb7nlFkuaaljXgs4S8mGdCZP9cPLAMcyVwEsB7OVskK7jN65SJbpkfJ+MmL3jj73X184eJmbIECwQYiK6WQWa07eB2KYDM2GYqR7f6gs/0QEb07S8EOUiCKGCrjOMyKZu7LVux4tAPl7gpZdNuAIY7D94lB54vpzlvH+//rnxrli9CjAg86ghxqWV+66xeSQ4W3Yk03Pvfms5FwYXcmAXxG4a2L1uifV5bViaDu3YII4F4+KFcyJopnoutqRRqdFtmlg+oTPEHsASCquNpG87TNTmhyH2gQQeChDIEKUQx7Vr16Zvv/2WvvvuO6pSpYrwWujRo4c4PtAQcxgc/Pnnn6latWr0/fffi/w4D8dRDsrLDaSePytm7LGue/HwNmKQZHL778Qg4cyedWh273o0p89vwkthetfq4jeEJw48AFZM6iNmx1HfhQPiu9gHQuB9dOT4ld9twM6RPZvFfskrJ/cR2yctHdMpbY37qnnCmwGeDfB2wN7LyIN/ExdG06bYyWJd/OQOVWl860piz3IElQ333jBMTgT9ALdxUiYmjK+//noxeRMKePZh8BAa2ClBrwAdV7jHwXCxVatW9X22G0b1sddvoFFiJuvx4iFmmEhCJ64HFi4s1kKGayk7rLN1XgYdixnR1iJOYqPai5nBUGD/+C3x0y3nopOsBpCzk1PEtZdkRFyDNz762XLew4Uq0LnzgaPBIio+9gdXA0Q5Mez9vGvHPKO9Tl+brxPFbhmY27eB5TnCQJFT9m5cZjkXbsrnzzjzusjOgiynAgGo/h4YEHQKlrOo545qWIZOHU3fkcHLwdGsgp9BhtGDfoDbOCnzrbfeEvngnRMKeCghLyYjnMJqK4Lw4iFmmEhCJ64zYx2N8lTQsfQi6Jjg8mWxbnv3+lixZnT1jMG0bHx3MSMeP7arcMHFZ8yiYOYFEdxXTu4rZgnnDWgoZp1ihrehlVP60dHkdNdWXVCmkw7iApw1Or1TfvzRcl7Tq64SaTmdcMU19puu8mt7yzmw2k17mDlULtPqFT39BDO2/EpNDRyI5dzZo9qdC7AdHdCJYrcMIGCZKqo2L50i0p2AGAPqubCje525V7Ow8Q5Mppw4tIeSE+PE77luzghaNaU/LZvQQ9QpqEPix3WjFZN6G/XNELHFJ/6NGd5WeOdApMMT5+D2dWaJOR8vljoxTG4lq8Q11lDDAw95H374YRE/BW3Vrl27xNId9LGw5Oduo3+DPF988YXwPtKZDlZbEQSLa4bJHDLIld3Gjx/vc2t3YgimhaBhgXA76JiX6MT1sGLFKKpsWauVKUMjS5WioR98QAPeeIO6Pv64CGL39/vv0+QffhBRko9e4a33vMIurjNiDVr3NUuzkrDcX1gfO5r5+2YXxG4aQPRvVRwnTBso0p1wYOtqy7lRf5SmsyfSZyS93NqP8Ue3vvinns1FMDGf7dpK63dtobU7kmjF5nU0d/VS6j9jDD1V9UPLeU9U+Z8ICMowTOSRVeIaedwyHQGvAGsh2cU7dxHoIWAYxhmBxPX69fooxhkFQhpryjEq2q5dOxGICEG0ILKnTZsmXCExs42/jUjXcCnftGmTJTDQlUI3m9+3UCFa2qlT2HY4KfS2SzmBjIjrh178WGzJsyA2IWjbu3huAz9xfeF85tfx6kSxWwYQqVoVsaObfCy24lK5cPY0TWjztfCcQJA+ANd1uxvywiHWHUm8jOHA+MPBuxiGcQMvdEl20DoBrwDByR5//HHzU9rFIjAHk3Nhcc0w7gIRhO0c0EEfM2aMcM2GEG7atKlwOYLL3+jRo0Unf//+/ZkasETQJFXQI0hSdkAnrjvlz+8/c+3QJn33nVlyziWYWzg8DqbNjaNHX/WPEI69rrFPdTCSd8f4ies1K/Wz3HZOHN9Fc6f/TPNn1qRlS9pR4tqhtH9vmvi1C2I3TRI/totFJGMGev3cKCGgAQI/2YW03RD46WJq6CA0jHcEGmTE2mgsZXFqhw4dylSdyDBMziarxTXa46ioKCpRogTde++9YhtRBC/Lb/RhKlSoIGI5ZISAV1DW6OTgAjNqTPaDfxeGyRyIwr112QxaMbEXLRzcTETIjRnRTqwzXDtnuIjUjXWFsA0LxtC6uSNFVFisW57dqy7N6/8HxY3pLI6n7N1mlpqGbpuvSjXaUNtuw0MaZjzt56rbfHkNZvzkdkNYX7hjxw6xPhwDDDC4q2M2HusOMUiLWXisFcdMY7NmzcR5LVu2FOXkBpyuuYaYVvPB7ilQmpauCB5FOzX1DCUs7+EnshfO/pU2rBlCu3fMM0TzMtqXHEfbt0yjlXGdjOM/2fL/ZBxL7zjoRLFbpoKAVmNbfKYVzqEMwfSOH9xtlsRkFV7uoc0wTOTghS5xUiZEtbrH9R133EHly5cXEyP4fOONN1LRokXpH//4h/hcvHhx80xnOP5WKJxnrnM2+A0ZhskMl+nY/h20Y9U8Wj8vyhDZvYVwxvpRzMBBNENMx47qSPMHNhZietHfLUXQsAWDm9LM7rVococqNH9QE7Fty4nDyWa5afvSQnTabdCgQTR58mTHhvXaWNON/WmvBC/9ryrdX7CMxcZOXWgeDc7Q6Fl+5xYuXd08mnMJJ6DZwJHTLHml9R8x1cwRist0PGU7bds8RQjuJQua0PxZtcUM9dzpP4n/Iy1hWXfaummyyItz7OhEsVum4/Kli7Rz9ULxnkBs+YlpQ3RN7fSjCLw3vWsNv+N4t5isQeetgvgJ8xo1CttW9OlDe+LizJIZhokkvNAlTsosVqyYyIftEu0gHbPYEuzUgrRwBDarrQjCi4eYYSIJ3VrD77o0pCWJq/wsNjGBlm5MoLikNbR88zpK2JYoAv3sPJhMR08ep0s2d8iXa5SjhyoVsdgX7evSpLi5PpsIWzqXJiydQ+OWzKKohVOp7/TR1GhoFxEU6M/o/tR7WhRFx8wUf+tKoJtxHzN5gXk0OENGz/Q790rOuHtFOOIaLIpbQ/cUKGU5B9a6a+gtjtza+kwnit0ytzh2YKcYqMKabIZhGCZng3bJbZyUiRlpzFbrwPmquAbYFxvnOCWsb4XgOjfffLOvobYbjo0dO9bMzWQ38BsxDOMeEDbPPPMMXX311SHtwQcfzJV7Oh/Zs1nMwq+c3EeInqVjOlFSzETavmqeWEO7JzGOtq+cI2b0kQf/Ji6Mpk2xk8W2X1hDO751JbHWdvnEXnT62CGz5JxLuOIa7NxzgPK9VN5yHky/HVc6OUVcl2syym9LrMzYD53SthBjGIZhciZol9zGSZmvvvqqyKeLXYN0VVxjTTbS3n33XTMlNI6/1TfffCMKx+b8gejcubPI82Mu2Kc0N4LfhmGYjLPr4HHauf+Y1hav20XFGgyzWInfh9Pqrfu1+WF7D58wS865HDt1luau2k79pqyk1sMXUf2+s+k3wzqOiaXek5ZT/6kraeD0VT7rP20l9Z68nDqOjhX56vSaSU0Gz6cuY+MoeuEGsS9xTqdI2V/o/96q5LOKP1qjWwfi9JmzVLh0Dcu5sF+b9TJz+JNTxHXtnjOoWucpWvuuw0StgK7612RtfliLoc6WHjAMwzDZE7RLbuOkzLNnz1KBAgV8bWOhQoXMI2nnY8114cKFfWuu33jjjbB2Y3H8rfAHSpUqZX4KzMcff0zXX3+9+YnJTjh54BiGYZjMc/bkUREde3Tjj33rhBG8aUb3msK1GUHwsFZ/2bjuYv3wmKblLWuK5/SpT4d2JpqlBSY3uIVjQMUurIs3GE5Hjp8xczAMwzC5DbRLbhNOmQi0Gh0dLQKyShAp/Nlnn6WKFSuKYxnZ0cDxFXzwwQd01VVX0eLFi80Uf7DdDNwf33vvPTOFyU548RAzDMMwVmJGtLUI5YV/o+F21kDb94Me1/Jzungh8NZTLK4ZhmGYnAjaJbfxosxwCesKfv75Z18jjZnshx9+WBj2BJPpP/zwg5mbyW7g92EYhmG8ZW6/BhaBjK3bnJKcGG85F9scnTsdePkAi2uGYRgmJ4J2yW2clKm2i+GYUzL8rbA/6YoVK0TDmVv2Js3thPNgMAzDMBln/5YEmtLxe4tQxpZSa2YNpV1rFokgbysm9aGJ7b6x5JEW3awCbVw0zs8lTRexPiP2bLWS1H/GGF/5dkHspoWCxTXDMEzk4YUucVLm9u3bA9qmTZsoJiZGxBFDwNprrrmG6tatK/bGdgqrrQiCxTXDMEzWceliKp1KOUBHk7fQoR0b6OD2dXR410Y6fnA3XTh7SuQ5d/o47Vy9QOyfPq3zTzT1rx/F3uoSnbhu+Hdn82hgLqSm0mt1PvU7973fK4vjOlHsloWCxTXDMEzkkVXiOhw6dOggygy0dZcOVlsRBItrhmEY7+mQNy81Mepb1UaULEn7ExIyZGeOpkdQ14nrDxtXoTaj+visVVRvajaiBzUY3JG+79aY3vz1M79zYG/+WpG2H9gjytWJYrcsFCyuGYZhIo+cIK5r1qxJN9xwA7355ptmSmhYbUUQLK4ZhmG8RyeuWxiN85958oRtiWPHmqWmoRPXJZp8Tx3HDbTYX+MHUZeJf1OvqSNp8OxxNG7JbIrbuJqOBVi/rRPFblkoWFwzDMNEHlklrufNm5chc0rY3wphy7E/mOT48ePUvn17ql69Og0fPlwcZ7InLK4ZhmG8Rztz/dFHtH/16gzZoQ0bzJIz7hYeCp0odstCweKaYRgm8sgqcY08Tg2z1ggGCnOK4281YcIE3x/q2bOnSOvXr5/4fM8991C9evV8EUt79OghjjPZC/w2DMMwjLfceeedvvZSGnbVOHUqbV11ZmBxzTAMw+QGvNAlbpZ55swZKliwoCizTp06ZmpoHF9Bnjx56NVXXzU/pf3B66+/XnQYsBWI5H//+x/ddttt5icmO+HFQ8wwDMNY8VJcP/fOt3T30x9ZbMzkBebR4AwZPdPv3NdKVBPHdKLYLdOBexHOFmKHDx82z2QYhmFyA6jf3cbtMhs1aiTKvP32282U0Di+Auxn/dprr5mfiGrXri3+GP6oyr///W964IEHzE9MdsKLh5hhGIaxEkhcHzt2jC5cuBC2paammiXrxfWPv/1FvYZMDGnf1v7T71wW1wzDMExWgPrdbbwo88SJE5SYmGh+Co3jK1i8eLHY60tt8N5++23zKNGzzz4r0tCBiI+PN1OZ7IQXDxzDMAxjpXDp6vTgCx/77J1PaptHrBw4lEKTZi6hP9r2p3fL16GHXvpE5C9QtDJ9/Usb6j5wHMWtTKSz586bZ+jF9eBR0+lIyomQ1mvIBL9zWVwzDMMwWQHqd7dxWibalCJFiljaGp2VLl2aTp48aZ7lDNe+FTbevnz5svmJyY7gIWEYhmG85T/FfrQI2Ide/ISeePNL8f+nClei0pUb0sMvVxCf8xj2dtma1LH3aNqyPW1brGCwWzjDMAyTG0D97jZOyhwxYoSvfcFWW+qSLaTde++94v+xsbF01113ibTo6GiR5oSAVwCxnBljsh9OHjiGYRgmc9jFNWayg7F3/2Hq0n8svfHRz5bz3ij1M7XrPoISN+80cxKNGTOGbrzxRl/HAFarVi26dOmSmSMwXbp0oauvvtp3HqKgjhw5UhzTiWK3TAeLa4ZhmMgG9bvbOCkT4hn5kpOTzZR0kC7FNcByLntaKAJeQf78+f1MXUeGxq5w4cJUtGhReuKJJ+iqq64S6Vhz/dZbb5mlMNkJ/D4MwzCMt+hml3/+vQv1HzE1pFWt28HvXDm7rLJx40Z69NFHfW0yrESJEpYAowAeZQ0aNLDk+9e//kUblO29gE4Uu2U6WFwzDMNENqjf3cZJmQi8Dd1qby8BzleFNLafvvbaa+nuu+82U0Lj+Ft9+eWXYrR8165dZoo/aPwQTe2jjz4yU5jshBcPMcMwDGPFK9dtHRCpENWo36Vh6xC01ZUrV7akFy9ePODaMZ0odst0sLhmGIaJbFC/u42TMjt27CjyYderAQMGWJY1I12K64SEBLrvvvtE2qBBg0SaExx/q1tuuYXee+8981Ng3n33Xd6KK5vixUPMMAzDOMfLPZ1btWplcfuG4XPLli3NHIHRiWK3TAeLa4ZhmMgG9bvbOC3zyJEjYhcs5MeAtES2O9LgpX3o0CHzqDMcf6t+/fqJP4ItuSZMmEDnz6dHL8WUORaHSx/2cBZ9M1cO/DYMwzBMziVl7zaa1bMORf1RStjoxuVoxaTetH9LAp09dQx+4GbONFLPn6GjyVsocdFYmti2su+8CW2+ou0r55i5rqy4Pn5sB61a1o3mTPvJsGqOLXZhMzq4f5VZCsMwDJOT8UKXZAetE9YVYNp84MCB9Pzzz4uLV+2VV15hUZ3NyQ4PHMMwDJNxlo3r7hPIsPkDGtGFs+mRTkHq+XO0e10MHdi6hk4dPWC03Zfo8qWLtHb2MMu5Uzr+YOQ9K87RiWK3TLJ10yQ/wbxsSVshtvVcpkMH1tCiOb/5nbcvOc7MwzAMw+REvNAl9jIR8dstcwqrrQiCxTXDMEzu4dLFVDp2YCclJ8bRlvjptGHBGFozayglTB9ECdMG0uoZQ2jd3JGUtGQS7UhYQEkxEyl+XDea3bseTWj7NU3tVI32blwmytKJYrcMJK4b7ieQ9+/Vu4wzDMMwuZ8rIa7x2YkhwNmtt95KN998s98xxBODOSXgt7IXHK4x2Q/+XRiGYXI2EMTq7POoRmVo5ZR+NKdvfRrd5GORNr7VF7R4eBvaZIjqlH3bfMFaUs+doTFNy1vOn9iusjimE8VuGVg0t76fuE5NTZs1ZxiGYSIPL3SJkzIRnAz5SpYsGXQbyzNnzogdsJA3KirKTA2N42+FvcAeeugheuqpp7RT49gWBK7hefLkoU2bNpmpTHaCxTXDMEzOxi6useb63Onj5lErl1Iv0KEd62n9/FE0f2Bjim5WwXIu7EqJ63UJA/3EtXPX7su0Y+sMOrBvJZ05fcgS2ZVhGIbJmWSVuMbuV3fccYf5KTTYZhqz2k5x/K3uuusuev/9981PgSlVqlRYU+fMlYPFNcMwTO4gMTGR2rdvTzVq1KA///yT6tevTw0bNqQ5c+bQuXPnRB4EHp03bx41btxYHO/UqZPIj21IMCCuohPFbpkkaX2Un8BetqQdnTiu3+Lz0qVU2rV9Ls2bUd1yzrwZNQKewzAMw+QMskpcQ88iH9rOUIwePVrkLVSokJkSGsff6uWXXxb7gW3ZssVM8Wf16tX0j3/8g958800zhclOsLhmGIZhdOhEsVtmJ+XoZlqx9C+LYHZiK+O70MkTyWYpDMMwTE4mq8Q1qFixosgLg2f2F1984RukrlKlivDUlsfhmY2dsZzi+FvBDevTTz/1/SGIaFwMDP+X6bVq1TLPYLIb+H0YhmEYxo5OFLtloEPevNTEaIPcsoRBg0S5DMMwTM7EC10Sbplr1qwRohp7XufPn5/uv/9+euGFF+iHH34Qnl8ZIcPfCptvr127ltatW0cpKSlmKpOdYXHNMAzD6NCJYrcM6MT1+K++EscYhmGYyCM7iGsvCPsKduzYQbVr1xZ7Xd97772UL18+4TJer1492rx5s5mLyY6wuGYYhmF06ESxWwZ04rrjQw/R8OLFw7YdCxaIMhmGYZicS1aJa+TJiDnFcU5EAL/ppptE4eXKlaMJEyaImWvY+PHj6ZNPPhHHsD8Yi+zsSTgPBsMwDBM56ESxWwZ04npk6dJ0aOPGsO3ccX10dIZhGCbn4IUucVLm9u3bAxr0bkxMDHXu3JmeeeYZuuaaa6hu3bpBt+yy4/hbYYb6kUceCbkFxhNPPCHyMdkPFtcMwzCMDp0odssAu4UzDMMwKlklrsOhQ4cOosxwtu5yfAXYigvR0kKBSOF33nmn+YnJTrC4ZhiGYXToRLFbBtwOaNbRKI9hGIbJueQEcV2zZk264YYbwtoJy/EVTJ48WVzwP//5TxoyZIglJDn21Bw+fDjlyZNH5IGbOJP9YHHNMAzD6NCJYrcMTO1UjaL+KOVnoxqVpZVT+tGFc6dFPh2p587QmKblLedNbFfZPMowDMPkRLJaXMPVOyoqikqUKCHiiF177bV03XXXiajhFSpUoOnTp5s5wyPsbzVgwAB68sknxcWrBnfwfv36mbmY7Eg4DxzDMAwTOehEsVsG7OJ6VMMyNL1rDUsabNHfLejU0QPiHAmLa4ZhmNyHF7rESZkQ1UWKFPFpWLh8ly9fnpo2bSo+33jjjVS0aFHfVtPFixc3z3QGq60IwskDxzAMw0QeOlHslgG7uB7duBydO50WmOzsyRRaOqYTRTUsbckD8X1oxwYW1wzDMLkQL3SJkzKLFSsm8n3//fdmSjpIxyy2pHv37iItHIGdqW+FP+bkSzDZA/6tGIZhGB06UeyWgWDiWuVS6gXaMH+0n5i2G4trhmGYnI0XusRJmZiRDhSgDOer4hrcfvvt4hynsLiOIPi3YhiGYXToRLFbBpyKazu71y2hSX9+YzkXxuKaYRgmZ+OFLnFS5quvviryde3a1UxJB+mquMaabKS9++67ZkpoWFxHEPxbMQzDMDp0otgtC0b//v3p6quv9vUnEFBG/h8BVOPi4sycDMMwTG7CC13ipEwE5S5QoICvrSlUqJB5JO18rLkuXLiwb831G2+8QampqWaO0LDaiiCcPHAMwzBM5KETxW6Zji5dulhENWYF5C4kCQkJYvtPeeymm26iadOmiWMMwzBM7sALXRJOmRcvXqTo6Ghq0aKFmUIiUvizzz5LFStWFMcuX75sHnGO4yuQjZxTu+aaa8Ti7z179pglMFkNfheGYRiGsaMTxW6ZSqtWreiqq67y6zM4McxqYytQhmEYJueDet1twi0TM9KnTp0yP7mD4ytYt24d3XzzzfTcc89RYmKimZrOrl276K233hKLvjdu3Ejnz5+nX375RXxJhDZnsh4vHmKGYRgm56MTxW4ZaNasGV1//fU+g0vegQPWLbcCsXLlSrrvvvt8595www3UuXNn8yjDMAyTE8kqcY0Z67ffflvkhVWvXt08QtSnTx9furQ333xT6FqnOP5WiKr2wQcfmJ8CU6pUKSGwJThH/cxkHXhAGIZhGMaOThS7ZSoQyugnqLPXJUuWpNWrV5s50ti3bx/9+OOPvjVvyI98K1asMHMwDMMwORkvdImTMt955x2R77fffjNT0hgxYoRIR7uzc+dOkQbXcKRBYDvF8bd65ZVX6LrrrhOz0oHYunWrGFEuWLCgmUL09NNP02OPPWZ+YrISLx5ihmEYJuejE8VuWTBwvESJEn6u4viMpWWhzmcYhmFyJl7oEidlYonRrbfean5K5/777xfnN2/e3ExJ48477/RuK66vvvrK1/Ddcsst9NRTT9ETTzwh3MVletmyZcV0O9zE8RkBS5YtW2aWwGQl+D0YhmEYxo4qht02hmEYhrHjhS5xUiYmgZEvPj7eTCHq1KmTSMMuFdCxEgTfRHrRokXNlNBk+FvBZQtbZCxatIh27NhhpjLZGS8eYoZhGCbnoxPFbhnDMAzD2PFClzgpE/E+brvtNpHXbgsXLjRzkdiSC2mINyZ3s3BC2N8KQrp27dr0/PPPi0228+XLRy+//DLVq1ePNm/ebOZisiN4QBiGYRjGjk4Uu2UMwzAMY8cLXRJOmYgSPmrUKOrZs6eIB+IWjq9g06ZNYq9JXHS5cuVowoQJtHbtWmHjx4+nTz75RByDiziL7OwJi2uGYRhGh04Uu2UMwzAMYyerxbVXOL4CzFA/8sgjITfTxhps5GOyHyyuGYZhGB06UeyWMQzDMIydrBTXhw8fpiJFioj8wax06dJ08uRJ8yxnOP5Wd911l4gYHgqEKkdUNSb7gYeEYRiGYezoRLFbxjAMwzB2vNAlTsqUW27BatasKdzDJUjDsmcQGxsr9C/SsCWXUxx/q8mTJ4vCEUVtyJAhloXd586do+HDh1OePHlEHriJM9kP/DYMwzAMY0cnit0yhmEYhrHjhS5xUibEM/IlJyebKekgXYprcOzYMb+0UIT9rQYMGEBPPvmk+EOqwR28X79+Zi4mO4LfiWEYhmHs6ESxW8YwDMMwdrzQJU7KRKTwq666ik6fPm2mpIPzVSGNyWTsi3333XebKaFhtRVBsLhmGIZhdOhEsVvGMAzDMHaySlx37NhR5Lv++uvFpLEaT0wV1wkJCXTfffeJtEGDBok0JwS8AhSUGWOyH/y7MAzDMDp0otgtYxiGYRg7XugSp2UeOXKEXnvtNZG/YMGCZqq//i1cuDAdOnTIPOoMVlsRBB4ShmEYhrGjE8VuGcMwDMPY8UKXZAetw2orgmBxzTAMw+jQiWK3jGEYhmHsZJW4RhTwjJhTWG1FECyuGYZhGB06UeyWMQzDMIydrBLXyOPUEMwM23HBnMJqK4LAQ8IwDMMwdnSi2C1jGIZhGDte6BI3yzx//jy9+OKLdPXVV9PixYvN1NCw2oogWFwzDMMwOnSi2C1jGIZhGDvZXVyDlJQUUeY999xjpoSG1VYEweKaYRiG0aETxW4ZwzAMw9jJCeK6bdu2osz8+fObKaFhtRVBsLhmGIZhdOhEsVvGMAzDMHaySlwjTzh222230datW82zQ8NqK4LAA8IwDMMwdnSi2C1jGIZhGDte6BInZSYmJga1pKQk2r59O506dco8IzxYbUUQLK4ZhmEYHTpR7JYxDMMwjJ2sEtfh0rlzZ6pXr575KTSstiIIFtcMwzCMDp0odssYhmEYxk5WiesLFy5QmzZtqFixYvT666/TK6+8EtRuuukmUa6a1rx5c7M0f1htRRAsrhmGYRgdOlHsljEMwzCMnawS13nz5hX5HnroIfruu++oWrVqQe3uu+8W+e3pw4YNM0u0wmorgmBxzTAMw+jQiWK3jGEYhmHsZJW4fvDBB0W+uLg4MyU4hQoVouuvv978FBpWWxEEi2uGYRhGh04Uu2UMwzAMYyerxLXXsNqKIFhcMwzDMDp0otgtYxiGYRg7WSmuDx8+TEWKFBH5g1np0qXp5MmT5lnOYLUVQeAhYRiGYRg7OlHsljEMwzCMHS90iZMyR4wY4RPPNWvWtGy5hbR7771X/D82NpbuuusukRYdHS3SnMBqK4Jw8sAxDMMwkYdOFLtlDMMwDGPHC13ipEyIZ+RLTk42U9JBuhTX4NixY35poWC1FUF48RAzDMMwOR+dKHbLGIZhGMaOF7rESZm33XYbXXXVVXT69GkzJR27kD579ixde+21ImK4U1htRRAsrhmGYRgdOlHsljEMwzCMnawS1x07dhT5EAF8wIABdPnyZfOIVVwnJCTQfffdJ9IGDRok0pzAaiuC8OIhZhiGYXI+OlHsljEMwzCMHS90idMyjxw5Qq+99prIX7BgQTM17XzVChcuTIcOHTKPOoPVVgSBh4RhGIZh7OhEsVvGMAzDMHa80CXZQeuw2oogWFwzDMMwOnSi2C1jGIZhGDtZLa7hDo7I4cWKFaM777xTnAu7/fbb6f3336e+fftSamqqmds5rLYiCBbXDMMwjA6dKHbLGIZhGMZOVonrc+fO0auvviryIrAZ9rtu1qwZ9e/fX1jLli3pgw8+oGuuuUbkefzxx0XUcKew2oogWFwzDMMwOnSi2C1jGIZhGDtZJa5feeUVkW/w4MFmSmDGjh0r8qrrskPBaiuCYHHNMAzD6NCJYreMYRiGYexklbi+9dZbxXZcToDr+A033ED//Oc/zZTQ5Bq1df78edq4caOYyoevPG7c008/bR61smrVKho3bpyf1ahRQ7gHLFmyxMxJtGvXLrr//vvpgQceoFatWtHff/9N9erVoxtvvJHy5csn9j/LKAMHDhQPQbly5Wj48OHUvn17uuuuu6hAgQJ06dIlM1ca4eQNBItrhmEYRodOFLtlDMMwDGMnq8T11KlTRb5ChQrRiRMnzFR/9u3bR0888YRwD4+PjzdTQ5Nr1FZcXBytWbPG/ET0+uuvBxTXOqpXr0558uQRodlVzpw5Q8nJyeandLp37y5+mNWrV5sp4TFq1ChxPoQ+UPdYsxNO3mA4eeAYhmGYyEMnit0yhmEYhrHjhS5xUibyuGU6sr3awqzs5s2bLbZz507zaGDCEdeff/652DAcQjoYyIMbCfcAzGJnhi+++EKU8+ijj1KLFi1o1qxZ9Ndff9Edd9wh0tQZ8XDyBiPQQ8AwDMNENjpR7JYxDMMwjB0vdImTMlNSUlwzHdlebV24cMHPfRviMhROxTXEKn6IHTt2mCnOmDx5sjivW7duZkp4VK1aVZy/Z88eMyWN06dPC9f0b775xkwJL6+kSZMmfubkgWMYhmEiD50odssYhmEYxo6qS/B/tyyrybVqy4m4xnpq/Ah//PGHmeLP119/TVdffbXPJVsi/fUbN25splhp166d2CNt4sSJZooVzL5fe+21YtZcpU+fPqJcuIJLwsnLMAzDMAzDMAzDXHlyjbiuVKmSEJqBDEHO7MggYbNnzzZT9Kxfv14EErv77ruFyIV7eMWKFYWLeiA+++wzUXbXrl3NFH+wdhru3Vgsf91114lyMUt99OhRM0c64eRlGIZhGIZhGIZhrizsJ8wwDMMwDMMwDMMwmYTFdSRy7BjRPfcQXXMN0e7dZmKYnD5N9I9/EN11F6bVzUQNr7+OhRREU6aYCQF49920fLC//jITHfLzz+nnNm9uJiqsWEF0443peaRdey3RzJlmJsYHftvHH/e/X1ddRRQdbWYKQrjnv/GGf15pffuambKOY8b7co/xvmArht3m+3LgwAG6/vrrjUtM944pX768OBYOWL6Cc6eEej9cYPr06cLzRr1maW+//bZlSz/Ec3jc+A3t+RDjIdr2G4aTF7xh/N72vNL6Bvm93zXqCJkPXjwMw0QGZcuWFe+9zgMxELGxseIceDWGIpy8V4qOHTuKaypVqpSZEphw8gYC9xhLGV955RVRFgxbzzKMpFq1ar5nIzPbEEcCRu+ViSjOnye677404RKo4oRIwHGjog0I1pojj1GpBwWR9CBikXfhQjNRAduc3XFH2nFpTjrOECPye0C0yXPt4jo1lShv3rRj6vr42rXTzzl0yEzMJNu3p5WHQYcKFYiU/dKznGXLEHae6Lrr0q4RnwPx3HNpedSYBT16pN+vxYvNxACEc/6uXenpY8eaidkH7J9/n/Gc2TsaY8aMEWmwadOmmanhg0iTUvAu1L0fLoG4DfJ6a+PZN8EggUzHdoSS54zfEGlq3Ioexm8o8y5WfsNw8so4F7CxDn9vbIWInRHkeTAW1wwTOUhx/c9//pNOnTollsRhmd6NN95I7733Hm3bts3MiWa+saWusJsaPyecvGXKlBFp+fLlo4MHD9Inn3xCt9xyi7imGjVq0Llz58ycVuQSQdjJkyfN1OBUrlxZ5G/QoIGZEphAeTN6vYsWLfJdbyBxjTr5xx9/pPz584tlihj0KFy4MI0cOdLMkc7GjRuFaL/pppvo/vvvp4YNG9LSpUt9f2P8+PFmzvDKdcpbb70l/g521lGRS0kxaK6C5wvX+OSTT4oB9FtvvVUM7OK+2HF6vR988IH4W6+++qrf81uyZEmxl7IknLzhgv5G3bp16d///rfvev/3v/8ZXVX/vip+l2effVbcAwye9+/fn3766SdxbTAprsO9v5GC0aNlIoo6ddKEzFNPmQkaQonrCxfSZoJvu43o4kUzMQj166eVZ1RAFkaMSEtHOQkJaf+HOek4I0p706ZEWHMuRS1MN3Otggph0iQyavq0/BCcwYiNTS87mKFMAKGOAYdnnrEev/feNHEfqmIsViwtv1GZ0tVXp90b/F+W8/LLZLSKZuYA4BpatEgfVJCG2eSWLYlsUectbN2ant9ogH2g8yLTFXHmR7jnt2mTnl6gQNpACQYnihcnChLTIKNgdhkV/l133SUal4ceekjEMZANBhpUdR/5Osb7gvSnlPdFHdlXDbMfiIyMToT9GM6X/7fPztY33g+ko4EOhJxZCWWT5HPokObG+yLPHT16tEjbavyGMg2dMAk6sDJdCvRw8oI2xu8t0wsYvzdmt/9h/N7Fjd9bF8NihFFHIO9txnuQYNQR8lwW1wwTOUhxjeCyEDrHjx8XW6e+9tprvjoBQkdF1sNOZqOd5JViAYbtUeHpA4Hx4osvijRcm31HF9CsWTPhoQQLtd0r2p7//Oc/orxhw4aZqXpC5c3o9YYS1xDp8ny0SwCD0EWLFvWly+1y27Zt6ytLBg7G34Tgl+lycDqccsMhHPGntk+DBw8WadixSF4DBgcumn3ecK5XfX7hJXbkyBEhnAsVKiTSYfv37w87bzhIYYz2ds2aNWYqHD9/Fun/+te/fH0fKfDRPq9cuVKk4V+cK6+BxXVwjB4tE1GgA2888KTMUhk1Q7rACWay4y4FUevWaZ9BzZrYM8xq0uV8wYL0MmJi0tIws4vPb76Z5lYOQSjzhNtxDkdcG0JKCFbkxYw5vouXYCBiyBAiuLPJazQrYi1SXENkHj5sJhrA4+DOO9OOGRVuQNR7ccMNRJ07YyjWPOgAdZCjbl0z0QAdF5lepYqZqCHc8/Ec4jcxKmjCLIHRaRLPlcwbpLOTEaS4hh1W7m9UVJQvXR1Jh+BFmjqrCyBEZX7ZOYD7OBojpH300UciTdKpUydffru4XmC8H/JYjHw/PGbGjBli73z8TTSY6qy5KmIxyi1B51WmVzF/w3DyAtxHDGagQcasEDrJrY3fW+ZVO7cVjDoCaW8adQQa/UNGHSHzsbhmmMhBCg7UWSpDjLZV1gnz5s0zU9PATB/S1TolEE7ySrGAmTwVBMSV1wD37Ixy4sQJId4gqlZgKVsQnOTN6PUGE9dYFiWPQbCrxMXF+Y79/vvvIk0KQlyrit3zK9xywyEc8YdZaqS9jEmMIIR7vfL5xW+hDt7rnt9w8joFS7fkucEMfRM1LwI3q0ghDmNxHRyj98pEFHLGtlEjM0FDsJlrrMuEUMTMNYSjRBWP0qRLFf6VaXDnxpZiar5ABqHohHDEtQTfA40OzjEqs4CEM/CA+zFgANFrr1mPoUOAvchXrzYLDYIU1/id7GBmF8f+9S8zIQibNmGoEq2F9Vrgst29O1GgEXRUmEaDLfKqjUZ8fHoZXbqYiRoye77kvffS8mIgxEWkuL755pvNlDTQwMtGQ87gAjmj0cj2vujE9YYNG3xp9k6AKqDt4hoiUx4LtPbarZlrXIcU1XBHx6CCHTSa6LQhj9pxiDd+Q/l3upi/YTh5gwHXTuTFDDXAtoPy/GC23WkdwTBMjkUKDvuaa4g/WRfYBYes54IJZomTvFIswNRZ8gFGmy/TM7otalJSks9NFy7cwXCaN6PXG0xcp6am+tpEzMSrSC8jGIQggEcSPqONwICARPWYQvsZbrnhAJd0nIulRSovvfSSSFfFH9ygkQbPNjlDDTCIjEFgGGbew73ecJ7fjDzrTnjggQfEuQULFjRTAnPnnXeKvPByUMFAt7wGKa7Dub+RhNF7ZSKKokXTREswQRlMXGMmFMeaNDETHACXJZyD2VgEU1u3jmjWLKsh8BHywH74IS3NfHmFYMVMOMSijmDiGiJSzvgalQthVhLrS9QAav36mZkzibwOiGuIFqz3DhcprmEQ01gbDZdq/F4yHeuXwwWDCRMmEP33v2llBFtzDSEp/1aHDmhtiTAqic/58qWVJdH9NuGcjxFipGOwBvcM3/WXX9LPx0CAi4QrrqWLFxo8FZ24BiVKlPClowOxadMmGjRokFjrJtPt4houfUjHrDdmv73iww8/9F0DRuZ79uxpsfnz55s58RM28uXtYPyG6HBhZBqf4dKnBj8LJy/+LtIxUwRhD/fxX4zfW57f3fy91xl1xCyjDlANwdFkvh+MOgJpsoFnGCb3khHBoQ7QQTRBBGAmtVatWmaOdJzklWIVnj5YswrxoAZy/Prrr82cVkKtucaAKI5h6RBEWzDCyRvO9X766afiO8PUZU/yXsDatWsn8iJuBmaiZdnPP/+8EKPyHLQlkr1794rfTB7DsiuIMOnODpPtZzjlqoS6v+rANmam4WqNa5BttSr+4H4N8Yl0tMfPPPMM5c2b13e+OhgRzvVeCXEd6j5g2148BziOwQ5cL54J6W2neudh9h33BemYQUdcFQxAvaYsw5BLHMK5v5GE0XtlIgp0oI0HXphR8YUN1g5fd13gmU8dchYSoikQwdzCjUpDpNvcm3w4mbnGzCnW8cI9CeVgTTRcopysGb+SSHGN9dKY6S5SJO16cd+xptVhQJRMgzU9aHyx3ht/HyOYiru0j0C/jdPzQWJi2oAOhDfyGg0ANWsWem15BghXXENwynR0FCSBxDXArC1cpSAgsR893KXVctBIqshZW4hMr8B++/LvB7Jv4F2hgHVd6IAhmAoaWIxiqy7zKuHkTTR+b/wOEN7IiwYf6xIDBdiRsFs4wzBZhRSrOUUsZOfrhfCUdTnaS4bJbRi9YibikGumbespPGHcuLS/ZXMvYQKgimsmWyCDnNjXH+mQbmWw4cOHi1lbCM+PP/5YpGHEWBXp44z3A+l29yuGYRjMINZQAAAKGUlEQVQm+8DiOnywflcG88TsLiJTY1cJfIZhVwmGyY2wuI5U4JpqVG6WoGRug3W/cAU3KlTGISyusyVw5UZnAGuuQoFtOIoUKSK2PEHHBrPkcMFq3769xZUPLuNwyUKHg2EYhmEYhsn5sLhmGIZhGIZhGIZhmEzC4pphGIZhGIZhGIZhMgmLa4ZhGIZhGIZhGIbJJCyuI4jly5e7atkFbE+B7RMQeRhbAGBLArktAdKyimXLlolrgAXaRiI7EuzebdmyRQQpkWSH+3wlGDx4sPief/zxh/iMaOD4jC2n3Gbt2rWi7JIlS5op3oN9PPH38P4gyjn2s5w7d655VM/58+cpf/784lqx7ZgObJmF4zqzb0mGrbVwX7F/KPa7xtZhK1asMI9aQTqOY+9OPHsIkiO38QoG9sWW26JxxHGGYRiGYdyGxXUEoRPImbHMsm/fPiFWkpOTzZTwUbdQQlRndPixVzD2AUTnfeDAgWbOK09OFde6e4ffSX4X/G6S7HCfvaZFixbie6ti10txDYYMGSLKx6CR13zwwQfib9155500efJkIarvuecekYZtsuycOHHCF4lWWiBxDbGO4+XKlRPbgam2fv16kQeDNQj+hnzYV3Tx4sVi72/smYm0Rx55hC4qW+a9++67Ih0ifObMmbRz505fGiLSHjlyxMxppX///iKPNBbXDMMwTHYCW1Jiu8rffvtNtGeyvapataqZI2NgX2q0r2obqFqTJk3MnOFTvHhxbZkYJN+6dauZK7JgcR1B6ARyZkxHbGys9iWzG2abIaqvu+46Szo2tcc+wBDJoXjllVcs50rDNdhnVNWONSI5S8aOHetLx37Dly9fNo8QrVy5UlQa2MwfG+hD6HTu3Flsr2QHm+6/8847osMPkVK5cmWaPn26r+xQ4rpYsWIi3/vvv08zZsyg119/XcwgQuRUq1aNjh8/buZM5+zZsyJ6NbZ/krN9RYsWpQkTJpg50jl58iTVqVNHiEHccxj+j72VT506ZeZKw37vcE3ye0jDjCUINHMdzrXJvafxnXEf8fcgrDDDCEG7efNmM2fmCfdvQbwhP6J+Hz161Ey1iuuYmBhRHp4R7GuN2dqUlBQzZzqYbcUzhujhEJN4RiAMUQ7MPpP79ttvi3TkC0Q471swcB0HDhwwP5FoyHEevjeeHUnjxo1F+oMPPigEsCxfJ66nTJniO7569WrxTqsiWTJo0CBLPon6/mCAQ4IZa6Tht5RgQEDmxSy8Hfy2OIbfSeZjcc0wDMN4CYSybHNq1aplpqaB9k4ea9mypUirUKGC6Nuir4l+lDyeWXENzy4MilepUsXSz/388899fwMCPFx++ukncS76PxgYkHz55ZciHX0/9e9FCiyuIwidQM6M6Th48KCYxQxlu3fvNs9IZ+nSpeLFx8soX3aM3K1Zs8bMYQUVAYS4zIs9gyEEIH51ou/w4cN0//33i3QIYHW0LTo62sxF4vzHHntMpONf/H3MrqHyk/khuiRS5GNbJQgkiFXM6N59992+/E7FNeyLL76gCxcuiPR69er50jt16iTSgBQ/MNwzCAoIDGz5JNMhbgBmmmUahIwEM/0QSRAre/bsMVP9BTO+D4S5LCMpKckn9nX3OZxrA1LwwmrWrOmriD/55BNfOp4NNwj3b7366qsiDftUq0hxDfvoo4/EPYY4lftZw9Tfq3DhwiINz8iAAQPE84RnRM4Qw+ziesSIEb5jEL86MvO+6YD4l38T74d94EUFLtYyr05cy2dDZ3g3duzYIfJhIAIDMEjHABXuDWbHVSFsv/94n+QxaXANtw+OHDp0iPLkySOO4xx8lvlZXDMMwzBe06dPH1+7s2TJEpGGvodcVoX+nw5s3SnPy6y4tgOvT+lZhkkBtQ8YDi+88IIo4+WXXzZT0ujWrZvv2jFRFWmwuI4gdAI5M6YjozNpGzZsoNq1a/s6wtIgYoK99KNHj/blRWUhCTSjCtR1oBA36swcUGfkAhnEEli1apUvzS4wMAMtjzkV17geO5jNx7GHH35YfIZYleU2atRIpKkUKFBAHMuXL5+ZQvTtt9/6zpGGgQvM3M6ZM8fMlYbu3v3+++++81S3cHvejFybFLyYTVeZOnWqryz8zm4Q7t+Sok+utZZIcf3QQw+ZKenIgZknnnhCfFbvCWZ+VeACLY/ZxbX6bI0fP95MteLWzLVEziy3bdvWdy7eBx2hxHUg/u///k+cg/XSKnCFxzH8Nk899ZQYFJDlY5AGYEBNdgjgNYCBLwz0NGjQwJd34sSJIi+8JPAZI+oYEAIsrhmGYZgrjewr5c2bVwhreCTiM4StnEyx47a4Pn/+vJgZl2V+/fXXlhg6GQED4ijrySefNFPSUCejdu3aZaZGDiyuIwidQM6M6cBMGkRCKMPLpnbOYZhFbdWqlZhhdkq44hrly/yYRcS/6OSr6zTx3WSe9u3bm6lpM9pwVVUrCqzvvvrqq0Ve/E0VuOHIcsKZuY6PjzdT/Wf1AGYT8b2Q9sYbb4g0Ca4N4gTH1DXCGKCAiMa5EFAQbhC/8m9+//33Zk79vVPXXO/du9dM9c+bkWuTghfu0irqenq3xbXTvyVHljHLrSLFNZ6hTZs2malp3hHyO2LmF6Dxks/af//7X5Emkeu5YXgvVFRX50Az9+G8bzpw7XiusLZaFdF4H+Q1lypVyky1Ekxc4zvjmX7uueeoYcOGZmraO4RBIpzz4osvijS4vv3666/06aef0vDhw0UaUAW+/P7r1q3zpbVr106kATzTMlBZ2bJlRZp8NkMZvgfDMAzDeIU6U402VbY/cBsPRDjiulmzZsLbC6Zz71a9vbAcEJMkdoP4thOqXHWAv379+qIPBK882W9V+5aRBIvrCMIujjNrmQUzTpktx6m4xloQGcwB4gfBlNDRl26/MFVcoKxrr73Wd0wNLAE3cLWSQXRnGXwJhpFJnCtd0GFOxTUqJLUsaa+99ppldBPiB7N79nzS1JlWCA+5ThUGt3sMKEjxhNly1W1YJ65HjRrlOx+G2UCgyxvOtYHsLK7lAISchZZIcY10rI2X50pDQ4SGUYLZa9nYqIbRXvn/fv36mbnTkEsC7H/bbSBo5bNgNwwQ6NZJg1Az11hjrrs3MKwnV59nXIMuH5ZvqOuwAbwM1PdRNcRFCDYSzzPXDMMwTFawbds2S1uLJWJ27MFCdaYT2upgst0bE8DTSy1DZ2ofWhKqXIC+DvoAjz/+uGibseyrYsWKET1wzeI6grCL48wa4x5SXEOYM9kHjDYjWjV+m0Du0U7ALDQGYbCWWAXeBLLhQqRuCQaDMACAdHgZMAzDMAzDMNkfFtcRhE4gZ8YY92BxnX3BaC3WRWG2PtA2T6FQA5rozB4RXD4PauA8hmEYhmEYJnvD4jqC0AnkzBjDMAzDMAzDMAyTBotrhmEYhmEYhmEYhskURP8PPKk/HWCpW6YAAAAASUVORK5CYII=;" parent="1" vertex="1">
          <mxGeometry y="80" width="983" height="559" as="geometry" />
        </mxCell>
        <mxCell id="8GsPA1i8GMfUZvYTDuRH-3" value="&lt;font style=&quot;font-size: 20px;&quot; face=&quot;Times New Roman&quot;&gt;Лого сайта Nε-ацетилирования лизина&lt;br&gt;&lt;/font&gt;" style="rounded=0;whiteSpace=wrap;html=1;strokeColor=none;" parent="1" vertex="1">
          <mxGeometry x="130" y="80" width="820" height="40" as="geometry" />
        </mxCell>
        <mxCell id="8GsPA1i8GMfUZvYTDuRH-4" value="&lt;font style=&quot;font-size: 20px;&quot; face=&quot;Times New Roman&quot;&gt;Перепредставленные&lt;br&gt;&lt;/font&gt;" style="rounded=0;whiteSpace=wrap;html=1;strokeColor=none;rotation=90;" parent="1" vertex="1">
          <mxGeometry x="865.95" y="206.81" width="212.12" height="40" as="geometry" />
        </mxCell>
        <mxCell id="8GsPA1i8GMfUZvYTDuRH-5" value="&lt;font style=&quot;font-size: 20px;&quot; face=&quot;Times New Roman&quot;&gt;Недопредставленные&lt;br&gt;&lt;/font&gt;" style="rounded=0;whiteSpace=wrap;html=1;strokeColor=none;rotation=90;" parent="1" vertex="1">
          <mxGeometry x="863.5" y="458.5" width="217" height="40" as="geometry" />
        </mxCell>
        <mxCell id="8GsPA1i8GMfUZvYTDuRH-6" value="&lt;font style=&quot;font-size: 20px;&quot; face=&quot;Times New Roman&quot;&gt;http://plogo.uconn.edu&lt;br&gt;&amp;nbsp;&amp;nbsp;&amp;nbsp;&amp;nbsp;&amp;nbsp;&amp;nbsp;&amp;nbsp;&amp;nbsp;&amp;nbsp;&amp;nbsp;&amp;nbsp;&amp;nbsp;&amp;nbsp;&amp;nbsp;&amp;nbsp;&amp;nbsp;&amp;nbsp;&amp;nbsp;&amp;nbsp;&amp;nbsp;&amp;nbsp;&amp;nbsp;&amp;nbsp;&amp;nbsp;&amp;nbsp; v1.2.0&lt;br&gt;&lt;/font&gt;" style="rounded=0;whiteSpace=wrap;html=1;strokeColor=none;" parent="1" vertex="1">
          <mxGeometry x="680" y="590" width="250" height="40" as="geometry" />
        </mxCell>
        <mxCell id="8GsPA1i8GMfUZvYTDuRH-9" value="&lt;div align=&quot;left&quot;&gt;&lt;font style=&quot;font-size: 20px;&quot; face=&quot;Times New Roman&quot;&gt;n(fg) = 20054&lt;/font&gt;&lt;/div&gt;&lt;div align=&quot;left&quot;&gt;&lt;font face=&quot;Times New Roman&quot; style=&quot;font-size: 20px;&quot;&gt;n(bg) = 315984&lt;br&gt;&lt;/font&gt;&lt;/div&gt;" style="rounded=0;whiteSpace=wrap;html=1;strokeColor=none;" parent="1" vertex="1">
          <mxGeometry x="430" y="588" width="150" height="50" as="geometry" />
        </mxCell>
        <mxCell id="8GsPA1i8GMfUZvYTDuRH-11" value="&lt;div align=&quot;left&quot;&gt;&lt;b&gt;&lt;font style=&quot;font-size: 20px;&quot; face=&quot;Times New Roman&quot;&gt;=&amp;gt; Зафиксированная позиция&lt;br&gt;&lt;/font&gt;&lt;/b&gt;&lt;/div&gt;" style="rounded=0;whiteSpace=wrap;html=1;strokeColor=none;" parent="1" vertex="1">
          <mxGeometry x="146" y="611" width="284" height="25" as="geometry" />
        </mxCell>
        <mxCell id="8GsPA1i8GMfUZvYTDuRH-7" value="&lt;font style=&quot;font-size: 20px;&quot; face=&quot;Times New Roman&quot;&gt;&lt;b&gt;&lt;font color=&quot;#ff0000&quot;&gt;(+/-)4.13 =&amp;gt; p &amp;lt; 0.05&lt;/font&gt;&lt;br&gt;&lt;/b&gt;&lt;/font&gt;" style="rounded=0;whiteSpace=wrap;html=1;strokeColor=none;" parent="1" vertex="1">
          <mxGeometry x="120" y="590" width="310" height="20" as="geometry" />
        </mxCell>
        <mxCell id="8GsPA1i8GMfUZvYTDuRH-13" value="&lt;div align=&quot;left&quot;&gt;&lt;font style=&quot;font-size: 20px;&quot; face=&quot;Times New Roman&quot;&gt;-173.66&lt;/font&gt;&lt;/div&gt;" style="rounded=0;whiteSpace=wrap;html=1;strokeColor=none;" parent="1" vertex="1">
          <mxGeometry x="34" y="563" width="80" height="30" as="geometry" />
        </mxCell>
        <mxCell id="8GsPA1i8GMfUZvYTDuRH-14" value="&lt;div align=&quot;left&quot;&gt;&lt;font style=&quot;font-size: 20px;&quot; face=&quot;Times New Roman&quot;&gt;+173.66&lt;/font&gt;&lt;/div&gt;" style="rounded=0;whiteSpace=wrap;html=1;strokeColor=none;" parent="1" vertex="1">
          <mxGeometry x="34" y="97" width="80" height="30" as="geometry" />
        </mxCell>
        <mxCell id="8GsPA1i8GMfUZvYTDuRH-15" value="&lt;div align=&quot;left&quot;&gt;&lt;font color=&quot;#ff0000&quot; style=&quot;font-size: 20px;&quot; face=&quot;Times New Roman&quot;&gt;+4.13&lt;/font&gt;&lt;/div&gt;" style="rounded=0;whiteSpace=wrap;html=1;strokeColor=none;" parent="1" vertex="1">
          <mxGeometry x="34" y="307" width="80" height="30" as="geometry" />
        </mxCell>
        <mxCell id="8GsPA1i8GMfUZvYTDuRH-16" value="&lt;div align=&quot;left&quot;&gt;&lt;font color=&quot;#ff0000&quot; style=&quot;font-size: 20px;&quot; face=&quot;Times New Roman&quot;&gt;-4.13&lt;/font&gt;&lt;/div&gt;" style="rounded=0;whiteSpace=wrap;html=1;strokeColor=none;" parent="1" vertex="1">
          <mxGeometry x="34" y="365" width="80" height="30" as="geometry" />
        </mxCell>
        <mxCell id="8GsPA1i8GMfUZvYTDuRH-17" value="&lt;div align=&quot;left&quot;&gt;&lt;font style=&quot;font-size: 20px;&quot; face=&quot;Times New Roman&quot;&gt;-15&lt;/font&gt;&lt;/div&gt;" style="rounded=0;whiteSpace=wrap;html=1;strokeColor=none;" parent="1" vertex="1">
          <mxGeometry x="167" y="336" width="65" height="33" as="geometry" />
        </mxCell>
        <mxCell id="8GsPA1i8GMfUZvYTDuRH-18" value="&lt;div align=&quot;left&quot;&gt;&lt;font style=&quot;font-size: 20px;&quot; face=&quot;Times New Roman&quot;&gt;&amp;nbsp;0.00&lt;/font&gt;&lt;/div&gt;" style="rounded=0;whiteSpace=wrap;html=1;strokeColor=none;" parent="1" vertex="1">
          <mxGeometry x="34" y="336.57" width="80" height="30" as="geometry" />
        </mxCell>
        <mxCell id="8GsPA1i8GMfUZvYTDuRH-19" value="&lt;div align=&quot;left&quot;&gt;&lt;font style=&quot;font-size: 20px;&quot; face=&quot;Times New Roman&quot;&gt;-12&lt;/font&gt;&lt;/div&gt;" style="rounded=0;whiteSpace=wrap;html=1;strokeColor=none;" parent="1" vertex="1">
          <mxGeometry x="238" y="336" width="60" height="33" as="geometry" />
        </mxCell>
        <mxCell id="8GsPA1i8GMfUZvYTDuRH-21" value="&lt;div align=&quot;left&quot;&gt;&lt;font style=&quot;font-size: 20px;&quot; face=&quot;Times New Roman&quot;&gt;-9&lt;/font&gt;&lt;/div&gt;" style="rounded=0;whiteSpace=wrap;html=1;strokeColor=none;" parent="1" vertex="1">
          <mxGeometry x="290" y="336" width="50" height="33" as="geometry" />
        </mxCell>
        <mxCell id="8GsPA1i8GMfUZvYTDuRH-22" value="&lt;div align=&quot;left&quot;&gt;&lt;font style=&quot;font-size: 20px;&quot; face=&quot;Times New Roman&quot;&gt;-6&lt;/font&gt;&lt;/div&gt;" style="rounded=0;whiteSpace=wrap;html=1;strokeColor=none;" parent="1" vertex="1">
          <mxGeometry x="360" y="336" width="50" height="33" as="geometry" />
        </mxCell>
        <mxCell id="8GsPA1i8GMfUZvYTDuRH-23" value="&lt;div align=&quot;left&quot;&gt;&lt;font style=&quot;font-size: 20px;&quot; face=&quot;Times New Roman&quot;&gt;-3&lt;/font&gt;&lt;/div&gt;" style="rounded=0;whiteSpace=wrap;html=1;strokeColor=none;" parent="1" vertex="1">
          <mxGeometry x="429" y="336" width="50" height="33" as="geometry" />
        </mxCell>
        <mxCell id="8GsPA1i8GMfUZvYTDuRH-24" value="&lt;div align=&quot;left&quot;&gt;&lt;font style=&quot;font-size: 20px;&quot; face=&quot;Times New Roman&quot;&gt;0&lt;/font&gt;&lt;/div&gt;" style="rounded=0;whiteSpace=wrap;html=1;strokeColor=none;" parent="1" vertex="1">
          <mxGeometry x="500" y="336" width="50" height="33" as="geometry" />
        </mxCell>
        <mxCell id="8GsPA1i8GMfUZvYTDuRH-25" value="&lt;div align=&quot;left&quot;&gt;&lt;font style=&quot;font-size: 20px;&quot; face=&quot;Times New Roman&quot;&gt;+3&lt;/font&gt;&lt;/div&gt;" style="rounded=0;whiteSpace=wrap;html=1;strokeColor=none;" parent="1" vertex="1">
          <mxGeometry x="567" y="336" width="50" height="33" as="geometry" />
        </mxCell>
        <mxCell id="8GsPA1i8GMfUZvYTDuRH-26" value="&lt;div align=&quot;left&quot;&gt;&lt;font style=&quot;font-size: 20px;&quot; face=&quot;Times New Roman&quot;&gt;+6&lt;/font&gt;&lt;/div&gt;" style="rounded=0;whiteSpace=wrap;html=1;strokeColor=none;" parent="1" vertex="1">
          <mxGeometry x="636" y="336" width="50" height="33" as="geometry" />
        </mxCell>
        <mxCell id="8GsPA1i8GMfUZvYTDuRH-27" value="&lt;div align=&quot;left&quot;&gt;&lt;font style=&quot;font-size: 20px;&quot; face=&quot;Times New Roman&quot;&gt;+9&lt;/font&gt;&lt;/div&gt;" style="rounded=0;whiteSpace=wrap;html=1;strokeColor=none;" parent="1" vertex="1">
          <mxGeometry x="705" y="336" width="50" height="33" as="geometry" />
        </mxCell>
        <mxCell id="8GsPA1i8GMfUZvYTDuRH-28" value="&lt;div align=&quot;left&quot;&gt;&lt;font style=&quot;font-size: 20px;&quot; face=&quot;Times New Roman&quot;&gt;+12&lt;/font&gt;&lt;/div&gt;" style="rounded=0;whiteSpace=wrap;html=1;strokeColor=none;" parent="1" vertex="1">
          <mxGeometry x="778" y="336" width="50" height="33" as="geometry" />
        </mxCell>
        <mxCell id="8GsPA1i8GMfUZvYTDuRH-29" value="&lt;div align=&quot;left&quot;&gt;&lt;font style=&quot;font-size: 20px;&quot; face=&quot;Times New Roman&quot;&gt;+15&lt;/font&gt;&lt;/div&gt;" style="rounded=0;whiteSpace=wrap;html=1;strokeColor=none;" parent="1" vertex="1">
          <mxGeometry x="847" y="336" width="50" height="33" as="geometry" />
        </mxCell>
        <mxCell id="8GsPA1i8GMfUZvYTDuRH-12" value="&lt;font style=&quot;font-size: 20px;&quot; face=&quot;Times New Roman&quot;&gt;Логарифм отношения биномиальной вероятности наступления и ненаступления события&lt;br&gt;&lt;/font&gt;" style="rounded=0;whiteSpace=wrap;html=1;strokeColor=none;rotation=-90;" parent="1" vertex="1">
          <mxGeometry x="-199.63" y="325" width="445.63" height="40" as="geometry" />
        </mxCell>
      </root>
    </mxGraphModel>
  </diagram>
</mxfile>
